<?xml version="1.0" encoding="UTF-8" standalone="no"?>
<!-- Created with Inkscape (http://www.inkscape.org/) -->

<svg
   version="1.0"
   width="96"
   height="96"
   id="svg2408"
   style="display:inline"
   sodipodi:docname="document-export.svg"
   inkscape:version="1.2.2 (b0a8486541, 2022-12-01)"
   xmlns:inkscape="http://www.inkscape.org/namespaces/inkscape"
   xmlns:sodipodi="http://sodipodi.sourceforge.net/DTD/sodipodi-0.dtd"
   xmlns:xlink="http://www.w3.org/1999/xlink"
   xmlns="http://www.w3.org/2000/svg"
   xmlns:svg="http://www.w3.org/2000/svg"
   xmlns:rdf="http://www.w3.org/1999/02/22-rdf-syntax-ns#"
   xmlns:cc="http://creativecommons.org/ns#"
   xmlns:dc="http://purl.org/dc/elements/1.1/">
  <sodipodi:namedview
     id="namedview15503"
     pagecolor="#ffffff"
     bordercolor="#666666"
     borderopacity="1.0"
     inkscape:showpageshadow="2"
     inkscape:pageopacity="0.0"
     inkscape:pagecheckerboard="0"
     inkscape:deskcolor="#d1d1d1"
     showgrid="false"
     inkscape:zoom="2.4583333"
     inkscape:cx="39.661017"
     inkscape:cy="48"
     inkscape:window-width="1872"
     inkscape:window-height="1011"
     inkscape:window-x="48"
     inkscape:window-y="0"
     inkscape:window-maximized="1"
     inkscape:current-layer="layer3" />
  <defs
     id="defs2410">
    <linearGradient
       id="linearGradient3637">
      <stop
         id="stop3639"
         style="stop-color:#f0f0f0;stop-opacity:1"
         offset="0" />
      <stop
         id="stop3641"
         style="stop-color:#dcdcdc;stop-opacity:1"
         offset="1" />
    </linearGradient>
    <linearGradient
       x1="45.447727"
       y1="92.539597"
       x2="45.447727"
       y2="7.0165396"
       id="ButtonShadow"
       gradientUnits="userSpaceOnUse"
       gradientTransform="scale(1.0058652,0.994169)">
      <stop
         id="stop3750"
         style="stop-color:#000000;stop-opacity:1"
         offset="0" />
      <stop
         id="stop3752"
         style="stop-color:#000000;stop-opacity:0.58823532"
         offset="1" />
    </linearGradient>
    <linearGradient
       id="linearGradient3737">
      <stop
         id="stop3739"
         style="stop-color:#ffffff;stop-opacity:1"
         offset="0" />
      <stop
         id="stop3741"
         style="stop-color:#ffffff;stop-opacity:0"
         offset="1" />
    </linearGradient>
    <linearGradient
       id="linearGradient3700">
      <stop
         id="stop3702"
         style="stop-color:#2276c5;stop-opacity:1"
         offset="0" />
      <stop
         id="stop3704"
         style="stop-color:#68baf4;stop-opacity:1"
         offset="1" />
    </linearGradient>
    <filter
       color-interpolation-filters="sRGB"
       id="filter3174"
       x="-0.047720931"
       y="-0.048282354"
       width="1.0954419"
       height="1.0965647">
      <feGaussianBlur
         id="feGaussianBlur3176"
         stdDeviation="1.71" />
    </filter>
    <linearGradient
       x1="36.357143"
       y1="6"
       x2="36.357143"
       y2="63.893143"
       id="linearGradient3188"
       xlink:href="#linearGradient3737"
       gradientUnits="userSpaceOnUse" />
    <radialGradient
       cx="48"
       cy="90.171875"
       r="42"
       fx="48"
       fy="90.171875"
       id="radialGradient3619"
       xlink:href="#linearGradient3737"
       gradientUnits="userSpaceOnUse"
       gradientTransform="matrix(1.1573129,0,0,0.99590774,-7.5510206,0.19713193)" />
    <linearGradient
       x1="48"
       y1="90"
       x2="48"
       y2="5.9877172"
       id="linearGradient2843"
       xlink:href="#linearGradient3700"
       gradientUnits="userSpaceOnUse"
       gradientTransform="translate(0,100)" />
    <clipPath
       id="clipPath3625">
      <path
         d="M 0,0 0,96 96,96 96,0 0,0 z m 12,6 72,0 c 3.324,0 6,2.676 6,6 l 0,72 c 0,3.324 -2.676,6 -6,6 L 12,90 C 8.676,90 6,87.324 6,84 L 6,12 C 6,8.676 8.676,6 12,6 z"
         inkscape:connector-curvature="0"
         id="path3627"
         style="fill:#ffffff;fill-opacity:1;stroke:none" />
    </clipPath>
    <linearGradient
       x1="44.512066"
       y1="6"
       x2="44.512066"
       y2="90.015434"
       id="linearGradient3643"
       xlink:href="#linearGradient3637"
       gradientUnits="userSpaceOnUse" />
    <clipPath
       id="clipPath3649">
      <rect
         width="76"
         height="76"
         rx="4"
         ry="4"
         x="10"
         y="10"
         id="rect3651"
         style="fill:#ffffff;fill-opacity:1;fill-rule:nonzero;stroke:none" />
    </clipPath>
    <filter
       color-interpolation-filters="sRGB"
       id="filter3657"
       x="-0.035076923"
       y="-0.035076923"
       width="1.0701538"
       height="1.0701538">
      <feGaussianBlur
         id="feGaussianBlur3659"
         stdDeviation="1.14" />
    </filter>
    <linearGradient
       id="linearGradient4081">
      <stop
         id="stop4083"
         style="stop-color:#aaaaaa;stop-opacity:1"
         offset="0" />
      <stop
         id="stop4085"
         style="stop-color:#f0f0f0;stop-opacity:1"
         offset="1" />
    </linearGradient>
    <linearGradient
       x1="36.357143"
       y1="6"
       x2="36.357143"
       y2="63.893143"
       id="linearGradient3188-0"
       xlink:href="#linearGradient3737-0"
       gradientUnits="userSpaceOnUse" />
    <linearGradient
       id="linearGradient3737-0">
      <stop
         id="stop3739-0"
         style="stop-color:#ffffff;stop-opacity:1"
         offset="0" />
      <stop
         id="stop3741-7"
         style="stop-color:#ffffff;stop-opacity:0"
         offset="1" />
    </linearGradient>
    <radialGradient
       cx="48"
       cy="90.171875"
       r="42"
       fx="48"
       fy="90.171875"
       id="radialGradient3619-5"
       xlink:href="#linearGradient3737-0"
       gradientUnits="userSpaceOnUse"
       gradientTransform="matrix(1.1573129,0,0,0.99590774,-7.551021,0.1971319)" />
    <linearGradient
       x1="45.447727"
       y1="92.539597"
       x2="45.447727"
       y2="7.0165396"
       id="ButtonShadow-0"
       gradientUnits="userSpaceOnUse"
       gradientTransform="matrix(1.0058652,0,0,0.994169,100,0)">
      <stop
         id="stop3750-8"
         style="stop-color:#000000;stop-opacity:1"
         offset="0" />
      <stop
         id="stop3752-5"
         style="stop-color:#000000;stop-opacity:0.58823532"
         offset="1" />
    </linearGradient>
    <linearGradient
       x1="32.251034"
       y1="6.1317081"
       x2="32.251034"
       y2="90.238609"
       id="linearGradient3780"
       xlink:href="#ButtonShadow-0"
       gradientUnits="userSpaceOnUse"
       gradientTransform="matrix(1.0238095,0,0,-1.0119048,-1.1428571,98.071429)" />
    <linearGradient
       x1="32.251034"
       y1="6.1317081"
       x2="32.251034"
       y2="90.238609"
       id="linearGradient3772"
       xlink:href="#ButtonShadow-0"
       gradientUnits="userSpaceOnUse"
       gradientTransform="matrix(1.0238095,0,0,-1.0119048,-1.1428571,98.071429)" />
    <linearGradient
       x1="32.251034"
       y1="6.1317081"
       x2="32.251034"
       y2="90.238609"
       id="linearGradient3725-5"
       xlink:href="#ButtonShadow-0"
       gradientUnits="userSpaceOnUse"
       gradientTransform="matrix(1.0238095,0,0,-1.0119048,-1.1428571,98.071429)" />
    <linearGradient
       x1="32.251034"
       y1="6.1317081"
       x2="32.251034"
       y2="90.238609"
       id="linearGradient3721-5"
       xlink:href="#ButtonShadow-0"
       gradientUnits="userSpaceOnUse"
       gradientTransform="matrix(1,0,0,-1,0,97)" />
    <linearGradient
       x1="32.251034"
       y1="6.1317081"
       x2="32.251034"
       y2="90.238609"
       id="linearGradient3289"
       xlink:href="#ButtonShadow-0"
       gradientUnits="userSpaceOnUse"
       gradientTransform="matrix(1.0238095,0,0,-1.0119048,-1.1428571,98.071429)" />
    <linearGradient
       x1="48"
       y1="74"
       x2="48"
       y2="21.913534"
       id="linearGradient3195"
       xlink:href="#linearGradient4081"
       gradientUnits="userSpaceOnUse"
       gradientTransform="matrix(1.5,0,0,1.5,95.307719,-24.499999)" />
  </defs>
  <metadata
     id="metadata2413">
    <rdf:RDF>
      <cc:Work
         rdf:about="">
        <dc:format>image/svg+xml</dc:format>
        <dc:type
           rdf:resource="http://purl.org/dc/dcmitype/StillImage" />
        <dc:title />
      </cc:Work>
    </rdf:RDF>
  </metadata>
  <g
     id="layer2"
     style="display:none">
    <rect
       width="86"
       height="85"
       rx="6"
       ry="6"
       x="5"
       y="7"
       clip-path="url(#clipPath3625)"
       id="rect3745"
       style="opacity:0.9;fill:url(#ButtonShadow);fill-opacity:1;fill-rule:nonzero;stroke:none;filter:url(#filter3174)" />
  </g>
  <g
     id="layer9"
     style="display:none">
    <path
       d="M 12,3.96875 C 6.4889098,3.96875 1.96875,8.4889098 1.96875,14 v 71 c 0,5.51109 4.5201597,10.03125 10.03125,10.03125 h 72 c 5.51109,0 10.03125,-4.52016 10.03125,-10.03125 V 14 C 94.03125,8.4889097 89.51109,3.96875 84,3.96875 Z M 12,6 h 72 c 3.324,0 6,2.676 6,6 v 72 c 0,3.324 -2.676,6 -6,6 H 12 C 8.676,90 6,87.324 6,84 V 12 C 6,8.676 8.676,6 12,6 Z"
       inkscape:connector-curvature="0"
       id="path3786"
       style="display:inline;opacity:0.08;fill:url(#linearGradient3289);fill-opacity:1;fill-rule:nonzero;stroke:none" />
    <path
       d="M 12,4.96875 C 7.0283671,4.96875 2.96875,9.0283671 2.96875,14 v 71 c 0,4.971633 4.059617,9.03125 9.03125,9.03125 h 72 c 4.971633,0 9.03125,-4.059617 9.03125,-9.03125 V 14 C 93.03125,9.028367 88.971633,4.96875 84,4.96875 Z M 12,6 h 72 c 3.324,0 6,2.676 6,6 v 72 c 0,3.324 -2.676,6 -6,6 H 12 C 8.676,90 6,87.324 6,84 V 12 C 6,8.676 8.676,6 12,6 Z"
       inkscape:connector-curvature="0"
       id="path3778-1"
       style="display:inline;opacity:0.1;fill:url(#linearGradient3780);fill-opacity:1;fill-rule:nonzero;stroke:none" />
    <path
       d="M 11.1875,6.03125 C 7.159982,6.4419011 4,9.8664375 4,14 v 71 c 0,4.409133 3.590867,8 8,8 h 72 c 4.409133,0 8,-3.590867 8,-8 V 14 C 92,9.8029382 88.741028,6.3539584 84.625,6.03125 87.657886,6.337417 90,8.88375 90,12 v 72 c 0,3.324 -2.676,6 -6,6 H 12 C 8.676,90 6,87.324 6,84 V 12 c 0,-3.11625 2.342114,-5.662583 5.375,-5.96875 -0.06227,0.00488 -0.12563,-0.00631 -0.1875,0 z"
       inkscape:connector-curvature="0"
       id="path3770-9"
       style="display:inline;opacity:0.2;fill:url(#linearGradient3772);fill-opacity:1;fill-rule:nonzero;stroke:none" />
    <path
       d="M 6.4375,9.75 C 5.5380109,10.927446 5,12.397277 5,14 v 71 c 0,3.878 3.122,7 7,7 h 72 c 3.878,0 7,-3.122 7,-7 V 14 C 91,12.397277 90.461989,10.927446 89.5625,9.75 89.841816,10.444095 90,11.203625 90,12 v 72 c 0,3.324 -2.676,6 -6,6 H 12 C 8.676,90 6,87.324 6,84 V 12 C 6,11.203625 6.1581836,10.444095 6.4375,9.75 Z"
       inkscape:connector-curvature="0"
       id="rect3723"
       style="display:inline;opacity:0.3;fill:url(#linearGradient3725-5);fill-opacity:1;fill-rule:nonzero;stroke:none" />
    <path
       d="m 6,84 v 1 c 0,3.324 2.676,6 6,6 h 72 c 3.324,0 6,-2.676 6,-6 v -1 c 0,3.324 -2.676,6 -6,6 H 12 C 8.676,90 6,87.324 6,84 Z"
       inkscape:connector-curvature="0"
       id="rect3716"
       style="display:inline;opacity:0.45;fill:url(#linearGradient3721-5);fill-opacity:1;fill-rule:nonzero;stroke:none" />
  </g>
  <g
     id="layer1"
     style="display:none">
    <rect
       width="84"
       height="84"
       rx="6"
       ry="6"
       x="6"
       y="6"
       id="rect2419"
       style="opacity:0.7;fill:#000000;fill-opacity:1;fill-rule:nonzero;stroke:none" />
    <path
       d="m 14,10 c -2.216,0 -4,1.784 -4,4 l 0,68 c 0,2.216 1.784,4 4,4 l 68,0 c 2.216,0 4,-1.784 4,-4 l 0,-68 c 0,-2.216 -1.784,-4 -4,-4 l -68,0 z m 0,3.0625 68,0 c 0.578769,0 0.9375,0.358731 0.9375,0.9375 l 0,68 c 0,0.578769 -0.358731,0.9375 -0.9375,0.9375 l -68,0 c -0.578769,0 -0.9375,-0.358731 -0.9375,-0.9375 l 0,-68 c 0,-0.578769 0.358731,-0.9375 0.9375,-0.9375 z"
       inkscape:connector-curvature="0"
       id="rect3726"
       style="opacity:0.07999998;fill:#000000;fill-opacity:1;fill-rule:nonzero;stroke:none" />
    <path
       d="M 12,6 C 8.676,6 6,8.676 6,12 l 0,72 c 0,3.324 2.676,6 6,6 l 72,0 c 3.324,0 6,-2.676 6,-6 L 90,12 C 90,8.676 87.324,6 84,6 L 12,6 z m 2,4 68,0 c 2.216,0 4,1.784 4,4 l 0,68 c 0,2.216 -1.784,4 -4,4 l -68,0 c -2.216,0 -4,-1.784 -4,-4 l 0,-68 c 0,-2.216 1.784,-4 4,-4 z"
       inkscape:connector-curvature="0"
       id="rect3629"
       style="fill:url(#linearGradient3643);fill-opacity:1;fill-rule:nonzero;stroke:none" />
    <path
       d="M 12,6 C 8.676,6 6,8.676 6,12 l 0,2 0,68 0,2 c 0,0.334721 0.04135,0.6507 0.09375,0.96875 0.0487,0.295596 0.09704,0.596915 0.1875,0.875 0.00988,0.03038 0.020892,0.0636 0.03125,0.09375 0.098865,0.287771 0.2348802,0.547452 0.375,0.8125 0.1445918,0.273507 0.3156161,0.535615 0.5,0.78125 0.1843839,0.245635 0.3737765,0.473472 0.59375,0.6875 0.439947,0.428056 0.94291,0.814526 1.5,1.09375 0.278545,0.139612 0.5734731,0.246947 0.875,0.34375 -0.2562018,-0.100222 -0.4867109,-0.236272 -0.71875,-0.375 -0.00741,-0.0044 -0.023866,0.0045 -0.03125,0 -0.031933,-0.0193 -0.062293,-0.04251 -0.09375,-0.0625 -0.120395,-0.0767 -0.2310226,-0.163513 -0.34375,-0.25 -0.1061728,-0.0808 -0.2132809,-0.161112 -0.3125,-0.25 C 8.4783201,88.557317 8.3087904,88.373362 8.15625,88.1875 8.0486711,88.057245 7.9378561,87.922215 7.84375,87.78125 7.818661,87.74287 7.805304,87.69538 7.78125,87.65625 7.716487,87.553218 7.6510225,87.451733 7.59375,87.34375 7.4927417,87.149044 7.3880752,86.928049 7.3125,86.71875 7.30454,86.69694 7.288911,86.6782 7.28125,86.65625 7.2494249,86.5643 7.2454455,86.469419 7.21875,86.375 7.1884177,86.268382 7.1483606,86.171969 7.125,86.0625 7.0521214,85.720988 7,85.364295 7,85 L 7,83 7,15 7,13 C 7,10.218152 9.2181517,8 12,8 l 2,0 68,0 2,0 c 2.781848,0 5,2.218152 5,5 l 0,2 0,68 0,2 c 0,0.364295 -0.05212,0.720988 -0.125,1.0625 -0.04415,0.206893 -0.08838,0.397658 -0.15625,0.59375 -0.0077,0.02195 -0.0233,0.04069 -0.03125,0.0625 -0.06274,0.173739 -0.138383,0.367449 -0.21875,0.53125 -0.04158,0.0828 -0.07904,0.169954 -0.125,0.25 -0.0546,0.09721 -0.126774,0.18835 -0.1875,0.28125 -0.09411,0.140965 -0.204921,0.275995 -0.3125,0.40625 -0.143174,0.17445 -0.303141,0.346998 -0.46875,0.5 -0.01117,0.0102 -0.01998,0.02115 -0.03125,0.03125 -0.138386,0.125556 -0.285091,0.234436 -0.4375,0.34375 -0.102571,0.07315 -0.204318,0.153364 -0.3125,0.21875 -0.0074,0.0045 -0.02384,-0.0044 -0.03125,0 -0.232039,0.138728 -0.462548,0.274778 -0.71875,0.375 0.301527,-0.0968 0.596455,-0.204138 0.875,-0.34375 0.55709,-0.279224 1.060053,-0.665694 1.5,-1.09375 0.219973,-0.214028 0.409366,-0.441865 0.59375,-0.6875 0.184384,-0.245635 0.355408,-0.507743 0.5,-0.78125 0.14012,-0.265048 0.276135,-0.524729 0.375,-0.8125 0.01041,-0.03078 0.02133,-0.06274 0.03125,-0.09375 0.09046,-0.278085 0.1388,-0.579404 0.1875,-0.875 C 89.95865,84.6507 90,84.334721 90,84 l 0,-2 0,-68 0,-2 C 90,8.676 87.324,6 84,6 L 12,6 z"
       inkscape:connector-curvature="0"
       id="rect3728"
       style="fill:url(#linearGradient3188);fill-opacity:1;fill-rule:nonzero;stroke:none" />
    <path
       d="M 12,90 C 8.676,90 6,87.324 6,84 L 6,82 6,14 6,12 c 0,-0.334721 0.04135,-0.6507 0.09375,-0.96875 0.0487,-0.295596 0.09704,-0.596915 0.1875,-0.875 C 6.29113,10.12587 6.302142,10.09265 6.3125,10.0625 6.411365,9.774729 6.5473802,9.515048 6.6875,9.25 6.8320918,8.976493 7.0031161,8.714385 7.1875,8.46875 7.3718839,8.223115 7.5612765,7.995278 7.78125,7.78125 8.221197,7.353194 8.72416,6.966724 9.28125,6.6875 9.559795,6.547888 9.8547231,6.440553 10.15625,6.34375 9.9000482,6.443972 9.6695391,6.580022 9.4375,6.71875 c -0.00741,0.0044 -0.023866,-0.0045 -0.03125,0 -0.031933,0.0193 -0.062293,0.04251 -0.09375,0.0625 -0.120395,0.0767 -0.2310226,0.163513 -0.34375,0.25 -0.1061728,0.0808 -0.2132809,0.161112 -0.3125,0.25 C 8.4783201,7.442683 8.3087904,7.626638 8.15625,7.8125 8.0486711,7.942755 7.9378561,8.077785 7.84375,8.21875 7.818661,8.25713 7.805304,8.30462 7.78125,8.34375 7.716487,8.446782 7.6510225,8.548267 7.59375,8.65625 7.4927417,8.850956 7.3880752,9.071951 7.3125,9.28125 7.30454,9.30306 7.288911,9.3218 7.28125,9.34375 7.2494249,9.4357 7.2454455,9.530581 7.21875,9.625 7.1884177,9.731618 7.1483606,9.828031 7.125,9.9375 7.0521214,10.279012 7,10.635705 7,11 l 0,2 0,68 0,2 c 0,2.781848 2.2181517,5 5,5 l 2,0 68,0 2,0 c 2.781848,0 5,-2.218152 5,-5 l 0,-2 0,-68 0,-2 C 89,10.635705 88.94788,10.279012 88.875,9.9375 88.83085,9.730607 88.78662,9.539842 88.71875,9.34375 88.71105,9.3218 88.69545,9.30306 88.6875,9.28125 88.62476,9.107511 88.549117,8.913801 88.46875,8.75 88.42717,8.6672 88.38971,8.580046 88.34375,8.5 88.28915,8.40279 88.216976,8.31165 88.15625,8.21875 88.06214,8.077785 87.951329,7.942755 87.84375,7.8125 87.700576,7.63805 87.540609,7.465502 87.375,7.3125 87.36383,7.3023 87.35502,7.29135 87.34375,7.28125 87.205364,7.155694 87.058659,7.046814 86.90625,6.9375 86.803679,6.86435 86.701932,6.784136 86.59375,6.71875 c -0.0074,-0.0045 -0.02384,0.0044 -0.03125,0 -0.232039,-0.138728 -0.462548,-0.274778 -0.71875,-0.375 0.301527,0.0968 0.596455,0.204138 0.875,0.34375 0.55709,0.279224 1.060053,0.665694 1.5,1.09375 0.219973,0.214028 0.409366,0.441865 0.59375,0.6875 0.184384,0.245635 0.355408,0.507743 0.5,0.78125 0.14012,0.265048 0.276135,0.524729 0.375,0.8125 0.01041,0.03078 0.02133,0.06274 0.03125,0.09375 0.09046,0.278085 0.1388,0.579404 0.1875,0.875 C 89.95865,11.3493 90,11.665279 90,12 l 0,2 0,68 0,2 c 0,3.324 -2.676,6 -6,6 l -72,0 z"
       inkscape:connector-curvature="0"
       id="path3615"
       style="opacity:0.6;fill:url(#radialGradient3619);fill-opacity:1;fill-rule:nonzero;stroke:none" />
    <rect
       width="84"
       height="84"
       rx="6"
       ry="6"
       x="6"
       y="106"
       id="rect2841"
       style="fill:url(#linearGradient2843);fill-opacity:1;fill-rule:nonzero;stroke:none" />
    <rect
       width="76"
       height="76"
       rx="4"
       ry="4"
       x="10"
       y="110"
       id="rect3634"
       style="fill:#ff0000;fill-opacity:1;fill-rule:nonzero;stroke:none" />
    <path
       d="m 14,9 c -2.752703,0 -5,2.247297 -5,5 l 0,68 c 0,2.752703 2.247297,5 5,5 l 68,0 c 2.752703,0 5,-2.247297 5,-5 L 87,14 C 87,11.247297 84.752703,9 82,9 L 14,9 z m 0,2 68,0 c 1.679297,0 3,1.320703 3,3 l 0,68 c 0,1.679297 -1.320703,3 -3,3 l -68,0 c -1.679297,0 -3,-1.320703 -3,-3 l 0,-68 c 0,-1.679297 1.320703,-3 3,-3 z"
       inkscape:connector-curvature="0"
       transform="translate(-110,0)"
       clip-path="url(#clipPath3649)"
       id="rect3647"
       style="font-size:medium;font-style:normal;font-variant:normal;font-weight:normal;font-stretch:normal;text-indent:0;text-align:start;text-decoration:none;line-height:normal;letter-spacing:normal;word-spacing:normal;text-transform:none;direction:ltr;block-progression:tb;writing-mode:lr-tb;text-anchor:start;color:#000000;fill:#000000;fill-opacity:1;stroke:none;stroke-width:2;marker:none;visibility:visible;display:inline;overflow:visible;filter:url(#filter3657);enable-background:accumulate;font-family:Abandoned Bitplane;-inkscape-font-specification:Abandoned Bitplane" />
    <path
       d="m 14.089286,10 c -2.216,0 -4,1.784 -4,4 l 0,68 c 0,2.216 1.784,4 4,4 l 68,0 c 2.216,0 4,-1.784 4,-4 l 0,-68 c 0,-2.216 -1.784,-4 -4,-4 l -68,0 z m 0,2 68,0 c 1.140301,0 2,0.859699 2,2 l 0,68 c 0,1.140301 -0.859699,2 -2,2 l -68,0 c -1.140301,0 -2,-0.859699 -2,-2 l 0,-68 c 0,-1.140301 0.859699,-2 2,-2 z"
       inkscape:connector-curvature="0"
       id="path3709"
       style="opacity:0.16000001;fill:#000000;fill-opacity:1;fill-rule:nonzero;stroke:none" />
    <path
       d="m 14,10 c -2.216,0 -4,1.784 -4,4 l 0,68 c 0,2.216 1.784,4 4,4 l 68,0 c 2.216,0 4,-1.784 4,-4 l 0,-68 c 0,-2.216 -1.784,-4 -4,-4 l -68,0 z m 0,1 68,0 c 1.673848,0 3,1.326152 3,3 l 0,68 c 0,1.673848 -1.326152,3 -3,3 l -68,0 c -1.673848,0 -3,-1.326152 -3,-3 l 0,-68 c 0,-1.673848 1.326152,-3 3,-3 z"
       inkscape:connector-curvature="0"
       id="path3707"
       style="opacity:0.36000001;fill:#000000;fill-opacity:1;fill-rule:nonzero;stroke:none" />
  </g>
  <g
     id="layer6"
     style="display:none">
    <rect
       width="84"
       height="84"
       rx="6"
       ry="6"
       x="6"
       y="6"
       id="rect2419-2"
       style="display:inline;opacity:0.6;fill:#000000;fill-opacity:1;fill-rule:nonzero;stroke:none" />
    <path
       d="M 12,6 C 8.676,6 6,8.676 6,12 v 2 68 2 c 0,0.334721 0.04135,0.6507 0.09375,0.96875 0.0487,0.295596 0.09704,0.596915 0.1875,0.875 0.00988,0.03038 0.020892,0.0636 0.03125,0.09375 0.098865,0.287771 0.2348802,0.547452 0.375,0.8125 0.1445918,0.273507 0.3156161,0.535615 0.5,0.78125 0.1843839,0.245635 0.3737765,0.473472 0.59375,0.6875 0.439947,0.428056 0.94291,0.814526 1.5,1.09375 0.278545,0.139612 0.5734731,0.246947 0.875,0.34375 -0.2562018,-0.100222 -0.4867109,-0.236272 -0.71875,-0.375 -0.00741,-0.0044 -0.023866,0.0045 -0.03125,0 -0.031933,-0.0193 -0.062293,-0.04251 -0.09375,-0.0625 -0.120395,-0.0767 -0.2310226,-0.163513 -0.34375,-0.25 -0.1061728,-0.0808 -0.2132809,-0.161112 -0.3125,-0.25 C 8.4783201,88.557317 8.3087904,88.373362 8.15625,88.1875 8.0486711,88.057245 7.9378561,87.922215 7.84375,87.78125 7.818661,87.74287 7.805304,87.69538 7.78125,87.65625 7.716487,87.553218 7.6510225,87.451733 7.59375,87.34375 7.4927417,87.149044 7.3880752,86.928049 7.3125,86.71875 7.30454,86.69694 7.288911,86.6782 7.28125,86.65625 7.2494249,86.5643 7.2454455,86.469419 7.21875,86.375 7.1884177,86.268382 7.1483606,86.171969 7.125,86.0625 7.0521214,85.720988 7,85.364295 7,85 V 83 15 13 C 7,10.218152 9.2181517,8 12,8 h 2 68 2 c 2.781848,0 5,2.218152 5,5 v 2 68 2 c 0,0.364295 -0.05212,0.720988 -0.125,1.0625 -0.04415,0.206893 -0.08838,0.397658 -0.15625,0.59375 -0.0077,0.02195 -0.0233,0.04069 -0.03125,0.0625 -0.06274,0.173739 -0.138383,0.367449 -0.21875,0.53125 -0.04158,0.0828 -0.07904,0.169954 -0.125,0.25 -0.0546,0.09721 -0.126774,0.18835 -0.1875,0.28125 -0.09411,0.140965 -0.204921,0.275995 -0.3125,0.40625 -0.143174,0.17445 -0.303141,0.346998 -0.46875,0.5 -0.01117,0.0102 -0.01998,0.02115 -0.03125,0.03125 -0.138386,0.125556 -0.285091,0.234436 -0.4375,0.34375 -0.102571,0.07315 -0.204318,0.153364 -0.3125,0.21875 -0.0074,0.0045 -0.02384,-0.0044 -0.03125,0 -0.232039,0.138728 -0.462548,0.274778 -0.71875,0.375 0.301527,-0.0968 0.596455,-0.204138 0.875,-0.34375 0.55709,-0.279224 1.060053,-0.665694 1.5,-1.09375 0.219973,-0.214028 0.409366,-0.441865 0.59375,-0.6875 0.184384,-0.245635 0.355408,-0.507743 0.5,-0.78125 0.14012,-0.265048 0.276135,-0.524729 0.375,-0.8125 0.01041,-0.03078 0.02133,-0.06274 0.03125,-0.09375 0.09046,-0.278085 0.1388,-0.579404 0.1875,-0.875 C 89.95865,84.6507 90,84.334721 90,84 V 82 14 12 C 90,8.676 87.324,6 84,6 Z"
       inkscape:connector-curvature="0"
       id="rect3728-1"
       style="display:inline;opacity:0.01;fill:url(#linearGradient3188-0);fill-opacity:1;fill-rule:nonzero;stroke:none" />
    <path
       d="M 12,90 C 8.676,90 6,87.324 6,84 V 82 14 12 c 0,-0.334721 0.04135,-0.6507 0.09375,-0.96875 0.0487,-0.295596 0.09704,-0.596915 0.1875,-0.875 C 6.29113,10.12587 6.302142,10.09265 6.3125,10.0625 6.411365,9.774729 6.5473802,9.515048 6.6875,9.25 6.8320918,8.976493 7.0031161,8.714385 7.1875,8.46875 7.3718839,8.223115 7.5612765,7.995278 7.78125,7.78125 8.221197,7.353194 8.72416,6.966724 9.28125,6.6875 9.559795,6.547888 9.8547231,6.440553 10.15625,6.34375 9.9000482,6.443972 9.6695391,6.580022 9.4375,6.71875 c -0.00741,0.0044 -0.023866,-0.0045 -0.03125,0 -0.031933,0.0193 -0.062293,0.04251 -0.09375,0.0625 -0.120395,0.0767 -0.2310226,0.163513 -0.34375,0.25 -0.1061728,0.0808 -0.2132809,0.161112 -0.3125,0.25 C 8.4783201,7.442683 8.3087904,7.626638 8.15625,7.8125 8.0486711,7.942755 7.9378561,8.077785 7.84375,8.21875 7.818661,8.25713 7.805304,8.30462 7.78125,8.34375 7.716487,8.446782 7.6510225,8.548267 7.59375,8.65625 7.4927417,8.850956 7.3880752,9.071951 7.3125,9.28125 7.30454,9.30306 7.288911,9.3218 7.28125,9.34375 7.2494249,9.4357 7.2454455,9.530581 7.21875,9.625 7.1884177,9.731618 7.1483606,9.828031 7.125,9.9375 7.0521214,10.279012 7,10.635705 7,11 v 2 68 2 c 0,2.781848 2.2181517,5 5,5 h 2 68 2 c 2.781848,0 5,-2.218152 5,-5 V 81 13 11 C 89,10.635705 88.94788,10.279012 88.875,9.9375 88.83085,9.730607 88.78662,9.539842 88.71875,9.34375 88.71105,9.3218 88.69545,9.30306 88.6875,9.28125 88.62476,9.107511 88.549117,8.913801 88.46875,8.75 88.42717,8.6672 88.38971,8.580046 88.34375,8.5 88.28915,8.40279 88.216976,8.31165 88.15625,8.21875 88.06214,8.077785 87.951329,7.942755 87.84375,7.8125 87.700576,7.63805 87.540609,7.465502 87.375,7.3125 87.36383,7.3023 87.35502,7.29135 87.34375,7.28125 87.205364,7.155694 87.058659,7.046814 86.90625,6.9375 86.803679,6.86435 86.701932,6.784136 86.59375,6.71875 c -0.0074,-0.0045 -0.02384,0.0044 -0.03125,0 -0.232039,-0.138728 -0.462548,-0.274778 -0.71875,-0.375 0.301527,0.0968 0.596455,0.204138 0.875,0.34375 0.55709,0.279224 1.060053,0.665694 1.5,1.09375 0.219973,0.214028 0.409366,0.441865 0.59375,0.6875 0.184384,0.245635 0.355408,0.507743 0.5,0.78125 0.14012,0.265048 0.276135,0.524729 0.375,0.8125 0.01041,0.03078 0.02133,0.06274 0.03125,0.09375 0.09046,0.278085 0.1388,0.579404 0.1875,0.875 C 89.95865,11.3493 90,11.665279 90,12 v 2 68 2 c 0,3.324 -2.676,6 -6,6 z"
       inkscape:connector-curvature="0"
       id="path3615-6"
       style="display:inline;opacity:0.15;fill:url(#radialGradient3619-5);fill-opacity:1;fill-rule:nonzero;stroke:none" />
  </g>
  <g
     id="layer3"
     style="display:inline">
    <path
       d="m 21.198345,7.0468757 c -6.48468,-0.1897784 -10.815071,6.4418683 -9.84375,12.4508703 0.0337,20.841798 -0.06754,41.686995 0.05084,62.52666 0.428587,6.300195 6.941551,9.828021 12.725181,8.92872 16.763812,-0.03433 33.531161,0.0688 50.292755,-0.05179 6.309951,-0.470781 9.709026,-7.056824 8.837478,-12.817976 -0.132705,-6.043002 0.26067,-12.166437 -0.1875,-18.161484 -2.145165,-1.687159 -0.394515,-2.753977 1.151637,-4.363323 1.565601,-2.461636 5.554116,-4.111564 4.895238,-7.449177 -2.084484,-3.128584 -5.353758,-5.488878 -7.875,-8.34375 3.386852,-1.420573 1.552395,-5.832504 2.015625,-8.630155 -0.31147,-5.989717 0.736689,-12.169604 -0.773736,-18.000608 -2.006724,-5.4768782 -8.141764,-6.5608788 -13.258965,-6.0879918 -16.009933,0 -32.019865,0 -48.029798,0 z m 119.999995,0 c -6.48468,-0.1897784 -10.81507,6.4418683 -9.84375,12.4508703 0,6.849711 0,13.69942 0,20.54913 -2.30236,-0.236103 -5.9992,-0.222399 -6,2.953125 0.23081,4.950028 -0.4553,10.039771 0.32813,14.90625 1.09293,2.139645 3.82882,1.397361 5.67187,1.59375 0.12105,7.831749 -0.24994,15.694639 0.20004,23.505709 0.98396,5.848812 7.13955,8.716994 12.57597,7.947416 16.76382,-0.03433 33.53117,0.0688 50.29277,-0.05179 6.30994,-0.470781 9.70902,-7.056824 8.83747,-12.817976 -0.0337,-20.702166 0.0675,-41.407729 -0.0508,-62.107764 -0.42859,-6.3001947 -6.94155,-9.8280207 -12.72517,-8.9287198 -16.42884,0 -32.85767,0 -49.28649,0 z M 26.30772,21.953126 c 14.008885,0.03189 28.070453,-0.0634 42.046874,0.04687 -0.342454,1.813795 0.660861,4.973361 -0.421875,6.046875 -3.782797,0.710937 -2.307589,5.341371 -2.578125,8.026741 0.683459,3.264563 -0.36549,4.79672 -3.770055,3.973259 -5.120296,0.169965 -10.339596,-0.331832 -15.40182,0.234375 -3.14838,1.574848 -1.357417,5.796756 -1.828125,8.58328 0.431882,3.19275 -0.945,6.912686 0.84375,9.744845 2.801751,1.775427 6.48764,0.419869 9.649487,0.84375 3.502254,0 7.004509,0 10.506763,0 0.352791,3.538726 -0.706144,7.365105 0.515625,10.734375 0.612498,1.474566 3.308502,0.528352 2.484375,2.61606 0.800286,3.068644 -0.808239,3.811068 -3.64135,3.243315 -12.810674,-0.03202 -25.674204,0.06356 -38.452399,-0.04687 0.03136,-18.009048 -0.06266,-36.070233 0.04687,-54.046875 z m 120,0 c 14.00889,0.03189 28.07046,-0.0634 42.04687,0.04687 -0.0313,18.009096 0.0627,36.070164 -0.0468,54.046875 -14.00889,-0.03189 -28.07046,0.06341 -42.04687,-0.04687 0.0632,-5.483682 -0.1263,-11.220054 0.0937,-16.546875 0.35278,3.538726 -0.70614,7.365105 0.51562,10.734375 1.71675,2.370262 4.87455,0.881149 6.01439,-1.257777 5.66469,-6.33807 11.80719,-12.398991 17.18866,-18.898473 0.9042,-3.350408 -3.2146,-4.916883 -4.84456,-7.246004 -4.96517,-4.761655 -9.5972,-10.038114 -14.74919,-14.503996 -2.69803,-1.213616 -4.88722,1.937892 -4.125,4.441206 -0.0669,2.352537 0.13095,5.24128 -0.0937,7.277544 0.0326,-6.008405 -0.0644,-12.071139 0.0468,-18.046875 z"
       inkscape:connector-curvature="0"
       id="path3994"
       style="color:#000000;display:inline;overflow:visible;visibility:visible;opacity:0.1;fill:#000000;fill-opacity:1;fill-rule:nonzero;stroke:none;stroke-width:1.5;marker:none;enable-background:accumulate" />
    <path
       d="m 21.198345,8.5937508 c -4.581824,0 -8.296875,3.7800602 -8.296875,8.3906252 v 64.03125 c 0,4.610565 3.715051,8.390625 8.296875,8.390625 h 52.218749 c 4.581824,0 8.296875,-3.78006 8.296875,-8.390625 V 61.000001 a 1.4129487,1.4129487 0 0 0 -2.484375,-0.9375 l -9,10.5 a 1.4129487,1.4129487 0 0 0 -0.328125,0.9375 v 3 1.5 c 0,0.903742 -0.690007,1.59375 -1.59375,1.59375 h -1.5 -38.999999 -1.5 c -0.903743,0 -1.59375,-0.690008 -1.59375,-1.59375 v -1.5 -51 -1.5 c 0,-0.903743 0.690007,-1.59375 1.59375,-1.59375 h 1.5 38.999999 1.5 c 0.903743,0 1.59375,0.690007 1.59375,1.59375 v 1.5 4.5 a 1.4129487,1.4129487 0 0 0 0.421875,0.984375 l 9,9 a 1.4129487,1.4129487 0 0 0 2.390625,-0.984375 V 16.984376 c 0,-4.610565 -3.715051,-8.3906252 -8.296875,-8.3906252 z m 119.999995,0 c -4.58182,0 -8.29687,3.7800602 -8.29687,8.3906252 v 23.015625 a 1.4129487,1.4129487 0 0 0 1.40625,1.40625 h 9 a 1.4129487,1.4129487 0 0 0 1.40625,-1.40625 v -16.5 -1.5 c 0,-0.903743 0.69,-1.59375 1.59375,-1.59375 h 1.5 39 1.5 c 0.90374,0 1.59375,0.690007 1.59375,1.59375 v 1.5 51 1.5 c 0,0.903742 -0.69001,1.59375 -1.59375,1.59375 h -1.5 -39 -1.5 c -0.90375,0 -1.59375,-0.690008 -1.59375,-1.59375 v -1.5 -15 a 1.4129487,1.4129487 0 0 0 -1.40625,-1.40625 h -9 a 1.4129487,1.4129487 0 0 0 -1.40625,1.40625 v 21.515625 c 0,4.610565 3.71505,8.390625 8.29687,8.390625 h 52.21875 c 4.58182,0 8.29688,-3.78006 8.29688,-8.390625 v -64.03125 c 0,-4.610565 -3.71506,-8.3906252 -8.29688,-8.3906252 z M 68.167094,29.593751 a 1.4129487,1.4129487 0 0 0 -1.265625,1.40625 v 10.59375 h -19.59375 a 1.4129487,1.4129487 0 0 0 -1.40625,1.40625 v 13.5 a 1.4129487,1.4129487 0 0 0 1.40625,1.40625 h 19.59375 v 10.59375 a 1.4129487,1.4129487 0 0 0 2.4375,0.9375 l 18,-19.5 a 1.4129487,1.4129487 0 0 0 -0.04687,-1.921875 l -18,-18 a 1.4129487,1.4129487 0 0 0 -1.125,-0.421875 z m 80.999996,0 a 1.4129487,1.4129487 0 0 0 -1.26562,1.40625 v 10.59375 h -19.59375 a 1.4129487,1.4129487 0 0 0 -1.40625,1.40625 v 13.5 a 1.4129487,1.4129487 0 0 0 1.40625,1.40625 h 19.59375 v 10.59375 a 1.4129487,1.4129487 0 0 0 2.4375,0.9375 l 18,-19.5 a 1.4129487,1.4129487 0 0 0 -0.0469,-1.921875 l -18,-18 a 1.4129487,1.4129487 0 0 0 -1.125,-0.421875 z"
       id="path3990"
       style="color:#000000;display:inline;overflow:visible;visibility:visible;opacity:0.15;fill:#000000;fill-opacity:1;fill-rule:nonzero;stroke:none;stroke-width:1.5;marker:none;enable-background:accumulate" />
    <path
       d="m 21.198345,10.000001 c -3.808751,0 -6.890625,3.12616 -6.890625,6.984375 v 64.03125 c 0,3.858214 3.081874,6.984375 6.890625,6.984375 h 52.218749 c 3.808751,0 6.890625,-3.126161 6.890625,-6.984375 V 61.000001 l -9,10.5 v 3 1.5 c 0,1.662 -1.338,3 -3,3 h -1.5 -38.999999 -1.5 c -1.662,0 -3,-1.338 -3,-3 v -1.5 -51 -1.5 c 0,-1.662 1.338,-3 3,-3 h 1.5 38.999999 1.5 c 1.662,0 3,1.338 3,3 v 1.5 4.5 l 9,9 V 16.984376 c 0,-3.858215 -3.081874,-6.984375 -6.890625,-6.984375 z m 119.999995,0 c -3.80875,0 -6.89062,3.12616 -6.89062,6.984375 v 23.015625 h 9 v -16.5 -1.5 c 0,-1.662 1.338,-3 3,-3 h 1.5 39 1.5 c 1.662,0 3,1.338 3,3 v 1.5 51 1.5 c 0,1.662 -1.338,3 -3,3 h -1.5 -39 -1.5 c -1.662,0 -3,-1.338 -3,-3 v -1.5 -15 h -9 v 21.515625 c 0,3.858214 3.08187,6.984375 6.89062,6.984375 h 52.21875 c 3.80876,0 6.89063,-3.126161 6.89063,-6.984375 v -64.03125 c 0,-3.858215 -3.08187,-6.984375 -6.89063,-6.984375 z m -72.890621,21 v 12 h -21 v 13.5 h 21 v 12 l 18,-19.5 z m 81.000001,0 v 12 h -21 v 13.5 h 21 v 12 l 18,-19.5 z"
       inkscape:connector-curvature="0"
       id="path3984"
       style="color:#000000;display:inline;overflow:visible;visibility:visible;opacity:0.3;fill:#000000;fill-opacity:1;fill-rule:nonzero;stroke:none;stroke-width:1.5;marker:none;enable-background:accumulate" />
    <path
       d="m 21.198345,8.5000008 c -3.808751,0 -6.890625,3.1261602 -6.890625,6.9843752 v 64.03125 c 0,3.858214 3.081874,6.984375 6.890625,6.984375 h 52.218749 c 3.808751,0 6.890625,-3.126161 6.890625,-6.984375 V 59.500001 l -9,10.5 v 3 1.5 c 0,1.662 -1.338,3 -3,3 h -1.5 -38.999999 -1.5 c -1.662,0 -3,-1.338 -3,-3 v -1.5 -51 -1.5 c 0,-1.662 1.338,-3 3,-3 h 1.5 38.999999 1.5 c 1.662,0 3,1.338 3,3 v 1.5 4.5 l 9,9 V 15.484376 c 0,-3.858215 -3.081874,-6.9843752 -6.890625,-6.9843752 z m 119.999995,0 c -3.80875,0 -6.89062,3.1261602 -6.89062,6.9843752 v 23.015625 h 9 v -16.5 -1.5 c 0,-1.662 1.338,-3 3,-3 h 1.5 39 1.5 c 1.662,0 3,1.338 3,3 v 1.5 51 1.5 c 0,1.662 -1.338,3 -3,3 h -1.5 -39 -1.5 c -1.662,0 -3,-1.338 -3,-3 v -1.5 -15 h -9 v 21.515625 c 0,3.858214 3.08187,6.984375 6.89062,6.984375 h 52.21875 c 3.80876,0 6.89063,-3.126161 6.89063,-6.984375 v -64.03125 c 0,-3.858215 -3.08187,-6.9843752 -6.89063,-6.9843752 z M 68.307719,29.500001 v 12 h -21 v 13.5 h 21 v 12 l 18,-19.5 z m 81.000001,0 v 12 h -21 v 13.5 h 21 v 12 l 18,-19.5 z"
       inkscape:connector-curvature="0"
       id="rect2957"
       style="color:#000000;display:inline;overflow:visible;visibility:visible;fill:url(#linearGradient3195);fill-opacity:1;fill-rule:nonzero;stroke:none;stroke-width:1.5;marker:none;enable-background:accumulate" />
    <path
       d="m 21.198345,8.5000008 c -3.808751,0 -6.890625,3.1261602 -6.890625,6.9843752 v 1.5 c 0,-3.858215 3.081874,-6.984375 6.890625,-6.984375 h 52.218749 c 3.808751,0 6.890625,3.12616 6.890625,6.984375 v -1.5 c 0,-3.858215 -3.081874,-6.9843752 -6.890625,-6.9843752 z m 119.999995,0 c -3.80875,0 -6.89062,3.1261602 -6.89062,6.9843752 v 1.5 c 0,-3.858215 3.08187,-6.984375 6.89062,-6.984375 h 52.21875 c 3.80876,0 6.89063,3.12616 6.89063,6.984375 v -1.5 c 0,-3.858215 -3.08187,-6.9843752 -6.89063,-6.9843752 z M 68.307719,29.500001 v 1.5 l 17.296875,17.296875 0.703125,-0.796875 z m 81.000001,0 v 1.5 l 17.29687,17.296875 0.70313,-0.796875 z m -102.000001,12 v 1.5 h 21 v -1.5 z m 81.000001,0 v 1.5 h 21 v -1.5 z m 6,16.5 v 1.5 h 9 v -1.5 z m -54.000001,1.5 -9,10.5 v 1.5 l 9,-10.5 z m -56.999999,15 v 1.5 c 0,1.662 1.338,3 3,3 h 1.5 38.999999 1.5 c 1.662,0 3,-1.338 3,-3 v -1.5 c 0,1.662 -1.338,3 -3,3 h -1.5 -38.999999 -1.5 c -1.662,0 -3,-1.338 -3,-3 z m 120,0 v 1.5 c 0,1.662 1.338,3 3,3 h 1.5 39 1.5 c 1.662,0 3,-1.338 3,-3 v -1.5 c 0,1.662 -1.338,3 -3,3 h -1.5 -39 -1.5 c -1.662,0 -3,-1.338 -3,-3 z"
       inkscape:connector-curvature="0"
       id="path3198"
       style="color:#000000;display:inline;overflow:visible;visibility:visible;opacity:0.75;fill:#ffffff;fill-opacity:1;fill-rule:nonzero;stroke:none;stroke-width:1.5;marker:none;enable-background:accumulate" />
    <path
       d="m 26.30772,16.000001 c -1.662,0 -3,1.338 -3,3 v 1.5 c 0,-1.662 1.338,-3 3,-3 h 1.5 38.999999 1.5 c 1.662,0 3,1.338 3,3 v -1.5 c 0,-1.662 -1.338,-3 -3,-3 h -1.5 -38.999999 z m 120,0 c -1.662,0 -3,1.338 -3,3 v 1.5 c 0,-1.662 1.338,-3 3,-3 h 1.5 39 1.5 c 1.662,0 3,1.338 3,3 v -1.5 c 0,-1.662 -1.338,-3 -3,-3 h -1.5 -39 z m -75.000001,9 v 1.5 l 9,9 v -1.5 z m 63.000001,12 v 1.5 h 9 v -1.5 z M 85.604594,46.796876 68.307719,65.500001 v 1.5 l 18,-19.5 z m 80.999996,0 -17.29687,18.703125 v 1.5 l 18,-19.5 z M 47.307719,53.500001 v 1.5 h 21 v -1.5 z m 81.000001,0 v 1.5 h 21 v -1.5 z m -114,24.515625 v 1.5 c 0,3.858214 3.081874,6.984375 6.890625,6.984375 h 52.218749 c 3.808751,0 6.890625,-3.126161 6.890625,-6.984375 v -1.5 c 0,3.858214 -3.081874,6.984375 -6.890625,6.984375 H 21.198345 c -3.808751,0 -6.890625,-3.126161 -6.890625,-6.984375 z m 120,0 v 1.5 c 0,3.858214 3.08187,6.984375 6.89062,6.984375 h 52.21875 c 3.80876,0 6.89063,-3.126161 6.89063,-6.984375 v -1.5 c 0,3.858214 -3.08187,6.984375 -6.89063,6.984375 h -52.21875 c -3.80875,0 -6.89062,-3.126161 -6.89062,-6.984375 z"
       inkscape:connector-curvature="0"
       id="path3975"
       style="color:#000000;display:inline;overflow:visible;visibility:visible;opacity:0.15;fill:#000000;fill-opacity:1;fill-rule:nonzero;stroke:none;stroke-width:1.5;marker:none;enable-background:accumulate" />
  </g>
</svg>
