<?xml version="1.0" encoding="UTF-8" standalone="no"?>
<!-- Created with Inkscape (http://www.inkscape.org/) -->

<svg
   version="1.0"
   width="96"
   height="96"
   id="svg2408"
   sodipodi:docname="gtk-zoom-in.svg"
   inkscape:version="1.2.2 (b0a8486541, 2022-12-01)"
   xmlns:inkscape="http://www.inkscape.org/namespaces/inkscape"
   xmlns:sodipodi="http://sodipodi.sourceforge.net/DTD/sodipodi-0.dtd"
   xmlns:xlink="http://www.w3.org/1999/xlink"
   xmlns="http://www.w3.org/2000/svg"
   xmlns:svg="http://www.w3.org/2000/svg"
   xmlns:rdf="http://www.w3.org/1999/02/22-rdf-syntax-ns#"
   xmlns:cc="http://creativecommons.org/ns#"
   xmlns:dc="http://purl.org/dc/elements/1.1/">
  <sodipodi:namedview
     id="namedview18827"
     pagecolor="#ffffff"
     bordercolor="#666666"
     borderopacity="1.0"
     inkscape:showpageshadow="2"
     inkscape:pageopacity="0.0"
     inkscape:pagecheckerboard="0"
     inkscape:deskcolor="#d1d1d1"
     showgrid="false"
     inkscape:zoom="2.4583333"
     inkscape:cx="39.661017"
     inkscape:cy="48"
     inkscape:window-width="1872"
     inkscape:window-height="1011"
     inkscape:window-x="48"
     inkscape:window-y="0"
     inkscape:window-maximized="1"
     inkscape:current-layer="layer6" />
  <defs
     id="defs2410">
    <linearGradient
       id="linearGradient3637">
      <stop
         id="stop3639"
         style="stop-color:#f0f0f0;stop-opacity:1"
         offset="0" />
      <stop
         id="stop3641"
         style="stop-color:#aaaaaa;stop-opacity:1"
         offset="1" />
    </linearGradient>
    <linearGradient
       x1="45.447727"
       y1="92.539597"
       x2="45.447727"
       y2="7.0165396"
       id="ButtonShadow"
       gradientUnits="userSpaceOnUse"
       gradientTransform="scale(1.0058652,0.994169)">
      <stop
         id="stop3750"
         style="stop-color:#000000;stop-opacity:1"
         offset="0" />
      <stop
         id="stop3752"
         style="stop-color:#000000;stop-opacity:0.58823532"
         offset="1" />
    </linearGradient>
    <linearGradient
       id="linearGradient3737">
      <stop
         id="stop3739"
         style="stop-color:#ffffff;stop-opacity:1"
         offset="0" />
      <stop
         id="stop3741"
         style="stop-color:#ffffff;stop-opacity:0"
         offset="1" />
    </linearGradient>
    <linearGradient
       id="linearGradient3700">
      <stop
         id="stop3702"
         style="stop-color:#2276c5;stop-opacity:1"
         offset="0" />
      <stop
         id="stop3704"
         style="stop-color:#68baf4;stop-opacity:1"
         offset="1" />
    </linearGradient>
    <filter
       color-interpolation-filters="sRGB"
       id="filter3174"
       x="-0.047720931"
       y="-0.048282354"
       width="1.0954419"
       height="1.0965647">
      <feGaussianBlur
         id="feGaussianBlur3176"
         stdDeviation="1.71" />
    </filter>
    <linearGradient
       x1="36.357143"
       y1="6"
       x2="36.357143"
       y2="63.893143"
       id="linearGradient3188"
       xlink:href="#linearGradient3737"
       gradientUnits="userSpaceOnUse" />
    <filter
       x="-0.19578789"
       y="-0.19578789"
       width="1.3915758"
       height="1.3915758"
       color-interpolation-filters="sRGB"
       id="filter3794">
      <feGaussianBlur
         id="feGaussianBlur3796"
         stdDeviation="5.28" />
    </filter>
    <linearGradient
       x1="48"
       y1="20.220806"
       x2="48"
       y2="138.66119"
       id="linearGradient3613"
       xlink:href="#linearGradient3737"
       gradientUnits="userSpaceOnUse" />
    <radialGradient
       cx="48"
       cy="90.171875"
       r="42"
       fx="48"
       fy="90.171875"
       id="radialGradient3619"
       xlink:href="#linearGradient3737"
       gradientUnits="userSpaceOnUse"
       gradientTransform="matrix(1.1573129,0,0,0.99590774,-7.5510206,0.19713193)" />
    <clipPath
       id="clipPath3613">
      <rect
         width="84"
         height="84"
         rx="6"
         ry="6"
         x="6"
         y="6"
         id="rect3615"
         style="fill:#ffffff;fill-opacity:1;fill-rule:nonzero;stroke:none" />
    </clipPath>
    <linearGradient
       x1="48"
       y1="90"
       x2="48"
       y2="5.9877172"
       id="linearGradient2843"
       xlink:href="#linearGradient3700"
       gradientUnits="userSpaceOnUse"
       gradientTransform="translate(0,100)" />
    <clipPath
       id="clipPath3625">
      <path
         d="M 0,0 0,96 96,96 96,0 0,0 z m 12,6 72,0 c 3.324,0 6,2.676 6,6 l 0,72 c 0,3.324 -2.676,6 -6,6 L 12,90 C 8.676,90 6,87.324 6,84 L 6,12 C 6,8.676 8.676,6 12,6 z"
         inkscape:connector-curvature="0"
         id="path3627"
         style="fill:#ffffff;fill-opacity:1;stroke:none" />
    </clipPath>
    <linearGradient
       x1="44.512066"
       y1="6"
       x2="44.512066"
       y2="90.015434"
       id="linearGradient3643"
       xlink:href="#linearGradient3637"
       gradientUnits="userSpaceOnUse" />
    <clipPath
       id="clipPath3649">
      <rect
         width="76"
         height="76"
         rx="4"
         ry="4"
         x="10"
         y="10"
         id="rect3651"
         style="fill:#ffffff;fill-opacity:1;fill-rule:nonzero;stroke:none" />
    </clipPath>
    <filter
       color-interpolation-filters="sRGB"
       id="filter3657"
       x="-0.035076923"
       y="-0.035076923"
       width="1.0701538"
       height="1.0701538">
      <feGaussianBlur
         id="feGaussianBlur3659"
         stdDeviation="1.14" />
    </filter>
    <linearGradient
       x1="45.447727"
       y1="92.539597"
       x2="45.447727"
       y2="7.0165396"
       id="ButtonShadow-0"
       gradientUnits="userSpaceOnUse"
       gradientTransform="matrix(1.0058652,0,0,0.994169,100,0)">
      <stop
         id="stop3750-8"
         style="stop-color:#000000;stop-opacity:1"
         offset="0" />
      <stop
         id="stop3752-5"
         style="stop-color:#000000;stop-opacity:0.58823532"
         offset="1" />
    </linearGradient>
    <linearGradient
       x1="32.251034"
       y1="6.1317081"
       x2="32.251034"
       y2="90.238609"
       id="linearGradient3780"
       xlink:href="#ButtonShadow-0"
       gradientUnits="userSpaceOnUse"
       gradientTransform="matrix(1.0238095,0,0,-1.0119048,-1.1428571,98.071429)" />
    <linearGradient
       x1="32.251034"
       y1="6.1317081"
       x2="32.251034"
       y2="90.238609"
       id="linearGradient3772"
       xlink:href="#ButtonShadow-0"
       gradientUnits="userSpaceOnUse"
       gradientTransform="matrix(1.0238095,0,0,-1.0119048,-1.1428571,98.071429)" />
    <linearGradient
       x1="32.251034"
       y1="6.1317081"
       x2="32.251034"
       y2="90.238609"
       id="linearGradient3725"
       xlink:href="#ButtonShadow-0"
       gradientUnits="userSpaceOnUse"
       gradientTransform="matrix(1.0238095,0,0,-1.0119048,-1.1428571,98.071429)" />
    <linearGradient
       x1="32.251034"
       y1="6.1317081"
       x2="32.251034"
       y2="90.238609"
       id="linearGradient3721"
       xlink:href="#ButtonShadow-0"
       gradientUnits="userSpaceOnUse"
       gradientTransform="matrix(1,0,0,-1,0,97)" />
    <linearGradient
       x1="32.251034"
       y1="6.1317081"
       x2="32.251034"
       y2="90.238609"
       id="linearGradient3199"
       xlink:href="#ButtonShadow-0"
       gradientUnits="userSpaceOnUse"
       gradientTransform="matrix(1.0238095,0,0,-1.0119048,-1.1428571,98.071429)" />
    <linearGradient
       x1="36.357143"
       y1="6"
       x2="36.357143"
       y2="63.893143"
       id="linearGradient3188-8"
       xlink:href="#linearGradient3737-3"
       gradientUnits="userSpaceOnUse" />
    <linearGradient
       id="linearGradient3737-3">
      <stop
         id="stop3739-6"
         style="stop-color:#ffffff;stop-opacity:1"
         offset="0" />
      <stop
         id="stop3741-1"
         style="stop-color:#ffffff;stop-opacity:0"
         offset="1" />
    </linearGradient>
    <radialGradient
       cx="48"
       cy="90.171875"
       r="42"
       fx="48"
       fy="90.171875"
       id="radialGradient3619-3"
       xlink:href="#linearGradient3737-3"
       gradientUnits="userSpaceOnUse"
       gradientTransform="matrix(1.1573129,0,0,0.99590774,-7.551021,0.1971319)" />
    <linearGradient
       x1="104"
       y1="8"
       x2="120"
       y2="8"
       id="linearGradient3905"
       xlink:href="#linearGradient3637"
       gradientUnits="userSpaceOnUse"
       gradientTransform="translate(-104,104)" />
    <linearGradient
       x1="104"
       y1="8"
       x2="120"
       y2="8"
       id="linearGradient3913"
       xlink:href="#linearGradient3183-0"
       gradientUnits="userSpaceOnUse"
       gradientTransform="translate(-144,104)" />
    <linearGradient
       id="linearGradient3183-0">
      <stop
         id="stop3185-9"
         style="stop-color:#c80000;stop-opacity:1"
         offset="0" />
      <stop
         id="stop3187-6"
         style="stop-color:#f3604d;stop-opacity:1"
         offset="1" />
    </linearGradient>
    <linearGradient
       x1="10.558969"
       y1="3.0148761"
       x2="10.558969"
       y2="19.285688"
       id="linearGradient3879"
       xlink:href="#linearGradient3637"
       gradientUnits="userSpaceOnUse"
       gradientTransform="matrix(4.9092405,0,0,4.9059588,-6.668834,-7.3265965)" />
  </defs>
  <metadata
     id="metadata2413">
    <rdf:RDF>
      <cc:Work
         rdf:about="">
        <dc:format>image/svg+xml</dc:format>
        <dc:type
           rdf:resource="http://purl.org/dc/dcmitype/StillImage" />
        <dc:title />
      </cc:Work>
    </rdf:RDF>
  </metadata>
  <g
     id="layer2"
     style="display:none">
    <rect
       width="86"
       height="85"
       rx="6"
       ry="6"
       x="5"
       y="7"
       clip-path="url(#clipPath3625)"
       id="rect3745"
       style="opacity:0.9;fill:url(#ButtonShadow);fill-opacity:1;fill-rule:nonzero;stroke:none;filter:url(#filter3174)" />
  </g>
  <g
     id="layer3"
     style="display:none">
    <path
       d="M 12,3.96875 C 6.4889098,3.96875 1.96875,8.4889098 1.96875,14 v 71 c 0,5.51109 4.5201597,10.03125 10.03125,10.03125 h 72 c 5.51109,0 10.03125,-4.52016 10.03125,-10.03125 V 14 C 94.03125,8.4889097 89.51109,3.96875 84,3.96875 Z M 12,6 h 72 c 3.324,0 6,2.676 6,6 v 72 c 0,3.324 -2.676,6 -6,6 H 12 C 8.676,90 6,87.324 6,84 V 12 C 6,8.676 8.676,6 12,6 Z"
       inkscape:connector-curvature="0"
       id="path3786"
       style="display:inline;opacity:0.08;fill:url(#linearGradient3199);fill-opacity:1;fill-rule:nonzero;stroke:none" />
    <path
       d="M 12,4.96875 C 7.0283671,4.96875 2.96875,9.0283671 2.96875,14 v 71 c 0,4.971633 4.059617,9.03125 9.03125,9.03125 h 72 c 4.971633,0 9.03125,-4.059617 9.03125,-9.03125 V 14 C 93.03125,9.028367 88.971633,4.96875 84,4.96875 Z M 12,6 h 72 c 3.324,0 6,2.676 6,6 v 72 c 0,3.324 -2.676,6 -6,6 H 12 C 8.676,90 6,87.324 6,84 V 12 C 6,8.676 8.676,6 12,6 Z"
       inkscape:connector-curvature="0"
       id="path3778"
       style="display:inline;opacity:0.1;fill:url(#linearGradient3780);fill-opacity:1;fill-rule:nonzero;stroke:none" />
    <path
       d="M 11.1875,6.03125 C 7.159982,6.4419011 4,9.8664375 4,14 v 71 c 0,4.409133 3.590867,8 8,8 h 72 c 4.409133,0 8,-3.590867 8,-8 V 14 C 92,9.8029382 88.741028,6.3539584 84.625,6.03125 87.657886,6.337417 90,8.88375 90,12 v 72 c 0,3.324 -2.676,6 -6,6 H 12 C 8.676,90 6,87.324 6,84 V 12 c 0,-3.11625 2.342114,-5.662583 5.375,-5.96875 -0.06227,0.00488 -0.12563,-0.00631 -0.1875,0 z"
       inkscape:connector-curvature="0"
       id="path3770"
       style="display:inline;opacity:0.2;fill:url(#linearGradient3772);fill-opacity:1;fill-rule:nonzero;stroke:none" />
    <path
       d="M 6.4375,9.75 C 5.5380109,10.927446 5,12.397277 5,14 v 71 c 0,3.878 3.122,7 7,7 h 72 c 3.878,0 7,-3.122 7,-7 V 14 C 91,12.397277 90.461989,10.927446 89.5625,9.75 89.841816,10.444095 90,11.203625 90,12 v 72 c 0,3.324 -2.676,6 -6,6 H 12 C 8.676,90 6,87.324 6,84 V 12 C 6,11.203625 6.1581836,10.444095 6.4375,9.75 Z"
       inkscape:connector-curvature="0"
       id="rect3723"
       style="display:inline;opacity:0.3;fill:url(#linearGradient3725);fill-opacity:1;fill-rule:nonzero;stroke:none" />
    <path
       d="m 6,84 v 1 c 0,3.324 2.676,6 6,6 h 72 c 3.324,0 6,-2.676 6,-6 v -1 c 0,3.324 -2.676,6 -6,6 H 12 C 8.676,90 6,87.324 6,84 Z"
       inkscape:connector-curvature="0"
       id="rect3716"
       style="display:inline;opacity:0.45;fill:url(#linearGradient3721);fill-opacity:1;fill-rule:nonzero;stroke:none" />
  </g>
  <g
     id="layer1"
     style="display:none">
    <rect
       width="84"
       height="84"
       rx="6"
       ry="6"
       x="6"
       y="6"
       id="rect2419"
       style="opacity:0.8;fill:#000000;fill-opacity:1;fill-rule:nonzero;stroke:none" />
    <path
       d="m 14,10 c -2.216,0 -4,1.784 -4,4 l 0,68 c 0,2.216 1.784,4 4,4 l 68,0 c 2.216,0 4,-1.784 4,-4 l 0,-68 c 0,-2.216 -1.784,-4 -4,-4 l -68,0 z m 0,3.0625 68,0 c 0.578769,0 0.9375,0.358731 0.9375,0.9375 l 0,68 c 0,0.578769 -0.358731,0.9375 -0.9375,0.9375 l -68,0 c -0.578769,0 -0.9375,-0.358731 -0.9375,-0.9375 l 0,-68 c 0,-0.578769 0.358731,-0.9375 0.9375,-0.9375 z"
       inkscape:connector-curvature="0"
       id="rect3726"
       style="opacity:0.07999998;fill:#000000;fill-opacity:1;fill-rule:nonzero;stroke:none" />
    <path
       d="M 12,6 C 8.676,6 6,8.676 6,12 l 0,72 c 0,3.324 2.676,6 6,6 l 72,0 c 3.324,0 6,-2.676 6,-6 L 90,12 C 90,8.676 87.324,6 84,6 L 12,6 z m 2,4 68,0 c 2.216,0 4,1.784 4,4 l 0,68 c 0,2.216 -1.784,4 -4,4 l -68,0 c -2.216,0 -4,-1.784 -4,-4 l 0,-68 c 0,-2.216 1.784,-4 4,-4 z"
       inkscape:connector-curvature="0"
       id="rect3629"
       style="fill:url(#linearGradient3643);fill-opacity:1;fill-rule:nonzero;stroke:none" />
    <path
       d="M 12,6 C 8.676,6 6,8.676 6,12 l 0,2 0,68 0,2 c 0,0.334721 0.04135,0.6507 0.09375,0.96875 0.0487,0.295596 0.09704,0.596915 0.1875,0.875 0.00988,0.03038 0.020892,0.0636 0.03125,0.09375 0.098865,0.287771 0.2348802,0.547452 0.375,0.8125 0.1445918,0.273507 0.3156161,0.535615 0.5,0.78125 0.1843839,0.245635 0.3737765,0.473472 0.59375,0.6875 0.439947,0.428056 0.94291,0.814526 1.5,1.09375 0.278545,0.139612 0.5734731,0.246947 0.875,0.34375 -0.2562018,-0.100222 -0.4867109,-0.236272 -0.71875,-0.375 -0.00741,-0.0044 -0.023866,0.0045 -0.03125,0 -0.031933,-0.0193 -0.062293,-0.04251 -0.09375,-0.0625 -0.120395,-0.0767 -0.2310226,-0.163513 -0.34375,-0.25 -0.1061728,-0.0808 -0.2132809,-0.161112 -0.3125,-0.25 C 8.4783201,88.557317 8.3087904,88.373362 8.15625,88.1875 8.0486711,88.057245 7.9378561,87.922215 7.84375,87.78125 7.818661,87.74287 7.805304,87.69538 7.78125,87.65625 7.716487,87.553218 7.6510225,87.451733 7.59375,87.34375 7.4927417,87.149044 7.3880752,86.928049 7.3125,86.71875 7.30454,86.69694 7.288911,86.6782 7.28125,86.65625 7.2494249,86.5643 7.2454455,86.469419 7.21875,86.375 7.1884177,86.268382 7.1483606,86.171969 7.125,86.0625 7.0521214,85.720988 7,85.364295 7,85 L 7,83 7,15 7,13 C 7,10.218152 9.2181517,8 12,8 l 2,0 68,0 2,0 c 2.781848,0 5,2.218152 5,5 l 0,2 0,68 0,2 c 0,0.364295 -0.05212,0.720988 -0.125,1.0625 -0.04415,0.206893 -0.08838,0.397658 -0.15625,0.59375 -0.0077,0.02195 -0.0233,0.04069 -0.03125,0.0625 -0.06274,0.173739 -0.138383,0.367449 -0.21875,0.53125 -0.04158,0.0828 -0.07904,0.169954 -0.125,0.25 -0.0546,0.09721 -0.126774,0.18835 -0.1875,0.28125 -0.09411,0.140965 -0.204921,0.275995 -0.3125,0.40625 -0.143174,0.17445 -0.303141,0.346998 -0.46875,0.5 -0.01117,0.0102 -0.01998,0.02115 -0.03125,0.03125 -0.138386,0.125556 -0.285091,0.234436 -0.4375,0.34375 -0.102571,0.07315 -0.204318,0.153364 -0.3125,0.21875 -0.0074,0.0045 -0.02384,-0.0044 -0.03125,0 -0.232039,0.138728 -0.462548,0.274778 -0.71875,0.375 0.301527,-0.0968 0.596455,-0.204138 0.875,-0.34375 0.55709,-0.279224 1.060053,-0.665694 1.5,-1.09375 0.219973,-0.214028 0.409366,-0.441865 0.59375,-0.6875 0.184384,-0.245635 0.355408,-0.507743 0.5,-0.78125 0.14012,-0.265048 0.276135,-0.524729 0.375,-0.8125 0.01041,-0.03078 0.02133,-0.06274 0.03125,-0.09375 0.09046,-0.278085 0.1388,-0.579404 0.1875,-0.875 C 89.95865,84.6507 90,84.334721 90,84 l 0,-2 0,-68 0,-2 C 90,8.676 87.324,6 84,6 L 12,6 z"
       inkscape:connector-curvature="0"
       id="rect3728"
       style="fill:url(#linearGradient3188);fill-opacity:1;fill-rule:nonzero;stroke:none" />
    <path
       d="M 12,90 C 8.676,90 6,87.324 6,84 L 6,82 6,14 6,12 c 0,-0.334721 0.04135,-0.6507 0.09375,-0.96875 0.0487,-0.295596 0.09704,-0.596915 0.1875,-0.875 C 6.29113,10.12587 6.302142,10.09265 6.3125,10.0625 6.411365,9.774729 6.5473802,9.515048 6.6875,9.25 6.8320918,8.976493 7.0031161,8.714385 7.1875,8.46875 7.3718839,8.223115 7.5612765,7.995278 7.78125,7.78125 8.221197,7.353194 8.72416,6.966724 9.28125,6.6875 9.559795,6.547888 9.8547231,6.440553 10.15625,6.34375 9.9000482,6.443972 9.6695391,6.580022 9.4375,6.71875 c -0.00741,0.0044 -0.023866,-0.0045 -0.03125,0 -0.031933,0.0193 -0.062293,0.04251 -0.09375,0.0625 -0.120395,0.0767 -0.2310226,0.163513 -0.34375,0.25 -0.1061728,0.0808 -0.2132809,0.161112 -0.3125,0.25 C 8.4783201,7.442683 8.3087904,7.626638 8.15625,7.8125 8.0486711,7.942755 7.9378561,8.077785 7.84375,8.21875 7.818661,8.25713 7.805304,8.30462 7.78125,8.34375 7.716487,8.446782 7.6510225,8.548267 7.59375,8.65625 7.4927417,8.850956 7.3880752,9.071951 7.3125,9.28125 7.30454,9.30306 7.288911,9.3218 7.28125,9.34375 7.2494249,9.4357 7.2454455,9.530581 7.21875,9.625 7.1884177,9.731618 7.1483606,9.828031 7.125,9.9375 7.0521214,10.279012 7,10.635705 7,11 l 0,2 0,68 0,2 c 0,2.781848 2.2181517,5 5,5 l 2,0 68,0 2,0 c 2.781848,0 5,-2.218152 5,-5 l 0,-2 0,-68 0,-2 C 89,10.635705 88.94788,10.279012 88.875,9.9375 88.83085,9.730607 88.78662,9.539842 88.71875,9.34375 88.71105,9.3218 88.69545,9.30306 88.6875,9.28125 88.62476,9.107511 88.549117,8.913801 88.46875,8.75 88.42717,8.6672 88.38971,8.580046 88.34375,8.5 88.28915,8.40279 88.216976,8.31165 88.15625,8.21875 88.06214,8.077785 87.951329,7.942755 87.84375,7.8125 87.700576,7.63805 87.540609,7.465502 87.375,7.3125 87.36383,7.3023 87.35502,7.29135 87.34375,7.28125 87.205364,7.155694 87.058659,7.046814 86.90625,6.9375 86.803679,6.86435 86.701932,6.784136 86.59375,6.71875 c -0.0074,-0.0045 -0.02384,0.0044 -0.03125,0 -0.232039,-0.138728 -0.462548,-0.274778 -0.71875,-0.375 0.301527,0.0968 0.596455,0.204138 0.875,0.34375 0.55709,0.279224 1.060053,0.665694 1.5,1.09375 0.219973,0.214028 0.409366,0.441865 0.59375,0.6875 0.184384,0.245635 0.355408,0.507743 0.5,0.78125 0.14012,0.265048 0.276135,0.524729 0.375,0.8125 0.01041,0.03078 0.02133,0.06274 0.03125,0.09375 0.09046,0.278085 0.1388,0.579404 0.1875,0.875 C 89.95865,11.3493 90,11.665279 90,12 l 0,2 0,68 0,2 c 0,3.324 -2.676,6 -6,6 l -72,0 z"
       inkscape:connector-curvature="0"
       id="path3615"
       style="opacity:0.6;fill:url(#radialGradient3619);fill-opacity:1;fill-rule:nonzero;stroke:none" />
    <rect
       width="84"
       height="84"
       rx="6"
       ry="6"
       x="6"
       y="106"
       id="rect2841"
       style="fill:url(#linearGradient2843);fill-opacity:1;fill-rule:nonzero;stroke:none" />
    <rect
       width="76"
       height="76"
       rx="4"
       ry="4"
       x="10"
       y="110"
       id="rect3634"
       style="fill:#ff0000;fill-opacity:1;fill-rule:nonzero;stroke:none" />
    <path
       d="m 14,9 c -2.752703,0 -5,2.247297 -5,5 l 0,68 c 0,2.752703 2.247297,5 5,5 l 68,0 c 2.752703,0 5,-2.247297 5,-5 L 87,14 C 87,11.247297 84.752703,9 82,9 L 14,9 z m 0,2 68,0 c 1.679297,0 3,1.320703 3,3 l 0,68 c 0,1.679297 -1.320703,3 -3,3 l -68,0 c -1.679297,0 -3,-1.320703 -3,-3 l 0,-68 c 0,-1.679297 1.320703,-3 3,-3 z"
       inkscape:connector-curvature="0"
       transform="translate(-110,0)"
       clip-path="url(#clipPath3649)"
       id="rect3647"
       style="font-size:medium;font-style:normal;font-variant:normal;font-weight:normal;font-stretch:normal;text-indent:0;text-align:start;text-decoration:none;line-height:normal;letter-spacing:normal;word-spacing:normal;text-transform:none;direction:ltr;block-progression:tb;writing-mode:lr-tb;text-anchor:start;color:#000000;fill:#000000;fill-opacity:1;stroke:none;stroke-width:2;marker:none;visibility:visible;display:inline;overflow:visible;filter:url(#filter3657);enable-background:accumulate;font-family:Abandoned Bitplane;-inkscape-font-specification:Abandoned Bitplane" />
    <path
       d="m 14.089286,10 c -2.216,0 -4,1.784 -4,4 l 0,68 c 0,2.216 1.784,4 4,4 l 68,0 c 2.216,0 4,-1.784 4,-4 l 0,-68 c 0,-2.216 -1.784,-4 -4,-4 l -68,0 z m 0,2 68,0 c 1.140301,0 2,0.859699 2,2 l 0,68 c 0,1.140301 -0.859699,2 -2,2 l -68,0 c -1.140301,0 -2,-0.859699 -2,-2 l 0,-68 c 0,-1.140301 0.859699,-2 2,-2 z"
       inkscape:connector-curvature="0"
       id="path3709"
       style="opacity:0.16000001;fill:#000000;fill-opacity:1;fill-rule:nonzero;stroke:none" />
    <path
       d="m 14,10 c -2.216,0 -4,1.784 -4,4 l 0,68 c 0,2.216 1.784,4 4,4 l 68,0 c 2.216,0 4,-1.784 4,-4 l 0,-68 c 0,-2.216 -1.784,-4 -4,-4 l -68,0 z m 0,1 68,0 c 1.673848,0 3,1.326152 3,3 l 0,68 c 0,1.673848 -1.326152,3 -3,3 l -68,0 c -1.673848,0 -3,-1.326152 -3,-3 l 0,-68 c 0,-1.673848 1.326152,-3 3,-3 z"
       inkscape:connector-curvature="0"
       id="path3707"
       style="opacity:0.36000001;fill:#000000;fill-opacity:1;fill-rule:nonzero;stroke:none" />
  </g>
  <g
     id="layer4"
     style="display:none">
    <rect
       width="84"
       height="84"
       rx="6"
       ry="6"
       x="6"
       y="6"
       id="rect2419-9"
       style="display:inline;opacity:0.6;fill:#000000;fill-opacity:1;fill-rule:nonzero;stroke:none" />
    <path
       d="M 12,6 C 8.676,6 6,8.676 6,12 v 2 68 2 c 0,0.334721 0.04135,0.6507 0.09375,0.96875 0.0487,0.295596 0.09704,0.596915 0.1875,0.875 0.00988,0.03038 0.020892,0.0636 0.03125,0.09375 0.098865,0.287771 0.2348802,0.547452 0.375,0.8125 0.1445918,0.273507 0.3156161,0.535615 0.5,0.78125 0.1843839,0.245635 0.3737765,0.473472 0.59375,0.6875 0.439947,0.428056 0.94291,0.814526 1.5,1.09375 0.278545,0.139612 0.5734731,0.246947 0.875,0.34375 -0.2562018,-0.100222 -0.4867109,-0.236272 -0.71875,-0.375 -0.00741,-0.0044 -0.023866,0.0045 -0.03125,0 -0.031933,-0.0193 -0.062293,-0.04251 -0.09375,-0.0625 -0.120395,-0.0767 -0.2310226,-0.163513 -0.34375,-0.25 -0.1061728,-0.0808 -0.2132809,-0.161112 -0.3125,-0.25 C 8.4783201,88.557317 8.3087904,88.373362 8.15625,88.1875 8.0486711,88.057245 7.9378561,87.922215 7.84375,87.78125 7.818661,87.74287 7.805304,87.69538 7.78125,87.65625 7.716487,87.553218 7.6510225,87.451733 7.59375,87.34375 7.4927417,87.149044 7.3880752,86.928049 7.3125,86.71875 7.30454,86.69694 7.288911,86.6782 7.28125,86.65625 7.2494249,86.5643 7.2454455,86.469419 7.21875,86.375 7.1884177,86.268382 7.1483606,86.171969 7.125,86.0625 7.0521214,85.720988 7,85.364295 7,85 V 83 15 13 C 7,10.218152 9.2181517,8 12,8 h 2 68 2 c 2.781848,0 5,2.218152 5,5 v 2 68 2 c 0,0.364295 -0.05212,0.720988 -0.125,1.0625 -0.04415,0.206893 -0.08838,0.397658 -0.15625,0.59375 -0.0077,0.02195 -0.0233,0.04069 -0.03125,0.0625 -0.06274,0.173739 -0.138383,0.367449 -0.21875,0.53125 -0.04158,0.0828 -0.07904,0.169954 -0.125,0.25 -0.0546,0.09721 -0.126774,0.18835 -0.1875,0.28125 -0.09411,0.140965 -0.204921,0.275995 -0.3125,0.40625 -0.143174,0.17445 -0.303141,0.346998 -0.46875,0.5 -0.01117,0.0102 -0.01998,0.02115 -0.03125,0.03125 -0.138386,0.125556 -0.285091,0.234436 -0.4375,0.34375 -0.102571,0.07315 -0.204318,0.153364 -0.3125,0.21875 -0.0074,0.0045 -0.02384,-0.0044 -0.03125,0 -0.232039,0.138728 -0.462548,0.274778 -0.71875,0.375 0.301527,-0.0968 0.596455,-0.204138 0.875,-0.34375 0.55709,-0.279224 1.060053,-0.665694 1.5,-1.09375 0.219973,-0.214028 0.409366,-0.441865 0.59375,-0.6875 0.184384,-0.245635 0.355408,-0.507743 0.5,-0.78125 0.14012,-0.265048 0.276135,-0.524729 0.375,-0.8125 0.01041,-0.03078 0.02133,-0.06274 0.03125,-0.09375 0.09046,-0.278085 0.1388,-0.579404 0.1875,-0.875 C 89.95865,84.6507 90,84.334721 90,84 V 82 14 12 C 90,8.676 87.324,6 84,6 Z"
       inkscape:connector-curvature="0"
       id="rect3728-4"
       style="display:inline;opacity:0.01;fill:url(#linearGradient3188-8);fill-opacity:1;fill-rule:nonzero;stroke:none" />
    <path
       d="M 12,90 C 8.676,90 6,87.324 6,84 V 82 14 12 c 0,-0.334721 0.04135,-0.6507 0.09375,-0.96875 0.0487,-0.295596 0.09704,-0.596915 0.1875,-0.875 C 6.29113,10.12587 6.302142,10.09265 6.3125,10.0625 6.411365,9.774729 6.5473802,9.515048 6.6875,9.25 6.8320918,8.976493 7.0031161,8.714385 7.1875,8.46875 7.3718839,8.223115 7.5612765,7.995278 7.78125,7.78125 8.221197,7.353194 8.72416,6.966724 9.28125,6.6875 9.559795,6.547888 9.8547231,6.440553 10.15625,6.34375 9.9000482,6.443972 9.6695391,6.580022 9.4375,6.71875 c -0.00741,0.0044 -0.023866,-0.0045 -0.03125,0 -0.031933,0.0193 -0.062293,0.04251 -0.09375,0.0625 -0.120395,0.0767 -0.2310226,0.163513 -0.34375,0.25 -0.1061728,0.0808 -0.2132809,0.161112 -0.3125,0.25 C 8.4783201,7.442683 8.3087904,7.626638 8.15625,7.8125 8.0486711,7.942755 7.9378561,8.077785 7.84375,8.21875 7.818661,8.25713 7.805304,8.30462 7.78125,8.34375 7.716487,8.446782 7.6510225,8.548267 7.59375,8.65625 7.4927417,8.850956 7.3880752,9.071951 7.3125,9.28125 7.30454,9.30306 7.288911,9.3218 7.28125,9.34375 7.2494249,9.4357 7.2454455,9.530581 7.21875,9.625 7.1884177,9.731618 7.1483606,9.828031 7.125,9.9375 7.0521214,10.279012 7,10.635705 7,11 v 2 68 2 c 0,2.781848 2.2181517,5 5,5 h 2 68 2 c 2.781848,0 5,-2.218152 5,-5 V 81 13 11 C 89,10.635705 88.94788,10.279012 88.875,9.9375 88.83085,9.730607 88.78662,9.539842 88.71875,9.34375 88.71105,9.3218 88.69545,9.30306 88.6875,9.28125 88.62476,9.107511 88.549117,8.913801 88.46875,8.75 88.42717,8.6672 88.38971,8.580046 88.34375,8.5 88.28915,8.40279 88.216976,8.31165 88.15625,8.21875 88.06214,8.077785 87.951329,7.942755 87.84375,7.8125 87.700576,7.63805 87.540609,7.465502 87.375,7.3125 87.36383,7.3023 87.35502,7.29135 87.34375,7.28125 87.205364,7.155694 87.058659,7.046814 86.90625,6.9375 86.803679,6.86435 86.701932,6.784136 86.59375,6.71875 c -0.0074,-0.0045 -0.02384,0.0044 -0.03125,0 -0.232039,-0.138728 -0.462548,-0.274778 -0.71875,-0.375 0.301527,0.0968 0.596455,0.204138 0.875,0.34375 0.55709,0.279224 1.060053,0.665694 1.5,1.09375 0.219973,0.214028 0.409366,0.441865 0.59375,0.6875 0.184384,0.245635 0.355408,0.507743 0.5,0.78125 0.14012,0.265048 0.276135,0.524729 0.375,0.8125 0.01041,0.03078 0.02133,0.06274 0.03125,0.09375 0.09046,0.278085 0.1388,0.579404 0.1875,0.875 C 89.95865,11.3493 90,11.665279 90,12 v 2 68 2 c 0,3.324 -2.676,6 -6,6 z"
       inkscape:connector-curvature="0"
       id="path3615-6"
       style="display:inline;opacity:0.15;fill:url(#radialGradient3619-3);fill-opacity:1;fill-rule:nonzero;stroke:none" />
  </g>
  <g
     id="layer5"
     style="display:none">
    <rect
       width="66"
       height="66"
       rx="12"
       ry="12"
       x="15"
       y="15"
       clip-path="url(#clipPath3613)"
       id="rect3171"
       style="opacity:0.1;fill:url(#linearGradient3613);fill-opacity:1;fill-rule:nonzero;stroke:#ffffff;stroke-width:0.5;stroke-linecap:round;stroke-linejoin:miter;stroke-miterlimit:4;stroke-opacity:1;stroke-dasharray:none;stroke-dashoffset:0;filter:url(#filter3794)" />
  </g>
  <g
     id="layer6"
     style="display:inline">
    <path
       d="M 37.4746,5.6927536 C 21.755412,5.4661141 7.1623976,18.157649 5.2047311,33.757523 2.9047391,47.909847 11.262228,62.829342 24.479107,68.336238 c 8.860442,3.917325 19.408068,3.450063 27.995493,-0.955984 3.613568,-2.219361 6.0971,0.224043 6.845399,3.708154 2.858356,4.099854 6.881344,7.248459 10.308894,10.88681 2.948844,2.757952 5.643597,5.93104 8.746534,8.402637 5.220041,3.873895 13.025951,-1.217888 12.501195,-7.399944 C 90.614967,78.410585 86.400442,76.072449 83.682075,72.961199 79.39795,68.864915 75.447463,64.363157 70.906408,60.583551 67.635925,59.404301 64.331814,57.449984 66.606211,53.51309 69.990892,46.239185 71.252217,37.797333 69.028086,29.971832 65.442688,16.022111 51.902278,5.5487206 37.4746,5.6927536 Z m 0,13.8750004 C 47.930907,19.26861 57.22374,28.98939 56.387404,39.431199 56.132827,49.895406 45.927663,58.65639 35.542,57.297992 25.094851,56.51844 16.94133,45.855768 18.801259,35.577866 20.033014,26.556591 28.365511,19.405986 37.4746,19.567754 Z m -4.546875,2.34375 c -2.25294,0.05033 -3.448995,2.426661 -3.046875,4.450824 0,1.532016 0,3.064033 0,4.596051 -2.516947,0.223581 -5.235546,-0.515183 -7.59375,0.515625 -2.298021,1.717962 -1.114438,4.863405 -1.40625,7.294378 0.266424,2.412131 -0.919141,5.742317 1.6875,7.189997 2.317691,0.777633 4.887392,0.193486 7.3125,0.375 0.223581,2.516947 -0.515182,5.235546 0.515625,7.59375 1.717962,2.298021 4.863405,1.114438 7.294379,1.40625 2.41213,-0.266424 5.742316,0.919141 7.189996,-1.6875 0.777633,-2.317691 0.193487,-4.887392 0.375,-7.3125 2.516948,-0.223581 5.235546,0.515182 7.59375,-0.515625 2.298021,-1.717962 1.114439,-4.863405 1.40625,-7.294379 -0.266424,-2.41213 0.919142,-5.742316 -1.6875,-7.189996 -2.31769,-0.777633 -4.887391,-0.193487 -7.3125,-0.375 -0.223581,-2.516948 0.515183,-5.235546 -0.515625,-7.59375 -1.717962,-2.298021 -4.863405,-1.114439 -7.294378,-1.40625 -1.501955,-0.03601 -3.029481,0.06916 -4.518122,-0.04687 z m 52.59375,57.375 0.04687,0.09375 z m -8.71875,9.515625 c 0.413609,0.465066 0.0057,0.343303 0,0 z"
       inkscape:connector-curvature="0"
       id="path3910"
       style="display:inline;opacity:0.15;fill:#000000;fill-opacity:1;stroke:none;stroke-width:1.5" />
    <path
       d="m 37.4746,7.4271286 c -7.929115,0 -15.825676,3.1694254 -21.84375,9.1875004 -12.0527894,12.052791 -12.0527909,31.587838 0,43.640625 9.54212,9.542118 23.73669,11.477163 35.25,5.90625 0.148845,-0.07201 0.466263,-0.216938 0.796875,-0.375 0.04153,-0.01639 0.14268,-0.02971 0.1875,-0.04687 0.827991,-0.316889 2.146041,-0.731957 3.46875,-0.84375 1.394318,-0.11784 2.617346,0.0861 3.375,0.84375 0.590741,0.59074 0.793349,1.297978 1.21875,2.484375 0.425402,1.186396 1.095807,2.73643 2.625,4.265625 l 15.65625,15.515625 a 1.4676001,1.4676001 0 0 0 0.09375,0.09375 c 0.0093,0.008 0.03205,0.0017 0.09375,0.04687 a 1.4676001,1.4676001 0 0 0 0.04687,0.04687 c 0.0095,0.0084 -0.0102,0.03792 0,0.04687 0.123165,0.10749 0.287717,0.254839 0.515625,0.421875 0.455816,0.334069 1.091805,0.745746 1.921875,1.03125 1.660139,0.571008 4.187414,0.406333 6.28125,-1.6875 2.102828,-2.102829 2.244054,-4.633152 1.6875,-6.328125 -0.278277,-0.847487 -0.646024,-1.491543 -0.984375,-1.96875 -0.169174,-0.238604 -0.351891,-0.47289 -0.46875,-0.609375 -0.03896,-0.04549 -0.06435,-0.06094 -0.09375,-0.09375 -0.06238,-0.07858 -0.04717,-0.04852 -0.04687,-0.04687 -0.0176,-0.01927 -0.03979,-0.03922 -0.04687,-0.04687 A 1.4676001,1.4676001 0 0 0 87.1621,78.864629 L 71.646475,63.395879 c -1.517112,-1.517112 -2.985325,-2.198711 -4.125,-2.625 -1.139674,-0.42629 -1.828279,-0.609531 -2.4375,-1.21875 -0.91804,-0.918042 -1.052773,-2.635007 -0.75,-4.359375 0.298928,-1.702464 0.994626,-3.247563 1.03125,-3.328125 4.71e-4,-10e-4 -2.5e-4,-0.04633 0,-0.04687 5.550123,-11.512316 3.527657,-25.675469 -6,-35.203125 C 53.34433,10.593732 45.403717,7.4271286 37.4746,7.4271286 Z m 0,10.4062504 c 11.396975,0 20.671875,9.231783 20.671875,20.625 0,11.393218 -9.278658,20.671875 -20.671875,20.671875 -11.393218,0 -20.625,-9.274895 -20.625,-20.671875 0,-11.396979 9.228021,-20.625 20.625,-20.625 z m -4.6875,5.859375 a 1.4676001,1.4676001 0 0 0 -1.171875,1.453125 v 7.546875 H 24.06835 a 1.4676001,1.4676001 0 0 0 -1.453125,1.453125 v 9 a 1.4676001,1.4676001 0 0 0 1.453125,1.453125 h 7.546875 v 7.546875 a 1.4676001,1.4676001 0 0 0 1.453125,1.453125 h 9 a 1.4676001,1.4676001 0 0 0 1.453125,-1.453125 v -7.546875 h 7.546875 a 1.4676001,1.4676001 0 0 0 1.453125,-1.453125 v -9 A 1.4676001,1.4676001 0 0 0 51.06835,32.692754 H 43.521475 V 25.145879 A 1.4676001,1.4676001 0 0 0 42.06835,23.692754 h -9 a 1.4676001,1.4676001 0 0 0 -0.28125,0 z"
       id="path3906"
       style="display:inline;opacity:0.15;fill:#000000;fill-opacity:1;stroke:none;stroke-width:1.5" />
    <path
       d="m 37.4746,8.8802536 c -7.537266,0 -15.065853,3.0189764 -20.8125,8.7656254 -11.4932909,11.493292 -11.4932924,30.084837 0,41.578125 9.098858,9.098856 22.593233,10.932669 33.5625,5.625 0.288665,-0.139665 0.652598,-0.272243 0.9375,-0.421875 1.780644,-0.703235 6.212786,-2.084088 8.578125,0.28125 1.754439,1.754439 1.159908,4.066156 3.84375,6.75 l 15.65625,15.515625 c 0.01863,-0.01866 3.382295,3.508326 6.890625,0 3.521879,-3.52188 0.0512,-7.013633 0,-7.078125 L 70.615225,64.427129 c -2.683843,-2.683844 -4.808064,-2.089319 -6.5625,-3.84375 -2.892397,-2.892402 -0.172797,-9.006149 0,-9.375 5.307668,-10.969269 3.380106,-24.463644 -5.71875,-33.5625 C 52.587328,11.89923 45.011868,8.8802536 37.4746,8.8802536 Z m 0,7.5000004 c 12.190472,0 22.125,9.887649 22.125,22.078125 0,12.190477 -9.934524,22.125 -22.125,22.125 -12.190477,0 -22.078125,-9.934523 -22.078125,-22.125 0,-12.190476 9.887649,-22.078125 22.078125,-22.078125 z m -4.40625,8.765625 v 9 h -9 v 9 h 9 v 9 h 9 v -9 h 9 v -9 h -9 v -9 z"
       inkscape:connector-curvature="0"
       id="path3900"
       style="display:inline;opacity:0.3;fill:#000000;fill-opacity:1;stroke:none;stroke-width:1.5" />
    <rect
       width="16"
       height="16"
       x="0"
       y="104"
       transform="matrix(0,1,1,0,0,0)"
       id="rect3897"
       style="color:#000000;fill:url(#linearGradient3905);fill-opacity:1;fill-rule:nonzero;stroke:none;stroke-width:2;marker:none;visibility:visible;display:inline;overflow:visible;enable-background:accumulate" />
    <text
       x="104"
       y="48"
       id="text3907"
       xml:space="preserve"
       style="font-size:4px;font-style:normal;font-variant:normal;font-weight:normal;font-stretch:normal;text-align:start;line-height:125%;letter-spacing:0px;word-spacing:0px;writing-mode:lr-tb;text-anchor:start;fill:#000000;fill-opacity:1;stroke:none;font-family:Liberation Sans;-inkscape-font-specification:Liberation Sans"><tspan
         x="104"
         y="48"
         id="tspan3909">Shadow opacity : 30, 15, 10, (8)</tspan></text>
    <rect
       width="16"
       height="16"
       x="-40"
       y="104"
       transform="matrix(0,-1,1,0,0,0)"
       id="rect3911"
       style="color:#000000;fill:url(#linearGradient3913);fill-opacity:1;fill-rule:nonzero;stroke:none;stroke-width:2;marker:none;visibility:visible;display:inline;overflow:visible;enable-background:accumulate" />
    <text
       x="124"
       y="32"
       id="text3951"
       xml:space="preserve"
       style="font-size:4px;font-style:normal;font-variant:normal;font-weight:normal;font-stretch:normal;text-align:start;line-height:125%;letter-spacing:0px;word-spacing:0px;writing-mode:lr-tb;text-anchor:start;fill:#000000;fill-opacity:1;stroke:none;font-family:Liberation Sans;-inkscape-font-specification:Liberation Sans"><tspan
         x="124"
         y="32"
         id="tspan3953">Bevel opacity : 30 / 10</tspan></text>
    <text
       x="124"
       y="8"
       id="text3955"
       xml:space="preserve"
       style="font-size:4px;font-style:normal;font-variant:normal;font-weight:normal;font-stretch:normal;text-align:start;line-height:125%;letter-spacing:0px;word-spacing:0px;writing-mode:lr-tb;text-anchor:start;fill:#000000;fill-opacity:1;stroke:none;font-family:Liberation Sans;-inkscape-font-specification:Liberation Sans"><tspan
         x="124"
         y="8"
         id="tspan3957">Bevel opacity : 75 / 15</tspan></text>
    <path
       d="m 37.4746,7.3802536 c -7.537266,0 -15.065853,3.0189764 -20.8125,8.7656254 -11.4932909,11.493292 -11.4932924,30.084837 0,41.578125 9.098858,9.098856 22.593233,10.932669 33.5625,5.625 0.288665,-0.139665 0.652598,-0.272243 0.9375,-0.421875 1.780644,-0.703235 6.212786,-2.084088 8.578125,0.28125 1.754439,1.754439 1.159908,4.066156 3.84375,6.75 l 15.65625,15.515625 c 0.01863,-0.01866 3.382295,3.508326 6.890625,0 3.521879,-3.52188 0.0512,-7.013633 0,-7.078125 L 70.615225,62.927129 c -2.683843,-2.683844 -4.808064,-2.089319 -6.5625,-3.84375 -2.892397,-2.892402 -0.172797,-9.006149 0,-9.375 5.307668,-10.969269 3.380106,-24.463644 -5.71875,-33.5625 C 52.587328,10.39923 45.011868,7.3802536 37.4746,7.3802536 Z m 0,7.5000004 c 12.190472,0 22.125,9.887649 22.125,22.078125 0,12.190477 -9.934524,22.125 -22.125,22.125 -12.190477,0 -22.078125,-9.934523 -22.078125,-22.125 0,-12.190476 9.887649,-22.078125 22.078125,-22.078125 z m -4.40625,8.765625 v 9 h -9 v 9 h 9 v 9 h 9 v -9 h 9 v -9 h -9 v -9 z"
       inkscape:connector-curvature="0"
       id="path3869"
       style="display:inline;fill:url(#linearGradient3879);fill-opacity:1;stroke:none;stroke-width:1.5" />
    <path
       d="m 37.4746,7.3802536 c -7.537266,0 -15.065853,3.0189764 -20.8125,8.7656254 -5.93832,5.93832 -8.7761924,13.792468 -8.5781249,21.5625 0.182352,-7.272603 3.0200179,-14.504391 8.5781249,-20.0625 5.746647,-5.746649 13.275234,-8.7656254 20.8125,-8.7656254 7.537268,0 15.112728,3.0189764 20.859375,8.7656254 5.556689,5.556688 8.43204,12.756538 8.625,20.015625 0.191213,-7.762095 -2.684239,-15.574865 -8.625,-21.515625 C 52.587328,10.39923 45.011868,7.3802536 37.4746,7.3802536 Z M 33.06835,23.645879 v 1.5 h 9 v -1.5 z m -9,9 v 1.5 h 9 v -1.5 z m 18,0 v 1.5 h 9 v -1.5 z m -26.625,5.0625 c -0.0086,0.252117 -0.04687,0.495811 -0.04687,0.75 0,12.190477 9.887648,22.125 22.078125,22.125 12.190476,0 22.125,-9.934523 22.125,-22.125 0,-0.254189 -0.03831,-0.497883 -0.04687,-0.75 -0.40239,11.840902 -10.141837,21.375 -22.078125,21.375 -11.936289,0 -21.630735,-9.534098 -22.03125,-21.375 z m 47.34375,18.46875 c -0.11367,1.60869 0.112725,3.253348 1.265625,4.40625 1.754436,1.754431 3.878657,1.159906 6.5625,3.84375 l 15.515625,15.46875 c 0.03006,0.03786 1.21983,1.28668 1.5,3 0.507263,-2.470872 -1.461603,-4.451631 -1.5,-4.5 L 70.615225,62.927129 c -2.683843,-2.683844 -4.808064,-2.089319 -6.5625,-3.84375 -0.790626,-0.790628 -1.147,-1.817363 -1.265625,-2.90625 z"
       inkscape:connector-curvature="0"
       id="path3882"
       style="display:inline;opacity:0.75;fill:#ffffff;fill-opacity:1;stroke:none;stroke-width:1.5" />
    <path
       d="m 37.4746,13.380254 c -12.190476,0 -22.078125,9.887649 -22.078125,22.078125 0,0.254188 0.03834,0.497842 0.04687,0.75 0.400515,-11.839028 10.094963,-21.328125 22.03125,-21.328125 11.936283,0 21.675735,9.489097 22.078125,21.328125 0.0085,-0.252158 0.04687,-0.495812 0.04687,-0.75 0,-12.190476 -9.934528,-22.078125 -22.125,-22.078125 z m 29.484375,22.78125 c -0.101655,4.126314 -1.064026,8.239582 -2.90625,12.046875 -0.125565,0.268027 -1.580971,3.574092 -1.265625,6.46875 0.17151,-2.427197 1.161704,-4.746921 1.265625,-4.96875 2.066265,-4.270316 3.029255,-8.919497 2.90625,-13.546875 z m -58.8749999,0.04687 c -0.194724,7.765993 2.6429419,15.580443 8.5781249,21.515625 9.098858,9.098856 22.593233,10.932669 33.5625,5.625 0.288665,-0.139665 0.652598,-0.272243 0.9375,-0.421875 1.780644,-0.703235 6.212786,-2.084088 8.578125,0.28125 1.754439,1.754439 1.159908,4.066156 3.84375,6.75 l 15.65625,15.515625 c 0.01863,-0.01866 3.382295,3.508326 6.890625,0 1.453986,-1.453988 1.696995,-2.873448 1.5,-4.078125 -0.169087,0.823624 -0.61953,1.697655 -1.5,2.578125 -3.50833,3.508326 -6.871995,-0.01866 -6.890625,0 l -15.65625,-15.51562 c -2.683842,-2.683844 -2.089311,-4.995561 -3.84375,-6.75 -2.365339,-2.365338 -6.797481,-0.984485 -8.578125,-0.28125 -0.284902,0.14964 -0.648835,0.28221 -0.9375,0.421875 -10.969267,5.307669 -24.463642,3.473856 -33.5625,-5.625 C 11.107128,50.669034 8.2692566,43.476816 8.0839751,36.208379 Z m 15.9843749,3.9375 v 1.5 h 9 v -1.5 z m 18,0 v 1.5 h 9 v -1.5 z m -9,9 v 1.5 h 9 v -1.5 z"
       inkscape:connector-curvature="0"
       id="path3891"
       style="display:inline;opacity:0.15;fill:#000000;fill-opacity:1;stroke:none;stroke-width:1.5" />
  </g>
</svg>
