<?xml version="1.0" encoding="UTF-8" standalone="no"?>
<!-- Created with Inkscape (http://www.inkscape.org/) -->

<svg
   version="1.0"
   width="96"
   height="96"
   id="svg2408"
   sodipodi:docname="gtk-fullscreen.svg"
   inkscape:version="1.2.2 (b0a8486541, 2022-12-01)"
   xmlns:inkscape="http://www.inkscape.org/namespaces/inkscape"
   xmlns:sodipodi="http://sodipodi.sourceforge.net/DTD/sodipodi-0.dtd"
   xmlns:xlink="http://www.w3.org/1999/xlink"
   xmlns="http://www.w3.org/2000/svg"
   xmlns:svg="http://www.w3.org/2000/svg"
   xmlns:rdf="http://www.w3.org/1999/02/22-rdf-syntax-ns#"
   xmlns:cc="http://creativecommons.org/ns#"
   xmlns:dc="http://purl.org/dc/elements/1.1/">
  <sodipodi:namedview
     id="namedview13856"
     pagecolor="#ffffff"
     bordercolor="#666666"
     borderopacity="1.0"
     inkscape:showpageshadow="2"
     inkscape:pageopacity="0.0"
     inkscape:pagecheckerboard="0"
     inkscape:deskcolor="#d1d1d1"
     showgrid="false"
     inkscape:zoom="2.4583333"
     inkscape:cx="39.661017"
     inkscape:cy="48"
     inkscape:window-width="1872"
     inkscape:window-height="1011"
     inkscape:window-x="48"
     inkscape:window-y="0"
     inkscape:window-maximized="1"
     inkscape:current-layer="layer3" />
  <defs
     id="defs2410">
    <linearGradient
       id="linearGradient3637">
      <stop
         id="stop3639"
         style="stop-color:#f0f0f0;stop-opacity:1"
         offset="0" />
      <stop
         id="stop3641"
         style="stop-color:#dcdcdc;stop-opacity:1"
         offset="1" />
    </linearGradient>
    <linearGradient
       x1="45.447727"
       y1="92.539597"
       x2="45.447727"
       y2="7.0165396"
       id="ButtonShadow"
       gradientUnits="userSpaceOnUse"
       gradientTransform="scale(1.0058652,0.994169)">
      <stop
         id="stop3750"
         style="stop-color:#000000;stop-opacity:1"
         offset="0" />
      <stop
         id="stop3752"
         style="stop-color:#000000;stop-opacity:0.58823532"
         offset="1" />
    </linearGradient>
    <linearGradient
       id="linearGradient3737">
      <stop
         id="stop3739"
         style="stop-color:#ffffff;stop-opacity:1"
         offset="0" />
      <stop
         id="stop3741"
         style="stop-color:#ffffff;stop-opacity:0"
         offset="1" />
    </linearGradient>
    <filter
       color-interpolation-filters="sRGB"
       id="filter3174"
       x="-0.047720931"
       y="-0.048282354"
       width="1.0954419"
       height="1.0965647">
      <feGaussianBlur
         id="feGaussianBlur3176"
         stdDeviation="1.71" />
    </filter>
    <linearGradient
       x1="36.357143"
       y1="6"
       x2="36.357143"
       y2="63.893143"
       id="linearGradient3188"
       xlink:href="#linearGradient3737"
       gradientUnits="userSpaceOnUse" />
    <filter
       x="-0.19578789"
       y="-0.19578789"
       width="1.3915758"
       height="1.3915758"
       color-interpolation-filters="sRGB"
       id="filter3794">
      <feGaussianBlur
         id="feGaussianBlur3796"
         stdDeviation="5.28" />
    </filter>
    <linearGradient
       x1="48"
       y1="20.220806"
       x2="48"
       y2="138.66119"
       id="linearGradient3613"
       xlink:href="#linearGradient3737"
       gradientUnits="userSpaceOnUse" />
    <radialGradient
       cx="48"
       cy="90.171875"
       r="42"
       fx="48"
       fy="90.171875"
       id="radialGradient3619"
       xlink:href="#linearGradient3737"
       gradientUnits="userSpaceOnUse"
       gradientTransform="matrix(1.1573129,0,0,0.99590774,-7.5510206,0.19713193)" />
    <clipPath
       id="clipPath3613">
      <rect
         width="84"
         height="84"
         rx="6"
         ry="6"
         x="6"
         y="6"
         id="rect3615"
         style="fill:#ffffff;fill-opacity:1;fill-rule:nonzero;stroke:none" />
    </clipPath>
    <clipPath
       id="clipPath3625">
      <path
         d="M 0,0 0,96 96,96 96,0 0,0 z m 12,6 72,0 c 3.324,0 6,2.676 6,6 l 0,72 c 0,3.324 -2.676,6 -6,6 L 12,90 C 8.676,90 6,87.324 6,84 L 6,12 C 6,8.676 8.676,6 12,6 z"
         inkscape:connector-curvature="0"
         id="path3627"
         style="fill:#ffffff;fill-opacity:1;stroke:none" />
    </clipPath>
    <linearGradient
       x1="44.512066"
       y1="6"
       x2="44.512066"
       y2="90.015434"
       id="linearGradient3643"
       xlink:href="#linearGradient3637"
       gradientUnits="userSpaceOnUse" />
    <linearGradient
       id="linearGradient4081">
      <stop
         id="stop4083"
         style="stop-color:#aaaaaa;stop-opacity:1"
         offset="0" />
      <stop
         id="stop4085"
         style="stop-color:#f0f0f0;stop-opacity:1"
         offset="1" />
    </linearGradient>
    <linearGradient
       x1="45.447727"
       y1="92.539597"
       x2="45.447727"
       y2="7.0165396"
       id="ButtonShadow-0"
       gradientUnits="userSpaceOnUse"
       gradientTransform="matrix(1.0058652,0,0,0.994169,100,0)">
      <stop
         id="stop3750-8"
         style="stop-color:#000000;stop-opacity:1"
         offset="0" />
      <stop
         id="stop3752-5"
         style="stop-color:#000000;stop-opacity:0.58823532"
         offset="1" />
    </linearGradient>
    <linearGradient
       x1="32.251034"
       y1="6.1317081"
       x2="32.251034"
       y2="90.238609"
       id="linearGradient3780"
       xlink:href="#ButtonShadow-0"
       gradientUnits="userSpaceOnUse"
       gradientTransform="matrix(1.0238095,0,0,-1.0119048,-1.1428571,98.071429)" />
    <linearGradient
       x1="32.251034"
       y1="6.1317081"
       x2="32.251034"
       y2="90.238609"
       id="linearGradient3772"
       xlink:href="#ButtonShadow-0"
       gradientUnits="userSpaceOnUse"
       gradientTransform="matrix(1.0238095,0,0,-1.0119048,-1.1428571,98.071429)" />
    <linearGradient
       x1="32.251034"
       y1="6.1317081"
       x2="32.251034"
       y2="90.238609"
       id="linearGradient3725-6"
       xlink:href="#ButtonShadow-0"
       gradientUnits="userSpaceOnUse"
       gradientTransform="matrix(1.0238095,0,0,-1.0119048,-1.1428571,98.071429)" />
    <linearGradient
       x1="32.251034"
       y1="6.1317081"
       x2="32.251034"
       y2="90.238609"
       id="linearGradient3721"
       xlink:href="#ButtonShadow-0"
       gradientUnits="userSpaceOnUse"
       gradientTransform="matrix(1,0,0,-1,0,97)" />
    <linearGradient
       x1="32.251034"
       y1="6.1317081"
       x2="32.251034"
       y2="90.238609"
       id="linearGradient3289"
       xlink:href="#ButtonShadow-0"
       gradientUnits="userSpaceOnUse"
       gradientTransform="matrix(1.0238095,0,0,-1.0119048,-1.1428571,98.071429)" />
    <linearGradient
       x1="36.357143"
       y1="6"
       x2="36.357143"
       y2="63.893143"
       id="linearGradient3188-3"
       xlink:href="#linearGradient3737-9"
       gradientUnits="userSpaceOnUse" />
    <linearGradient
       id="linearGradient3737-9">
      <stop
         id="stop3739-1"
         style="stop-color:#ffffff;stop-opacity:1"
         offset="0" />
      <stop
         id="stop3741-1"
         style="stop-color:#ffffff;stop-opacity:0"
         offset="1" />
    </linearGradient>
    <radialGradient
       cx="48"
       cy="90.171875"
       r="42"
       fx="48"
       fy="90.171875"
       id="radialGradient3619-1"
       xlink:href="#linearGradient3737-9"
       gradientUnits="userSpaceOnUse"
       gradientTransform="matrix(1.1573129,0,0,0.99590774,-7.551021,0.1971319)" />
    <linearGradient
       x1="53.464466"
       y1="78"
       x2="53.464466"
       y2="18.191624"
       id="linearGradient3198"
       xlink:href="#linearGradient4081"
       gradientUnits="userSpaceOnUse"
       gradientTransform="matrix(1.4260183,0,0,1.4260183,-20.448877,-20.873263)" />
  </defs>
  <metadata
     id="metadata2413">
    <rdf:RDF>
      <cc:Work
         rdf:about="">
        <dc:format>image/svg+xml</dc:format>
        <dc:type
           rdf:resource="http://purl.org/dc/dcmitype/StillImage" />
      </cc:Work>
    </rdf:RDF>
  </metadata>
  <g
     id="layer2"
     style="display:none">
    <rect
       width="86"
       height="85"
       rx="6"
       ry="6"
       x="5"
       y="7"
       clip-path="url(#clipPath3625)"
       id="rect3745"
       style="opacity:0.9;fill:url(#ButtonShadow);fill-opacity:1;fill-rule:nonzero;stroke:none;filter:url(#filter3174)" />
  </g>
  <g
     id="layer4"
     style="display:none">
    <path
       d="M 12,3.96875 C 6.4889098,3.96875 1.96875,8.4889098 1.96875,14 v 71 c 0,5.51109 4.5201597,10.03125 10.03125,10.03125 h 72 c 5.51109,0 10.03125,-4.52016 10.03125,-10.03125 V 14 C 94.03125,8.4889097 89.51109,3.96875 84,3.96875 Z M 12,6 h 72 c 3.324,0 6,2.676 6,6 v 72 c 0,3.324 -2.676,6 -6,6 H 12 C 8.676,90 6,87.324 6,84 V 12 C 6,8.676 8.676,6 12,6 Z"
       inkscape:connector-curvature="0"
       id="path3786"
       style="display:inline;opacity:0.08;fill:url(#linearGradient3289);fill-opacity:1;fill-rule:nonzero;stroke:none" />
    <path
       d="M 12,4.96875 C 7.0283671,4.96875 2.96875,9.0283671 2.96875,14 v 71 c 0,4.971633 4.059617,9.03125 9.03125,9.03125 h 72 c 4.971633,0 9.03125,-4.059617 9.03125,-9.03125 V 14 C 93.03125,9.028367 88.971633,4.96875 84,4.96875 Z M 12,6 h 72 c 3.324,0 6,2.676 6,6 v 72 c 0,3.324 -2.676,6 -6,6 H 12 C 8.676,90 6,87.324 6,84 V 12 C 6,8.676 8.676,6 12,6 Z"
       inkscape:connector-curvature="0"
       id="path3778"
       style="display:inline;opacity:0.1;fill:url(#linearGradient3780);fill-opacity:1;fill-rule:nonzero;stroke:none" />
    <path
       d="M 11.1875,6.03125 C 7.159982,6.4419011 4,9.8664375 4,14 v 71 c 0,4.409133 3.590867,8 8,8 h 72 c 4.409133,0 8,-3.590867 8,-8 V 14 C 92,9.8029382 88.741028,6.3539584 84.625,6.03125 87.657886,6.337417 90,8.88375 90,12 v 72 c 0,3.324 -2.676,6 -6,6 H 12 C 8.676,90 6,87.324 6,84 V 12 c 0,-3.11625 2.342114,-5.662583 5.375,-5.96875 -0.06227,0.00488 -0.12563,-0.00631 -0.1875,0 z"
       inkscape:connector-curvature="0"
       id="path3770"
       style="display:inline;opacity:0.2;fill:url(#linearGradient3772);fill-opacity:1;fill-rule:nonzero;stroke:none" />
    <path
       d="M 6.4375,9.75 C 5.5380109,10.927446 5,12.397277 5,14 v 71 c 0,3.878 3.122,7 7,7 h 72 c 3.878,0 7,-3.122 7,-7 V 14 C 91,12.397277 90.461989,10.927446 89.5625,9.75 89.841816,10.444095 90,11.203625 90,12 v 72 c 0,3.324 -2.676,6 -6,6 H 12 C 8.676,90 6,87.324 6,84 V 12 C 6,11.203625 6.1581836,10.444095 6.4375,9.75 Z"
       inkscape:connector-curvature="0"
       id="rect3723"
       style="display:inline;opacity:0.3;fill:url(#linearGradient3725-6);fill-opacity:1;fill-rule:nonzero;stroke:none" />
    <path
       d="m 6,84 v 1 c 0,3.324 2.676,6 6,6 h 72 c 3.324,0 6,-2.676 6,-6 v -1 c 0,3.324 -2.676,6 -6,6 H 12 C 8.676,90 6,87.324 6,84 Z"
       inkscape:connector-curvature="0"
       id="rect3716"
       style="display:inline;opacity:0.45;fill:url(#linearGradient3721);fill-opacity:1;fill-rule:nonzero;stroke:none" />
  </g>
  <g
     id="layer1"
     style="display:none">
    <rect
       width="76"
       height="76"
       rx="5.4285707"
       ry="5.4285707"
       x="10"
       y="10"
       id="rect2419"
       style="opacity:0.7;fill:#000000;fill-opacity:1;fill-rule:nonzero;stroke:none" />
    <path
       d="m 14,10 c -2.216,0 -4,1.784 -4,4 l 0,68 c 0,2.216 1.784,4 4,4 l 68,0 c 2.216,0 4,-1.784 4,-4 l 0,-68 c 0,-2.216 -1.784,-4 -4,-4 l -68,0 z m 0,3.0625 68,0 c 0.578769,0 0.9375,0.358731 0.9375,0.9375 l 0,68 c 0,0.578769 -0.358731,0.9375 -0.9375,0.9375 l -68,0 c -0.578769,0 -0.9375,-0.358731 -0.9375,-0.9375 l 0,-68 c 0,-0.578769 0.358731,-0.9375 0.9375,-0.9375 z"
       inkscape:connector-curvature="0"
       id="rect3726"
       style="opacity:0.07999998;fill:#000000;fill-opacity:1;fill-rule:nonzero;stroke:none" />
    <path
       d="M 12,6 C 8.676,6 6,8.676 6,12 l 0,72 c 0,3.324 2.676,6 6,6 l 72,0 c 3.324,0 6,-2.676 6,-6 L 90,12 C 90,8.676 87.324,6 84,6 L 12,6 z m 2,4 68,0 c 2.216,0 4,1.784 4,4 l 0,68 c 0,2.216 -1.784,4 -4,4 l -68,0 c -2.216,0 -4,-1.784 -4,-4 l 0,-68 c 0,-2.216 1.784,-4 4,-4 z"
       inkscape:connector-curvature="0"
       id="rect3629"
       style="fill:url(#linearGradient3643);fill-opacity:1;fill-rule:nonzero;stroke:none" />
    <path
       d="M 12,6 C 8.676,6 6,8.676 6,12 l 0,2 0,68 0,2 c 0,0.334721 0.04135,0.6507 0.09375,0.96875 0.0487,0.295596 0.09704,0.596915 0.1875,0.875 0.00988,0.03038 0.020892,0.0636 0.03125,0.09375 0.098865,0.287771 0.2348802,0.547452 0.375,0.8125 0.1445918,0.273507 0.3156161,0.535615 0.5,0.78125 0.1843839,0.245635 0.3737765,0.473472 0.59375,0.6875 0.439947,0.428056 0.94291,0.814526 1.5,1.09375 0.278545,0.139612 0.5734731,0.246947 0.875,0.34375 -0.2562018,-0.100222 -0.4867109,-0.236272 -0.71875,-0.375 -0.00741,-0.0044 -0.023866,0.0045 -0.03125,0 -0.031933,-0.0193 -0.062293,-0.04251 -0.09375,-0.0625 -0.120395,-0.0767 -0.2310226,-0.163513 -0.34375,-0.25 -0.1061728,-0.0808 -0.2132809,-0.161112 -0.3125,-0.25 C 8.4783201,88.557317 8.3087904,88.373362 8.15625,88.1875 8.0486711,88.057245 7.9378561,87.922215 7.84375,87.78125 7.818661,87.74287 7.805304,87.69538 7.78125,87.65625 7.716487,87.553218 7.6510225,87.451733 7.59375,87.34375 7.4927417,87.149044 7.3880752,86.928049 7.3125,86.71875 7.30454,86.69694 7.288911,86.6782 7.28125,86.65625 7.2494249,86.5643 7.2454455,86.469419 7.21875,86.375 7.1884177,86.268382 7.1483606,86.171969 7.125,86.0625 7.0521214,85.720988 7,85.364295 7,85 L 7,83 7,15 7,13 C 7,10.218152 9.2181517,8 12,8 l 2,0 68,0 2,0 c 2.781848,0 5,2.218152 5,5 l 0,2 0,68 0,2 c 0,0.364295 -0.05212,0.720988 -0.125,1.0625 -0.04415,0.206893 -0.08838,0.397658 -0.15625,0.59375 -0.0077,0.02195 -0.0233,0.04069 -0.03125,0.0625 -0.06274,0.173739 -0.138383,0.367449 -0.21875,0.53125 -0.04158,0.0828 -0.07904,0.169954 -0.125,0.25 -0.0546,0.09721 -0.126774,0.18835 -0.1875,0.28125 -0.09411,0.140965 -0.204921,0.275995 -0.3125,0.40625 -0.143174,0.17445 -0.303141,0.346998 -0.46875,0.5 -0.01117,0.0102 -0.01998,0.02115 -0.03125,0.03125 -0.138386,0.125556 -0.285091,0.234436 -0.4375,0.34375 -0.102571,0.07315 -0.204318,0.153364 -0.3125,0.21875 -0.0074,0.0045 -0.02384,-0.0044 -0.03125,0 -0.232039,0.138728 -0.462548,0.274778 -0.71875,0.375 0.301527,-0.0968 0.596455,-0.204138 0.875,-0.34375 0.55709,-0.279224 1.060053,-0.665694 1.5,-1.09375 0.219973,-0.214028 0.409366,-0.441865 0.59375,-0.6875 0.184384,-0.245635 0.355408,-0.507743 0.5,-0.78125 0.14012,-0.265048 0.276135,-0.524729 0.375,-0.8125 0.01041,-0.03078 0.02133,-0.06274 0.03125,-0.09375 0.09046,-0.278085 0.1388,-0.579404 0.1875,-0.875 C 89.95865,84.6507 90,84.334721 90,84 l 0,-2 0,-68 0,-2 C 90,8.676 87.324,6 84,6 L 12,6 z"
       inkscape:connector-curvature="0"
       id="rect3728"
       style="fill:url(#linearGradient3188);fill-opacity:1;fill-rule:nonzero;stroke:none" />
    <path
       d="M 12,90 C 8.676,90 6,87.324 6,84 L 6,82 6,14 6,12 c 0,-0.334721 0.04135,-0.6507 0.09375,-0.96875 0.0487,-0.295596 0.09704,-0.596915 0.1875,-0.875 C 6.29113,10.12587 6.302142,10.09265 6.3125,10.0625 6.411365,9.774729 6.5473802,9.515048 6.6875,9.25 6.8320918,8.976493 7.0031161,8.714385 7.1875,8.46875 7.3718839,8.223115 7.5612765,7.995278 7.78125,7.78125 8.221197,7.353194 8.72416,6.966724 9.28125,6.6875 9.559795,6.547888 9.8547231,6.440553 10.15625,6.34375 9.9000482,6.443972 9.6695391,6.580022 9.4375,6.71875 c -0.00741,0.0044 -0.023866,-0.0045 -0.03125,0 -0.031933,0.0193 -0.062293,0.04251 -0.09375,0.0625 -0.120395,0.0767 -0.2310226,0.163513 -0.34375,0.25 -0.1061728,0.0808 -0.2132809,0.161112 -0.3125,0.25 C 8.4783201,7.442683 8.3087904,7.626638 8.15625,7.8125 8.0486711,7.942755 7.9378561,8.077785 7.84375,8.21875 7.818661,8.25713 7.805304,8.30462 7.78125,8.34375 7.716487,8.446782 7.6510225,8.548267 7.59375,8.65625 7.4927417,8.850956 7.3880752,9.071951 7.3125,9.28125 7.30454,9.30306 7.288911,9.3218 7.28125,9.34375 7.2494249,9.4357 7.2454455,9.530581 7.21875,9.625 7.1884177,9.731618 7.1483606,9.828031 7.125,9.9375 7.0521214,10.279012 7,10.635705 7,11 l 0,2 0,68 0,2 c 0,2.781848 2.2181517,5 5,5 l 2,0 68,0 2,0 c 2.781848,0 5,-2.218152 5,-5 l 0,-2 0,-68 0,-2 C 89,10.635705 88.94788,10.279012 88.875,9.9375 88.83085,9.730607 88.78662,9.539842 88.71875,9.34375 88.71105,9.3218 88.69545,9.30306 88.6875,9.28125 88.62476,9.107511 88.549117,8.913801 88.46875,8.75 88.42717,8.6672 88.38971,8.580046 88.34375,8.5 88.28915,8.40279 88.216976,8.31165 88.15625,8.21875 88.06214,8.077785 87.951329,7.942755 87.84375,7.8125 87.700576,7.63805 87.540609,7.465502 87.375,7.3125 87.36383,7.3023 87.35502,7.29135 87.34375,7.28125 87.205364,7.155694 87.058659,7.046814 86.90625,6.9375 86.803679,6.86435 86.701932,6.784136 86.59375,6.71875 c -0.0074,-0.0045 -0.02384,0.0044 -0.03125,0 -0.232039,-0.138728 -0.462548,-0.274778 -0.71875,-0.375 0.301527,0.0968 0.596455,0.204138 0.875,0.34375 0.55709,0.279224 1.060053,0.665694 1.5,1.09375 0.219973,0.214028 0.409366,0.441865 0.59375,0.6875 0.184384,0.245635 0.355408,0.507743 0.5,0.78125 0.14012,0.265048 0.276135,0.524729 0.375,0.8125 0.01041,0.03078 0.02133,0.06274 0.03125,0.09375 0.09046,0.278085 0.1388,0.579404 0.1875,0.875 C 89.95865,11.3493 90,11.665279 90,12 l 0,2 0,68 0,2 c 0,3.324 -2.676,6 -6,6 l -72,0 z"
       inkscape:connector-curvature="0"
       id="path3615"
       style="opacity:0.6;fill:url(#radialGradient3619);fill-opacity:1;fill-rule:nonzero;stroke:none" />
    <path
       d="m 14.089286,10 c -2.216,0 -4,1.784 -4,4 l 0,68 c 0,2.216 1.784,4 4,4 l 68,0 c 2.216,0 4,-1.784 4,-4 l 0,-68 c 0,-2.216 -1.784,-4 -4,-4 l -68,0 z m 0,2 68,0 c 1.140301,0 2,0.859699 2,2 l 0,68 c 0,1.140301 -0.859699,2 -2,2 l -68,0 c -1.140301,0 -2,-0.859699 -2,-2 l 0,-68 c 0,-1.140301 0.859699,-2 2,-2 z"
       inkscape:connector-curvature="0"
       id="path3709"
       style="opacity:0.16000001;fill:#000000;fill-opacity:1;fill-rule:nonzero;stroke:none" />
    <path
       d="m 14,10 c -2.216,0 -4,1.784 -4,4 l 0,68 c 0,2.216 1.784,4 4,4 l 68,0 c 2.216,0 4,-1.784 4,-4 l 0,-68 c 0,-2.216 -1.784,-4 -4,-4 l -68,0 z m 0,1 68,0 c 1.673848,0 3,1.326152 3,3 l 0,68 c 0,1.673848 -1.326152,3 -3,3 l -68,0 c -1.673848,0 -3,-1.326152 -3,-3 l 0,-68 c 0,-1.673848 1.326152,-3 3,-3 z"
       inkscape:connector-curvature="0"
       id="path3707"
       style="opacity:0.36000001;fill:#000000;fill-opacity:1;fill-rule:nonzero;stroke:none" />
  </g>
  <g
     id="layer9"
     style="display:none">
    <rect
       width="84"
       height="84"
       rx="6"
       ry="6"
       x="6"
       y="6"
       id="rect2419-2"
       style="display:inline;opacity:0.6;fill:#000000;fill-opacity:1;fill-rule:nonzero;stroke:none" />
    <path
       d="M 12,6 C 8.676,6 6,8.676 6,12 v 2 68 2 c 0,0.334721 0.04135,0.6507 0.09375,0.96875 0.0487,0.295596 0.09704,0.596915 0.1875,0.875 0.00988,0.03038 0.020892,0.0636 0.03125,0.09375 0.098865,0.287771 0.2348802,0.547452 0.375,0.8125 0.1445918,0.273507 0.3156161,0.535615 0.5,0.78125 0.1843839,0.245635 0.3737765,0.473472 0.59375,0.6875 0.439947,0.428056 0.94291,0.814526 1.5,1.09375 0.278545,0.139612 0.5734731,0.246947 0.875,0.34375 -0.2562018,-0.100222 -0.4867109,-0.236272 -0.71875,-0.375 -0.00741,-0.0044 -0.023866,0.0045 -0.03125,0 -0.031933,-0.0193 -0.062293,-0.04251 -0.09375,-0.0625 -0.120395,-0.0767 -0.2310226,-0.163513 -0.34375,-0.25 -0.1061728,-0.0808 -0.2132809,-0.161112 -0.3125,-0.25 C 8.4783201,88.557317 8.3087904,88.373362 8.15625,88.1875 8.0486711,88.057245 7.9378561,87.922215 7.84375,87.78125 7.818661,87.74287 7.805304,87.69538 7.78125,87.65625 7.716487,87.553218 7.6510225,87.451733 7.59375,87.34375 7.4927417,87.149044 7.3880752,86.928049 7.3125,86.71875 7.30454,86.69694 7.288911,86.6782 7.28125,86.65625 7.2494249,86.5643 7.2454455,86.469419 7.21875,86.375 7.1884177,86.268382 7.1483606,86.171969 7.125,86.0625 7.0521214,85.720988 7,85.364295 7,85 V 83 15 13 C 7,10.218152 9.2181517,8 12,8 h 2 68 2 c 2.781848,0 5,2.218152 5,5 v 2 68 2 c 0,0.364295 -0.05212,0.720988 -0.125,1.0625 -0.04415,0.206893 -0.08838,0.397658 -0.15625,0.59375 -0.0077,0.02195 -0.0233,0.04069 -0.03125,0.0625 -0.06274,0.173739 -0.138383,0.367449 -0.21875,0.53125 -0.04158,0.0828 -0.07904,0.169954 -0.125,0.25 -0.0546,0.09721 -0.126774,0.18835 -0.1875,0.28125 -0.09411,0.140965 -0.204921,0.275995 -0.3125,0.40625 -0.143174,0.17445 -0.303141,0.346998 -0.46875,0.5 -0.01117,0.0102 -0.01998,0.02115 -0.03125,0.03125 -0.138386,0.125556 -0.285091,0.234436 -0.4375,0.34375 -0.102571,0.07315 -0.204318,0.153364 -0.3125,0.21875 -0.0074,0.0045 -0.02384,-0.0044 -0.03125,0 -0.232039,0.138728 -0.462548,0.274778 -0.71875,0.375 0.301527,-0.0968 0.596455,-0.204138 0.875,-0.34375 0.55709,-0.279224 1.060053,-0.665694 1.5,-1.09375 0.219973,-0.214028 0.409366,-0.441865 0.59375,-0.6875 0.184384,-0.245635 0.355408,-0.507743 0.5,-0.78125 0.14012,-0.265048 0.276135,-0.524729 0.375,-0.8125 0.01041,-0.03078 0.02133,-0.06274 0.03125,-0.09375 0.09046,-0.278085 0.1388,-0.579404 0.1875,-0.875 C 89.95865,84.6507 90,84.334721 90,84 V 82 14 12 C 90,8.676 87.324,6 84,6 Z"
       inkscape:connector-curvature="0"
       id="rect3728-8"
       style="display:inline;opacity:0.01;fill:url(#linearGradient3188-3);fill-opacity:1;fill-rule:nonzero;stroke:none" />
    <path
       d="M 12,90 C 8.676,90 6,87.324 6,84 V 82 14 12 c 0,-0.334721 0.04135,-0.6507 0.09375,-0.96875 0.0487,-0.295596 0.09704,-0.596915 0.1875,-0.875 C 6.29113,10.12587 6.302142,10.09265 6.3125,10.0625 6.411365,9.774729 6.5473802,9.515048 6.6875,9.25 6.8320918,8.976493 7.0031161,8.714385 7.1875,8.46875 7.3718839,8.223115 7.5612765,7.995278 7.78125,7.78125 8.221197,7.353194 8.72416,6.966724 9.28125,6.6875 9.559795,6.547888 9.8547231,6.440553 10.15625,6.34375 9.9000482,6.443972 9.6695391,6.580022 9.4375,6.71875 c -0.00741,0.0044 -0.023866,-0.0045 -0.03125,0 -0.031933,0.0193 -0.062293,0.04251 -0.09375,0.0625 -0.120395,0.0767 -0.2310226,0.163513 -0.34375,0.25 -0.1061728,0.0808 -0.2132809,0.161112 -0.3125,0.25 C 8.4783201,7.442683 8.3087904,7.626638 8.15625,7.8125 8.0486711,7.942755 7.9378561,8.077785 7.84375,8.21875 7.818661,8.25713 7.805304,8.30462 7.78125,8.34375 7.716487,8.446782 7.6510225,8.548267 7.59375,8.65625 7.4927417,8.850956 7.3880752,9.071951 7.3125,9.28125 7.30454,9.30306 7.288911,9.3218 7.28125,9.34375 7.2494249,9.4357 7.2454455,9.530581 7.21875,9.625 7.1884177,9.731618 7.1483606,9.828031 7.125,9.9375 7.0521214,10.279012 7,10.635705 7,11 v 2 68 2 c 0,2.781848 2.2181517,5 5,5 h 2 68 2 c 2.781848,0 5,-2.218152 5,-5 V 81 13 11 C 89,10.635705 88.94788,10.279012 88.875,9.9375 88.83085,9.730607 88.78662,9.539842 88.71875,9.34375 88.71105,9.3218 88.69545,9.30306 88.6875,9.28125 88.62476,9.107511 88.549117,8.913801 88.46875,8.75 88.42717,8.6672 88.38971,8.580046 88.34375,8.5 88.28915,8.40279 88.216976,8.31165 88.15625,8.21875 88.06214,8.077785 87.951329,7.942755 87.84375,7.8125 87.700576,7.63805 87.540609,7.465502 87.375,7.3125 87.36383,7.3023 87.35502,7.29135 87.34375,7.28125 87.205364,7.155694 87.058659,7.046814 86.90625,6.9375 86.803679,6.86435 86.701932,6.784136 86.59375,6.71875 c -0.0074,-0.0045 -0.02384,0.0044 -0.03125,0 -0.232039,-0.138728 -0.462548,-0.274778 -0.71875,-0.375 0.301527,0.0968 0.596455,0.204138 0.875,0.34375 0.55709,0.279224 1.060053,0.665694 1.5,1.09375 0.219973,0.214028 0.409366,0.441865 0.59375,0.6875 0.184384,0.245635 0.355408,0.507743 0.5,0.78125 0.14012,0.265048 0.276135,0.524729 0.375,0.8125 0.01041,0.03078 0.02133,0.06274 0.03125,0.09375 0.09046,0.278085 0.1388,0.579404 0.1875,0.875 C 89.95865,11.3493 90,11.665279 90,12 v 2 68 2 c 0,3.324 -2.676,6 -6,6 z"
       inkscape:connector-curvature="0"
       id="path3615-2"
       style="display:inline;opacity:0.15;fill:url(#radialGradient3619-1);fill-opacity:1;fill-rule:nonzero;stroke:none" />
  </g>
  <g
     id="layer5"
     style="display:none">
    <rect
       width="66"
       height="66"
       rx="12"
       ry="12"
       x="15"
       y="15"
       clip-path="url(#clipPath3613)"
       id="rect3171"
       style="opacity:0.1;fill:url(#linearGradient3613);fill-opacity:1;fill-rule:nonzero;stroke:#ffffff;stroke-width:0.5;stroke-linecap:round;stroke-linejoin:miter;stroke-miterlimit:4;stroke-opacity:1;stroke-dasharray:none;stroke-dashoffset:0;filter:url(#filter3794)" />
  </g>
  <g
     id="layer3"
     style="display:inline">
    <path
       d="M 47.554369,3.3690471 C 45.140118,4.1448851 44.285386,6.924363 42.624442,8.6540347 39.29564,13.211742 35.699497,17.602292 32.536614,22.263789 c -1.009694,2.14875 1.240749,4.455603 3.448202,3.92155 8.532053,-0.06198 17.09147,0.122339 25.606921,-0.08913 2.43611,-0.562398 2.671611,-3.861882 0.895608,-5.326916 C 58.245685,15.213615 54.175124,9.4871346 49.827086,4.0374931 49.174769,3.5073965 48.387153,3.2953648 47.554369,3.3690471 Z M 34.319137,29.037376 c -4.080725,-0.119617 -6.898135,4.019567 -6.283393,7.832228 0.0302,9.923844 -0.06009,19.867241 0.04456,29.779004 0.367858,2.302025 2.993116,2.554456 4.872588,2.317279 10.895561,-0.03004 21.81059,0.05987 32.69408,-0.04456 2.302025,-0.367859 2.554456,-2.993117 2.31728,-4.872589 -0.02177,-9.788464 0.04358,-19.579163 -0.03272,-29.366231 -0.291249,-3.96963 -4.405139,-6.201562 -8.057651,-5.645128 -8.518249,0 -17.0365,0 -25.554749,0 z m -12.34397,4.278055 c -2.438608,0.829561 -4.214653,2.979086 -6.383848,4.339018 -4.203949,3.24765 -8.6125368,6.25925 -12.6891466,9.653786 -1.3387474,1.801712 0.029718,4.04351 1.8183887,4.895415 5.5345749,4.053937 10.9042739,8.371931 16.5415969,12.261367 2.14875,1.009693 4.455602,-1.240749 3.92155,-3.448202 -0.06126,-8.516294 0.121331,-17.067349 -0.08913,-25.562357 -0.329667,-1.383248 -1.72038,-2.301615 -3.119415,-2.139027 z m 51.292094,0 c -2.558425,0.333019 -2.632335,3.222062 -2.450969,5.219854 0.06226,8.015743 -0.122709,16.058954 0.08913,24.058083 0.562399,2.436111 3.861883,2.671611 5.326915,0.895609 5.596457,-4.293909 11.395896,-8.353773 16.865495,-12.793949 1.338746,-1.801713 -0.02972,-4.043511 -1.81839,-4.895415 -5.532883,-4.052892 -10.91395,-8.378871 -16.5416,-12.261367 -0.462856,-0.257806 -0.962929,-0.22893 -1.470581,-0.222815 z M 39.57758,43.297559 c 5.65951,0 11.31902,0 16.97853,0 0,4.738539 0,9.477078 0,14.215619 -5.65951,0 -11.31902,0 -16.97853,0 0,-4.738541 0,-9.47708 0,-14.215619 z m -4.857375,28.520365 c -2.363671,0.299288 -3.218509,3.491544 -1.472929,5.047711 4.382865,5.718812 8.529592,11.642339 13.059327,17.233824 1.801713,1.338747 4.04351,-0.02972 4.895415,-1.818389 4.053937,-5.534574 8.371931,-10.904274 12.261368,-16.541596 1.009693,-2.14875 -1.240749,-4.455603 -3.448203,-3.92155 -8.431659,0 -16.863319,0 -25.294978,0 z"
       inkscape:connector-curvature="0"
       id="path3873"
       style="display:inline;opacity:0.1;fill:#000000;fill-opacity:1;stroke:none;stroke-width:1.42602" />
    <path
       d="M 48.044563,4.7505023 A 1.4523869,1.4523869 0 0 0 46.84136,5.3298222 L 34.007196,22.442042 a 1.4523869,1.4523869 0 0 0 1.15864,2.361842 h 25.668328 a 1.4523869,1.4523869 0 0 0 1.15864,-2.361842 L 49.15864,5.3298222 A 1.4523869,1.4523869 0 0 0 48.044563,4.7505023 Z M 34.319137,30.418831 c -2.680006,4e-6 -4.901937,2.221932 -4.901937,4.901938 v 30.793082 a 1.4523869,1.4523869 0 0 0 1.470581,1.470581 H 65.112219 A 1.4523869,1.4523869 0 0 0 66.5828,66.113851 V 35.320769 c 0,-2.680007 -2.22193,-4.901938 -4.901937,-4.901938 z M 22.287108,34.696886 A 1.4523869,1.4523869 0 0 0 21.44041,35.008827 L 4.3281907,47.842992 a 1.4523869,1.4523869 0 0 0 0,2.31728 L 21.44041,62.994436 a 1.4523869,1.4523869 0 0 0 2.361843,-1.15864 V 36.167467 a 1.4523869,1.4523869 0 0 0 -1.515145,-1.470581 z m 51.292095,0 a 1.4523869,1.4523869 0 0 0 -1.381456,1.470581 v 25.668329 a 1.4523869,1.4523869 0 0 0 2.361843,1.15864 L 91.671809,50.160272 a 1.4523869,1.4523869 0 0 0 0,-2.31728 L 74.55959,35.008827 a 1.4523869,1.4523869 0 0 0 -0.980387,-0.311941 z m -24.153185,1.426018 c -0.01055,0 0.04456,0.05516 0.04456,0.04456 0,-0.01055 -0.05516,0.04456 -0.04456,0.04456 0.01055,0 -0.04456,-0.05516 -0.04456,-0.04456 0,0.01055 0.05516,-0.04456 0.04456,-0.04456 z m 5.704073,0 c -0.01055,0 0.04456,0.05516 0.04456,0.04456 0,-0.01055 -0.05516,0.04456 -0.04456,0.04456 0.01055,0 -0.04456,-0.05516 -0.04456,-0.04456 0,0.01055 0.05516,-0.04456 0.04456,-0.04456 z m 5.704073,0 c -0.01055,0 0.04456,0.05516 0.04456,0.04456 0,-0.01055 -0.05516,0.04456 -0.04456,0.04456 0.01055,0 -0.04456,-0.05516 -0.04456,-0.04456 0,0.01055 0.05516,-0.04456 0.04456,-0.04456 z m -22.63804,5.793199 h 19.741441 v 16.97853 H 38.196124 Z m -3.030288,31.283276 a 1.4523869,1.4523869 0 0 0 -1.15864,2.361843 L 46.84136,92.673441 a 1.4523869,1.4523869 0 0 0 2.31728,0 L 61.992804,75.561222 a 1.4523869,1.4523869 0 0 0 -1.15864,-2.361843 z"
       id="path3869"
       style="display:inline;opacity:0.15;fill:#000000;fill-opacity:1;stroke:none;stroke-width:1.42602" />
    <path
       d="M 48,6.2210836 35.165836,23.333303 H 60.834164 Z M 34.319137,31.889413 c -1.896036,2e-6 -3.431356,1.535322 -3.431356,3.431356 V 66.113851 H 65.112219 V 35.320769 c 0,-1.896034 -1.535322,-3.431356 -3.431356,-3.431356 z m 15.106881,2.852036 c 0.790014,0 1.426019,0.636004 1.426019,1.426018 0,0.790014 -0.636005,1.426019 -1.426019,1.426019 C 48.636004,37.593486 48,36.957481 48,36.167467 c 0,-0.790014 0.636004,-1.426018 1.426018,-1.426018 z m 5.704073,0 c 0.790014,0 1.426019,0.636004 1.426019,1.426018 0,0.790014 -0.636005,1.426019 -1.426019,1.426019 -0.790014,0 -1.426018,-0.636005 -1.426018,-1.426019 0,-0.790014 0.636004,-1.426018 1.426018,-1.426018 z m 5.704073,0 c 0.790014,0 1.426019,0.636004 1.426019,1.426018 0,0.790014 -0.636005,1.426019 -1.426019,1.426019 -0.790014,0 -1.426018,-0.636005 -1.426018,-1.426019 0,-0.790014 0.636004,-1.426018 1.426018,-1.426018 z M 22.331671,36.167467 5.2194521,49.001632 22.331671,61.835796 Z m 51.336658,0 V 61.835796 L 90.780548,49.001632 Z M 36.725543,40.445522 H 59.408146 V 60.365215 H 36.725543 Z M 35.165836,74.66996 48,91.78218 60.834164,74.66996 Z"
       inkscape:connector-curvature="0"
       id="path3084"
       style="display:inline;opacity:0.3;fill:#000000;fill-opacity:1;stroke:none;stroke-width:1.42602" />
    <path
       d="M 48,4.7950653 35.165836,21.907285 H 60.834164 Z M 34.319137,30.463394 c -1.896036,3e-6 -3.431356,1.535323 -3.431356,3.431357 V 64.687833 H 65.112219 V 33.894751 c 0,-1.896034 -1.535322,-3.431357 -3.431356,-3.431357 z m 15.106881,2.852037 c 0.790014,0 1.426019,0.636004 1.426019,1.426018 0,0.790014 -0.636005,1.426018 -1.426019,1.426018 C 48.636004,36.167467 48,35.531463 48,34.741449 c 0,-0.790014 0.636004,-1.426018 1.426018,-1.426018 z m 5.704073,0 c 0.790014,0 1.426019,0.636004 1.426019,1.426018 0,0.790014 -0.636005,1.426018 -1.426019,1.426018 -0.790014,0 -1.426018,-0.636004 -1.426018,-1.426018 0,-0.790014 0.636004,-1.426018 1.426018,-1.426018 z m 5.704073,0 c 0.790014,0 1.426019,0.636004 1.426019,1.426018 0,0.790014 -0.636005,1.426018 -1.426019,1.426018 -0.790014,0 -1.426018,-0.636004 -1.426018,-1.426018 0,-0.790014 0.636004,-1.426018 1.426018,-1.426018 z M 22.331671,34.741449 5.2194521,47.575613 22.331671,60.409778 Z m 51.336658,0 V 60.409778 L 90.780548,47.575613 Z M 36.725543,39.019504 H 59.408146 V 58.939196 H 36.725543 Z M 35.165836,73.243942 48,90.356161 60.834164,73.243942 Z"
       inkscape:connector-curvature="0"
       id="path2887"
       style="display:inline;fill:url(#linearGradient3198);fill-opacity:1;stroke:none;stroke-width:1.42602" />
    <path
       d="m -42,18 -9,12 18,0 -9,-12 z m -9.59375,18 C -52.923352,36.000002 -54,37.07665 -54,38.40625 L -54,60 l 24,0 0,-21.59375 C -30,37.07665 -31.07665,36 -32.40625,36 l -19.1875,0 z M -41,38 c 0.554,0 1,0.446 1,1 0,0.554 -0.446,1 -1,1 -0.554,0 -1,-0.446 -1,-1 0,-0.554 0.446,-1 1,-1 z m 4,0 c 0.554,0 1,0.446 1,1 0,0.554 -0.446,1 -1,1 -0.554,0 -1,-0.446 -1,-1 0,-0.554 0.446,-1 1,-1 z m 4,0 c 0.554,0 1,0.446 1,1 0,0.554 -0.446,1 -1,1 -0.554,0 -1,-0.446 -1,-1 0,-0.554 0.446,-1 1,-1 z m -27,1 -12,9 12,9 0,-18 z m 36,0 0,18 12,-9 -12,-9 z M -49.90625,42 -34,42 l 0,13.96875 -15.90625,0 0,-13.96875 z M -51,66 l 9,12 9,-12 -18,0 z"
       inkscape:connector-curvature="0"
       id="path2893"
       style="fill:#000000;fill-opacity:1;stroke:none;display:inline" />
    <path
       d="M 48,4.7950653 35.165836,21.907285 h 1.069513 L 48,6.2210836 59.764651,21.907285 h 1.069513 z M 34.319137,30.463394 c -1.896036,3e-6 -3.431356,1.535323 -3.431356,3.431357 v 1.426018 c 0,-1.896034 1.53532,-3.431354 3.431356,-3.431356 h 27.361726 c 1.896034,0 3.431356,1.535322 3.431356,3.431356 v -1.426018 c 0,-1.896034 -1.535322,-3.431357 -3.431356,-3.431357 z M 22.331671,34.741449 5.2194521,47.575613 6.1552766,48.288623 22.331671,36.167467 Z m 51.336658,0 v 1.426018 l 16.176394,12.121156 0.935825,-0.71301 z M 48.222815,35.454458 C 48.095292,35.668168 48,35.899517 48,36.167467 c 0,0.790014 0.636004,1.426019 1.426018,1.426019 0.790014,0 1.426019,-0.636005 1.426019,-1.426019 0,-0.26795 -0.09529,-0.499299 -0.222816,-0.713009 -0.24846,0.416384 -0.681139,0.713009 -1.203203,0.713009 -0.522064,0 -0.954744,-0.296625 -1.203203,-0.713009 z m 5.704073,0 c -0.127523,0.21371 -0.222815,0.445059 -0.222815,0.713009 0,0.790014 0.636004,1.426019 1.426018,1.426019 0.790014,0 1.426019,-0.636005 1.426019,-1.426019 0,-0.26795 -0.09529,-0.499299 -0.222816,-0.713009 -0.24846,0.416384 -0.681139,0.713009 -1.203203,0.713009 -0.522064,0 -0.954744,-0.296625 -1.203203,-0.713009 z m 5.704073,0 c -0.127523,0.21371 -0.222815,0.445059 -0.222815,0.713009 0,0.790014 0.636004,1.426019 1.426018,1.426019 0.790014,0 1.426019,-0.636005 1.426019,-1.426019 0,-0.26795 -0.09529,-0.499299 -0.222816,-0.713009 -0.24846,0.416384 -0.681139,0.713009 -1.203203,0.713009 -0.522064,0 -0.954744,-0.296625 -1.203203,-0.713009 z M 36.725543,58.939196 v 1.426019 h 22.682603 v -1.426019 z m -1.559707,14.304746 1.069513,1.426018 h 23.529302 l 1.069513,-1.426018 z"
       inkscape:connector-curvature="0"
       id="path3877"
       style="display:inline;opacity:0.75;fill:#ffffff;fill-opacity:1;stroke:none;stroke-width:1.42602" />
    <path
       d="m 36.235349,20.481266 -1.069513,1.426019 H 60.834164 L 59.764651,20.481266 Z M 49.426018,31.889413 C 48.636004,31.889413 48,32.525417 48,33.315431 c 0,0.26795 0.09529,0.499298 0.222815,0.713009 0.248459,-0.416385 0.681139,-0.713009 1.203203,-0.713009 0.522064,0 0.954743,0.296624 1.203203,0.713009 0.127523,-0.213711 0.222816,-0.445059 0.222816,-0.713009 0,-0.790014 -0.636005,-1.426018 -1.426019,-1.426018 z m 5.704073,0 c -0.790014,0 -1.426018,0.636004 -1.426018,1.426018 0,0.26795 0.09529,0.499298 0.222815,0.713009 0.248459,-0.416385 0.681139,-0.713009 1.203203,-0.713009 0.522064,0 0.954743,0.296624 1.203203,0.713009 0.127523,-0.213711 0.222816,-0.445059 0.222816,-0.713009 0,-0.790014 -0.636005,-1.426018 -1.426019,-1.426018 z m 5.704073,0 c -0.790014,0 -1.426018,0.636004 -1.426018,1.426018 0,0.26795 0.09529,0.499298 0.222815,0.713009 0.248459,-0.416385 0.681139,-0.713009 1.203203,-0.713009 0.522064,0 0.954743,0.296624 1.203203,0.713009 0.127523,-0.213711 0.222816,-0.445059 0.222816,-0.713009 0,-0.790014 -0.636005,-1.426018 -1.426019,-1.426018 z m -24.108621,5.704073 v 1.426018 H 59.408146 V 37.593486 Z M 6.1552766,46.862604 5.2194521,47.575613 22.331671,60.409778 v -1.426019 z m 83.6894464,0 -16.176394,12.121155 v 1.426019 L 90.780548,47.575613 Z m -58.956942,16.39921 v 1.426019 H 65.112219 V 63.261814 Z M 35.165836,73.243942 48,90.356161 60.834164,73.243942 H 59.764651 L 48,88.930143 36.235349,73.243942 Z"
       inkscape:connector-curvature="0"
       id="path3882"
       style="display:inline;opacity:0.15;fill:#000000;fill-opacity:1;stroke:none;stroke-width:1.42602" />
  </g>
</svg>
