<?xml version="1.0" encoding="UTF-8" standalone="no"?>
<!-- Created with Inkscape (http://www.inkscape.org/) -->

<svg
   version="1.0"
   width="96"
   height="96"
   id="svg2408"
   sodipodi:docname="gtk-leave-fullscreen.svg"
   inkscape:version="1.2.2 (b0a8486541, 2022-12-01)"
   xmlns:inkscape="http://www.inkscape.org/namespaces/inkscape"
   xmlns:sodipodi="http://sodipodi.sourceforge.net/DTD/sodipodi-0.dtd"
   xmlns:xlink="http://www.w3.org/1999/xlink"
   xmlns="http://www.w3.org/2000/svg"
   xmlns:svg="http://www.w3.org/2000/svg"
   xmlns:rdf="http://www.w3.org/1999/02/22-rdf-syntax-ns#"
   xmlns:cc="http://creativecommons.org/ns#"
   xmlns:dc="http://purl.org/dc/elements/1.1/">
  <sodipodi:namedview
     id="namedview14118"
     pagecolor="#ffffff"
     bordercolor="#666666"
     borderopacity="1.0"
     inkscape:showpageshadow="2"
     inkscape:pageopacity="0.0"
     inkscape:pagecheckerboard="0"
     inkscape:deskcolor="#d1d1d1"
     showgrid="false"
     inkscape:zoom="2.4583333"
     inkscape:cx="39.661017"
     inkscape:cy="48"
     inkscape:window-width="1872"
     inkscape:window-height="1011"
     inkscape:window-x="48"
     inkscape:window-y="0"
     inkscape:window-maximized="1"
     inkscape:current-layer="layer3" />
  <defs
     id="defs2410">
    <linearGradient
       id="linearGradient3637">
      <stop
         id="stop3639"
         style="stop-color:#f0f0f0;stop-opacity:1"
         offset="0" />
      <stop
         id="stop3641"
         style="stop-color:#dcdcdc;stop-opacity:1"
         offset="1" />
    </linearGradient>
    <linearGradient
       x1="45.447727"
       y1="92.539597"
       x2="45.447727"
       y2="7.0165396"
       id="ButtonShadow"
       gradientUnits="userSpaceOnUse"
       gradientTransform="scale(1.0058652,0.994169)">
      <stop
         id="stop3750"
         style="stop-color:#000000;stop-opacity:1"
         offset="0" />
      <stop
         id="stop3752"
         style="stop-color:#000000;stop-opacity:0.58823532"
         offset="1" />
    </linearGradient>
    <linearGradient
       id="linearGradient3737">
      <stop
         id="stop3739"
         style="stop-color:#ffffff;stop-opacity:1"
         offset="0" />
      <stop
         id="stop3741"
         style="stop-color:#ffffff;stop-opacity:0"
         offset="1" />
    </linearGradient>
    <filter
       color-interpolation-filters="sRGB"
       id="filter3174"
       x="-0.047720931"
       y="-0.048282354"
       width="1.0954419"
       height="1.0965647">
      <feGaussianBlur
         id="feGaussianBlur3176"
         stdDeviation="1.71" />
    </filter>
    <linearGradient
       x1="36.357143"
       y1="6"
       x2="36.357143"
       y2="63.893143"
       id="linearGradient3188"
       xlink:href="#linearGradient3737"
       gradientUnits="userSpaceOnUse" />
    <filter
       x="-0.19578789"
       y="-0.19578789"
       width="1.3915758"
       height="1.3915758"
       color-interpolation-filters="sRGB"
       id="filter3794">
      <feGaussianBlur
         id="feGaussianBlur3796"
         stdDeviation="5.28" />
    </filter>
    <linearGradient
       x1="48"
       y1="20.220806"
       x2="48"
       y2="138.66119"
       id="linearGradient3613"
       xlink:href="#linearGradient3737"
       gradientUnits="userSpaceOnUse" />
    <radialGradient
       cx="48"
       cy="90.171875"
       r="42"
       fx="48"
       fy="90.171875"
       id="radialGradient3619"
       xlink:href="#linearGradient3737"
       gradientUnits="userSpaceOnUse"
       gradientTransform="matrix(1.1573129,0,0,0.99590774,-7.5510206,0.19713193)" />
    <clipPath
       id="clipPath3613">
      <rect
         width="84"
         height="84"
         rx="6"
         ry="6"
         x="6"
         y="6"
         id="rect3615"
         style="fill:#ffffff;fill-opacity:1;fill-rule:nonzero;stroke:none" />
    </clipPath>
    <clipPath
       id="clipPath3625">
      <path
         d="M 0,0 0,96 96,96 96,0 0,0 z m 12,6 72,0 c 3.324,0 6,2.676 6,6 l 0,72 c 0,3.324 -2.676,6 -6,6 L 12,90 C 8.676,90 6,87.324 6,84 L 6,12 C 6,8.676 8.676,6 12,6 z"
         inkscape:connector-curvature="0"
         id="path3627"
         style="fill:#ffffff;fill-opacity:1;stroke:none" />
    </clipPath>
    <linearGradient
       x1="44.512066"
       y1="6"
       x2="44.512066"
       y2="90.015434"
       id="linearGradient3643"
       xlink:href="#linearGradient3637"
       gradientUnits="userSpaceOnUse" />
    <linearGradient
       id="linearGradient4081">
      <stop
         id="stop4083"
         style="stop-color:#aaaaaa;stop-opacity:1"
         offset="0" />
      <stop
         id="stop4085"
         style="stop-color:#f0f0f0;stop-opacity:1"
         offset="1" />
    </linearGradient>
    <linearGradient
       x1="45.447727"
       y1="92.539597"
       x2="45.447727"
       y2="7.0165396"
       id="ButtonShadow-0"
       gradientUnits="userSpaceOnUse"
       gradientTransform="matrix(1.0058652,0,0,0.994169,100,0)">
      <stop
         id="stop3750-8"
         style="stop-color:#000000;stop-opacity:1"
         offset="0" />
      <stop
         id="stop3752-5"
         style="stop-color:#000000;stop-opacity:0.58823532"
         offset="1" />
    </linearGradient>
    <linearGradient
       x1="32.251034"
       y1="6.1317081"
       x2="32.251034"
       y2="90.238609"
       id="linearGradient3780"
       xlink:href="#ButtonShadow-0"
       gradientUnits="userSpaceOnUse"
       gradientTransform="matrix(1.0238095,0,0,-1.0119048,-1.1428571,98.071429)" />
    <linearGradient
       x1="32.251034"
       y1="6.1317081"
       x2="32.251034"
       y2="90.238609"
       id="linearGradient3772"
       xlink:href="#ButtonShadow-0"
       gradientUnits="userSpaceOnUse"
       gradientTransform="matrix(1.0238095,0,0,-1.0119048,-1.1428571,98.071429)" />
    <linearGradient
       x1="32.251034"
       y1="6.1317081"
       x2="32.251034"
       y2="90.238609"
       id="linearGradient3725-6"
       xlink:href="#ButtonShadow-0"
       gradientUnits="userSpaceOnUse"
       gradientTransform="matrix(1.0238095,0,0,-1.0119048,-1.1428571,98.071429)" />
    <linearGradient
       x1="32.251034"
       y1="6.1317081"
       x2="32.251034"
       y2="90.238609"
       id="linearGradient3721"
       xlink:href="#ButtonShadow-0"
       gradientUnits="userSpaceOnUse"
       gradientTransform="matrix(1,0,0,-1,0,97)" />
    <linearGradient
       x1="32.251034"
       y1="6.1317081"
       x2="32.251034"
       y2="90.238609"
       id="linearGradient3289"
       xlink:href="#ButtonShadow-0"
       gradientUnits="userSpaceOnUse"
       gradientTransform="matrix(1.0238095,0,0,-1.0119048,-1.1428571,98.071429)" />
    <linearGradient
       x1="36.357143"
       y1="6"
       x2="36.357143"
       y2="63.893143"
       id="linearGradient3188-3"
       xlink:href="#linearGradient3737-9"
       gradientUnits="userSpaceOnUse" />
    <linearGradient
       id="linearGradient3737-9">
      <stop
         id="stop3739-1"
         style="stop-color:#ffffff;stop-opacity:1"
         offset="0" />
      <stop
         id="stop3741-1"
         style="stop-color:#ffffff;stop-opacity:0"
         offset="1" />
    </linearGradient>
    <radialGradient
       cx="48"
       cy="90.171875"
       r="42"
       fx="48"
       fy="90.171875"
       id="radialGradient3619-1"
       xlink:href="#linearGradient3737-9"
       gradientUnits="userSpaceOnUse"
       gradientTransform="matrix(1.1573129,0,0,0.99590774,-7.551021,0.1971319)" />
    <linearGradient
       x1="56"
       y1="-26"
       x2="56"
       y2="30"
       id="linearGradient3201"
       xlink:href="#linearGradient4081"
       gradientUnits="userSpaceOnUse"
       gradientTransform="matrix(1.45,0,0,-1.45,-21.600525,50.45)" />
  </defs>
  <metadata
     id="metadata2413">
    <rdf:RDF>
      <cc:Work
         rdf:about="">
        <dc:format>image/svg+xml</dc:format>
        <dc:type
           rdf:resource="http://purl.org/dc/dcmitype/StillImage" />
      </cc:Work>
    </rdf:RDF>
  </metadata>
  <g
     id="layer2"
     style="display:none">
    <rect
       width="86"
       height="85"
       rx="6"
       ry="6"
       x="5"
       y="7"
       clip-path="url(#clipPath3625)"
       id="rect3745"
       style="opacity:0.9;fill:url(#ButtonShadow);fill-opacity:1;fill-rule:nonzero;stroke:none;filter:url(#filter3174)" />
  </g>
  <g
     id="layer4"
     style="display:none">
    <path
       d="M 12,3.96875 C 6.4889098,3.96875 1.96875,8.4889098 1.96875,14 v 71 c 0,5.51109 4.5201597,10.03125 10.03125,10.03125 h 72 c 5.51109,0 10.03125,-4.52016 10.03125,-10.03125 V 14 C 94.03125,8.4889097 89.51109,3.96875 84,3.96875 Z M 12,6 h 72 c 3.324,0 6,2.676 6,6 v 72 c 0,3.324 -2.676,6 -6,6 H 12 C 8.676,90 6,87.324 6,84 V 12 C 6,8.676 8.676,6 12,6 Z"
       inkscape:connector-curvature="0"
       id="path3786"
       style="display:inline;opacity:0.08;fill:url(#linearGradient3289);fill-opacity:1;fill-rule:nonzero;stroke:none" />
    <path
       d="M 12,4.96875 C 7.0283671,4.96875 2.96875,9.0283671 2.96875,14 v 71 c 0,4.971633 4.059617,9.03125 9.03125,9.03125 h 72 c 4.971633,0 9.03125,-4.059617 9.03125,-9.03125 V 14 C 93.03125,9.028367 88.971633,4.96875 84,4.96875 Z M 12,6 h 72 c 3.324,0 6,2.676 6,6 v 72 c 0,3.324 -2.676,6 -6,6 H 12 C 8.676,90 6,87.324 6,84 V 12 C 6,8.676 8.676,6 12,6 Z"
       inkscape:connector-curvature="0"
       id="path3778"
       style="display:inline;opacity:0.1;fill:url(#linearGradient3780);fill-opacity:1;fill-rule:nonzero;stroke:none" />
    <path
       d="M 11.1875,6.03125 C 7.159982,6.4419011 4,9.8664375 4,14 v 71 c 0,4.409133 3.590867,8 8,8 h 72 c 4.409133,0 8,-3.590867 8,-8 V 14 C 92,9.8029382 88.741028,6.3539584 84.625,6.03125 87.657886,6.337417 90,8.88375 90,12 v 72 c 0,3.324 -2.676,6 -6,6 H 12 C 8.676,90 6,87.324 6,84 V 12 c 0,-3.11625 2.342114,-5.662583 5.375,-5.96875 -0.06227,0.00488 -0.12563,-0.00631 -0.1875,0 z"
       inkscape:connector-curvature="0"
       id="path3770"
       style="display:inline;opacity:0.2;fill:url(#linearGradient3772);fill-opacity:1;fill-rule:nonzero;stroke:none" />
    <path
       d="M 6.4375,9.75 C 5.5380109,10.927446 5,12.397277 5,14 v 71 c 0,3.878 3.122,7 7,7 h 72 c 3.878,0 7,-3.122 7,-7 V 14 C 91,12.397277 90.461989,10.927446 89.5625,9.75 89.841816,10.444095 90,11.203625 90,12 v 72 c 0,3.324 -2.676,6 -6,6 H 12 C 8.676,90 6,87.324 6,84 V 12 C 6,11.203625 6.1581836,10.444095 6.4375,9.75 Z"
       inkscape:connector-curvature="0"
       id="rect3723"
       style="display:inline;opacity:0.3;fill:url(#linearGradient3725-6);fill-opacity:1;fill-rule:nonzero;stroke:none" />
    <path
       d="m 6,84 v 1 c 0,3.324 2.676,6 6,6 h 72 c 3.324,0 6,-2.676 6,-6 v -1 c 0,3.324 -2.676,6 -6,6 H 12 C 8.676,90 6,87.324 6,84 Z"
       inkscape:connector-curvature="0"
       id="rect3716"
       style="display:inline;opacity:0.45;fill:url(#linearGradient3721);fill-opacity:1;fill-rule:nonzero;stroke:none" />
  </g>
  <g
     id="layer1"
     style="display:none">
    <rect
       width="76"
       height="76"
       rx="5.4285707"
       ry="5.4285707"
       x="10"
       y="10"
       id="rect2419"
       style="opacity:0.7;fill:#000000;fill-opacity:1;fill-rule:nonzero;stroke:none" />
    <path
       d="m 14,10 c -2.216,0 -4,1.784 -4,4 l 0,68 c 0,2.216 1.784,4 4,4 l 68,0 c 2.216,0 4,-1.784 4,-4 l 0,-68 c 0,-2.216 -1.784,-4 -4,-4 l -68,0 z m 0,3.0625 68,0 c 0.578769,0 0.9375,0.358731 0.9375,0.9375 l 0,68 c 0,0.578769 -0.358731,0.9375 -0.9375,0.9375 l -68,0 c -0.578769,0 -0.9375,-0.358731 -0.9375,-0.9375 l 0,-68 c 0,-0.578769 0.358731,-0.9375 0.9375,-0.9375 z"
       inkscape:connector-curvature="0"
       id="rect3726"
       style="opacity:0.07999998;fill:#000000;fill-opacity:1;fill-rule:nonzero;stroke:none" />
    <path
       d="M 12,6 C 8.676,6 6,8.676 6,12 l 0,72 c 0,3.324 2.676,6 6,6 l 72,0 c 3.324,0 6,-2.676 6,-6 L 90,12 C 90,8.676 87.324,6 84,6 L 12,6 z m 2,4 68,0 c 2.216,0 4,1.784 4,4 l 0,68 c 0,2.216 -1.784,4 -4,4 l -68,0 c -2.216,0 -4,-1.784 -4,-4 l 0,-68 c 0,-2.216 1.784,-4 4,-4 z"
       inkscape:connector-curvature="0"
       id="rect3629"
       style="fill:url(#linearGradient3643);fill-opacity:1;fill-rule:nonzero;stroke:none" />
    <path
       d="M 12,6 C 8.676,6 6,8.676 6,12 l 0,2 0,68 0,2 c 0,0.334721 0.04135,0.6507 0.09375,0.96875 0.0487,0.295596 0.09704,0.596915 0.1875,0.875 0.00988,0.03038 0.020892,0.0636 0.03125,0.09375 0.098865,0.287771 0.2348802,0.547452 0.375,0.8125 0.1445918,0.273507 0.3156161,0.535615 0.5,0.78125 0.1843839,0.245635 0.3737765,0.473472 0.59375,0.6875 0.439947,0.428056 0.94291,0.814526 1.5,1.09375 0.278545,0.139612 0.5734731,0.246947 0.875,0.34375 -0.2562018,-0.100222 -0.4867109,-0.236272 -0.71875,-0.375 -0.00741,-0.0044 -0.023866,0.0045 -0.03125,0 -0.031933,-0.0193 -0.062293,-0.04251 -0.09375,-0.0625 -0.120395,-0.0767 -0.2310226,-0.163513 -0.34375,-0.25 -0.1061728,-0.0808 -0.2132809,-0.161112 -0.3125,-0.25 C 8.4783201,88.557317 8.3087904,88.373362 8.15625,88.1875 8.0486711,88.057245 7.9378561,87.922215 7.84375,87.78125 7.818661,87.74287 7.805304,87.69538 7.78125,87.65625 7.716487,87.553218 7.6510225,87.451733 7.59375,87.34375 7.4927417,87.149044 7.3880752,86.928049 7.3125,86.71875 7.30454,86.69694 7.288911,86.6782 7.28125,86.65625 7.2494249,86.5643 7.2454455,86.469419 7.21875,86.375 7.1884177,86.268382 7.1483606,86.171969 7.125,86.0625 7.0521214,85.720988 7,85.364295 7,85 L 7,83 7,15 7,13 C 7,10.218152 9.2181517,8 12,8 l 2,0 68,0 2,0 c 2.781848,0 5,2.218152 5,5 l 0,2 0,68 0,2 c 0,0.364295 -0.05212,0.720988 -0.125,1.0625 -0.04415,0.206893 -0.08838,0.397658 -0.15625,0.59375 -0.0077,0.02195 -0.0233,0.04069 -0.03125,0.0625 -0.06274,0.173739 -0.138383,0.367449 -0.21875,0.53125 -0.04158,0.0828 -0.07904,0.169954 -0.125,0.25 -0.0546,0.09721 -0.126774,0.18835 -0.1875,0.28125 -0.09411,0.140965 -0.204921,0.275995 -0.3125,0.40625 -0.143174,0.17445 -0.303141,0.346998 -0.46875,0.5 -0.01117,0.0102 -0.01998,0.02115 -0.03125,0.03125 -0.138386,0.125556 -0.285091,0.234436 -0.4375,0.34375 -0.102571,0.07315 -0.204318,0.153364 -0.3125,0.21875 -0.0074,0.0045 -0.02384,-0.0044 -0.03125,0 -0.232039,0.138728 -0.462548,0.274778 -0.71875,0.375 0.301527,-0.0968 0.596455,-0.204138 0.875,-0.34375 0.55709,-0.279224 1.060053,-0.665694 1.5,-1.09375 0.219973,-0.214028 0.409366,-0.441865 0.59375,-0.6875 0.184384,-0.245635 0.355408,-0.507743 0.5,-0.78125 0.14012,-0.265048 0.276135,-0.524729 0.375,-0.8125 0.01041,-0.03078 0.02133,-0.06274 0.03125,-0.09375 0.09046,-0.278085 0.1388,-0.579404 0.1875,-0.875 C 89.95865,84.6507 90,84.334721 90,84 l 0,-2 0,-68 0,-2 C 90,8.676 87.324,6 84,6 L 12,6 z"
       inkscape:connector-curvature="0"
       id="rect3728"
       style="fill:url(#linearGradient3188);fill-opacity:1;fill-rule:nonzero;stroke:none" />
    <path
       d="M 12,90 C 8.676,90 6,87.324 6,84 L 6,82 6,14 6,12 c 0,-0.334721 0.04135,-0.6507 0.09375,-0.96875 0.0487,-0.295596 0.09704,-0.596915 0.1875,-0.875 C 6.29113,10.12587 6.302142,10.09265 6.3125,10.0625 6.411365,9.774729 6.5473802,9.515048 6.6875,9.25 6.8320918,8.976493 7.0031161,8.714385 7.1875,8.46875 7.3718839,8.223115 7.5612765,7.995278 7.78125,7.78125 8.221197,7.353194 8.72416,6.966724 9.28125,6.6875 9.559795,6.547888 9.8547231,6.440553 10.15625,6.34375 9.9000482,6.443972 9.6695391,6.580022 9.4375,6.71875 c -0.00741,0.0044 -0.023866,-0.0045 -0.03125,0 -0.031933,0.0193 -0.062293,0.04251 -0.09375,0.0625 -0.120395,0.0767 -0.2310226,0.163513 -0.34375,0.25 -0.1061728,0.0808 -0.2132809,0.161112 -0.3125,0.25 C 8.4783201,7.442683 8.3087904,7.626638 8.15625,7.8125 8.0486711,7.942755 7.9378561,8.077785 7.84375,8.21875 7.818661,8.25713 7.805304,8.30462 7.78125,8.34375 7.716487,8.446782 7.6510225,8.548267 7.59375,8.65625 7.4927417,8.850956 7.3880752,9.071951 7.3125,9.28125 7.30454,9.30306 7.288911,9.3218 7.28125,9.34375 7.2494249,9.4357 7.2454455,9.530581 7.21875,9.625 7.1884177,9.731618 7.1483606,9.828031 7.125,9.9375 7.0521214,10.279012 7,10.635705 7,11 l 0,2 0,68 0,2 c 0,2.781848 2.2181517,5 5,5 l 2,0 68,0 2,0 c 2.781848,0 5,-2.218152 5,-5 l 0,-2 0,-68 0,-2 C 89,10.635705 88.94788,10.279012 88.875,9.9375 88.83085,9.730607 88.78662,9.539842 88.71875,9.34375 88.71105,9.3218 88.69545,9.30306 88.6875,9.28125 88.62476,9.107511 88.549117,8.913801 88.46875,8.75 88.42717,8.6672 88.38971,8.580046 88.34375,8.5 88.28915,8.40279 88.216976,8.31165 88.15625,8.21875 88.06214,8.077785 87.951329,7.942755 87.84375,7.8125 87.700576,7.63805 87.540609,7.465502 87.375,7.3125 87.36383,7.3023 87.35502,7.29135 87.34375,7.28125 87.205364,7.155694 87.058659,7.046814 86.90625,6.9375 86.803679,6.86435 86.701932,6.784136 86.59375,6.71875 c -0.0074,-0.0045 -0.02384,0.0044 -0.03125,0 -0.232039,-0.138728 -0.462548,-0.274778 -0.71875,-0.375 0.301527,0.0968 0.596455,0.204138 0.875,0.34375 0.55709,0.279224 1.060053,0.665694 1.5,1.09375 0.219973,0.214028 0.409366,0.441865 0.59375,0.6875 0.184384,0.245635 0.355408,0.507743 0.5,0.78125 0.14012,0.265048 0.276135,0.524729 0.375,0.8125 0.01041,0.03078 0.02133,0.06274 0.03125,0.09375 0.09046,0.278085 0.1388,0.579404 0.1875,0.875 C 89.95865,11.3493 90,11.665279 90,12 l 0,2 0,68 0,2 c 0,3.324 -2.676,6 -6,6 l -72,0 z"
       inkscape:connector-curvature="0"
       id="path3615"
       style="opacity:0.6;fill:url(#radialGradient3619);fill-opacity:1;fill-rule:nonzero;stroke:none" />
    <path
       d="m 14.089286,10 c -2.216,0 -4,1.784 -4,4 l 0,68 c 0,2.216 1.784,4 4,4 l 68,0 c 2.216,0 4,-1.784 4,-4 l 0,-68 c 0,-2.216 -1.784,-4 -4,-4 l -68,0 z m 0,2 68,0 c 1.140301,0 2,0.859699 2,2 l 0,68 c 0,1.140301 -0.859699,2 -2,2 l -68,0 c -1.140301,0 -2,-0.859699 -2,-2 l 0,-68 c 0,-1.140301 0.859699,-2 2,-2 z"
       inkscape:connector-curvature="0"
       id="path3709"
       style="opacity:0.16000001;fill:#000000;fill-opacity:1;fill-rule:nonzero;stroke:none" />
    <path
       d="m 14,10 c -2.216,0 -4,1.784 -4,4 l 0,68 c 0,2.216 1.784,4 4,4 l 68,0 c 2.216,0 4,-1.784 4,-4 l 0,-68 c 0,-2.216 -1.784,-4 -4,-4 l -68,0 z m 0,1 68,0 c 1.673848,0 3,1.326152 3,3 l 0,68 c 0,1.673848 -1.326152,3 -3,3 l -68,0 c -1.673848,0 -3,-1.326152 -3,-3 l 0,-68 c 0,-1.673848 1.326152,-3 3,-3 z"
       inkscape:connector-curvature="0"
       id="path3707"
       style="opacity:0.36000001;fill:#000000;fill-opacity:1;fill-rule:nonzero;stroke:none" />
  </g>
  <g
     id="layer9"
     style="display:none">
    <rect
       width="84"
       height="84"
       rx="6"
       ry="6"
       x="6"
       y="6"
       id="rect2419-2"
       style="display:inline;opacity:0.6;fill:#000000;fill-opacity:1;fill-rule:nonzero;stroke:none" />
    <path
       d="M 12,6 C 8.676,6 6,8.676 6,12 v 2 68 2 c 0,0.334721 0.04135,0.6507 0.09375,0.96875 0.0487,0.295596 0.09704,0.596915 0.1875,0.875 0.00988,0.03038 0.020892,0.0636 0.03125,0.09375 0.098865,0.287771 0.2348802,0.547452 0.375,0.8125 0.1445918,0.273507 0.3156161,0.535615 0.5,0.78125 0.1843839,0.245635 0.3737765,0.473472 0.59375,0.6875 0.439947,0.428056 0.94291,0.814526 1.5,1.09375 0.278545,0.139612 0.5734731,0.246947 0.875,0.34375 -0.2562018,-0.100222 -0.4867109,-0.236272 -0.71875,-0.375 -0.00741,-0.0044 -0.023866,0.0045 -0.03125,0 -0.031933,-0.0193 -0.062293,-0.04251 -0.09375,-0.0625 -0.120395,-0.0767 -0.2310226,-0.163513 -0.34375,-0.25 -0.1061728,-0.0808 -0.2132809,-0.161112 -0.3125,-0.25 C 8.4783201,88.557317 8.3087904,88.373362 8.15625,88.1875 8.0486711,88.057245 7.9378561,87.922215 7.84375,87.78125 7.818661,87.74287 7.805304,87.69538 7.78125,87.65625 7.716487,87.553218 7.6510225,87.451733 7.59375,87.34375 7.4927417,87.149044 7.3880752,86.928049 7.3125,86.71875 7.30454,86.69694 7.288911,86.6782 7.28125,86.65625 7.2494249,86.5643 7.2454455,86.469419 7.21875,86.375 7.1884177,86.268382 7.1483606,86.171969 7.125,86.0625 7.0521214,85.720988 7,85.364295 7,85 V 83 15 13 C 7,10.218152 9.2181517,8 12,8 h 2 68 2 c 2.781848,0 5,2.218152 5,5 v 2 68 2 c 0,0.364295 -0.05212,0.720988 -0.125,1.0625 -0.04415,0.206893 -0.08838,0.397658 -0.15625,0.59375 -0.0077,0.02195 -0.0233,0.04069 -0.03125,0.0625 -0.06274,0.173739 -0.138383,0.367449 -0.21875,0.53125 -0.04158,0.0828 -0.07904,0.169954 -0.125,0.25 -0.0546,0.09721 -0.126774,0.18835 -0.1875,0.28125 -0.09411,0.140965 -0.204921,0.275995 -0.3125,0.40625 -0.143174,0.17445 -0.303141,0.346998 -0.46875,0.5 -0.01117,0.0102 -0.01998,0.02115 -0.03125,0.03125 -0.138386,0.125556 -0.285091,0.234436 -0.4375,0.34375 -0.102571,0.07315 -0.204318,0.153364 -0.3125,0.21875 -0.0074,0.0045 -0.02384,-0.0044 -0.03125,0 -0.232039,0.138728 -0.462548,0.274778 -0.71875,0.375 0.301527,-0.0968 0.596455,-0.204138 0.875,-0.34375 0.55709,-0.279224 1.060053,-0.665694 1.5,-1.09375 0.219973,-0.214028 0.409366,-0.441865 0.59375,-0.6875 0.184384,-0.245635 0.355408,-0.507743 0.5,-0.78125 0.14012,-0.265048 0.276135,-0.524729 0.375,-0.8125 0.01041,-0.03078 0.02133,-0.06274 0.03125,-0.09375 0.09046,-0.278085 0.1388,-0.579404 0.1875,-0.875 C 89.95865,84.6507 90,84.334721 90,84 V 82 14 12 C 90,8.676 87.324,6 84,6 Z"
       inkscape:connector-curvature="0"
       id="rect3728-8"
       style="display:inline;opacity:0.01;fill:url(#linearGradient3188-3);fill-opacity:1;fill-rule:nonzero;stroke:none" />
    <path
       d="M 12,90 C 8.676,90 6,87.324 6,84 V 82 14 12 c 0,-0.334721 0.04135,-0.6507 0.09375,-0.96875 0.0487,-0.295596 0.09704,-0.596915 0.1875,-0.875 C 6.29113,10.12587 6.302142,10.09265 6.3125,10.0625 6.411365,9.774729 6.5473802,9.515048 6.6875,9.25 6.8320918,8.976493 7.0031161,8.714385 7.1875,8.46875 7.3718839,8.223115 7.5612765,7.995278 7.78125,7.78125 8.221197,7.353194 8.72416,6.966724 9.28125,6.6875 9.559795,6.547888 9.8547231,6.440553 10.15625,6.34375 9.9000482,6.443972 9.6695391,6.580022 9.4375,6.71875 c -0.00741,0.0044 -0.023866,-0.0045 -0.03125,0 -0.031933,0.0193 -0.062293,0.04251 -0.09375,0.0625 -0.120395,0.0767 -0.2310226,0.163513 -0.34375,0.25 -0.1061728,0.0808 -0.2132809,0.161112 -0.3125,0.25 C 8.4783201,7.442683 8.3087904,7.626638 8.15625,7.8125 8.0486711,7.942755 7.9378561,8.077785 7.84375,8.21875 7.818661,8.25713 7.805304,8.30462 7.78125,8.34375 7.716487,8.446782 7.6510225,8.548267 7.59375,8.65625 7.4927417,8.850956 7.3880752,9.071951 7.3125,9.28125 7.30454,9.30306 7.288911,9.3218 7.28125,9.34375 7.2494249,9.4357 7.2454455,9.530581 7.21875,9.625 7.1884177,9.731618 7.1483606,9.828031 7.125,9.9375 7.0521214,10.279012 7,10.635705 7,11 v 2 68 2 c 0,2.781848 2.2181517,5 5,5 h 2 68 2 c 2.781848,0 5,-2.218152 5,-5 V 81 13 11 C 89,10.635705 88.94788,10.279012 88.875,9.9375 88.83085,9.730607 88.78662,9.539842 88.71875,9.34375 88.71105,9.3218 88.69545,9.30306 88.6875,9.28125 88.62476,9.107511 88.549117,8.913801 88.46875,8.75 88.42717,8.6672 88.38971,8.580046 88.34375,8.5 88.28915,8.40279 88.216976,8.31165 88.15625,8.21875 88.06214,8.077785 87.951329,7.942755 87.84375,7.8125 87.700576,7.63805 87.540609,7.465502 87.375,7.3125 87.36383,7.3023 87.35502,7.29135 87.34375,7.28125 87.205364,7.155694 87.058659,7.046814 86.90625,6.9375 86.803679,6.86435 86.701932,6.784136 86.59375,6.71875 c -0.0074,-0.0045 -0.02384,0.0044 -0.03125,0 -0.232039,-0.138728 -0.462548,-0.274778 -0.71875,-0.375 0.301527,0.0968 0.596455,0.204138 0.875,0.34375 0.55709,0.279224 1.060053,0.665694 1.5,1.09375 0.219973,0.214028 0.409366,0.441865 0.59375,0.6875 0.184384,0.245635 0.355408,0.507743 0.5,0.78125 0.14012,0.265048 0.276135,0.524729 0.375,0.8125 0.01041,0.03078 0.02133,0.06274 0.03125,0.09375 0.09046,0.278085 0.1388,0.579404 0.1875,0.875 C 89.95865,11.3493 90,11.665279 90,12 v 2 68 2 c 0,3.324 -2.676,6 -6,6 z"
       inkscape:connector-curvature="0"
       id="path3615-2"
       style="display:inline;opacity:0.15;fill:url(#radialGradient3619-1);fill-opacity:1;fill-rule:nonzero;stroke:none" />
  </g>
  <g
     id="layer5"
     style="display:none">
    <rect
       width="66"
       height="66"
       rx="12"
       ry="12"
       x="15"
       y="15"
       clip-path="url(#clipPath3613)"
       id="rect3171"
       style="opacity:0.1;fill:url(#linearGradient3613);fill-opacity:1;fill-rule:nonzero;stroke:#ffffff;stroke-width:0.5;stroke-linecap:round;stroke-linejoin:miter;stroke-miterlimit:4;stroke-opacity:1;stroke-dasharray:none;stroke-dashoffset:0;filter:url(#filter3794)" />
  </g>
  <g
     id="layer3"
     style="display:inline">
    <path
       d="m 34.451037,5.5453125 c -2.408138,0.3470836 -3.131697,3.6060253 -1.369282,5.1659785 4.367524,5.734492 8.630121,11.621544 13.059907,17.263709 1.646709,1.491663 4.090362,0.338837 4.907444,-1.480798 C 55.235881,20.843714 59.601383,15.285313 63.6776,9.578125 64.688079,7.462127 62.547046,5.0481757 60.312011,5.5453125 c -8.620301,1.5e-6 -17.240783,-2.9e-6 -25.860974,0 z m -0.3625,23.2000005 c -4.073772,-0.12064 -6.947453,3.992701 -6.34375,7.818676 0.03038,10.125323 -0.06064,20.260692 0.04531,30.379761 0.474924,2.499432 3.280122,2.441163 5.267586,2.310938 10.960589,-0.0303 21.931204,0.06054 32.885539,-0.04531 2.499432,-0.474924 2.441163,-3.280122 2.310937,-5.267586 -0.02192,-9.832212 0.04391,-19.666668 -0.033,-29.497472 -0.28955,-3.954066 -4.37122,-6.248502 -8.031489,-5.699005 -8.700375,0 -17.400751,0 -26.101126,0 z m -27.1421871,4.35 c -2.3216762,0.347641 -2.6292125,2.916927 -2.4015625,4.821257 0.061335,8.297783 -0.12209,16.622774 0.090625,24.903742 0.5686813,2.232435 3.6078929,2.741095 5.0753538,1.097408 C 15.445258,59.550196 21.33231,55.287599 26.974475,50.857812 28.466138,49.211104 27.313312,46.767451 25.493677,45.950369 19.810396,41.754469 14.239988,37.333526 8.4869749,33.276563 7.9903934,33.093951 7.4763539,33.073106 6.9463499,33.095313 Z m 81.2906251,0 c -2.477525,0.826488 -4.274722,2.997126 -6.46765,4.384959 -4.227157,3.236127 -8.610425,6.363044 -12.74485,9.661916 -1.491663,1.646708 -0.338838,4.090361 1.480798,4.907443 5.650487,4.186775 11.208888,8.552277 16.916077,12.628494 2.115998,1.010479 4.529949,-1.130553 4.032812,-3.365589 -0.03083,-8.64798 0.06126,-17.315907 -0.04531,-25.951598 -0.30326,-1.431351 -1.706865,-2.432449 -3.171875,-2.265625 z M 39.3901,43.154687 c 5.784895,0 11.569792,0 17.354687,0 0,4.848438 0,9.696875 0,14.545313 -5.784895,0 -11.569792,0 -17.354687,0 0,-4.848438 0,-9.696875 0,-14.545313 z m 8.292187,26.190626 c -2.363904,0.456042 -3.117703,3.141016 -4.653048,4.714622 -3.546444,4.799231 -7.272059,9.50596 -10.707889,14.36194 -1.010479,2.115998 1.130553,4.529949 3.365589,4.032813 8.707494,-0.06126 17.442166,0.122002 26.132848,-0.09063 2.232435,-0.568682 2.741095,-3.607893 1.097408,-5.075354 C 58.513914,81.527792 54.256917,75.585538 49.766662,69.934375 49.184084,69.450916 48.425533,69.274808 47.682287,69.345313 Z"
       inkscape:connector-curvature="0"
       id="path3999"
       style="display:inline;opacity:0.1;fill:#000000;fill-opacity:1;stroke:none;stroke-width:1.45" />
    <path
       d="M 34.813537,6.95 A 1.4540509,1.4540509 0 0 0 33.77135,9.2609375 l 13.05,17.4000005 a 1.4540509,1.4540509 0 0 0 2.35625,0 L 62.2276,9.2609375 A 1.4540509,1.4540509 0 0 0 61.049475,6.95 h -26.1 a 1.4540509,1.4540509 0 0 0 -0.135938,0 z m -0.725,23.2 c -2.71279,4e-6 -4.939062,2.226272 -4.939062,4.939063 V 66.4 a 1.4540509,1.4540509 0 0 0 1.45,1.45 h 34.8 a 1.4540509,1.4540509 0 0 0 1.45,-1.45 V 35.089063 C 66.849475,32.376271 64.623204,30.15 61.910412,30.15 Z M 7.1729124,34.5 a 1.4540509,1.4540509 0 0 0 -1.2234375,1.45 v 26.1 a 1.4540509,1.4540509 0 0 0 2.3109375,1.178125 l 17.3999996,-13.05 a 1.4540509,1.4540509 0 0 0 0,-2.35625 l -17.3999996,-13.05 A 1.4540509,1.4540509 0 0 0 7.1729124,34.5 Z m 81.2453126,0 a 1.4540509,1.4540509 0 0 0 -0.679688,0.271875 l -17.4,13.05 a 1.4540509,1.4540509 0 0 0 0,2.35625 l 17.4,13.05 A 1.4540509,1.4540509 0 0 0 90.049475,62.05 V 35.95 A 1.4540509,1.4540509 0 0 0 88.418225,34.5 Z M 37.985412,41.75 H 58.149475 V 59.104687 H 37.985412 Z m 9.742188,29 a 1.4540509,1.4540509 0 0 0 -0.90625,0.589062 l -13.05,17.400001 A 1.4540509,1.4540509 0 0 0 34.949475,91.05 h 26.1 A 1.4540509,1.4540509 0 0 0 62.2276,88.739063 L 49.1776,71.339062 A 1.4540509,1.4540509 0 0 0 47.7276,70.75 Z"
       id="path3995"
       style="display:inline;opacity:0.15;fill:#000000;fill-opacity:1;stroke:none;stroke-width:1.45" />
    <path
       d="m 34.949475,8.4 13.05,17.4 13.05,-17.4 z m -0.860938,23.2 c -1.927923,3e-6 -3.489062,1.561143 -3.489062,3.489063 V 66.4 h 34.8 V 35.089063 C 65.399475,33.161143 63.838332,31.6 61.910412,31.6 Z m 15.360938,2.9 c 0.8033,0 1.45,0.6467 1.45,1.45 0,0.8033 -0.6467,1.45 -1.45,1.45 -0.8033,0 -1.45,-0.6467 -1.45,-1.45 0,-0.8033 0.6467,-1.45 1.45,-1.45 z m 5.8,0 c 0.8033,0 1.45,0.6467 1.45,1.45 0,0.8033 -0.6467,1.45 -1.45,1.45 -0.8033,0 -1.45,-0.6467 -1.45,-1.45 0,-0.8033 0.6467,-1.45 1.45,-1.45 z m 5.8,0 c 0.8033,0 1.45,0.6467 1.45,1.45 0,0.8033 -0.6467,1.45 -1.45,1.45 -0.8033,0 -1.45,-0.6467 -1.45,-1.45 0,-0.8033 0.6467,-1.45 1.45,-1.45 z M 7.3994749,35.95 v 26.1 L 24.799475,49 Z m 81.2000001,0 -17.4,13.05 17.4,13.05 z M 36.535412,40.3 H 59.599475 V 60.554687 H 36.535412 Z m 11.464063,31.9 -13.05,17.4 h 26.1 z"
       inkscape:connector-curvature="0"
       id="path3989"
       style="display:inline;opacity:0.3;fill:#000000;fill-opacity:1;stroke:none;stroke-width:1.45" />
    <path
       d="m 34.949475,6.95 13.05,17.4 13.05,-17.4 z m -0.860938,23.2 c -1.927923,3e-6 -3.489062,1.561143 -3.489062,3.489063 V 64.95 h 34.8 V 33.639063 c 0,-1.92792 -1.561143,-3.489063 -3.489063,-3.489063 z m 15.360938,2.9 c 0.8033,0 1.45,0.6467 1.45,1.45 0,0.8033 -0.6467,1.45 -1.45,1.45 -0.8033,0 -1.45,-0.6467 -1.45,-1.45 0,-0.8033 0.6467,-1.45 1.45,-1.45 z m 5.8,0 c 0.8033,0 1.45,0.6467 1.45,1.45 0,0.8033 -0.6467,1.45 -1.45,1.45 -0.8033,0 -1.45,-0.6467 -1.45,-1.45 0,-0.8033 0.6467,-1.45 1.45,-1.45 z m 5.8,0 c 0.8033,0 1.45,0.6467 1.45,1.45 0,0.8033 -0.6467,1.45 -1.45,1.45 -0.8033,0 -1.45,-0.6467 -1.45,-1.45 0,-0.8033 0.6467,-1.45 1.45,-1.45 z M 7.3994749,34.5 V 60.6 L 24.799475,47.55 Z m 81.2000001,0 -17.4,13.05 17.4,13.05 z M 36.535412,38.85 H 59.599475 V 59.104687 H 36.535412 Z m 11.464063,31.9 -13.05,17.4 h 26.1 z"
       inkscape:connector-curvature="0"
       id="path2887"
       style="display:inline;fill:url(#linearGradient3201);fill-opacity:1;stroke:none;stroke-width:1.45" />
    <path
       d="m -42,18 -9,12 h 18 z m -9.59375,18 C -52.923352,36.000002 -54,37.07665 -54,38.40625 V 60 h 24 V 38.40625 C -30,37.07665 -31.07665,36 -32.40625,36 Z M -41,38 c 0.554,0 1,0.446 1,1 0,0.554 -0.446,1 -1,1 -0.554,0 -1,-0.446 -1,-1 0,-0.554 0.446,-1 1,-1 z m 4,0 c 0.554,0 1,0.446 1,1 0,0.554 -0.446,1 -1,1 -0.554,0 -1,-0.446 -1,-1 0,-0.554 0.446,-1 1,-1 z m 4,0 c 0.554,0 1,0.446 1,1 0,0.554 -0.446,1 -1,1 -0.554,0 -1,-0.446 -1,-1 0,-0.554 0.446,-1 1,-1 z m -27,1 -12,9 12,9 z m 36,0 v 18 l 12,-9 z m -25.90625,3 H -34 V 55.96875 H -49.90625 Z M -51,66 l 9,12 9,-12 z"
       inkscape:connector-curvature="0"
       id="path2893"
       style="display:inline;fill:#000000;fill-opacity:1;stroke:none" />
    <path
       d="m 34.949475,6.95 1.0875,1.45 h 23.925 l 1.0875,-1.45 z m -0.860938,23.2 c -1.927923,3e-6 -3.489062,1.561143 -3.489062,3.489063 v 1.45 c 0,-1.92792 1.561139,-3.48906 3.489062,-3.489063 h 27.821875 c 1.92792,0 3.489063,1.561143 3.489063,3.489063 v -1.45 c 0,-1.92792 -1.561143,-3.489063 -3.489063,-3.489063 z M 7.3994749,34.5 v 1.45 L 23.847912,48.275 24.799475,47.55 Z m 81.2000001,0 -17.4,13.05 0.951562,0.725 16.448438,-12.325 z m -40.373438,0.725 c -0.129667,0.217304 -0.226562,0.452544 -0.226562,0.725 0,0.8033 0.6467,1.45 1.45,1.45 0.8033,0 1.45,-0.6467 1.45,-1.45 0,-0.272456 -0.09689,-0.507696 -0.226563,-0.725 -0.252637,0.423387 -0.692594,0.725 -1.223437,0.725 -0.530844,0 -0.9708,-0.301613 -1.223438,-0.725 z m 5.8,0 c -0.129667,0.217304 -0.226562,0.452544 -0.226562,0.725 0,0.8033 0.6467,1.45 1.45,1.45 0.8033,0 1.45,-0.6467 1.45,-1.45 0,-0.272456 -0.09689,-0.507696 -0.226563,-0.725 -0.252637,0.423387 -0.692594,0.725 -1.223437,0.725 -0.530844,0 -0.9708,-0.301613 -1.223438,-0.725 z m 5.8,0 c -0.129667,0.217304 -0.226562,0.452544 -0.226562,0.725 0,0.8033 0.6467,1.45 1.45,1.45 0.8033,0 1.45,-0.6467 1.45,-1.45 0,-0.272456 -0.09689,-0.507696 -0.226563,-0.725 -0.252637,0.423387 -0.692594,0.725 -1.223437,0.725 -0.530844,0 -0.9708,-0.301613 -1.223438,-0.725 z M 36.535412,59.104687 v 1.45 h 23.064063 v -1.45 z M 47.999475,70.75 l -13.05,17.4 h 1.0875 l 11.9625,-15.95 11.9625,15.95 h 1.0875 z"
       inkscape:connector-curvature="0"
       id="path3203"
       style="display:inline;opacity:0.75;fill:#ffffff;fill-opacity:1;stroke:none;stroke-width:1.45" />
    <path
       d="m 34.949475,6.95 13.05,17.4 13.05,-17.4 h -1.0875 L 47.999475,22.9 36.036975,6.95 Z m 14.5,24.65 c -0.8033,0 -1.45,0.6467 -1.45,1.45 0,0.272456 0.09689,0.507696 0.226562,0.725 0.252638,-0.423387 0.692594,-0.725 1.223438,-0.725 0.530843,0 0.9708,0.301613 1.223437,0.725 0.129668,-0.217304 0.226563,-0.452544 0.226563,-0.725 0,-0.8033 -0.6467,-1.45 -1.45,-1.45 z m 5.8,0 c -0.8033,0 -1.45,0.6467 -1.45,1.45 0,0.272456 0.09689,0.507696 0.226562,0.725 0.252638,-0.423387 0.692594,-0.725 1.223438,-0.725 0.530843,0 0.9708,0.301613 1.223437,0.725 0.129668,-0.217304 0.226563,-0.452544 0.226563,-0.725 0,-0.8033 -0.6467,-1.45 -1.45,-1.45 z m 5.8,0 c -0.8033,0 -1.45,0.6467 -1.45,1.45 0,0.272456 0.09689,0.507696 0.226562,0.725 0.252638,-0.423387 0.692594,-0.725 1.223438,-0.725 0.530843,0 0.9708,0.301613 1.223437,0.725 0.129668,-0.217304 0.226563,-0.452544 0.226563,-0.725 0,-0.8033 -0.6467,-1.45 -1.45,-1.45 z m -24.514063,5.8 v 1.45 H 59.599475 V 37.4 Z M 23.847912,46.825 7.3994749,59.15 V 60.6 L 24.799475,47.55 Z m 48.303125,0 -0.951562,0.725 17.4,13.05 V 59.15 Z M 30.599475,63.5 v 1.45 h 34.8 V 63.5 Z m 5.4375,23.2 -1.0875,1.45 h 26.1 l -1.0875,-1.45 z"
       inkscape:connector-curvature="0"
       id="path3980"
       style="display:inline;opacity:0.15;fill:#000000;fill-opacity:1;stroke:none;stroke-width:1.45" />
  </g>
</svg>
