<?xml version="1.0" encoding="UTF-8" standalone="no"?>
<!-- Created with Inkscape (http://www.inkscape.org/) -->

<svg
   version="1.0"
   width="96"
   height="96"
   id="svg2408"
   sodipodi:docname="reload.svg"
   inkscape:version="1.2.2 (b0a8486541, 2022-12-01)"
   xmlns:inkscape="http://www.inkscape.org/namespaces/inkscape"
   xmlns:sodipodi="http://sodipodi.sourceforge.net/DTD/sodipodi-0.dtd"
   xmlns:xlink="http://www.w3.org/1999/xlink"
   xmlns="http://www.w3.org/2000/svg"
   xmlns:svg="http://www.w3.org/2000/svg"
   xmlns:rdf="http://www.w3.org/1999/02/22-rdf-syntax-ns#"
   xmlns:cc="http://creativecommons.org/ns#"
   xmlns:dc="http://purl.org/dc/elements/1.1/">
  <sodipodi:namedview
     id="namedview16568"
     pagecolor="#ffffff"
     bordercolor="#666666"
     borderopacity="1.0"
     inkscape:showpageshadow="2"
     inkscape:pageopacity="0.0"
     inkscape:pagecheckerboard="0"
     inkscape:deskcolor="#d1d1d1"
     showgrid="false"
     inkscape:zoom="2.4583333"
     inkscape:cx="39.661017"
     inkscape:cy="48"
     inkscape:window-width="1872"
     inkscape:window-height="1011"
     inkscape:window-x="48"
     inkscape:window-y="0"
     inkscape:window-maximized="1"
     inkscape:current-layer="layer6" />
  <defs
     id="defs2410">
    <linearGradient
       id="linearGradient3637">
      <stop
         id="stop3639"
         style="stop-color:#f0f0f0;stop-opacity:1"
         offset="0" />
      <stop
         id="stop3641"
         style="stop-color:#aaaaaa;stop-opacity:1"
         offset="1" />
    </linearGradient>
    <linearGradient
       x1="45.447727"
       y1="92.539597"
       x2="45.447727"
       y2="7.0165396"
       id="ButtonShadow"
       gradientUnits="userSpaceOnUse"
       gradientTransform="scale(1.0058652,0.994169)">
      <stop
         id="stop3750"
         style="stop-color:#000000;stop-opacity:1"
         offset="0" />
      <stop
         id="stop3752"
         style="stop-color:#000000;stop-opacity:0.58823532"
         offset="1" />
    </linearGradient>
    <linearGradient
       id="linearGradient3737">
      <stop
         id="stop3739"
         style="stop-color:#ffffff;stop-opacity:1"
         offset="0" />
      <stop
         id="stop3741"
         style="stop-color:#ffffff;stop-opacity:0"
         offset="1" />
    </linearGradient>
    <linearGradient
       id="linearGradient3700">
      <stop
         id="stop3702"
         style="stop-color:#2276c5;stop-opacity:1"
         offset="0" />
      <stop
         id="stop3704"
         style="stop-color:#68baf4;stop-opacity:1"
         offset="1" />
    </linearGradient>
    <filter
       color-interpolation-filters="sRGB"
       id="filter3174"
       x="-0.047720931"
       y="-0.048282354"
       width="1.0954419"
       height="1.0965647">
      <feGaussianBlur
         id="feGaussianBlur3176"
         stdDeviation="1.71" />
    </filter>
    <linearGradient
       x1="36.357143"
       y1="6"
       x2="36.357143"
       y2="63.893143"
       id="linearGradient3188"
       xlink:href="#linearGradient3737"
       gradientUnits="userSpaceOnUse" />
    <filter
       x="-0.19578789"
       y="-0.19578789"
       width="1.3915758"
       height="1.3915758"
       color-interpolation-filters="sRGB"
       id="filter3794">
      <feGaussianBlur
         id="feGaussianBlur3796"
         stdDeviation="5.28" />
    </filter>
    <linearGradient
       x1="48"
       y1="20.220806"
       x2="48"
       y2="138.66119"
       id="linearGradient3613"
       xlink:href="#linearGradient3737"
       gradientUnits="userSpaceOnUse" />
    <radialGradient
       cx="48"
       cy="90.171875"
       r="42"
       fx="48"
       fy="90.171875"
       id="radialGradient3619"
       xlink:href="#linearGradient3737"
       gradientUnits="userSpaceOnUse"
       gradientTransform="matrix(1.1573129,0,0,0.99590774,-7.5510206,0.19713193)" />
    <clipPath
       id="clipPath3613">
      <rect
         width="84"
         height="84"
         rx="6"
         ry="6"
         x="6"
         y="6"
         id="rect3615"
         style="fill:#ffffff;fill-opacity:1;fill-rule:nonzero;stroke:none" />
    </clipPath>
    <linearGradient
       x1="48"
       y1="90"
       x2="48"
       y2="5.9877172"
       id="linearGradient2843"
       xlink:href="#linearGradient3700"
       gradientUnits="userSpaceOnUse"
       gradientTransform="translate(0,100)" />
    <clipPath
       id="clipPath3625">
      <path
         d="M 0,0 0,96 96,96 96,0 0,0 z m 12,6 72,0 c 3.324,0 6,2.676 6,6 l 0,72 c 0,3.324 -2.676,6 -6,6 L 12,90 C 8.676,90 6,87.324 6,84 L 6,12 C 6,8.676 8.676,6 12,6 z"
         inkscape:connector-curvature="0"
         id="path3627"
         style="fill:#ffffff;fill-opacity:1;stroke:none" />
    </clipPath>
    <linearGradient
       x1="44.512066"
       y1="6"
       x2="44.512066"
       y2="90.015434"
       id="linearGradient3643"
       xlink:href="#linearGradient3637"
       gradientUnits="userSpaceOnUse" />
    <clipPath
       id="clipPath3649">
      <rect
         width="76"
         height="76"
         rx="4"
         ry="4"
         x="10"
         y="10"
         id="rect3651"
         style="fill:#ffffff;fill-opacity:1;fill-rule:nonzero;stroke:none" />
    </clipPath>
    <filter
       color-interpolation-filters="sRGB"
       id="filter3657"
       x="-0.035076923"
       y="-0.035076923"
       width="1.0701538"
       height="1.0701538">
      <feGaussianBlur
         id="feGaussianBlur3659"
         stdDeviation="1.14" />
    </filter>
    <linearGradient
       x1="45.447727"
       y1="92.539597"
       x2="45.447727"
       y2="7.0165396"
       id="ButtonShadow-0"
       gradientUnits="userSpaceOnUse"
       gradientTransform="matrix(1.0058652,0,0,0.994169,100,0)">
      <stop
         id="stop3750-8"
         style="stop-color:#000000;stop-opacity:1"
         offset="0" />
      <stop
         id="stop3752-5"
         style="stop-color:#000000;stop-opacity:0.58823532"
         offset="1" />
    </linearGradient>
    <linearGradient
       x1="32.251034"
       y1="6.1317081"
       x2="32.251034"
       y2="90.238609"
       id="linearGradient3780"
       xlink:href="#ButtonShadow-0"
       gradientUnits="userSpaceOnUse"
       gradientTransform="matrix(1.0238095,0,0,-1.0119048,-1.1428571,98.071429)" />
    <linearGradient
       x1="32.251034"
       y1="6.1317081"
       x2="32.251034"
       y2="90.238609"
       id="linearGradient3772"
       xlink:href="#ButtonShadow-0"
       gradientUnits="userSpaceOnUse"
       gradientTransform="matrix(1.0238095,0,0,-1.0119048,-1.1428571,98.071429)" />
    <linearGradient
       x1="32.251034"
       y1="6.1317081"
       x2="32.251034"
       y2="90.238609"
       id="linearGradient3725"
       xlink:href="#ButtonShadow-0"
       gradientUnits="userSpaceOnUse"
       gradientTransform="matrix(1.0238095,0,0,-1.0119048,-1.1428571,98.071429)" />
    <linearGradient
       x1="32.251034"
       y1="6.1317081"
       x2="32.251034"
       y2="90.238609"
       id="linearGradient3721"
       xlink:href="#ButtonShadow-0"
       gradientUnits="userSpaceOnUse"
       gradientTransform="matrix(1,0,0,-1,0,97)" />
    <linearGradient
       x1="32.251034"
       y1="6.1317081"
       x2="32.251034"
       y2="90.238609"
       id="linearGradient3199"
       xlink:href="#ButtonShadow-0"
       gradientUnits="userSpaceOnUse"
       gradientTransform="matrix(1.0238095,0,0,-1.0119048,-1.1428571,98.071429)" />
    <linearGradient
       x1="36.357143"
       y1="6"
       x2="36.357143"
       y2="63.893143"
       id="linearGradient3188-8"
       xlink:href="#linearGradient3737-3"
       gradientUnits="userSpaceOnUse" />
    <linearGradient
       id="linearGradient3737-3">
      <stop
         id="stop3739-6"
         style="stop-color:#ffffff;stop-opacity:1"
         offset="0" />
      <stop
         id="stop3741-1"
         style="stop-color:#ffffff;stop-opacity:0"
         offset="1" />
    </linearGradient>
    <radialGradient
       cx="48"
       cy="90.171875"
       r="42"
       fx="48"
       fy="90.171875"
       id="radialGradient3619-3"
       xlink:href="#linearGradient3737-3"
       gradientUnits="userSpaceOnUse"
       gradientTransform="matrix(1.1573129,0,0,0.99590774,-7.551021,0.1971319)" />
    <linearGradient
       x1="104"
       y1="8"
       x2="120"
       y2="8"
       id="linearGradient3905"
       xlink:href="#linearGradient3637"
       gradientUnits="userSpaceOnUse"
       gradientTransform="translate(-104,104)" />
    <linearGradient
       x1="104"
       y1="8"
       x2="120"
       y2="8"
       id="linearGradient3913"
       xlink:href="#linearGradient3183-0"
       gradientUnits="userSpaceOnUse"
       gradientTransform="translate(-144,104)" />
    <linearGradient
       id="linearGradient3183-0">
      <stop
         id="stop3185-9"
         style="stop-color:#c80000;stop-opacity:1"
         offset="0" />
      <stop
         id="stop3187-6"
         style="stop-color:#f3604d;stop-opacity:1"
         offset="1" />
    </linearGradient>
    <linearGradient
       x1="10.458337"
       y1="4.3967042"
       x2="10.458337"
       y2="19.290417"
       id="linearGradient3015"
       xlink:href="#linearGradient3637"
       gradientUnits="userSpaceOnUse"
       gradientTransform="matrix(5.2378729,0,0,4.5372664,-7.624998,-7.798868)" />
  </defs>
  <metadata
     id="metadata2413">
    <rdf:RDF>
      <cc:Work
         rdf:about="">
        <dc:format>image/svg+xml</dc:format>
        <dc:type
           rdf:resource="http://purl.org/dc/dcmitype/StillImage" />
        <dc:title />
      </cc:Work>
    </rdf:RDF>
  </metadata>
  <g
     id="layer2"
     style="display:none">
    <rect
       width="86"
       height="85"
       rx="6"
       ry="6"
       x="5"
       y="7"
       clip-path="url(#clipPath3625)"
       id="rect3745"
       style="opacity:0.9;fill:url(#ButtonShadow);fill-opacity:1;fill-rule:nonzero;stroke:none;filter:url(#filter3174)" />
  </g>
  <g
     id="layer3"
     style="display:none">
    <path
       d="M 12,3.96875 C 6.4889098,3.96875 1.96875,8.4889098 1.96875,14 v 71 c 0,5.51109 4.5201597,10.03125 10.03125,10.03125 h 72 c 5.51109,0 10.03125,-4.52016 10.03125,-10.03125 V 14 C 94.03125,8.4889097 89.51109,3.96875 84,3.96875 Z M 12,6 h 72 c 3.324,0 6,2.676 6,6 v 72 c 0,3.324 -2.676,6 -6,6 H 12 C 8.676,90 6,87.324 6,84 V 12 C 6,8.676 8.676,6 12,6 Z"
       inkscape:connector-curvature="0"
       id="path3786"
       style="display:inline;opacity:0.08;fill:url(#linearGradient3199);fill-opacity:1;fill-rule:nonzero;stroke:none" />
    <path
       d="M 12,4.96875 C 7.0283671,4.96875 2.96875,9.0283671 2.96875,14 v 71 c 0,4.971633 4.059617,9.03125 9.03125,9.03125 h 72 c 4.971633,0 9.03125,-4.059617 9.03125,-9.03125 V 14 C 93.03125,9.028367 88.971633,4.96875 84,4.96875 Z M 12,6 h 72 c 3.324,0 6,2.676 6,6 v 72 c 0,3.324 -2.676,6 -6,6 H 12 C 8.676,90 6,87.324 6,84 V 12 C 6,8.676 8.676,6 12,6 Z"
       inkscape:connector-curvature="0"
       id="path3778"
       style="display:inline;opacity:0.1;fill:url(#linearGradient3780);fill-opacity:1;fill-rule:nonzero;stroke:none" />
    <path
       d="M 11.1875,6.03125 C 7.159982,6.4419011 4,9.8664375 4,14 v 71 c 0,4.409133 3.590867,8 8,8 h 72 c 4.409133,0 8,-3.590867 8,-8 V 14 C 92,9.8029382 88.741028,6.3539584 84.625,6.03125 87.657886,6.337417 90,8.88375 90,12 v 72 c 0,3.324 -2.676,6 -6,6 H 12 C 8.676,90 6,87.324 6,84 V 12 c 0,-3.11625 2.342114,-5.662583 5.375,-5.96875 -0.06227,0.00488 -0.12563,-0.00631 -0.1875,0 z"
       inkscape:connector-curvature="0"
       id="path3770"
       style="display:inline;opacity:0.2;fill:url(#linearGradient3772);fill-opacity:1;fill-rule:nonzero;stroke:none" />
    <path
       d="M 6.4375,9.75 C 5.5380109,10.927446 5,12.397277 5,14 v 71 c 0,3.878 3.122,7 7,7 h 72 c 3.878,0 7,-3.122 7,-7 V 14 C 91,12.397277 90.461989,10.927446 89.5625,9.75 89.841816,10.444095 90,11.203625 90,12 v 72 c 0,3.324 -2.676,6 -6,6 H 12 C 8.676,90 6,87.324 6,84 V 12 C 6,11.203625 6.1581836,10.444095 6.4375,9.75 Z"
       inkscape:connector-curvature="0"
       id="rect3723"
       style="display:inline;opacity:0.3;fill:url(#linearGradient3725);fill-opacity:1;fill-rule:nonzero;stroke:none" />
    <path
       d="m 6,84 v 1 c 0,3.324 2.676,6 6,6 h 72 c 3.324,0 6,-2.676 6,-6 v -1 c 0,3.324 -2.676,6 -6,6 H 12 C 8.676,90 6,87.324 6,84 Z"
       inkscape:connector-curvature="0"
       id="rect3716"
       style="display:inline;opacity:0.45;fill:url(#linearGradient3721);fill-opacity:1;fill-rule:nonzero;stroke:none" />
  </g>
  <g
     id="layer1"
     style="display:none">
    <rect
       width="84"
       height="84"
       rx="6"
       ry="6"
       x="6"
       y="6"
       id="rect2419"
       style="opacity:0.8;fill:#000000;fill-opacity:1;fill-rule:nonzero;stroke:none" />
    <path
       d="m 14,10 c -2.216,0 -4,1.784 -4,4 l 0,68 c 0,2.216 1.784,4 4,4 l 68,0 c 2.216,0 4,-1.784 4,-4 l 0,-68 c 0,-2.216 -1.784,-4 -4,-4 l -68,0 z m 0,3.0625 68,0 c 0.578769,0 0.9375,0.358731 0.9375,0.9375 l 0,68 c 0,0.578769 -0.358731,0.9375 -0.9375,0.9375 l -68,0 c -0.578769,0 -0.9375,-0.358731 -0.9375,-0.9375 l 0,-68 c 0,-0.578769 0.358731,-0.9375 0.9375,-0.9375 z"
       inkscape:connector-curvature="0"
       id="rect3726"
       style="opacity:0.07999998;fill:#000000;fill-opacity:1;fill-rule:nonzero;stroke:none" />
    <path
       d="M 12,6 C 8.676,6 6,8.676 6,12 l 0,72 c 0,3.324 2.676,6 6,6 l 72,0 c 3.324,0 6,-2.676 6,-6 L 90,12 C 90,8.676 87.324,6 84,6 L 12,6 z m 2,4 68,0 c 2.216,0 4,1.784 4,4 l 0,68 c 0,2.216 -1.784,4 -4,4 l -68,0 c -2.216,0 -4,-1.784 -4,-4 l 0,-68 c 0,-2.216 1.784,-4 4,-4 z"
       inkscape:connector-curvature="0"
       id="rect3629"
       style="fill:url(#linearGradient3643);fill-opacity:1;fill-rule:nonzero;stroke:none" />
    <path
       d="M 12,6 C 8.676,6 6,8.676 6,12 l 0,2 0,68 0,2 c 0,0.334721 0.04135,0.6507 0.09375,0.96875 0.0487,0.295596 0.09704,0.596915 0.1875,0.875 0.00988,0.03038 0.020892,0.0636 0.03125,0.09375 0.098865,0.287771 0.2348802,0.547452 0.375,0.8125 0.1445918,0.273507 0.3156161,0.535615 0.5,0.78125 0.1843839,0.245635 0.3737765,0.473472 0.59375,0.6875 0.439947,0.428056 0.94291,0.814526 1.5,1.09375 0.278545,0.139612 0.5734731,0.246947 0.875,0.34375 -0.2562018,-0.100222 -0.4867109,-0.236272 -0.71875,-0.375 -0.00741,-0.0044 -0.023866,0.0045 -0.03125,0 -0.031933,-0.0193 -0.062293,-0.04251 -0.09375,-0.0625 -0.120395,-0.0767 -0.2310226,-0.163513 -0.34375,-0.25 -0.1061728,-0.0808 -0.2132809,-0.161112 -0.3125,-0.25 C 8.4783201,88.557317 8.3087904,88.373362 8.15625,88.1875 8.0486711,88.057245 7.9378561,87.922215 7.84375,87.78125 7.818661,87.74287 7.805304,87.69538 7.78125,87.65625 7.716487,87.553218 7.6510225,87.451733 7.59375,87.34375 7.4927417,87.149044 7.3880752,86.928049 7.3125,86.71875 7.30454,86.69694 7.288911,86.6782 7.28125,86.65625 7.2494249,86.5643 7.2454455,86.469419 7.21875,86.375 7.1884177,86.268382 7.1483606,86.171969 7.125,86.0625 7.0521214,85.720988 7,85.364295 7,85 L 7,83 7,15 7,13 C 7,10.218152 9.2181517,8 12,8 l 2,0 68,0 2,0 c 2.781848,0 5,2.218152 5,5 l 0,2 0,68 0,2 c 0,0.364295 -0.05212,0.720988 -0.125,1.0625 -0.04415,0.206893 -0.08838,0.397658 -0.15625,0.59375 -0.0077,0.02195 -0.0233,0.04069 -0.03125,0.0625 -0.06274,0.173739 -0.138383,0.367449 -0.21875,0.53125 -0.04158,0.0828 -0.07904,0.169954 -0.125,0.25 -0.0546,0.09721 -0.126774,0.18835 -0.1875,0.28125 -0.09411,0.140965 -0.204921,0.275995 -0.3125,0.40625 -0.143174,0.17445 -0.303141,0.346998 -0.46875,0.5 -0.01117,0.0102 -0.01998,0.02115 -0.03125,0.03125 -0.138386,0.125556 -0.285091,0.234436 -0.4375,0.34375 -0.102571,0.07315 -0.204318,0.153364 -0.3125,0.21875 -0.0074,0.0045 -0.02384,-0.0044 -0.03125,0 -0.232039,0.138728 -0.462548,0.274778 -0.71875,0.375 0.301527,-0.0968 0.596455,-0.204138 0.875,-0.34375 0.55709,-0.279224 1.060053,-0.665694 1.5,-1.09375 0.219973,-0.214028 0.409366,-0.441865 0.59375,-0.6875 0.184384,-0.245635 0.355408,-0.507743 0.5,-0.78125 0.14012,-0.265048 0.276135,-0.524729 0.375,-0.8125 0.01041,-0.03078 0.02133,-0.06274 0.03125,-0.09375 0.09046,-0.278085 0.1388,-0.579404 0.1875,-0.875 C 89.95865,84.6507 90,84.334721 90,84 l 0,-2 0,-68 0,-2 C 90,8.676 87.324,6 84,6 L 12,6 z"
       inkscape:connector-curvature="0"
       id="rect3728"
       style="fill:url(#linearGradient3188);fill-opacity:1;fill-rule:nonzero;stroke:none" />
    <path
       d="M 12,90 C 8.676,90 6,87.324 6,84 L 6,82 6,14 6,12 c 0,-0.334721 0.04135,-0.6507 0.09375,-0.96875 0.0487,-0.295596 0.09704,-0.596915 0.1875,-0.875 C 6.29113,10.12587 6.302142,10.09265 6.3125,10.0625 6.411365,9.774729 6.5473802,9.515048 6.6875,9.25 6.8320918,8.976493 7.0031161,8.714385 7.1875,8.46875 7.3718839,8.223115 7.5612765,7.995278 7.78125,7.78125 8.221197,7.353194 8.72416,6.966724 9.28125,6.6875 9.559795,6.547888 9.8547231,6.440553 10.15625,6.34375 9.9000482,6.443972 9.6695391,6.580022 9.4375,6.71875 c -0.00741,0.0044 -0.023866,-0.0045 -0.03125,0 -0.031933,0.0193 -0.062293,0.04251 -0.09375,0.0625 -0.120395,0.0767 -0.2310226,0.163513 -0.34375,0.25 -0.1061728,0.0808 -0.2132809,0.161112 -0.3125,0.25 C 8.4783201,7.442683 8.3087904,7.626638 8.15625,7.8125 8.0486711,7.942755 7.9378561,8.077785 7.84375,8.21875 7.818661,8.25713 7.805304,8.30462 7.78125,8.34375 7.716487,8.446782 7.6510225,8.548267 7.59375,8.65625 7.4927417,8.850956 7.3880752,9.071951 7.3125,9.28125 7.30454,9.30306 7.288911,9.3218 7.28125,9.34375 7.2494249,9.4357 7.2454455,9.530581 7.21875,9.625 7.1884177,9.731618 7.1483606,9.828031 7.125,9.9375 7.0521214,10.279012 7,10.635705 7,11 l 0,2 0,68 0,2 c 0,2.781848 2.2181517,5 5,5 l 2,0 68,0 2,0 c 2.781848,0 5,-2.218152 5,-5 l 0,-2 0,-68 0,-2 C 89,10.635705 88.94788,10.279012 88.875,9.9375 88.83085,9.730607 88.78662,9.539842 88.71875,9.34375 88.71105,9.3218 88.69545,9.30306 88.6875,9.28125 88.62476,9.107511 88.549117,8.913801 88.46875,8.75 88.42717,8.6672 88.38971,8.580046 88.34375,8.5 88.28915,8.40279 88.216976,8.31165 88.15625,8.21875 88.06214,8.077785 87.951329,7.942755 87.84375,7.8125 87.700576,7.63805 87.540609,7.465502 87.375,7.3125 87.36383,7.3023 87.35502,7.29135 87.34375,7.28125 87.205364,7.155694 87.058659,7.046814 86.90625,6.9375 86.803679,6.86435 86.701932,6.784136 86.59375,6.71875 c -0.0074,-0.0045 -0.02384,0.0044 -0.03125,0 -0.232039,-0.138728 -0.462548,-0.274778 -0.71875,-0.375 0.301527,0.0968 0.596455,0.204138 0.875,0.34375 0.55709,0.279224 1.060053,0.665694 1.5,1.09375 0.219973,0.214028 0.409366,0.441865 0.59375,0.6875 0.184384,0.245635 0.355408,0.507743 0.5,0.78125 0.14012,0.265048 0.276135,0.524729 0.375,0.8125 0.01041,0.03078 0.02133,0.06274 0.03125,0.09375 0.09046,0.278085 0.1388,0.579404 0.1875,0.875 C 89.95865,11.3493 90,11.665279 90,12 l 0,2 0,68 0,2 c 0,3.324 -2.676,6 -6,6 l -72,0 z"
       inkscape:connector-curvature="0"
       id="path3615"
       style="opacity:0.6;fill:url(#radialGradient3619);fill-opacity:1;fill-rule:nonzero;stroke:none" />
    <rect
       width="84"
       height="84"
       rx="6"
       ry="6"
       x="6"
       y="106"
       id="rect2841"
       style="fill:url(#linearGradient2843);fill-opacity:1;fill-rule:nonzero;stroke:none" />
    <rect
       width="76"
       height="76"
       rx="4"
       ry="4"
       x="10"
       y="110"
       id="rect3634"
       style="fill:#ff0000;fill-opacity:1;fill-rule:nonzero;stroke:none" />
    <path
       d="m 14,9 c -2.752703,0 -5,2.247297 -5,5 l 0,68 c 0,2.752703 2.247297,5 5,5 l 68,0 c 2.752703,0 5,-2.247297 5,-5 L 87,14 C 87,11.247297 84.752703,9 82,9 L 14,9 z m 0,2 68,0 c 1.679297,0 3,1.320703 3,3 l 0,68 c 0,1.679297 -1.320703,3 -3,3 l -68,0 c -1.679297,0 -3,-1.320703 -3,-3 l 0,-68 c 0,-1.679297 1.320703,-3 3,-3 z"
       inkscape:connector-curvature="0"
       transform="translate(-110,0)"
       clip-path="url(#clipPath3649)"
       id="rect3647"
       style="font-size:medium;font-style:normal;font-variant:normal;font-weight:normal;font-stretch:normal;text-indent:0;text-align:start;text-decoration:none;line-height:normal;letter-spacing:normal;word-spacing:normal;text-transform:none;direction:ltr;block-progression:tb;writing-mode:lr-tb;text-anchor:start;color:#000000;fill:#000000;fill-opacity:1;stroke:none;stroke-width:2;marker:none;visibility:visible;display:inline;overflow:visible;filter:url(#filter3657);enable-background:accumulate;font-family:Abandoned Bitplane;-inkscape-font-specification:Abandoned Bitplane" />
    <path
       d="m 14.089286,10 c -2.216,0 -4,1.784 -4,4 l 0,68 c 0,2.216 1.784,4 4,4 l 68,0 c 2.216,0 4,-1.784 4,-4 l 0,-68 c 0,-2.216 -1.784,-4 -4,-4 l -68,0 z m 0,2 68,0 c 1.140301,0 2,0.859699 2,2 l 0,68 c 0,1.140301 -0.859699,2 -2,2 l -68,0 c -1.140301,0 -2,-0.859699 -2,-2 l 0,-68 c 0,-1.140301 0.859699,-2 2,-2 z"
       inkscape:connector-curvature="0"
       id="path3709"
       style="opacity:0.16000001;fill:#000000;fill-opacity:1;fill-rule:nonzero;stroke:none" />
    <path
       d="m 14,10 c -2.216,0 -4,1.784 -4,4 l 0,68 c 0,2.216 1.784,4 4,4 l 68,0 c 2.216,0 4,-1.784 4,-4 l 0,-68 c 0,-2.216 -1.784,-4 -4,-4 l -68,0 z m 0,1 68,0 c 1.673848,0 3,1.326152 3,3 l 0,68 c 0,1.673848 -1.326152,3 -3,3 l -68,0 c -1.673848,0 -3,-1.326152 -3,-3 l 0,-68 c 0,-1.673848 1.326152,-3 3,-3 z"
       inkscape:connector-curvature="0"
       id="path3707"
       style="opacity:0.36000001;fill:#000000;fill-opacity:1;fill-rule:nonzero;stroke:none" />
  </g>
  <g
     id="layer4"
     style="display:none">
    <rect
       width="84"
       height="84"
       rx="6"
       ry="6"
       x="6"
       y="6"
       id="rect2419-9"
       style="display:inline;opacity:0.6;fill:#000000;fill-opacity:1;fill-rule:nonzero;stroke:none" />
    <path
       d="M 12,6 C 8.676,6 6,8.676 6,12 v 2 68 2 c 0,0.334721 0.04135,0.6507 0.09375,0.96875 0.0487,0.295596 0.09704,0.596915 0.1875,0.875 0.00988,0.03038 0.020892,0.0636 0.03125,0.09375 0.098865,0.287771 0.2348802,0.547452 0.375,0.8125 0.1445918,0.273507 0.3156161,0.535615 0.5,0.78125 0.1843839,0.245635 0.3737765,0.473472 0.59375,0.6875 0.439947,0.428056 0.94291,0.814526 1.5,1.09375 0.278545,0.139612 0.5734731,0.246947 0.875,0.34375 -0.2562018,-0.100222 -0.4867109,-0.236272 -0.71875,-0.375 -0.00741,-0.0044 -0.023866,0.0045 -0.03125,0 -0.031933,-0.0193 -0.062293,-0.04251 -0.09375,-0.0625 -0.120395,-0.0767 -0.2310226,-0.163513 -0.34375,-0.25 -0.1061728,-0.0808 -0.2132809,-0.161112 -0.3125,-0.25 C 8.4783201,88.557317 8.3087904,88.373362 8.15625,88.1875 8.0486711,88.057245 7.9378561,87.922215 7.84375,87.78125 7.818661,87.74287 7.805304,87.69538 7.78125,87.65625 7.716487,87.553218 7.6510225,87.451733 7.59375,87.34375 7.4927417,87.149044 7.3880752,86.928049 7.3125,86.71875 7.30454,86.69694 7.288911,86.6782 7.28125,86.65625 7.2494249,86.5643 7.2454455,86.469419 7.21875,86.375 7.1884177,86.268382 7.1483606,86.171969 7.125,86.0625 7.0521214,85.720988 7,85.364295 7,85 V 83 15 13 C 7,10.218152 9.2181517,8 12,8 h 2 68 2 c 2.781848,0 5,2.218152 5,5 v 2 68 2 c 0,0.364295 -0.05212,0.720988 -0.125,1.0625 -0.04415,0.206893 -0.08838,0.397658 -0.15625,0.59375 -0.0077,0.02195 -0.0233,0.04069 -0.03125,0.0625 -0.06274,0.173739 -0.138383,0.367449 -0.21875,0.53125 -0.04158,0.0828 -0.07904,0.169954 -0.125,0.25 -0.0546,0.09721 -0.126774,0.18835 -0.1875,0.28125 -0.09411,0.140965 -0.204921,0.275995 -0.3125,0.40625 -0.143174,0.17445 -0.303141,0.346998 -0.46875,0.5 -0.01117,0.0102 -0.01998,0.02115 -0.03125,0.03125 -0.138386,0.125556 -0.285091,0.234436 -0.4375,0.34375 -0.102571,0.07315 -0.204318,0.153364 -0.3125,0.21875 -0.0074,0.0045 -0.02384,-0.0044 -0.03125,0 -0.232039,0.138728 -0.462548,0.274778 -0.71875,0.375 0.301527,-0.0968 0.596455,-0.204138 0.875,-0.34375 0.55709,-0.279224 1.060053,-0.665694 1.5,-1.09375 0.219973,-0.214028 0.409366,-0.441865 0.59375,-0.6875 0.184384,-0.245635 0.355408,-0.507743 0.5,-0.78125 0.14012,-0.265048 0.276135,-0.524729 0.375,-0.8125 0.01041,-0.03078 0.02133,-0.06274 0.03125,-0.09375 0.09046,-0.278085 0.1388,-0.579404 0.1875,-0.875 C 89.95865,84.6507 90,84.334721 90,84 V 82 14 12 C 90,8.676 87.324,6 84,6 Z"
       inkscape:connector-curvature="0"
       id="rect3728-4"
       style="display:inline;opacity:0.01;fill:url(#linearGradient3188-8);fill-opacity:1;fill-rule:nonzero;stroke:none" />
    <path
       d="M 12,90 C 8.676,90 6,87.324 6,84 V 82 14 12 c 0,-0.334721 0.04135,-0.6507 0.09375,-0.96875 0.0487,-0.295596 0.09704,-0.596915 0.1875,-0.875 C 6.29113,10.12587 6.302142,10.09265 6.3125,10.0625 6.411365,9.774729 6.5473802,9.515048 6.6875,9.25 6.8320918,8.976493 7.0031161,8.714385 7.1875,8.46875 7.3718839,8.223115 7.5612765,7.995278 7.78125,7.78125 8.221197,7.353194 8.72416,6.966724 9.28125,6.6875 9.559795,6.547888 9.8547231,6.440553 10.15625,6.34375 9.9000482,6.443972 9.6695391,6.580022 9.4375,6.71875 c -0.00741,0.0044 -0.023866,-0.0045 -0.03125,0 -0.031933,0.0193 -0.062293,0.04251 -0.09375,0.0625 -0.120395,0.0767 -0.2310226,0.163513 -0.34375,0.25 -0.1061728,0.0808 -0.2132809,0.161112 -0.3125,0.25 C 8.4783201,7.442683 8.3087904,7.626638 8.15625,7.8125 8.0486711,7.942755 7.9378561,8.077785 7.84375,8.21875 7.818661,8.25713 7.805304,8.30462 7.78125,8.34375 7.716487,8.446782 7.6510225,8.548267 7.59375,8.65625 7.4927417,8.850956 7.3880752,9.071951 7.3125,9.28125 7.30454,9.30306 7.288911,9.3218 7.28125,9.34375 7.2494249,9.4357 7.2454455,9.530581 7.21875,9.625 7.1884177,9.731618 7.1483606,9.828031 7.125,9.9375 7.0521214,10.279012 7,10.635705 7,11 v 2 68 2 c 0,2.781848 2.2181517,5 5,5 h 2 68 2 c 2.781848,0 5,-2.218152 5,-5 V 81 13 11 C 89,10.635705 88.94788,10.279012 88.875,9.9375 88.83085,9.730607 88.78662,9.539842 88.71875,9.34375 88.71105,9.3218 88.69545,9.30306 88.6875,9.28125 88.62476,9.107511 88.549117,8.913801 88.46875,8.75 88.42717,8.6672 88.38971,8.580046 88.34375,8.5 88.28915,8.40279 88.216976,8.31165 88.15625,8.21875 88.06214,8.077785 87.951329,7.942755 87.84375,7.8125 87.700576,7.63805 87.540609,7.465502 87.375,7.3125 87.36383,7.3023 87.35502,7.29135 87.34375,7.28125 87.205364,7.155694 87.058659,7.046814 86.90625,6.9375 86.803679,6.86435 86.701932,6.784136 86.59375,6.71875 c -0.0074,-0.0045 -0.02384,0.0044 -0.03125,0 -0.232039,-0.138728 -0.462548,-0.274778 -0.71875,-0.375 0.301527,0.0968 0.596455,0.204138 0.875,0.34375 0.55709,0.279224 1.060053,0.665694 1.5,1.09375 0.219973,0.214028 0.409366,0.441865 0.59375,0.6875 0.184384,0.245635 0.355408,0.507743 0.5,0.78125 0.14012,0.265048 0.276135,0.524729 0.375,0.8125 0.01041,0.03078 0.02133,0.06274 0.03125,0.09375 0.09046,0.278085 0.1388,0.579404 0.1875,0.875 C 89.95865,11.3493 90,11.665279 90,12 v 2 68 2 c 0,3.324 -2.676,6 -6,6 z"
       inkscape:connector-curvature="0"
       id="path3615-6"
       style="display:inline;opacity:0.15;fill:url(#radialGradient3619-3);fill-opacity:1;fill-rule:nonzero;stroke:none" />
  </g>
  <g
     id="layer5"
     style="display:none">
    <rect
       width="66"
       height="66"
       rx="12"
       ry="12"
       x="15"
       y="15"
       clip-path="url(#clipPath3613)"
       id="rect3171"
       style="opacity:0.1;fill:url(#linearGradient3613);fill-opacity:1;fill-rule:nonzero;stroke:#ffffff;stroke-width:0.5;stroke-linecap:round;stroke-linejoin:miter;stroke-miterlimit:4;stroke-opacity:1;stroke-dasharray:none;stroke-dashoffset:0;filter:url(#filter3794)" />
  </g>
  <g
     id="layer6"
     style="display:inline">
    <path
       d="m 51.203127,10.835935 c -18.495948,-5e-6 -33.623477,13.843419 -36.046875,31.6875 H 7.0000018 c -2.64e-4,3e-6 -0.1872375,-2.1e-5 -0.1875,0 -2.625e-4,2.1e-5 -0.187239,0.04683 -0.1875,0.04687 -2.61e-4,3.7e-5 -0.187242,-5.6e-5 -0.1875,0 -2.58e-4,5.5e-5 -0.1872465,0.0468 -0.1875,0.04687 -2.535e-4,7.2e-5 -0.187251,0.04678 -0.1875,0.04687 -2.49e-4,9e-5 -0.1872585,0.09365 -0.1875,0.09375 -2.415e-4,1.06e-4 -0.187266,0.09363 -0.1875,0.09375 -2.34e-4,1.21e-4 -0.1404,0.09361 -0.140625,0.09375 -2.25e-4,1.36e-4 -0.140415,0.0936 -0.140625,0.09375 -2.16e-4,1.51e-4 -0.1872945,0.09358 -0.1875,0.09375 -2.055e-4,1.66e-4 -0.14043,0.140445 -0.140625,0.140625 -1.935e-4,1.8e-4 -0.140445,0.14043 -0.140625,0.140625 -1.815e-4,1.92e-4 -0.093585,0.140415 -0.09375,0.140625 -1.68e-4,2.04e-4 -0.140475,0.140415 -0.140625,0.140625 -1.545e-4,2.14e-4 -0.093615,0.1404 -0.09375,0.140625 -1.395e-4,2.23e-4 -0.09363,0.187267 -0.09375,0.1875 -1.245e-4,2.32e-4 -0.093645,0.187258 -0.09375,0.1875 -1.08e-4,2.41e-4 -0.046785,0.14037 -0.046875,0.140625 -9.15e-5,2.47e-4 -0.093675,0.187246 -0.09375,0.1875 -7.5e-5,2.53e-4 -0.046815,0.187242 -0.046875,0.1875 -5.85e-5,2.58e-4 4.05e-5,0.187239 0,0.1875 -4.05e-5,2.61e-4 -0.046845,0.187237 -0.046875,0.1875 -2.25e-5,2.62e-4 6e-6,0.187236 0,0.1875 -6e-6,2.64e-4 -1.2e-5,0.187236 0,0.1875 1.2e-5,2.64e-4 -3e-5,0.187237 0,0.1875 3e-5,2.62e-4 0.04683,0.18724 0.046875,0.1875 4.8e-5,2.59e-4 0.046815,0.187243 0.046875,0.1875 6.45e-5,2.56e-4 0.0468,0.187249 0.046875,0.1875 8.1e-5,2.5e-4 0.04677,0.187255 0.046875,0.1875 9.9e-5,2.44e-4 0.09363,0.187261 0.09375,0.1875 1.14e-4,2.38e-4 0.093615,0.1404 0.09375,0.140625 1.305e-4,2.29e-4 0.0936,0.187279 0.09375,0.1875 L 21.531252,72.19531 c 1.35e-4,1.96e-4 0.0936,0.14043 0.09375,0.140625 1.47e-4,1.89e-4 0.14046,0.140445 0.140625,0.140625 1.57e-4,1.78e-4 0.09359,0.09358 0.09375,0.09375 1.68e-4,1.69e-4 0.140445,0.14046 0.140625,0.140625 1.78e-4,1.59e-4 0.14043,0.0936 0.140625,0.09375 1.87e-4,1.47e-4 0.14043,0.09361 0.140625,0.09375 1.96e-4,1.36e-4 0.140415,0.09363 0.140625,0.09375 2.04e-4,1.24e-4 0.140415,0.09364 0.140625,0.09375 2.11e-4,1.11e-4 0.140415,0.09364 0.140625,0.09375 2.17e-4,9.9e-5 0.187276,0.04678 0.1875,0.04687 2.23e-4,8.5e-5 0.1404,0.0468 0.140625,0.04687 2.28e-4,7e-5 0.187267,0.04681 0.1875,0.04687 2.32e-4,5.7e-5 0.140385,0.04683 0.140625,0.04687 2.35e-4,4.3e-5 0.187263,0.04684 0.1875,0.04687 2.37e-4,2.8e-5 0.140385,-1.5e-5 0.140625,0 2.38e-4,1.5e-5 0.187261,0 0.1875,0 2.38e-4,0 0.187261,1.5e-5 0.1875,0 2.38e-4,-1.5e-5 0.140385,2.8e-5 0.140625,0 2.37e-4,-2.9e-5 0.187264,-0.04683 0.1875,-0.04687 2.35e-4,-4.4e-5 0.1404,-0.04682 0.140625,-0.04687 2.32e-4,-5.7e-5 0.187272,-0.0468 0.1875,-0.04687 2.28e-4,-7.1e-5 0.1404,-0.04678 0.140625,-0.04687 2.23e-4,-8.6e-5 0.187282,-0.04677 0.1875,-0.04687 2.17e-4,-9.9e-5 0.140415,-0.09365 0.140625,-0.09375 2.11e-4,-1.11e-4 0.140415,-0.09363 0.140625,-0.09375 2.04e-4,-1.25e-4 0.14043,-0.09361 0.140625,-0.09375 1.96e-4,-1.37e-4 0.140445,-0.0936 0.140625,-0.09375 1.87e-4,-1.47e-4 0.140445,-0.09359 0.140625,-0.09375 1.78e-4,-1.59e-4 0.14046,-0.14046 0.140625,-0.140625 1.68e-4,-1.7e-4 0.0936,-0.09357 0.09375,-0.09375 1.57e-4,-1.79e-4 0.140475,-0.14043 0.140625,-0.140625 1.47e-4,-1.89e-4 0.09361,-0.14043 0.09375,-0.140625 L 43.140627,46.929685 c 1.45e-4,-2.21e-4 0.09361,-0.187271 0.09375,-0.1875 1.3e-4,-2.3e-4 0.09363,-0.140385 0.09375,-0.140625 1.14e-4,-2.39e-4 0.09364,-0.187256 0.09375,-0.1875 9.9e-5,-2.45e-4 0.0468,-0.18725 0.04687,-0.1875 8.1e-5,-2.51e-4 0.04681,-0.187244 0.04687,-0.1875 6.4e-5,-2.57e-4 0.04683,-0.187241 0.04687,-0.1875 4.8e-5,-2.6e-4 0.04684,-0.187238 0.04687,-0.1875 3e-5,-2.63e-4 -1.2e-5,-0.187236 0,-0.1875 1.2e-5,-2.64e-4 6e-6,-0.187236 0,-0.1875 -6e-6,-2.64e-4 2.2e-5,-0.187238 0,-0.1875 -2.3e-5,-2.63e-4 -0.04683,-0.187239 -0.04687,-0.1875 -4.1e-5,-2.61e-4 5.8e-5,-0.187242 0,-0.1875 -5.9e-5,-2.58e-4 -0.0468,-0.187247 -0.04687,-0.1875 -7.5e-5,-2.54e-4 -0.09366,-0.187253 -0.09375,-0.1875 -9.2e-5,-2.48e-4 -0.04677,-0.140385 -0.04687,-0.140625 -1.08e-4,-2.42e-4 -0.09363,-0.187268 -0.09375,-0.1875 -1.25e-4,-2.33e-4 -0.09361,-0.187277 -0.09375,-0.1875 -1.4e-4,-2.24e-4 -0.0936,-0.140415 -0.09375,-0.140625 -1.55e-4,-2.15e-4 -0.14046,-0.140415 -0.140625,-0.140625 -1.68e-4,-2.04e-4 -0.09357,-0.14043 -0.09375,-0.140625 -1.82e-4,-1.92e-4 -0.14043,-0.140445 -0.140625,-0.140625 -1.94e-4,-1.8e-4 -0.140415,-0.14046 -0.140625,-0.140625 -2.06e-4,-1.67e-4 -0.187284,-0.0936 -0.1875,-0.09375 -2.16e-4,-1.52e-4 -0.1404,-0.09361 -0.140625,-0.09375 -2.25e-4,-1.37e-4 -0.140385,-0.09363 -0.140625,-0.09375 -2.34e-4,-1.22e-4 -0.187259,-0.09365 -0.1875,-0.09375 -2.42e-4,-1.07e-4 -0.187251,-0.09366 -0.1875,-0.09375 -2.49e-4,-9e-5 -0.187247,-0.0468 -0.1875,-0.04687 -2.54e-4,-7.2e-5 -0.187242,-0.04682 -0.1875,-0.04687 -2.58e-4,-5.6e-5 -0.187239,3.7e-5 -0.1875,0 -2.61e-4,-3.8e-5 -0.187238,-0.04686 -0.1875,-0.04687 -2.63e-4,-2.1e-5 -0.187236,3e-6 -0.1875,0 h -8.296875 c 2.18685,-8.454789 9.524587,-14.765625 18.703125,-14.765625 10.905477,4e-6 19.6875,8.78202 19.6875,19.6875 0,10.905757 -8.774447,19.640625 -19.6875,19.640625 -3.83e-4,4e-6 -0.280871,-4.1e-5 -0.28125,0 -3.8e-4,4e-5 -0.280877,0.0468 -0.28125,0.04687 -3.74e-4,7.8e-5 -0.280886,0.09363 -0.28125,0.09375 -3.65e-4,1.14e-4 -0.234023,0.0936 -0.234375,0.09375 -3.53e-4,1.48e-4 -0.234039,0.09357 -0.234375,0.09375 -3.36e-4,1.81e-4 -0.234059,0.140415 -0.234375,0.140625 -3.17e-4,2.13e-4 -0.23408,0.187257 -0.234375,0.1875 -2.96e-4,2.43e-4 -0.18723,0.18723 -0.1875,0.1875 -2.7e-4,2.7e-4 -0.187257,0.187204 -0.1875,0.1875 -2.43e-4,2.95e-4 -0.187287,0.234058 -0.1875,0.234375 -2.13e-4,3.16e-4 -0.140445,0.234039 -0.140625,0.234375 -1.82e-4,3.36e-4 -0.0936,0.234022 -0.09375,0.234375 -1.49e-4,3.52e-4 -0.09363,0.23401 -0.09375,0.234375 -1.14e-4,3.64e-4 -0.09368,0.280876 -0.09375,0.28125 -7.8e-5,3.73e-4 -0.04683,0.28087 -0.04687,0.28125 -4.1e-5,3.79e-4 4e-6,0.280867 0,0.28125 V 81.19531 c 4e-6,3.82e-4 -4.1e-5,0.28087 0,0.28125 4e-5,3.79e-4 0.0468,0.280876 0.04687,0.28125 7.8e-5,3.73e-4 0.09363,0.280885 0.09375,0.28125 1.14e-4,3.64e-4 0.0936,0.234022 0.09375,0.234375 1.48e-4,3.52e-4 0.09357,0.234039 0.09375,0.234375 1.81e-4,3.36e-4 0.140415,0.234058 0.140625,0.234375 2.13e-4,3.16e-4 0.187257,0.234079 0.1875,0.234375 2.43e-4,2.95e-4 0.18723,0.18723 0.1875,0.1875 2.7e-4,2.7e-4 0.187204,0.187257 0.1875,0.1875 2.95e-4,2.43e-4 0.234058,0.187287 0.234375,0.1875 3.16e-4,2.13e-4 0.234039,0.140445 0.234375,0.140625 3.36e-4,1.81e-4 0.234022,0.0936 0.234375,0.09375 3.52e-4,1.48e-4 0.23401,0.09363 0.234375,0.09375 3.64e-4,1.14e-4 0.280876,0.09367 0.28125,0.09375 3.73e-4,7.8e-5 0.28087,0.04683 0.28125,0.04687 3.79e-4,4e-5 0.280867,-5e-6 0.28125,0 20.177446,0 36.609375,-16.380387 36.609375,-36.5625 4e-6,-20.182004 -16.427373,-36.609375 -36.609375,-36.609375 z"
       id="path3894"
       style="display:inline;opacity:0.1;fill:#000000;fill-opacity:1;stroke:none;stroke-width:1.5" />
    <path
       d="m 51.203127,12.242185 c -18.224223,-5e-6 -33.100532,13.922517 -34.875,31.6875 H 7.0000018 A 1.4213765,1.4213765 0 0 0 5.8281268,46.13281 L 22.703127,71.398435 a 1.4213765,1.4213765 0 0 0 2.34375,0 L 41.968752,46.13281 A 1.4213765,1.4213765 0 0 0 40.796877,43.929685 H 30.531252 C 32.18791,33.947474 40.727134,26.35156 51.203127,26.35156 c 11.665026,4e-6 21.09375,9.428721 21.09375,21.09375 0,11.66502 -9.425154,21.046875 -21.09375,21.046875 a 1.4213765,1.4213765 0 0 0 -1.40625,1.40625 V 81.19531 a 1.4213765,1.4213765 0 0 0 1.40625,1.40625 c 19.415739,0 35.203125,-15.738135 35.203125,-35.15625 4e-6,-19.418121 -15.785006,-35.203125 -35.203125,-35.203125 z"
       id="path3890"
       style="display:inline;opacity:0.15;fill:#000000;fill-opacity:1;stroke:none;stroke-width:1.5" />
    <path
       d="M 7.0000018,45.322126 23.891722,70.623896 40.783441,45.322126 H 28.859875 c 1.03869,-11.462442 10.619835,-20.369432 22.356689,-20.369432 12.432303,5e-6 22.480891,10.048589 22.480891,22.480896 0,12.432299 -10.048588,22.480892 -22.480891,22.480892 v 11.302546 c 18.64846,0 33.783438,-15.134982 33.783438,-33.783438 4e-6,-18.64846 -15.134978,-33.783442 -33.783438,-33.783442 -17.940233,-5e-6 -32.56944,14.004597 -33.659237,31.671978 z"
       inkscape:connector-curvature="0"
       id="path3884"
       style="display:inline;opacity:0.3;fill:#000000;fill-opacity:1;stroke:none;stroke-width:1.5" />
    <rect
       width="16"
       height="16"
       x="0"
       y="104"
       transform="matrix(0,1,1,0,0,0)"
       id="rect3897"
       style="color:#000000;fill:url(#linearGradient3905);fill-opacity:1;fill-rule:nonzero;stroke:none;stroke-width:2;marker:none;visibility:visible;display:inline;overflow:visible;enable-background:accumulate" />
    <text
       x="104"
       y="48"
       id="text3907"
       xml:space="preserve"
       style="font-size:4px;font-style:normal;font-variant:normal;font-weight:normal;font-stretch:normal;text-align:start;line-height:125%;letter-spacing:0px;word-spacing:0px;writing-mode:lr-tb;text-anchor:start;fill:#000000;fill-opacity:1;stroke:none;font-family:Liberation Sans;-inkscape-font-specification:Liberation Sans"><tspan
         x="104"
         y="48"
         id="tspan3909">Shadow opacity : 30, 15, 10, (8)</tspan></text>
    <rect
       width="16"
       height="16"
       x="-40"
       y="104"
       transform="matrix(0,-1,1,0,0,0)"
       id="rect3911"
       style="color:#000000;fill:url(#linearGradient3913);fill-opacity:1;fill-rule:nonzero;stroke:none;stroke-width:2;marker:none;visibility:visible;display:inline;overflow:visible;enable-background:accumulate" />
    <text
       x="124"
       y="32"
       id="text3951"
       xml:space="preserve"
       style="font-size:4px;font-style:normal;font-variant:normal;font-weight:normal;font-stretch:normal;text-align:start;line-height:125%;letter-spacing:0px;word-spacing:0px;writing-mode:lr-tb;text-anchor:start;fill:#000000;fill-opacity:1;stroke:none;font-family:Liberation Sans;-inkscape-font-specification:Liberation Sans"><tspan
         x="124"
         y="32"
         id="tspan3953">Bevel opacity : 30 / 10</tspan></text>
    <text
       x="124"
       y="8"
       id="text3955"
       xml:space="preserve"
       style="font-size:4px;font-style:normal;font-variant:normal;font-weight:normal;font-stretch:normal;text-align:start;line-height:125%;letter-spacing:0px;word-spacing:0px;writing-mode:lr-tb;text-anchor:start;fill:#000000;fill-opacity:1;stroke:none;font-family:Liberation Sans;-inkscape-font-specification:Liberation Sans"><tspan
         x="124"
         y="8"
         id="tspan3957">Bevel opacity : 75 / 15</tspan></text>
    <path
       d="M 7.0000018,43.822126 23.891722,69.123896 40.783441,43.822126 H 28.859875 c 1.03869,-11.462442 10.619835,-20.369432 22.356689,-20.369432 12.432303,5e-6 22.480891,10.048589 22.480891,22.480896 0,12.432299 -10.048588,22.480892 -22.480891,22.480892 v 11.302546 c 18.64846,0 33.783438,-15.134982 33.783438,-33.783438 4e-6,-18.64846 -15.134978,-33.783442 -33.783438,-33.783442 -17.940233,-5e-6 -32.56944,14.004597 -33.659237,31.671978 z"
       inkscape:connector-curvature="0"
       id="Symbol"
       style="display:inline;fill:url(#linearGradient3015);fill-opacity:1;stroke:none;stroke-width:1.5" />
    <path
       d="m 51.203127,12.148435 c -17.940233,-5e-6 -32.566454,14.020119 -33.65625,31.6875 H 7.0000018 l 0.984375,1.5 h 9.5625002 c 1.089796,-17.667381 15.716017,-31.687505 33.65625,-31.6875 18.396637,0 33.395734,14.745936 33.796875,33.046875 0.0055,-0.250512 0,-0.498179 0,-0.75 4e-6,-18.648461 -15.148415,-33.796875 -33.796875,-33.796875 z m -22.125,31.6875 c -0.07936,0.49884 -0.188207,0.990504 -0.234375,1.5 h 10.96875 l 0.984375,-1.5 z M 73.656252,46.69531 C 73.257573,58.775425 63.38169,68.398435 51.203127,68.398435 v 1.5 c 12.432303,0 22.5,-10.020827 22.5,-22.453125 0,-0.25374 -0.03856,-0.498311 -0.04687,-0.75 z"
       inkscape:connector-curvature="0"
       id="path3866"
       style="display:inline;opacity:0.75;fill:#ffffff;fill-opacity:1;stroke:none;stroke-width:1.5" />
    <path
       d="m 51.203127,21.94531 c -11.736854,0 -21.320685,8.928183 -22.359375,20.390625 h 0.234375 c 1.706118,-10.723878 10.909839,-18.890625 22.125,-18.890625 12.178563,4e-6 22.054446,9.669877 22.453125,21.75 0.0083,-0.25169 0.04687,-0.49626 0.04687,-0.75 0,-12.432308 -10.067697,-22.499996 -22.5,-22.5 z M 7.0000018,43.835935 23.875002,69.10156 40.796877,43.835935 H 39.812502 L 23.875002,67.60156 7.9843768,43.835935 Z M 85.000002,45.19531 c -0.401145,18.300934 -15.400238,33 -33.796875,33 v 1.5 c 18.64846,0 33.796875,-15.101544 33.796875,-33.75 0,-0.251823 0.0055,-0.499488 0,-0.75 z"
       inkscape:connector-curvature="0"
       id="path3875"
       style="display:inline;opacity:0.15;fill:#000000;fill-opacity:1;stroke:none;stroke-width:1.5" />
  </g>
</svg>
