<?xml version="1.0" encoding="UTF-8" standalone="no"?>
<!-- Created with Inkscape (http://www.inkscape.org/) -->

<svg
   version="1.0"
   width="96"
   height="96"
   id="svg2408"
   sodipodi:docname="system-upgrade.svg"
   inkscape:version="1.2.2 (b0a8486541, 2022-12-01)"
   xmlns:inkscape="http://www.inkscape.org/namespaces/inkscape"
   xmlns:sodipodi="http://sodipodi.sourceforge.net/DTD/sodipodi-0.dtd"
   xmlns:xlink="http://www.w3.org/1999/xlink"
   xmlns="http://www.w3.org/2000/svg"
   xmlns:svg="http://www.w3.org/2000/svg"
   xmlns:rdf="http://www.w3.org/1999/02/22-rdf-syntax-ns#"
   xmlns:cc="http://creativecommons.org/ns#"
   xmlns:dc="http://purl.org/dc/elements/1.1/">
  <sodipodi:namedview
     id="namedview21164"
     pagecolor="#ffffff"
     bordercolor="#666666"
     borderopacity="1.0"
     inkscape:showpageshadow="2"
     inkscape:pageopacity="0.0"
     inkscape:pagecheckerboard="0"
     inkscape:deskcolor="#d1d1d1"
     showgrid="false"
     inkscape:zoom="2.4583333"
     inkscape:cx="31.525424"
     inkscape:cy="48"
     inkscape:window-width="1872"
     inkscape:window-height="1011"
     inkscape:window-x="48"
     inkscape:window-y="0"
     inkscape:window-maximized="1"
     inkscape:current-layer="layer6" />
  <defs
     id="defs2410">
    <linearGradient
       id="linearGradient3637">
      <stop
         id="stop3639"
         style="stop-color:#f0f0f0;stop-opacity:1"
         offset="0" />
      <stop
         id="stop3641"
         style="stop-color:#aaaaaa;stop-opacity:1"
         offset="1" />
    </linearGradient>
    <linearGradient
       x1="45.447727"
       y1="92.539597"
       x2="45.447727"
       y2="7.0165396"
       id="ButtonShadow"
       gradientUnits="userSpaceOnUse"
       gradientTransform="scale(1.0058652,0.994169)">
      <stop
         id="stop3750"
         style="stop-color:#000000;stop-opacity:1"
         offset="0" />
      <stop
         id="stop3752"
         style="stop-color:#000000;stop-opacity:0.58823532"
         offset="1" />
    </linearGradient>
    <linearGradient
       id="linearGradient3737">
      <stop
         id="stop3739"
         style="stop-color:#ffffff;stop-opacity:1"
         offset="0" />
      <stop
         id="stop3741"
         style="stop-color:#ffffff;stop-opacity:0"
         offset="1" />
    </linearGradient>
    <linearGradient
       id="linearGradient3700">
      <stop
         id="stop3702"
         style="stop-color:#2276c5;stop-opacity:1"
         offset="0" />
      <stop
         id="stop3704"
         style="stop-color:#68baf4;stop-opacity:1"
         offset="1" />
    </linearGradient>
    <filter
       color-interpolation-filters="sRGB"
       id="filter3174"
       x="-0.047720931"
       y="-0.048282354"
       width="1.0954419"
       height="1.0965647">
      <feGaussianBlur
         id="feGaussianBlur3176"
         stdDeviation="1.71" />
    </filter>
    <linearGradient
       x1="36.357143"
       y1="6"
       x2="36.357143"
       y2="63.893143"
       id="linearGradient3188"
       xlink:href="#linearGradient3737"
       gradientUnits="userSpaceOnUse" />
    <filter
       x="-0.19578789"
       y="-0.19578789"
       width="1.3915758"
       height="1.3915758"
       color-interpolation-filters="sRGB"
       id="filter3794">
      <feGaussianBlur
         id="feGaussianBlur3796"
         stdDeviation="5.28" />
    </filter>
    <linearGradient
       x1="48"
       y1="20.220806"
       x2="48"
       y2="138.66119"
       id="linearGradient3613"
       xlink:href="#linearGradient3737"
       gradientUnits="userSpaceOnUse" />
    <radialGradient
       cx="48"
       cy="90.171875"
       r="42"
       fx="48"
       fy="90.171875"
       id="radialGradient3619"
       xlink:href="#linearGradient3737"
       gradientUnits="userSpaceOnUse"
       gradientTransform="matrix(1.1573129,0,0,0.99590774,-7.5510206,0.19713193)" />
    <clipPath
       id="clipPath3613">
      <rect
         width="84"
         height="84"
         rx="6"
         ry="6"
         x="6"
         y="6"
         id="rect3615"
         style="fill:#ffffff;fill-opacity:1;fill-rule:nonzero;stroke:none" />
    </clipPath>
    <linearGradient
       x1="48"
       y1="90"
       x2="48"
       y2="5.9877172"
       id="linearGradient2843"
       xlink:href="#linearGradient3700"
       gradientUnits="userSpaceOnUse"
       gradientTransform="translate(0,100)" />
    <clipPath
       id="clipPath3625">
      <path
         d="M 0,0 0,96 96,96 96,0 0,0 z m 12,6 72,0 c 3.324,0 6,2.676 6,6 l 0,72 c 0,3.324 -2.676,6 -6,6 L 12,90 C 8.676,90 6,87.324 6,84 L 6,12 C 6,8.676 8.676,6 12,6 z"
         inkscape:connector-curvature="0"
         id="path3627"
         style="fill:#ffffff;fill-opacity:1;stroke:none" />
    </clipPath>
    <linearGradient
       x1="44.512066"
       y1="6"
       x2="44.512066"
       y2="90.015434"
       id="linearGradient3643"
       xlink:href="#linearGradient3637"
       gradientUnits="userSpaceOnUse" />
    <clipPath
       id="clipPath3649">
      <rect
         width="76"
         height="76"
         rx="4"
         ry="4"
         x="10"
         y="10"
         id="rect3651"
         style="fill:#ffffff;fill-opacity:1;fill-rule:nonzero;stroke:none" />
    </clipPath>
    <filter
       color-interpolation-filters="sRGB"
       id="filter3657"
       x="-0.035076923"
       y="-0.035076923"
       width="1.0701538"
       height="1.0701538">
      <feGaussianBlur
         id="feGaussianBlur3659"
         stdDeviation="1.14" />
    </filter>
    <linearGradient
       x1="45.447727"
       y1="92.539597"
       x2="45.447727"
       y2="7.0165396"
       id="ButtonShadow-0"
       gradientUnits="userSpaceOnUse"
       gradientTransform="matrix(1.0058652,0,0,0.994169,100,0)">
      <stop
         id="stop3750-8"
         style="stop-color:#000000;stop-opacity:1"
         offset="0" />
      <stop
         id="stop3752-5"
         style="stop-color:#000000;stop-opacity:0.58823532"
         offset="1" />
    </linearGradient>
    <linearGradient
       x1="32.251034"
       y1="6.1317081"
       x2="32.251034"
       y2="90.238609"
       id="linearGradient3780"
       xlink:href="#ButtonShadow-0"
       gradientUnits="userSpaceOnUse"
       gradientTransform="matrix(1.0238095,0,0,-1.0119048,-1.1428571,98.071429)" />
    <linearGradient
       x1="32.251034"
       y1="6.1317081"
       x2="32.251034"
       y2="90.238609"
       id="linearGradient3772"
       xlink:href="#ButtonShadow-0"
       gradientUnits="userSpaceOnUse"
       gradientTransform="matrix(1.0238095,0,0,-1.0119048,-1.1428571,98.071429)" />
    <linearGradient
       x1="32.251034"
       y1="6.1317081"
       x2="32.251034"
       y2="90.238609"
       id="linearGradient3725"
       xlink:href="#ButtonShadow-0"
       gradientUnits="userSpaceOnUse"
       gradientTransform="matrix(1.0238095,0,0,-1.0119048,-1.1428571,98.071429)" />
    <linearGradient
       x1="32.251034"
       y1="6.1317081"
       x2="32.251034"
       y2="90.238609"
       id="linearGradient3721"
       xlink:href="#ButtonShadow-0"
       gradientUnits="userSpaceOnUse"
       gradientTransform="matrix(1,0,0,-1,0,97)" />
    <linearGradient
       x1="32.251034"
       y1="6.1317081"
       x2="32.251034"
       y2="90.238609"
       id="linearGradient3199"
       xlink:href="#ButtonShadow-0"
       gradientUnits="userSpaceOnUse"
       gradientTransform="matrix(1.0238095,0,0,-1.0119048,-1.1428571,98.071429)" />
    <linearGradient
       x1="36.357143"
       y1="6"
       x2="36.357143"
       y2="63.893143"
       id="linearGradient3188-8"
       xlink:href="#linearGradient3737-3"
       gradientUnits="userSpaceOnUse" />
    <linearGradient
       id="linearGradient3737-3">
      <stop
         id="stop3739-6"
         style="stop-color:#ffffff;stop-opacity:1"
         offset="0" />
      <stop
         id="stop3741-1"
         style="stop-color:#ffffff;stop-opacity:0"
         offset="1" />
    </linearGradient>
    <radialGradient
       cx="48"
       cy="90.171875"
       r="42"
       fx="48"
       fy="90.171875"
       id="radialGradient3619-3"
       xlink:href="#linearGradient3737-3"
       gradientUnits="userSpaceOnUse"
       gradientTransform="matrix(1.1573129,0,0,0.99590774,-7.551021,0.1971319)" />
    <linearGradient
       x1="104"
       y1="8"
       x2="120"
       y2="8"
       id="linearGradient3905"
       xlink:href="#linearGradient3637"
       gradientUnits="userSpaceOnUse"
       gradientTransform="translate(-104,104)" />
    <linearGradient
       x1="104"
       y1="8"
       x2="120"
       y2="8"
       id="linearGradient3913"
       xlink:href="#linearGradient3183-0"
       gradientUnits="userSpaceOnUse"
       gradientTransform="translate(-144,104)" />
    <linearGradient
       id="linearGradient3183-0">
      <stop
         id="stop3185-9"
         style="stop-color:#c80000;stop-opacity:1"
         offset="0" />
      <stop
         id="stop3187-6"
         style="stop-color:#f3604d;stop-opacity:1"
         offset="1" />
    </linearGradient>
    <linearGradient
       x1="24.000017"
       y1="44.500015"
       x2="24.000017"
       y2="1.4998806"
       id="linearGradient3053"
       xlink:href="#linearGradient3637"
       gradientUnits="userSpaceOnUse"
       gradientTransform="matrix(1.883715,0,0,-1.883715,2.7908085,90.825348)" />
  </defs>
  <metadata
     id="metadata2413">
    <rdf:RDF>
      <cc:Work
         rdf:about="">
        <dc:format>image/svg+xml</dc:format>
        <dc:type
           rdf:resource="http://purl.org/dc/dcmitype/StillImage" />
        <dc:title />
      </cc:Work>
    </rdf:RDF>
  </metadata>
  <g
     id="layer2"
     style="display:none">
    <rect
       width="86"
       height="85"
       rx="6"
       ry="6"
       x="5"
       y="7"
       clip-path="url(#clipPath3625)"
       id="rect3745"
       style="opacity:0.9;fill:url(#ButtonShadow);fill-opacity:1;fill-rule:nonzero;stroke:none;filter:url(#filter3174)" />
  </g>
  <g
     id="layer3"
     style="display:none">
    <path
       d="M 12,3.96875 C 6.4889098,3.96875 1.96875,8.4889098 1.96875,14 v 71 c 0,5.51109 4.5201597,10.03125 10.03125,10.03125 h 72 c 5.51109,0 10.03125,-4.52016 10.03125,-10.03125 V 14 C 94.03125,8.4889097 89.51109,3.96875 84,3.96875 Z M 12,6 h 72 c 3.324,0 6,2.676 6,6 v 72 c 0,3.324 -2.676,6 -6,6 H 12 C 8.676,90 6,87.324 6,84 V 12 C 6,8.676 8.676,6 12,6 Z"
       inkscape:connector-curvature="0"
       id="path3786"
       style="display:inline;opacity:0.08;fill:url(#linearGradient3199);fill-opacity:1;fill-rule:nonzero;stroke:none" />
    <path
       d="M 12,4.96875 C 7.0283671,4.96875 2.96875,9.0283671 2.96875,14 v 71 c 0,4.971633 4.059617,9.03125 9.03125,9.03125 h 72 c 4.971633,0 9.03125,-4.059617 9.03125,-9.03125 V 14 C 93.03125,9.028367 88.971633,4.96875 84,4.96875 Z M 12,6 h 72 c 3.324,0 6,2.676 6,6 v 72 c 0,3.324 -2.676,6 -6,6 H 12 C 8.676,90 6,87.324 6,84 V 12 C 6,8.676 8.676,6 12,6 Z"
       inkscape:connector-curvature="0"
       id="path3778"
       style="display:inline;opacity:0.1;fill:url(#linearGradient3780);fill-opacity:1;fill-rule:nonzero;stroke:none" />
    <path
       d="M 11.1875,6.03125 C 7.159982,6.4419011 4,9.8664375 4,14 v 71 c 0,4.409133 3.590867,8 8,8 h 72 c 4.409133,0 8,-3.590867 8,-8 V 14 C 92,9.8029382 88.741028,6.3539584 84.625,6.03125 87.657886,6.337417 90,8.88375 90,12 v 72 c 0,3.324 -2.676,6 -6,6 H 12 C 8.676,90 6,87.324 6,84 V 12 c 0,-3.11625 2.342114,-5.662583 5.375,-5.96875 -0.06227,0.00488 -0.12563,-0.00631 -0.1875,0 z"
       inkscape:connector-curvature="0"
       id="path3770"
       style="display:inline;opacity:0.2;fill:url(#linearGradient3772);fill-opacity:1;fill-rule:nonzero;stroke:none" />
    <path
       d="M 6.4375,9.75 C 5.5380109,10.927446 5,12.397277 5,14 v 71 c 0,3.878 3.122,7 7,7 h 72 c 3.878,0 7,-3.122 7,-7 V 14 C 91,12.397277 90.461989,10.927446 89.5625,9.75 89.841816,10.444095 90,11.203625 90,12 v 72 c 0,3.324 -2.676,6 -6,6 H 12 C 8.676,90 6,87.324 6,84 V 12 C 6,11.203625 6.1581836,10.444095 6.4375,9.75 Z"
       inkscape:connector-curvature="0"
       id="rect3723"
       style="display:inline;opacity:0.3;fill:url(#linearGradient3725);fill-opacity:1;fill-rule:nonzero;stroke:none" />
    <path
       d="m 6,84 v 1 c 0,3.324 2.676,6 6,6 h 72 c 3.324,0 6,-2.676 6,-6 v -1 c 0,3.324 -2.676,6 -6,6 H 12 C 8.676,90 6,87.324 6,84 Z"
       inkscape:connector-curvature="0"
       id="rect3716"
       style="display:inline;opacity:0.45;fill:url(#linearGradient3721);fill-opacity:1;fill-rule:nonzero;stroke:none" />
  </g>
  <g
     id="layer1"
     style="display:none">
    <rect
       width="84"
       height="84"
       rx="6"
       ry="6"
       x="6"
       y="6"
       id="rect2419"
       style="opacity:0.8;fill:#000000;fill-opacity:1;fill-rule:nonzero;stroke:none" />
    <path
       d="m 14,10 c -2.216,0 -4,1.784 -4,4 l 0,68 c 0,2.216 1.784,4 4,4 l 68,0 c 2.216,0 4,-1.784 4,-4 l 0,-68 c 0,-2.216 -1.784,-4 -4,-4 l -68,0 z m 0,3.0625 68,0 c 0.578769,0 0.9375,0.358731 0.9375,0.9375 l 0,68 c 0,0.578769 -0.358731,0.9375 -0.9375,0.9375 l -68,0 c -0.578769,0 -0.9375,-0.358731 -0.9375,-0.9375 l 0,-68 c 0,-0.578769 0.358731,-0.9375 0.9375,-0.9375 z"
       inkscape:connector-curvature="0"
       id="rect3726"
       style="opacity:0.07999998;fill:#000000;fill-opacity:1;fill-rule:nonzero;stroke:none" />
    <path
       d="M 12,6 C 8.676,6 6,8.676 6,12 l 0,72 c 0,3.324 2.676,6 6,6 l 72,0 c 3.324,0 6,-2.676 6,-6 L 90,12 C 90,8.676 87.324,6 84,6 L 12,6 z m 2,4 68,0 c 2.216,0 4,1.784 4,4 l 0,68 c 0,2.216 -1.784,4 -4,4 l -68,0 c -2.216,0 -4,-1.784 -4,-4 l 0,-68 c 0,-2.216 1.784,-4 4,-4 z"
       inkscape:connector-curvature="0"
       id="rect3629"
       style="fill:url(#linearGradient3643);fill-opacity:1;fill-rule:nonzero;stroke:none" />
    <path
       d="M 12,6 C 8.676,6 6,8.676 6,12 l 0,2 0,68 0,2 c 0,0.334721 0.04135,0.6507 0.09375,0.96875 0.0487,0.295596 0.09704,0.596915 0.1875,0.875 0.00988,0.03038 0.020892,0.0636 0.03125,0.09375 0.098865,0.287771 0.2348802,0.547452 0.375,0.8125 0.1445918,0.273507 0.3156161,0.535615 0.5,0.78125 0.1843839,0.245635 0.3737765,0.473472 0.59375,0.6875 0.439947,0.428056 0.94291,0.814526 1.5,1.09375 0.278545,0.139612 0.5734731,0.246947 0.875,0.34375 -0.2562018,-0.100222 -0.4867109,-0.236272 -0.71875,-0.375 -0.00741,-0.0044 -0.023866,0.0045 -0.03125,0 -0.031933,-0.0193 -0.062293,-0.04251 -0.09375,-0.0625 -0.120395,-0.0767 -0.2310226,-0.163513 -0.34375,-0.25 -0.1061728,-0.0808 -0.2132809,-0.161112 -0.3125,-0.25 C 8.4783201,88.557317 8.3087904,88.373362 8.15625,88.1875 8.0486711,88.057245 7.9378561,87.922215 7.84375,87.78125 7.818661,87.74287 7.805304,87.69538 7.78125,87.65625 7.716487,87.553218 7.6510225,87.451733 7.59375,87.34375 7.4927417,87.149044 7.3880752,86.928049 7.3125,86.71875 7.30454,86.69694 7.288911,86.6782 7.28125,86.65625 7.2494249,86.5643 7.2454455,86.469419 7.21875,86.375 7.1884177,86.268382 7.1483606,86.171969 7.125,86.0625 7.0521214,85.720988 7,85.364295 7,85 L 7,83 7,15 7,13 C 7,10.218152 9.2181517,8 12,8 l 2,0 68,0 2,0 c 2.781848,0 5,2.218152 5,5 l 0,2 0,68 0,2 c 0,0.364295 -0.05212,0.720988 -0.125,1.0625 -0.04415,0.206893 -0.08838,0.397658 -0.15625,0.59375 -0.0077,0.02195 -0.0233,0.04069 -0.03125,0.0625 -0.06274,0.173739 -0.138383,0.367449 -0.21875,0.53125 -0.04158,0.0828 -0.07904,0.169954 -0.125,0.25 -0.0546,0.09721 -0.126774,0.18835 -0.1875,0.28125 -0.09411,0.140965 -0.204921,0.275995 -0.3125,0.40625 -0.143174,0.17445 -0.303141,0.346998 -0.46875,0.5 -0.01117,0.0102 -0.01998,0.02115 -0.03125,0.03125 -0.138386,0.125556 -0.285091,0.234436 -0.4375,0.34375 -0.102571,0.07315 -0.204318,0.153364 -0.3125,0.21875 -0.0074,0.0045 -0.02384,-0.0044 -0.03125,0 -0.232039,0.138728 -0.462548,0.274778 -0.71875,0.375 0.301527,-0.0968 0.596455,-0.204138 0.875,-0.34375 0.55709,-0.279224 1.060053,-0.665694 1.5,-1.09375 0.219973,-0.214028 0.409366,-0.441865 0.59375,-0.6875 0.184384,-0.245635 0.355408,-0.507743 0.5,-0.78125 0.14012,-0.265048 0.276135,-0.524729 0.375,-0.8125 0.01041,-0.03078 0.02133,-0.06274 0.03125,-0.09375 0.09046,-0.278085 0.1388,-0.579404 0.1875,-0.875 C 89.95865,84.6507 90,84.334721 90,84 l 0,-2 0,-68 0,-2 C 90,8.676 87.324,6 84,6 L 12,6 z"
       inkscape:connector-curvature="0"
       id="rect3728"
       style="fill:url(#linearGradient3188);fill-opacity:1;fill-rule:nonzero;stroke:none" />
    <path
       d="M 12,90 C 8.676,90 6,87.324 6,84 L 6,82 6,14 6,12 c 0,-0.334721 0.04135,-0.6507 0.09375,-0.96875 0.0487,-0.295596 0.09704,-0.596915 0.1875,-0.875 C 6.29113,10.12587 6.302142,10.09265 6.3125,10.0625 6.411365,9.774729 6.5473802,9.515048 6.6875,9.25 6.8320918,8.976493 7.0031161,8.714385 7.1875,8.46875 7.3718839,8.223115 7.5612765,7.995278 7.78125,7.78125 8.221197,7.353194 8.72416,6.966724 9.28125,6.6875 9.559795,6.547888 9.8547231,6.440553 10.15625,6.34375 9.9000482,6.443972 9.6695391,6.580022 9.4375,6.71875 c -0.00741,0.0044 -0.023866,-0.0045 -0.03125,0 -0.031933,0.0193 -0.062293,0.04251 -0.09375,0.0625 -0.120395,0.0767 -0.2310226,0.163513 -0.34375,0.25 -0.1061728,0.0808 -0.2132809,0.161112 -0.3125,0.25 C 8.4783201,7.442683 8.3087904,7.626638 8.15625,7.8125 8.0486711,7.942755 7.9378561,8.077785 7.84375,8.21875 7.818661,8.25713 7.805304,8.30462 7.78125,8.34375 7.716487,8.446782 7.6510225,8.548267 7.59375,8.65625 7.4927417,8.850956 7.3880752,9.071951 7.3125,9.28125 7.30454,9.30306 7.288911,9.3218 7.28125,9.34375 7.2494249,9.4357 7.2454455,9.530581 7.21875,9.625 7.1884177,9.731618 7.1483606,9.828031 7.125,9.9375 7.0521214,10.279012 7,10.635705 7,11 l 0,2 0,68 0,2 c 0,2.781848 2.2181517,5 5,5 l 2,0 68,0 2,0 c 2.781848,0 5,-2.218152 5,-5 l 0,-2 0,-68 0,-2 C 89,10.635705 88.94788,10.279012 88.875,9.9375 88.83085,9.730607 88.78662,9.539842 88.71875,9.34375 88.71105,9.3218 88.69545,9.30306 88.6875,9.28125 88.62476,9.107511 88.549117,8.913801 88.46875,8.75 88.42717,8.6672 88.38971,8.580046 88.34375,8.5 88.28915,8.40279 88.216976,8.31165 88.15625,8.21875 88.06214,8.077785 87.951329,7.942755 87.84375,7.8125 87.700576,7.63805 87.540609,7.465502 87.375,7.3125 87.36383,7.3023 87.35502,7.29135 87.34375,7.28125 87.205364,7.155694 87.058659,7.046814 86.90625,6.9375 86.803679,6.86435 86.701932,6.784136 86.59375,6.71875 c -0.0074,-0.0045 -0.02384,0.0044 -0.03125,0 -0.232039,-0.138728 -0.462548,-0.274778 -0.71875,-0.375 0.301527,0.0968 0.596455,0.204138 0.875,0.34375 0.55709,0.279224 1.060053,0.665694 1.5,1.09375 0.219973,0.214028 0.409366,0.441865 0.59375,0.6875 0.184384,0.245635 0.355408,0.507743 0.5,0.78125 0.14012,0.265048 0.276135,0.524729 0.375,0.8125 0.01041,0.03078 0.02133,0.06274 0.03125,0.09375 0.09046,0.278085 0.1388,0.579404 0.1875,0.875 C 89.95865,11.3493 90,11.665279 90,12 l 0,2 0,68 0,2 c 0,3.324 -2.676,6 -6,6 l -72,0 z"
       inkscape:connector-curvature="0"
       id="path3615"
       style="opacity:0.6;fill:url(#radialGradient3619);fill-opacity:1;fill-rule:nonzero;stroke:none" />
    <rect
       width="84"
       height="84"
       rx="6"
       ry="6"
       x="6"
       y="106"
       id="rect2841"
       style="fill:url(#linearGradient2843);fill-opacity:1;fill-rule:nonzero;stroke:none" />
    <rect
       width="76"
       height="76"
       rx="4"
       ry="4"
       x="10"
       y="110"
       id="rect3634"
       style="fill:#ff0000;fill-opacity:1;fill-rule:nonzero;stroke:none" />
    <path
       d="m 14,9 c -2.752703,0 -5,2.247297 -5,5 l 0,68 c 0,2.752703 2.247297,5 5,5 l 68,0 c 2.752703,0 5,-2.247297 5,-5 L 87,14 C 87,11.247297 84.752703,9 82,9 L 14,9 z m 0,2 68,0 c 1.679297,0 3,1.320703 3,3 l 0,68 c 0,1.679297 -1.320703,3 -3,3 l -68,0 c -1.679297,0 -3,-1.320703 -3,-3 l 0,-68 c 0,-1.679297 1.320703,-3 3,-3 z"
       inkscape:connector-curvature="0"
       transform="translate(-110,0)"
       clip-path="url(#clipPath3649)"
       id="rect3647"
       style="font-size:medium;font-style:normal;font-variant:normal;font-weight:normal;font-stretch:normal;text-indent:0;text-align:start;text-decoration:none;line-height:normal;letter-spacing:normal;word-spacing:normal;text-transform:none;direction:ltr;block-progression:tb;writing-mode:lr-tb;text-anchor:start;color:#000000;fill:#000000;fill-opacity:1;stroke:none;stroke-width:2;marker:none;visibility:visible;display:inline;overflow:visible;filter:url(#filter3657);enable-background:accumulate;font-family:Abandoned Bitplane;-inkscape-font-specification:Abandoned Bitplane" />
    <path
       d="m 14.089286,10 c -2.216,0 -4,1.784 -4,4 l 0,68 c 0,2.216 1.784,4 4,4 l 68,0 c 2.216,0 4,-1.784 4,-4 l 0,-68 c 0,-2.216 -1.784,-4 -4,-4 l -68,0 z m 0,2 68,0 c 1.140301,0 2,0.859699 2,2 l 0,68 c 0,1.140301 -0.859699,2 -2,2 l -68,0 c -1.140301,0 -2,-0.859699 -2,-2 l 0,-68 c 0,-1.140301 0.859699,-2 2,-2 z"
       inkscape:connector-curvature="0"
       id="path3709"
       style="opacity:0.16000001;fill:#000000;fill-opacity:1;fill-rule:nonzero;stroke:none" />
    <path
       d="m 14,10 c -2.216,0 -4,1.784 -4,4 l 0,68 c 0,2.216 1.784,4 4,4 l 68,0 c 2.216,0 4,-1.784 4,-4 l 0,-68 c 0,-2.216 -1.784,-4 -4,-4 l -68,0 z m 0,1 68,0 c 1.673848,0 3,1.326152 3,3 l 0,68 c 0,1.673848 -1.326152,3 -3,3 l -68,0 c -1.673848,0 -3,-1.326152 -3,-3 l 0,-68 c 0,-1.673848 1.326152,-3 3,-3 z"
       inkscape:connector-curvature="0"
       id="path3707"
       style="opacity:0.36000001;fill:#000000;fill-opacity:1;fill-rule:nonzero;stroke:none" />
  </g>
  <g
     id="layer4"
     style="display:none">
    <rect
       width="84"
       height="84"
       rx="6"
       ry="6"
       x="6"
       y="6"
       id="rect2419-9"
       style="display:inline;opacity:0.6;fill:#000000;fill-opacity:1;fill-rule:nonzero;stroke:none" />
    <path
       d="M 12,6 C 8.676,6 6,8.676 6,12 v 2 68 2 c 0,0.334721 0.04135,0.6507 0.09375,0.96875 0.0487,0.295596 0.09704,0.596915 0.1875,0.875 0.00988,0.03038 0.020892,0.0636 0.03125,0.09375 0.098865,0.287771 0.2348802,0.547452 0.375,0.8125 0.1445918,0.273507 0.3156161,0.535615 0.5,0.78125 0.1843839,0.245635 0.3737765,0.473472 0.59375,0.6875 0.439947,0.428056 0.94291,0.814526 1.5,1.09375 0.278545,0.139612 0.5734731,0.246947 0.875,0.34375 -0.2562018,-0.100222 -0.4867109,-0.236272 -0.71875,-0.375 -0.00741,-0.0044 -0.023866,0.0045 -0.03125,0 -0.031933,-0.0193 -0.062293,-0.04251 -0.09375,-0.0625 -0.120395,-0.0767 -0.2310226,-0.163513 -0.34375,-0.25 -0.1061728,-0.0808 -0.2132809,-0.161112 -0.3125,-0.25 C 8.4783201,88.557317 8.3087904,88.373362 8.15625,88.1875 8.0486711,88.057245 7.9378561,87.922215 7.84375,87.78125 7.818661,87.74287 7.805304,87.69538 7.78125,87.65625 7.716487,87.553218 7.6510225,87.451733 7.59375,87.34375 7.4927417,87.149044 7.3880752,86.928049 7.3125,86.71875 7.30454,86.69694 7.288911,86.6782 7.28125,86.65625 7.2494249,86.5643 7.2454455,86.469419 7.21875,86.375 7.1884177,86.268382 7.1483606,86.171969 7.125,86.0625 7.0521214,85.720988 7,85.364295 7,85 V 83 15 13 C 7,10.218152 9.2181517,8 12,8 h 2 68 2 c 2.781848,0 5,2.218152 5,5 v 2 68 2 c 0,0.364295 -0.05212,0.720988 -0.125,1.0625 -0.04415,0.206893 -0.08838,0.397658 -0.15625,0.59375 -0.0077,0.02195 -0.0233,0.04069 -0.03125,0.0625 -0.06274,0.173739 -0.138383,0.367449 -0.21875,0.53125 -0.04158,0.0828 -0.07904,0.169954 -0.125,0.25 -0.0546,0.09721 -0.126774,0.18835 -0.1875,0.28125 -0.09411,0.140965 -0.204921,0.275995 -0.3125,0.40625 -0.143174,0.17445 -0.303141,0.346998 -0.46875,0.5 -0.01117,0.0102 -0.01998,0.02115 -0.03125,0.03125 -0.138386,0.125556 -0.285091,0.234436 -0.4375,0.34375 -0.102571,0.07315 -0.204318,0.153364 -0.3125,0.21875 -0.0074,0.0045 -0.02384,-0.0044 -0.03125,0 -0.232039,0.138728 -0.462548,0.274778 -0.71875,0.375 0.301527,-0.0968 0.596455,-0.204138 0.875,-0.34375 0.55709,-0.279224 1.060053,-0.665694 1.5,-1.09375 0.219973,-0.214028 0.409366,-0.441865 0.59375,-0.6875 0.184384,-0.245635 0.355408,-0.507743 0.5,-0.78125 0.14012,-0.265048 0.276135,-0.524729 0.375,-0.8125 0.01041,-0.03078 0.02133,-0.06274 0.03125,-0.09375 0.09046,-0.278085 0.1388,-0.579404 0.1875,-0.875 C 89.95865,84.6507 90,84.334721 90,84 V 82 14 12 C 90,8.676 87.324,6 84,6 Z"
       inkscape:connector-curvature="0"
       id="rect3728-4"
       style="display:inline;opacity:0.01;fill:url(#linearGradient3188-8);fill-opacity:1;fill-rule:nonzero;stroke:none" />
    <path
       d="M 12,90 C 8.676,90 6,87.324 6,84 V 82 14 12 c 0,-0.334721 0.04135,-0.6507 0.09375,-0.96875 0.0487,-0.295596 0.09704,-0.596915 0.1875,-0.875 C 6.29113,10.12587 6.302142,10.09265 6.3125,10.0625 6.411365,9.774729 6.5473802,9.515048 6.6875,9.25 6.8320918,8.976493 7.0031161,8.714385 7.1875,8.46875 7.3718839,8.223115 7.5612765,7.995278 7.78125,7.78125 8.221197,7.353194 8.72416,6.966724 9.28125,6.6875 9.559795,6.547888 9.8547231,6.440553 10.15625,6.34375 9.9000482,6.443972 9.6695391,6.580022 9.4375,6.71875 c -0.00741,0.0044 -0.023866,-0.0045 -0.03125,0 -0.031933,0.0193 -0.062293,0.04251 -0.09375,0.0625 -0.120395,0.0767 -0.2310226,0.163513 -0.34375,0.25 -0.1061728,0.0808 -0.2132809,0.161112 -0.3125,0.25 C 8.4783201,7.442683 8.3087904,7.626638 8.15625,7.8125 8.0486711,7.942755 7.9378561,8.077785 7.84375,8.21875 7.818661,8.25713 7.805304,8.30462 7.78125,8.34375 7.716487,8.446782 7.6510225,8.548267 7.59375,8.65625 7.4927417,8.850956 7.3880752,9.071951 7.3125,9.28125 7.30454,9.30306 7.288911,9.3218 7.28125,9.34375 7.2494249,9.4357 7.2454455,9.530581 7.21875,9.625 7.1884177,9.731618 7.1483606,9.828031 7.125,9.9375 7.0521214,10.279012 7,10.635705 7,11 v 2 68 2 c 0,2.781848 2.2181517,5 5,5 h 2 68 2 c 2.781848,0 5,-2.218152 5,-5 V 81 13 11 C 89,10.635705 88.94788,10.279012 88.875,9.9375 88.83085,9.730607 88.78662,9.539842 88.71875,9.34375 88.71105,9.3218 88.69545,9.30306 88.6875,9.28125 88.62476,9.107511 88.549117,8.913801 88.46875,8.75 88.42717,8.6672 88.38971,8.580046 88.34375,8.5 88.28915,8.40279 88.216976,8.31165 88.15625,8.21875 88.06214,8.077785 87.951329,7.942755 87.84375,7.8125 87.700576,7.63805 87.540609,7.465502 87.375,7.3125 87.36383,7.3023 87.35502,7.29135 87.34375,7.28125 87.205364,7.155694 87.058659,7.046814 86.90625,6.9375 86.803679,6.86435 86.701932,6.784136 86.59375,6.71875 c -0.0074,-0.0045 -0.02384,0.0044 -0.03125,0 -0.232039,-0.138728 -0.462548,-0.274778 -0.71875,-0.375 0.301527,0.0968 0.596455,0.204138 0.875,0.34375 0.55709,0.279224 1.060053,0.665694 1.5,1.09375 0.219973,0.214028 0.409366,0.441865 0.59375,0.6875 0.184384,0.245635 0.355408,0.507743 0.5,0.78125 0.14012,0.265048 0.276135,0.524729 0.375,0.8125 0.01041,0.03078 0.02133,0.06274 0.03125,0.09375 0.09046,0.278085 0.1388,0.579404 0.1875,0.875 C 89.95865,11.3493 90,11.665279 90,12 v 2 68 2 c 0,3.324 -2.676,6 -6,6 z"
       inkscape:connector-curvature="0"
       id="path3615-6"
       style="display:inline;opacity:0.15;fill:url(#radialGradient3619-3);fill-opacity:1;fill-rule:nonzero;stroke:none" />
  </g>
  <g
     id="layer5"
     style="display:none">
    <rect
       width="66"
       height="66"
       rx="12"
       ry="12"
       x="15"
       y="15"
       clip-path="url(#clipPath3613)"
       id="rect3171"
       style="opacity:0.1;fill:url(#linearGradient3613);fill-opacity:1;fill-rule:nonzero;stroke:#ffffff;stroke-width:0.5;stroke-linecap:round;stroke-linejoin:miter;stroke-miterlimit:4;stroke-opacity:1;stroke-dasharray:none;stroke-dashoffset:0;filter:url(#filter3794)" />
  </g>
  <g
     id="layer6"
     style="display:inline">
    <path
       d="m 42.375,5.359375 c -3.366629,0 -5.953125,2.851611 -5.953125,6.09375 V 15.0625 c -1.462902,0.47643 -2.905542,1.065531 -4.3125,1.734375 l -2.53125,-2.53125 c -6.2e-5,-6.2e-5 -0.04374,0.0018 -0.04687,0 -0.03336,-0.01946 -0.188618,-0.127155 -0.375,-0.234375 C 26.905967,12.110011 23.391223,11.874392 21.14063,14.125 L 13.125,22.140625 c -2.355723,2.355534 -2.038779,6.118773 0.140625,8.34375 l 2.53125,2.625 c -0.668841,1.406956 -1.257942,2.849598 -1.734375,4.3125 h -3.609375 c -3.2421465,0 -6.09375,2.586502 -6.09375,5.953125 v 11.25 c 0,3.366623 2.8516035,5.953125 6.09375,5.953125 H 14.0625 c 0.476428,1.462899 1.065528,2.905537 1.734375,4.3125 l -2.53125,2.625 c -2.179307,2.225007 -2.496168,5.988192 -0.140625,8.34375 L 21.140625,83.875 c 1.095606,1.095557 2.601807,1.748109 4.21875,1.734375 1.604908,-0.01365 2.774073,-0.777528 3.65625,-1.546875 0.03402,-0.02967 0.107715,-0.01721 0.140625,-0.04687 a 1.6909573,1.6909573 0 0 0 0.328125,-0.28125 1.6909573,1.6909573 0 0 0 0.04687,0 l 2.578125,-2.53125 c 1.406958,0.668844 2.849597,1.257945 4.3125,1.734375 v 3.609375 c 0,3.242139 2.586496,6.09375 5.953125,6.09375 h 11.25 c 3.366612,0 5.953125,-2.851593 5.953125,-6.09375 V 82.9375 c 1.462902,-0.47643 2.90554,-1.065528 4.3125,-1.734375 l 2.625,2.53125 c 2.22498,2.179124 5.988138,2.496159 8.34375,0.140625 L 82.875,75.859375 c 2.169711,-2.16945 1.964231,-5.479871 0.234375,-7.734375 A 1.6909573,1.6909573 0 0 0 83.0625,68.03125 c -0.0083,-0.01035 0.0084,-0.03654 0,-0.04687 a 1.6909573,1.6909573 0 0 0 -0.328125,-0.46875 1.6909573,1.6909573 0 0 0 0,-0.04687 l -2.53125,-2.578125 c 0.668842,-1.406956 1.257943,-2.849597 1.734375,-4.3125 h 3.609375 c 3.242141,0 6.09375,-2.586495 6.09375,-5.953125 v -11.25 c 0,-3.366616 -2.851545,-5.953197 -6.09375,-5.953125 H 81.9375 c -0.476432,-1.462907 -1.065531,-2.905545 -1.734375,-4.3125 l 2.53125,-2.578125 a 1.6909573,1.6909573 0 0 0 0,-0.04687 c 0.03135,-0.03201 0.06318,-0.06113 0.09375,-0.09375 a 1.6909573,1.6909573 0 0 0 0.1875,-0.28125 1.6909573,1.6909573 0 0 0 0.140625,-0.28125 c 1.690685,-2.25378 1.871285,-5.534939 -0.28125,-7.6875 L 74.859375,14.125 c -2.250601,-2.250701 -5.76536,-2.015001 -8.015625,-0.09375 -0.186382,0.10722 -0.341633,0.214926 -0.375,0.234375 -0.0032,0.0018 -0.04681,-6.2e-5 -0.04687,0 l -2.53125,2.53125 C 62.483672,16.128031 61.041033,15.538931 59.57813,15.0625 v -3.609375 c 0,-3.2421435 -2.5865,-6.09375 -5.953125,-6.09375 z M 48,31 62.859375,45.859375 H 60 c 0.0084,9e-5 -0.289609,7.44e-4 -0.28125,0 0.0084,-7.44e-4 -0.336369,0.04845 -0.328125,0.04687 0.0082,-0.0015 -0.289298,0.09613 -0.28125,0.09375 0.0081,-0.0024 -0.335897,0.09692 -0.328125,0.09375 0.0078,-0.0031 -0.288668,0.144555 -0.28125,0.140625 0.0074,-0.0039 -0.241366,0.145275 -0.234375,0.140625 0.007,-0.0046 -0.287745,0.192816 -0.28125,0.1875 0.0065,-0.0052 -0.240309,0.193434 -0.234375,0.1875 0.006,-0.006 -0.192816,0.24087 -0.1875,0.234375 0.0052,-0.0065 -0.192144,0.288241 -0.1875,0.28125 0.0046,-0.007 -0.144555,0.241793 -0.140625,0.234375 0.0039,-0.0074 -0.14379,0.289022 -0.140625,0.28125 0.0031,-0.0078 -0.09613,0.336173 -0.09375,0.328125 0.0024,-0.0081 -0.09533,0.289494 -0.09375,0.28125 0.0015,-0.0082 -0.04762,0.336484 -0.04687,0.328125 7.44e-4,-0.0084 9e-5,0.289642 0,0.28125 v 14.85938 H 39.140625 V 49 c -9e-5,0.0084 -7.44e-4,-0.289609 0,-0.28125 7.44e-4,0.0084 -0.04845,-0.336369 -0.04687,-0.328125 0.0015,0.0082 -0.09613,-0.289298 -0.09375,-0.28125 0.0024,0.0081 -0.09692,-0.335897 -0.09375,-0.328125 0.0031,0.0078 -0.144555,-0.288668 -0.140625,-0.28125 0.0039,0.0074 -0.145275,-0.241366 -0.140625,-0.234375 0.0046,0.007 -0.192816,-0.287745 -0.1875,-0.28125 0.0052,0.0065 -0.193434,-0.240309 -0.1875,-0.234375 0.006,0.006 -0.24087,-0.192816 -0.234375,-0.1875 0.0065,0.0052 -0.288241,-0.192144 -0.28125,-0.1875 0.007,0.0046 -0.241793,-0.144555 -0.234375,-0.140625 0.0074,0.0039 -0.289022,-0.14379 -0.28125,-0.140625 0.0078,0.0031 -0.336172,-0.09613 -0.328125,-0.09375 0.0081,0.0024 -0.289494,-0.09533 -0.28125,-0.09375 0.0082,0.0015 -0.336484,-0.04762 -0.328125,-0.04687 0.0084,7.44e-4 -0.289643,9e-5 -0.28125,0 H 33.14063 Z"
       id="path3857"
       style="display:block;overflow:visible;visibility:visible;opacity:0.1;fill:#000000;fill-opacity:1;fill-rule:nonzero;stroke:none;stroke-width:1.5;marker:none;enable-background:accumulate" />
    <path
       d="m 42.375,7.046875 c -2.394837,0 -4.265625,2.0646735 -4.265625,4.40625 v 4.78125 c -2.199942,0.642891 -4.33963,1.461382 -6.375,2.53125 l -3.375,-3.28125 c -0.01065,-0.01065 -0.03615,0.0105 -0.04687,0 -1.606164,-1.573246 -4.30029,-1.79347 -5.953125,-0.140625 l -8.015625,8.015625 c -1.65297,1.652838 -1.432614,4.346988 0.140625,5.953125 l 3.28125,3.421875 c -1.069862,2.035365 -1.888353,4.175057 -2.53125,6.375 h -4.78125 c -2.341584,0 -4.40625,1.870794 -4.40625,4.265625 v 11.25 c 0,2.394831 2.0646675,4.265625 4.40625,4.265625 h 4.78125 c 0.642893,2.199938 1.461375,4.339626 2.53125,6.375 L 14.48438,68.6875 c -1.573166,1.606155 -1.793469,4.300271 -0.140625,5.953125 l 8.015625,8.015625 c 0.790186,0.790151 1.880758,1.275132 3,1.265625 1.242918,-0.0105 2.234916,-0.695651 2.953125,-1.40625 h 0.04687 l 3.375,-3.28125 c 2.035368,1.069867 4.175055,1.88836 6.375,2.53125 v 4.78125 c 0,2.341577 1.870788,4.40625 4.265625,4.40625 h 11.25 c 2.394822,0 4.265625,-2.064657 4.265625,-4.40625 v -4.78125 c 2.199943,-0.64289 4.339629,-1.461377 6.375,-2.53125 l 3.421875,3.28125 c 1.606141,1.573039 4.300236,1.79346 5.953125,0.140625 l 8.015625,-8.015625 c 1.653042,-1.652844 1.432587,-4.347004 -0.140625,-5.953125 v -0.04687 l -3.28125,-3.375 c 1.069865,-2.03537 1.888359,-4.175057 2.53125,-6.375 h 4.78125 c 2.341578,0 4.40625,-1.870787 4.40625,-4.265625 v -11.25 c 0,-2.394843 -2.064639,-4.265677 -4.40625,-4.265625 h -4.78125 c -0.64289,-2.19995 -1.461384,-4.339636 -2.53125,-6.375 l 3.28125,-3.375 V 29.3125 c 1.573051,-1.606141 1.793487,-4.300242 0.140625,-5.953125 L 73.640625,15.34375 c -1.652842,-1.652916 -4.346984,-1.432626 -5.953125,0.140625 -0.01065,0.0105 -0.03625,-0.01065 -0.04687,0 l -3.375,3.28125 c -2.035368,-1.069868 -4.175055,-1.888359 -6.375,-2.53125 v -4.78125 c 0,-2.3415795 -1.870791,-4.40625 -4.265625,-4.40625 z M 48,28.5625 66.984375,47.546875 H 60 A 1.437777,1.437777 0 0 0 58.546875,49 V 65.546875 H 37.453125 V 49 A 1.437777,1.437777 0 0 0 36,47.546875 h -6.984375 z"
       id="path3853"
       style="display:block;overflow:visible;visibility:visible;opacity:0.15;fill:#000000;fill-opacity:1;fill-rule:nonzero;stroke:none;stroke-width:1.5;marker:none;enable-background:accumulate" />
    <path
       d="m 42.375,89.5 c -1.593877,0 -2.8125,-1.332013 -2.8125,-2.953125 V 80.78125 c -2.849942,-0.759335 -5.664678,-1.785299 -8.15625,-3.234375 l -4.078125,3.9375 c -0.573162,0.573133 -1.227034,0.978097 -1.96875,0.984375 -0.741716,0.0063 -1.405235,-0.28026 -1.96875,-0.84375 L 15.375,73.609375 c -1.127026,-1.127034 -1.005605,-2.791202 0.140625,-3.9375 l 3.9375,-4.078125 C 18.004035,63.102176 16.978102,60.287444 16.21875,57.4375 H 10.453125 C 8.832012,57.4375 7.5,56.218868 7.5,54.625 v -11.25 c 0,-1.593864 1.332015,-2.8125 2.953125,-2.8125 h 5.765625 c 0.759354,-2.849949 1.785308,-5.664686 3.234375,-8.15625 l -3.9375,-4.078125 C 14.369328,27.181826 14.247876,25.517659 15.375,24.390625 L 23.390625,16.375 c 1.127026,-1.127034 2.7912,-1.00566 3.9375,0.140625 l 4.078125,3.9375 c 2.491572,-1.449077 5.30631,-2.475036 8.15625,-3.234375 V 11.453125 C 39.5625,9.8320135 40.781123,8.5 42.375,8.5 h 11.25 c 1.593873,0 2.8125,1.3320135 2.8125,2.953125 v 5.765625 c 2.849944,0.759339 5.664681,1.785298 8.15625,3.234375 l 4.078125,-3.9375 c 1.146285,-1.146289 2.810466,-1.267708 3.9375,-0.140625 L 80.625,24.390625 c 1.127025,1.127038 1.005525,2.791206 -0.140625,3.9375 l -3.9375,4.078125 c 1.449072,2.491564 2.47504,5.306301 3.234375,8.15625 h 5.765625 C 87.167968,40.562464 88.5,41.781131 88.5,43.375 v 11.25 c 0,1.59386 -1.332032,2.8125 -2.953125,2.8125 H 79.78125 c -0.759335,2.84994 -1.785303,5.664672 -3.234375,8.15625 l 3.9375,4.078125 c 1.146285,1.146294 1.267794,2.810466 0.140625,3.9375 L 72.609375,81.625 c -1.127056,1.12702 -2.791197,1.005525 -3.9375,-0.140625 l -4.078125,-3.9375 c -2.491574,1.449086 -5.306306,2.475036 -8.15625,3.234375 v 5.765625 C 56.4375,88.167996 55.21886,89.5 53.625,89.5 Z M 36,67 H 60 V 49 H 70.5 L 48,26.5 25.5,49 H 36 Z"
       inkscape:connector-curvature="0"
       id="path3847"
       style="display:block;overflow:visible;visibility:visible;opacity:0.3;fill:#000000;fill-opacity:1;fill-rule:nonzero;stroke:none;stroke-width:1.5;marker:none;enable-background:accumulate" />
    <rect
       width="16"
       height="16"
       x="0"
       y="104"
       transform="matrix(0,1,1,0,0,0)"
       id="rect3897"
       style="color:#000000;fill:url(#linearGradient3905);fill-opacity:1;fill-rule:nonzero;stroke:none;stroke-width:2;marker:none;visibility:visible;display:inline;overflow:visible;enable-background:accumulate" />
    <text
       x="104"
       y="48"
       id="text3907"
       xml:space="preserve"
       style="font-size:4px;font-style:normal;font-variant:normal;font-weight:normal;font-stretch:normal;text-align:start;line-height:125%;letter-spacing:0px;word-spacing:0px;writing-mode:lr-tb;text-anchor:start;fill:#000000;fill-opacity:1;stroke:none;font-family:Liberation Sans;-inkscape-font-specification:Liberation Sans"><tspan
         x="104"
         y="48"
         id="tspan3909">Shadow opacity : 30, 15, 10, (8)</tspan></text>
    <rect
       width="16"
       height="16"
       x="-40"
       y="104"
       transform="matrix(0,-1,1,0,0,0)"
       id="rect3911"
       style="color:#000000;fill:url(#linearGradient3913);fill-opacity:1;fill-rule:nonzero;stroke:none;stroke-width:2;marker:none;visibility:visible;display:inline;overflow:visible;enable-background:accumulate" />
    <text
       x="124"
       y="32"
       id="text3951"
       xml:space="preserve"
       style="font-size:4px;font-style:normal;font-variant:normal;font-weight:normal;font-stretch:normal;text-align:start;line-height:125%;letter-spacing:0px;word-spacing:0px;writing-mode:lr-tb;text-anchor:start;fill:#000000;fill-opacity:1;stroke:none;font-family:Liberation Sans;-inkscape-font-specification:Liberation Sans"><tspan
         x="124"
         y="32"
         id="tspan3953">Bevel opacity : 30 / 10</tspan></text>
    <text
       x="124"
       y="8"
       id="text3955"
       xml:space="preserve"
       style="font-size:4px;font-style:normal;font-variant:normal;font-weight:normal;font-stretch:normal;text-align:start;line-height:125%;letter-spacing:0px;word-spacing:0px;writing-mode:lr-tb;text-anchor:start;fill:#000000;fill-opacity:1;stroke:none;font-family:Liberation Sans;-inkscape-font-specification:Liberation Sans"><tspan
         x="124"
         y="8"
         id="tspan3957">Bevel opacity : 75 / 15</tspan></text>
    <path
       d="m 42.375,88 c -1.593877,0 -2.8125,-1.332013 -2.8125,-2.953125 V 79.28125 c -2.849942,-0.759335 -5.664678,-1.785299 -8.15625,-3.234375 l -4.078125,3.9375 c -0.573162,0.573133 -1.227034,0.978097 -1.96875,0.984375 -0.741716,0.0063 -1.405235,-0.28026 -1.96875,-0.84375 L 15.375,72.109375 c -1.127026,-1.127034 -1.005605,-2.791202 0.140625,-3.9375 l 3.9375,-4.078125 C 18.004035,61.602176 16.978102,58.787444 16.21875,55.9375 H 10.453125 C 8.832012,55.9375 7.5,54.718868 7.5,53.125 v -11.25 c 0,-1.593864 1.332015,-2.8125 2.953125,-2.8125 h 5.765625 c 0.759354,-2.849949 1.785308,-5.664686 3.234375,-8.15625 l -3.9375,-4.078125 C 14.369328,25.681826 14.247876,24.017659 15.375,22.890625 L 23.390625,14.875 c 1.127026,-1.127034 2.7912,-1.00566 3.9375,0.140625 l 4.078125,3.9375 c 2.491572,-1.449077 5.30631,-2.475036 8.15625,-3.234375 V 9.953125 C 39.5625,8.3320135 40.781123,7 42.375,7 h 11.25 c 1.593873,0 2.8125,1.3320135 2.8125,2.953125 v 5.765625 c 2.849944,0.759339 5.664681,1.785298 8.15625,3.234375 l 4.078125,-3.9375 c 1.146285,-1.146289 2.810466,-1.267708 3.9375,-0.140625 L 80.625,22.890625 c 1.127025,1.127038 1.005525,2.791206 -0.140625,3.9375 l -3.9375,4.078125 c 1.449072,2.491564 2.47504,5.306301 3.234375,8.15625 h 5.765625 C 87.167968,39.062464 88.5,40.281131 88.5,41.875 v 11.25 c 0,1.59386 -1.332032,2.8125 -2.953125,2.8125 H 79.78125 c -0.759335,2.84994 -1.785303,5.664672 -3.234375,8.15625 l 3.9375,4.078125 c 1.146285,1.146294 1.267794,2.810466 0.140625,3.9375 L 72.609375,80.125 c -1.127056,1.12702 -2.791197,1.005525 -3.9375,-0.140625 l -4.078125,-3.9375 c -2.491574,1.449086 -5.306306,2.475036 -8.15625,3.234375 v 5.765625 C 56.4375,86.667996 55.21886,88 53.625,88 Z M 36,65.5 h 24 v -18 H 70.5 L 48,25 25.5,47.5 H 36 Z"
       inkscape:connector-curvature="0"
       id="rect3267"
       style="display:block;overflow:visible;visibility:visible;fill:url(#linearGradient3053);fill-opacity:1;fill-rule:nonzero;stroke:none;stroke-width:1.5;marker:none;enable-background:accumulate" />
    <path
       d="m 42.375,88 c -1.593877,0 -2.8125,-1.332013 -2.8125,-2.953125 v -1.5 c 0,1.621112 1.218623,2.953125 2.8125,2.953125 h 11.25 c 1.59386,0 2.8125,-1.332004 2.8125,-2.953125 v 1.5 C 56.4375,86.667996 55.21886,88 53.625,88 Z M 25.359375,80.96875 C 24.617659,80.97505 23.95414,80.68849 23.390625,80.125 L 15.375,72.109375 c -0.742439,-0.742445 -0.933439,-1.717965 -0.65625,-2.625 0.12087,0.399165 0.32356,0.792307 0.65625,1.125 L 23.390625,78.625 c 0.563515,0.56349 1.227034,0.85005 1.96875,0.84375 0.741716,-0.0063 1.395588,-0.411242 1.96875,-0.984375 l 4.078125,-3.9375 c 2.491572,1.449076 5.306308,2.47504 8.15625,3.234375 v 1.5 c -2.849942,-0.759335 -5.664678,-1.785299 -8.15625,-3.234375 l -4.078125,3.9375 c -0.573162,0.573133 -1.227034,0.978097 -1.96875,0.984375 z m 45.28125,-0.04687 c -0.700204,-0.03276 -1.395599,-0.364425 -1.96875,-0.9375 l -4.078125,-3.9375 c -2.491574,1.449086 -5.306306,2.475036 -8.15625,3.234375 v -1.5 c 2.849944,-0.759339 5.664676,-1.785289 8.15625,-3.234375 l 4.078125,3.9375 c 1.146303,1.14615 2.810444,1.267645 3.9375,0.140625 L 80.625,70.609375 c 0.332732,-0.332693 0.535375,-0.725835 0.65625,-1.125 0.277219,0.907035 0.08628,1.882555 -0.65625,2.625 L 72.609375,80.125 c -0.563529,0.56351 -1.268546,0.82964 -1.96875,0.796875 z M 18.9375,63.109375 C 17.764824,60.867388 16.881385,58.424455 16.21875,55.9375 H 10.453125 C 8.832012,55.9375 7.5,54.718868 7.5,53.125 v -1.5 c 0,1.593868 1.332012,2.8125 2.953125,2.8125 h 5.765625 c 0.759352,2.849944 1.785285,5.664676 3.234375,8.15625 z m 58.125,0 -0.515625,-0.515625 c 1.449072,-2.491578 2.47504,-5.30631 3.234375,-8.15625 h 5.765625 C 87.167968,54.4375 88.5,53.21886 88.5,51.625 v 1.5 c 0,1.59386 -1.332032,2.8125 -2.953125,2.8125 H 79.78125 c -0.662621,2.486951 -1.546079,4.929885 -2.71875,7.171875 z M 25.5,46 48,23.5 70.5,46 H 69 L 48,25 27,46 Z m -6.5625,-15.609375 -3.421875,-3.5625 c -0.80792,-0.807919 -1.085479,-1.859447 -0.796875,-2.8125 0.143595,0.469849 0.405711,0.921336 0.796875,1.3125 l 3.9375,4.078125 c -0.184563,0.317343 -0.344466,0.657141 -0.515625,0.984375 z m 58.125,0 C 76.891339,30.063391 76.731439,29.723593 76.546875,29.40625 l 3.9375,-4.078125 c 0.391113,-0.391163 0.653289,-0.842651 0.796875,-1.3125 0.288564,0.953055 0.01095,2.004583 -0.796875,2.8125 z"
       inkscape:connector-curvature="0"
       id="path3868"
       style="display:block;overflow:visible;visibility:visible;opacity:0.15;fill:#000000;fill-opacity:1;fill-rule:nonzero;stroke:none;stroke-width:1.5;marker:none;enable-background:accumulate" />
    <path
       d="m 14.71875,70.984375 c -0.288584,-0.953053 -0.01095,-2.004581 0.796875,-2.8125 l 3.421875,-3.5625 c 0.17116,0.327234 0.331059,0.667031 0.515625,0.984375 l -3.9375,4.078125 c -0.39114,0.391164 -0.653289,0.842651 -0.796875,1.3125 z m 66.5625,0 c -0.143595,-0.469849 -0.405716,-0.921337 -0.796875,-1.3125 l -3.9375,-4.078125 c 0.184564,-0.317346 0.344464,-0.65714 0.515625,-0.984375 l 3.421875,3.5625 c 0.80791,0.807917 1.085479,1.859445 0.796875,2.8125 z M 36,67 V 65.5 H 60 V 67 Z M 25.5,49 27,47.5 h 9 V 49 Z M 60,49 v -1.5 h 9 L 70.5,49 Z M 7.5,43.375 v -1.5 c 0,-1.593864 1.332015,-2.8125 2.953125,-2.8125 h 5.765625 c 0.662637,-2.486959 1.546085,-4.929892 2.71875,-7.171875 l 0.515625,0.515625 c -1.449067,2.491564 -2.475021,5.306301 -3.234375,8.15625 H 10.453125 C 8.832015,40.5625 7.5,41.781136 7.5,43.375 Z m 81,0 c 0,-1.593869 -1.332032,-2.812536 -2.953125,-2.8125 H 79.78125 C 79.021915,37.712551 77.995947,34.897814 76.546875,32.40625 L 77.0625,31.890625 c 1.172671,2.241983 2.056129,4.684916 2.71875,7.171875 h 5.765625 C 87.167968,39.062464 88.5,40.281131 88.5,41.875 Z M 14.71875,25.515625 C 14.44154,24.60859 14.6325,23.633069 15.375,22.890625 L 23.390625,14.875 c 1.127026,-1.127034 2.7912,-1.00566 3.9375,0.140625 l 4.078125,3.9375 c 2.491572,-1.449077 5.30631,-2.475036 8.15625,-3.234375 v 1.5 c -2.84994,0.759339 -5.664678,1.785298 -8.15625,3.234375 l -4.078125,-3.9375 C 26.181825,15.36934 24.517651,15.247966 23.390625,16.375 L 15.375,24.390625 c -0.332718,0.332692 -0.535376,0.725835 -0.65625,1.125 z m 66.5625,0 C 81.160395,25.11646 80.95769,24.723317 80.625,24.390625 L 72.609375,16.375 c -1.127034,-1.127083 -2.791215,-1.005664 -3.9375,0.140625 l -4.078125,3.9375 C 62.102181,19.004048 59.287444,17.978089 56.4375,17.21875 v -1.5 c 2.849944,0.759339 5.664681,1.785298 8.15625,3.234375 l 4.078125,-3.9375 c 1.146285,-1.146289 2.810466,-1.267708 3.9375,-0.140625 L 80.625,22.890625 c 0.742438,0.742447 0.933439,1.717965 0.65625,2.625 z M 39.5625,11.453125 v -1.5 C 39.5625,8.3320135 40.781123,7 42.375,7 h 11.25 c 1.593873,0 2.8125,1.3320135 2.8125,2.953125 v 1.5 C 56.4375,9.8320135 55.218873,8.5 53.625,8.5 h -11.25 c -1.593877,0 -2.8125,1.3320135 -2.8125,2.953125 z"
       inkscape:connector-curvature="0"
       id="path3877"
       style="display:block;overflow:visible;visibility:visible;opacity:0.75;fill:#ffffff;fill-opacity:1;fill-rule:nonzero;stroke:none;stroke-width:1.5;marker:none;enable-background:accumulate" />
  </g>
</svg>
