<?xml version="1.0" encoding="UTF-8" standalone="no"?>
<!-- Created with Inkscape (http://www.inkscape.org/) -->

<svg
   version="1.0"
   width="96"
   height="96"
   id="svg2408"
   sodipodi:docname="tag-new.svg"
   inkscape:version="1.2.2 (b0a8486541, 2022-12-01)"
   xmlns:inkscape="http://www.inkscape.org/namespaces/inkscape"
   xmlns:sodipodi="http://sodipodi.sourceforge.net/DTD/sodipodi-0.dtd"
   xmlns:xlink="http://www.w3.org/1999/xlink"
   xmlns="http://www.w3.org/2000/svg"
   xmlns:svg="http://www.w3.org/2000/svg"
   xmlns:rdf="http://www.w3.org/1999/02/22-rdf-syntax-ns#"
   xmlns:cc="http://creativecommons.org/ns#"
   xmlns:dc="http://purl.org/dc/elements/1.1/">
  <sodipodi:namedview
     id="namedview21829"
     pagecolor="#ffffff"
     bordercolor="#666666"
     borderopacity="1.0"
     inkscape:showpageshadow="2"
     inkscape:pageopacity="0.0"
     inkscape:pagecheckerboard="0"
     inkscape:deskcolor="#d1d1d1"
     showgrid="false"
     inkscape:zoom="2.4583333"
     inkscape:cx="39.661017"
     inkscape:cy="48"
     inkscape:window-width="1872"
     inkscape:window-height="1011"
     inkscape:window-x="48"
     inkscape:window-y="0"
     inkscape:window-maximized="1"
     inkscape:current-layer="layer6" />
  <defs
     id="defs2410">
    <linearGradient
       id="linearGradient3637">
      <stop
         id="stop3639"
         style="stop-color:#f0f0f0;stop-opacity:1"
         offset="0" />
      <stop
         id="stop3641"
         style="stop-color:#aaaaaa;stop-opacity:1"
         offset="1" />
    </linearGradient>
    <linearGradient
       x1="45.447727"
       y1="92.539597"
       x2="45.447727"
       y2="7.0165396"
       id="ButtonShadow"
       gradientUnits="userSpaceOnUse"
       gradientTransform="scale(1.0058652,0.994169)">
      <stop
         id="stop3750"
         style="stop-color:#000000;stop-opacity:1"
         offset="0" />
      <stop
         id="stop3752"
         style="stop-color:#000000;stop-opacity:0.58823532"
         offset="1" />
    </linearGradient>
    <linearGradient
       id="linearGradient3737">
      <stop
         id="stop3739"
         style="stop-color:#ffffff;stop-opacity:1"
         offset="0" />
      <stop
         id="stop3741"
         style="stop-color:#ffffff;stop-opacity:0"
         offset="1" />
    </linearGradient>
    <linearGradient
       id="linearGradient3700">
      <stop
         id="stop3702"
         style="stop-color:#2276c5;stop-opacity:1"
         offset="0" />
      <stop
         id="stop3704"
         style="stop-color:#68baf4;stop-opacity:1"
         offset="1" />
    </linearGradient>
    <filter
       color-interpolation-filters="sRGB"
       id="filter3174"
       x="-0.047720931"
       y="-0.048282354"
       width="1.0954419"
       height="1.0965647">
      <feGaussianBlur
         id="feGaussianBlur3176"
         stdDeviation="1.71" />
    </filter>
    <linearGradient
       x1="36.357143"
       y1="6"
       x2="36.357143"
       y2="63.893143"
       id="linearGradient3188"
       xlink:href="#linearGradient3737"
       gradientUnits="userSpaceOnUse" />
    <filter
       x="-0.19578789"
       y="-0.19578789"
       width="1.3915758"
       height="1.3915758"
       color-interpolation-filters="sRGB"
       id="filter3794">
      <feGaussianBlur
         id="feGaussianBlur3796"
         stdDeviation="5.28" />
    </filter>
    <linearGradient
       x1="48"
       y1="20.220806"
       x2="48"
       y2="138.66119"
       id="linearGradient3613"
       xlink:href="#linearGradient3737"
       gradientUnits="userSpaceOnUse" />
    <radialGradient
       cx="48"
       cy="90.171875"
       r="42"
       fx="48"
       fy="90.171875"
       id="radialGradient3619"
       xlink:href="#linearGradient3737"
       gradientUnits="userSpaceOnUse"
       gradientTransform="matrix(1.1573129,0,0,0.99590774,-7.5510206,0.19713193)" />
    <clipPath
       id="clipPath3613">
      <rect
         width="84"
         height="84"
         rx="6"
         ry="6"
         x="6"
         y="6"
         id="rect3615"
         style="fill:#ffffff;fill-opacity:1;fill-rule:nonzero;stroke:none" />
    </clipPath>
    <linearGradient
       x1="48"
       y1="90"
       x2="48"
       y2="5.9877172"
       id="linearGradient2843"
       xlink:href="#linearGradient3700"
       gradientUnits="userSpaceOnUse"
       gradientTransform="translate(0,100)" />
    <clipPath
       id="clipPath3625">
      <path
         d="M 0,0 0,96 96,96 96,0 0,0 z m 12,6 72,0 c 3.324,0 6,2.676 6,6 l 0,72 c 0,3.324 -2.676,6 -6,6 L 12,90 C 8.676,90 6,87.324 6,84 L 6,12 C 6,8.676 8.676,6 12,6 z"
         inkscape:connector-curvature="0"
         id="path3627"
         style="fill:#ffffff;fill-opacity:1;stroke:none" />
    </clipPath>
    <linearGradient
       x1="44.512066"
       y1="6"
       x2="44.512066"
       y2="90.015434"
       id="linearGradient3643"
       xlink:href="#linearGradient3637"
       gradientUnits="userSpaceOnUse" />
    <clipPath
       id="clipPath3649">
      <rect
         width="76"
         height="76"
         rx="4"
         ry="4"
         x="10"
         y="10"
         id="rect3651"
         style="fill:#ffffff;fill-opacity:1;fill-rule:nonzero;stroke:none" />
    </clipPath>
    <filter
       color-interpolation-filters="sRGB"
       id="filter3657"
       x="-0.035076923"
       y="-0.035076923"
       width="1.0701538"
       height="1.0701538">
      <feGaussianBlur
         id="feGaussianBlur3659"
         stdDeviation="1.14" />
    </filter>
    <linearGradient
       x1="45.447727"
       y1="92.539597"
       x2="45.447727"
       y2="7.0165396"
       id="ButtonShadow-0"
       gradientUnits="userSpaceOnUse"
       gradientTransform="matrix(1.0058652,0,0,0.994169,100,0)">
      <stop
         id="stop3750-8"
         style="stop-color:#000000;stop-opacity:1"
         offset="0" />
      <stop
         id="stop3752-5"
         style="stop-color:#000000;stop-opacity:0.58823532"
         offset="1" />
    </linearGradient>
    <linearGradient
       x1="32.251034"
       y1="6.1317081"
       x2="32.251034"
       y2="90.238609"
       id="linearGradient3780"
       xlink:href="#ButtonShadow-0"
       gradientUnits="userSpaceOnUse"
       gradientTransform="matrix(1.0238095,0,0,-1.0119048,-1.1428571,98.071429)" />
    <linearGradient
       x1="32.251034"
       y1="6.1317081"
       x2="32.251034"
       y2="90.238609"
       id="linearGradient3772"
       xlink:href="#ButtonShadow-0"
       gradientUnits="userSpaceOnUse"
       gradientTransform="matrix(1.0238095,0,0,-1.0119048,-1.1428571,98.071429)" />
    <linearGradient
       x1="32.251034"
       y1="6.1317081"
       x2="32.251034"
       y2="90.238609"
       id="linearGradient3725"
       xlink:href="#ButtonShadow-0"
       gradientUnits="userSpaceOnUse"
       gradientTransform="matrix(1.0238095,0,0,-1.0119048,-1.1428571,98.071429)" />
    <linearGradient
       x1="32.251034"
       y1="6.1317081"
       x2="32.251034"
       y2="90.238609"
       id="linearGradient3721"
       xlink:href="#ButtonShadow-0"
       gradientUnits="userSpaceOnUse"
       gradientTransform="matrix(1,0,0,-1,0,97)" />
    <linearGradient
       x1="32.251034"
       y1="6.1317081"
       x2="32.251034"
       y2="90.238609"
       id="linearGradient3199"
       xlink:href="#ButtonShadow-0"
       gradientUnits="userSpaceOnUse"
       gradientTransform="matrix(1.0238095,0,0,-1.0119048,-1.1428571,98.071429)" />
    <linearGradient
       x1="36.357143"
       y1="6"
       x2="36.357143"
       y2="63.893143"
       id="linearGradient3188-8"
       xlink:href="#linearGradient3737-3"
       gradientUnits="userSpaceOnUse" />
    <linearGradient
       id="linearGradient3737-3">
      <stop
         id="stop3739-6"
         style="stop-color:#ffffff;stop-opacity:1"
         offset="0" />
      <stop
         id="stop3741-1"
         style="stop-color:#ffffff;stop-opacity:0"
         offset="1" />
    </linearGradient>
    <radialGradient
       cx="48"
       cy="90.171875"
       r="42"
       fx="48"
       fy="90.171875"
       id="radialGradient3619-3"
       xlink:href="#linearGradient3737-3"
       gradientUnits="userSpaceOnUse"
       gradientTransform="matrix(1.1573129,0,0,0.99590774,-7.551021,0.1971319)" />
    <linearGradient
       x1="104"
       y1="8"
       x2="120"
       y2="8"
       id="linearGradient3905"
       xlink:href="#linearGradient3637"
       gradientUnits="userSpaceOnUse"
       gradientTransform="translate(-104,104)" />
    <linearGradient
       x1="104"
       y1="8"
       x2="120"
       y2="8"
       id="linearGradient3913"
       xlink:href="#linearGradient3183-0"
       gradientUnits="userSpaceOnUse"
       gradientTransform="translate(-144,104)" />
    <linearGradient
       id="linearGradient3183-0">
      <stop
         id="stop3185-9"
         style="stop-color:#c80000;stop-opacity:1"
         offset="0" />
      <stop
         id="stop3187-6"
         style="stop-color:#f3604d;stop-opacity:1"
         offset="1" />
    </linearGradient>
    <linearGradient
       x1="11.998966"
       y1="5.5317268"
       x2="11.998966"
       y2="20.282997"
       id="linearGradient3133"
       xlink:href="#linearGradient3637"
       gradientUnits="userSpaceOnUse"
       gradientTransform="matrix(4.1487948,0,0,4.8809353,-8.990162,-10.497341)" />
  </defs>
  <metadata
     id="metadata2413">
    <rdf:RDF>
      <cc:Work
         rdf:about="">
        <dc:format>image/svg+xml</dc:format>
        <dc:type
           rdf:resource="http://purl.org/dc/dcmitype/StillImage" />
        <dc:title />
      </cc:Work>
    </rdf:RDF>
  </metadata>
  <g
     id="layer2"
     style="display:none">
    <rect
       width="86"
       height="85"
       rx="6"
       ry="6"
       x="5"
       y="7"
       clip-path="url(#clipPath3625)"
       id="rect3745"
       style="opacity:0.9;fill:url(#ButtonShadow);fill-opacity:1;fill-rule:nonzero;stroke:none;filter:url(#filter3174)" />
  </g>
  <g
     id="layer3"
     style="display:none">
    <path
       d="M 12,3.96875 C 6.4889098,3.96875 1.96875,8.4889098 1.96875,14 v 71 c 0,5.51109 4.5201597,10.03125 10.03125,10.03125 h 72 c 5.51109,0 10.03125,-4.52016 10.03125,-10.03125 V 14 C 94.03125,8.4889097 89.51109,3.96875 84,3.96875 Z M 12,6 h 72 c 3.324,0 6,2.676 6,6 v 72 c 0,3.324 -2.676,6 -6,6 H 12 C 8.676,90 6,87.324 6,84 V 12 C 6,8.676 8.676,6 12,6 Z"
       inkscape:connector-curvature="0"
       id="path3786"
       style="display:inline;opacity:0.08;fill:url(#linearGradient3199);fill-opacity:1;fill-rule:nonzero;stroke:none" />
    <path
       d="M 12,4.96875 C 7.0283671,4.96875 2.96875,9.0283671 2.96875,14 v 71 c 0,4.971633 4.059617,9.03125 9.03125,9.03125 h 72 c 4.971633,0 9.03125,-4.059617 9.03125,-9.03125 V 14 C 93.03125,9.028367 88.971633,4.96875 84,4.96875 Z M 12,6 h 72 c 3.324,0 6,2.676 6,6 v 72 c 0,3.324 -2.676,6 -6,6 H 12 C 8.676,90 6,87.324 6,84 V 12 C 6,8.676 8.676,6 12,6 Z"
       inkscape:connector-curvature="0"
       id="path3778"
       style="display:inline;opacity:0.1;fill:url(#linearGradient3780);fill-opacity:1;fill-rule:nonzero;stroke:none" />
    <path
       d="M 11.1875,6.03125 C 7.159982,6.4419011 4,9.8664375 4,14 v 71 c 0,4.409133 3.590867,8 8,8 h 72 c 4.409133,0 8,-3.590867 8,-8 V 14 C 92,9.8029382 88.741028,6.3539584 84.625,6.03125 87.657886,6.337417 90,8.88375 90,12 v 72 c 0,3.324 -2.676,6 -6,6 H 12 C 8.676,90 6,87.324 6,84 V 12 c 0,-3.11625 2.342114,-5.662583 5.375,-5.96875 -0.06227,0.00488 -0.12563,-0.00631 -0.1875,0 z"
       inkscape:connector-curvature="0"
       id="path3770"
       style="display:inline;opacity:0.2;fill:url(#linearGradient3772);fill-opacity:1;fill-rule:nonzero;stroke:none" />
    <path
       d="M 6.4375,9.75 C 5.5380109,10.927446 5,12.397277 5,14 v 71 c 0,3.878 3.122,7 7,7 h 72 c 3.878,0 7,-3.122 7,-7 V 14 C 91,12.397277 90.461989,10.927446 89.5625,9.75 89.841816,10.444095 90,11.203625 90,12 v 72 c 0,3.324 -2.676,6 -6,6 H 12 C 8.676,90 6,87.324 6,84 V 12 C 6,11.203625 6.1581836,10.444095 6.4375,9.75 Z"
       inkscape:connector-curvature="0"
       id="rect3723"
       style="display:inline;opacity:0.3;fill:url(#linearGradient3725);fill-opacity:1;fill-rule:nonzero;stroke:none" />
    <path
       d="m 6,84 v 1 c 0,3.324 2.676,6 6,6 h 72 c 3.324,0 6,-2.676 6,-6 v -1 c 0,3.324 -2.676,6 -6,6 H 12 C 8.676,90 6,87.324 6,84 Z"
       inkscape:connector-curvature="0"
       id="rect3716"
       style="display:inline;opacity:0.45;fill:url(#linearGradient3721);fill-opacity:1;fill-rule:nonzero;stroke:none" />
  </g>
  <g
     id="layer1"
     style="display:none">
    <rect
       width="84"
       height="84"
       rx="6"
       ry="6"
       x="6"
       y="6"
       id="rect2419"
       style="opacity:0.8;fill:#000000;fill-opacity:1;fill-rule:nonzero;stroke:none" />
    <path
       d="m 14,10 c -2.216,0 -4,1.784 -4,4 l 0,68 c 0,2.216 1.784,4 4,4 l 68,0 c 2.216,0 4,-1.784 4,-4 l 0,-68 c 0,-2.216 -1.784,-4 -4,-4 l -68,0 z m 0,3.0625 68,0 c 0.578769,0 0.9375,0.358731 0.9375,0.9375 l 0,68 c 0,0.578769 -0.358731,0.9375 -0.9375,0.9375 l -68,0 c -0.578769,0 -0.9375,-0.358731 -0.9375,-0.9375 l 0,-68 c 0,-0.578769 0.358731,-0.9375 0.9375,-0.9375 z"
       inkscape:connector-curvature="0"
       id="rect3726"
       style="opacity:0.07999998;fill:#000000;fill-opacity:1;fill-rule:nonzero;stroke:none" />
    <path
       d="M 12,6 C 8.676,6 6,8.676 6,12 l 0,72 c 0,3.324 2.676,6 6,6 l 72,0 c 3.324,0 6,-2.676 6,-6 L 90,12 C 90,8.676 87.324,6 84,6 L 12,6 z m 2,4 68,0 c 2.216,0 4,1.784 4,4 l 0,68 c 0,2.216 -1.784,4 -4,4 l -68,0 c -2.216,0 -4,-1.784 -4,-4 l 0,-68 c 0,-2.216 1.784,-4 4,-4 z"
       inkscape:connector-curvature="0"
       id="rect3629"
       style="fill:url(#linearGradient3643);fill-opacity:1;fill-rule:nonzero;stroke:none" />
    <path
       d="M 12,6 C 8.676,6 6,8.676 6,12 l 0,2 0,68 0,2 c 0,0.334721 0.04135,0.6507 0.09375,0.96875 0.0487,0.295596 0.09704,0.596915 0.1875,0.875 0.00988,0.03038 0.020892,0.0636 0.03125,0.09375 0.098865,0.287771 0.2348802,0.547452 0.375,0.8125 0.1445918,0.273507 0.3156161,0.535615 0.5,0.78125 0.1843839,0.245635 0.3737765,0.473472 0.59375,0.6875 0.439947,0.428056 0.94291,0.814526 1.5,1.09375 0.278545,0.139612 0.5734731,0.246947 0.875,0.34375 -0.2562018,-0.100222 -0.4867109,-0.236272 -0.71875,-0.375 -0.00741,-0.0044 -0.023866,0.0045 -0.03125,0 -0.031933,-0.0193 -0.062293,-0.04251 -0.09375,-0.0625 -0.120395,-0.0767 -0.2310226,-0.163513 -0.34375,-0.25 -0.1061728,-0.0808 -0.2132809,-0.161112 -0.3125,-0.25 C 8.4783201,88.557317 8.3087904,88.373362 8.15625,88.1875 8.0486711,88.057245 7.9378561,87.922215 7.84375,87.78125 7.818661,87.74287 7.805304,87.69538 7.78125,87.65625 7.716487,87.553218 7.6510225,87.451733 7.59375,87.34375 7.4927417,87.149044 7.3880752,86.928049 7.3125,86.71875 7.30454,86.69694 7.288911,86.6782 7.28125,86.65625 7.2494249,86.5643 7.2454455,86.469419 7.21875,86.375 7.1884177,86.268382 7.1483606,86.171969 7.125,86.0625 7.0521214,85.720988 7,85.364295 7,85 L 7,83 7,15 7,13 C 7,10.218152 9.2181517,8 12,8 l 2,0 68,0 2,0 c 2.781848,0 5,2.218152 5,5 l 0,2 0,68 0,2 c 0,0.364295 -0.05212,0.720988 -0.125,1.0625 -0.04415,0.206893 -0.08838,0.397658 -0.15625,0.59375 -0.0077,0.02195 -0.0233,0.04069 -0.03125,0.0625 -0.06274,0.173739 -0.138383,0.367449 -0.21875,0.53125 -0.04158,0.0828 -0.07904,0.169954 -0.125,0.25 -0.0546,0.09721 -0.126774,0.18835 -0.1875,0.28125 -0.09411,0.140965 -0.204921,0.275995 -0.3125,0.40625 -0.143174,0.17445 -0.303141,0.346998 -0.46875,0.5 -0.01117,0.0102 -0.01998,0.02115 -0.03125,0.03125 -0.138386,0.125556 -0.285091,0.234436 -0.4375,0.34375 -0.102571,0.07315 -0.204318,0.153364 -0.3125,0.21875 -0.0074,0.0045 -0.02384,-0.0044 -0.03125,0 -0.232039,0.138728 -0.462548,0.274778 -0.71875,0.375 0.301527,-0.0968 0.596455,-0.204138 0.875,-0.34375 0.55709,-0.279224 1.060053,-0.665694 1.5,-1.09375 0.219973,-0.214028 0.409366,-0.441865 0.59375,-0.6875 0.184384,-0.245635 0.355408,-0.507743 0.5,-0.78125 0.14012,-0.265048 0.276135,-0.524729 0.375,-0.8125 0.01041,-0.03078 0.02133,-0.06274 0.03125,-0.09375 0.09046,-0.278085 0.1388,-0.579404 0.1875,-0.875 C 89.95865,84.6507 90,84.334721 90,84 l 0,-2 0,-68 0,-2 C 90,8.676 87.324,6 84,6 L 12,6 z"
       inkscape:connector-curvature="0"
       id="rect3728"
       style="fill:url(#linearGradient3188);fill-opacity:1;fill-rule:nonzero;stroke:none" />
    <path
       d="M 12,90 C 8.676,90 6,87.324 6,84 L 6,82 6,14 6,12 c 0,-0.334721 0.04135,-0.6507 0.09375,-0.96875 0.0487,-0.295596 0.09704,-0.596915 0.1875,-0.875 C 6.29113,10.12587 6.302142,10.09265 6.3125,10.0625 6.411365,9.774729 6.5473802,9.515048 6.6875,9.25 6.8320918,8.976493 7.0031161,8.714385 7.1875,8.46875 7.3718839,8.223115 7.5612765,7.995278 7.78125,7.78125 8.221197,7.353194 8.72416,6.966724 9.28125,6.6875 9.559795,6.547888 9.8547231,6.440553 10.15625,6.34375 9.9000482,6.443972 9.6695391,6.580022 9.4375,6.71875 c -0.00741,0.0044 -0.023866,-0.0045 -0.03125,0 -0.031933,0.0193 -0.062293,0.04251 -0.09375,0.0625 -0.120395,0.0767 -0.2310226,0.163513 -0.34375,0.25 -0.1061728,0.0808 -0.2132809,0.161112 -0.3125,0.25 C 8.4783201,7.442683 8.3087904,7.626638 8.15625,7.8125 8.0486711,7.942755 7.9378561,8.077785 7.84375,8.21875 7.818661,8.25713 7.805304,8.30462 7.78125,8.34375 7.716487,8.446782 7.6510225,8.548267 7.59375,8.65625 7.4927417,8.850956 7.3880752,9.071951 7.3125,9.28125 7.30454,9.30306 7.288911,9.3218 7.28125,9.34375 7.2494249,9.4357 7.2454455,9.530581 7.21875,9.625 7.1884177,9.731618 7.1483606,9.828031 7.125,9.9375 7.0521214,10.279012 7,10.635705 7,11 l 0,2 0,68 0,2 c 0,2.781848 2.2181517,5 5,5 l 2,0 68,0 2,0 c 2.781848,0 5,-2.218152 5,-5 l 0,-2 0,-68 0,-2 C 89,10.635705 88.94788,10.279012 88.875,9.9375 88.83085,9.730607 88.78662,9.539842 88.71875,9.34375 88.71105,9.3218 88.69545,9.30306 88.6875,9.28125 88.62476,9.107511 88.549117,8.913801 88.46875,8.75 88.42717,8.6672 88.38971,8.580046 88.34375,8.5 88.28915,8.40279 88.216976,8.31165 88.15625,8.21875 88.06214,8.077785 87.951329,7.942755 87.84375,7.8125 87.700576,7.63805 87.540609,7.465502 87.375,7.3125 87.36383,7.3023 87.35502,7.29135 87.34375,7.28125 87.205364,7.155694 87.058659,7.046814 86.90625,6.9375 86.803679,6.86435 86.701932,6.784136 86.59375,6.71875 c -0.0074,-0.0045 -0.02384,0.0044 -0.03125,0 -0.232039,-0.138728 -0.462548,-0.274778 -0.71875,-0.375 0.301527,0.0968 0.596455,0.204138 0.875,0.34375 0.55709,0.279224 1.060053,0.665694 1.5,1.09375 0.219973,0.214028 0.409366,0.441865 0.59375,0.6875 0.184384,0.245635 0.355408,0.507743 0.5,0.78125 0.14012,0.265048 0.276135,0.524729 0.375,0.8125 0.01041,0.03078 0.02133,0.06274 0.03125,0.09375 0.09046,0.278085 0.1388,0.579404 0.1875,0.875 C 89.95865,11.3493 90,11.665279 90,12 l 0,2 0,68 0,2 c 0,3.324 -2.676,6 -6,6 l -72,0 z"
       inkscape:connector-curvature="0"
       id="path3615"
       style="opacity:0.6;fill:url(#radialGradient3619);fill-opacity:1;fill-rule:nonzero;stroke:none" />
    <rect
       width="84"
       height="84"
       rx="6"
       ry="6"
       x="6"
       y="106"
       id="rect2841"
       style="fill:url(#linearGradient2843);fill-opacity:1;fill-rule:nonzero;stroke:none" />
    <rect
       width="76"
       height="76"
       rx="4"
       ry="4"
       x="10"
       y="110"
       id="rect3634"
       style="fill:#ff0000;fill-opacity:1;fill-rule:nonzero;stroke:none" />
    <path
       d="m 14,9 c -2.752703,0 -5,2.247297 -5,5 l 0,68 c 0,2.752703 2.247297,5 5,5 l 68,0 c 2.752703,0 5,-2.247297 5,-5 L 87,14 C 87,11.247297 84.752703,9 82,9 L 14,9 z m 0,2 68,0 c 1.679297,0 3,1.320703 3,3 l 0,68 c 0,1.679297 -1.320703,3 -3,3 l -68,0 c -1.679297,0 -3,-1.320703 -3,-3 l 0,-68 c 0,-1.679297 1.320703,-3 3,-3 z"
       inkscape:connector-curvature="0"
       transform="translate(-110,0)"
       clip-path="url(#clipPath3649)"
       id="rect3647"
       style="font-size:medium;font-style:normal;font-variant:normal;font-weight:normal;font-stretch:normal;text-indent:0;text-align:start;text-decoration:none;line-height:normal;letter-spacing:normal;word-spacing:normal;text-transform:none;direction:ltr;block-progression:tb;writing-mode:lr-tb;text-anchor:start;color:#000000;fill:#000000;fill-opacity:1;stroke:none;stroke-width:2;marker:none;visibility:visible;display:inline;overflow:visible;filter:url(#filter3657);enable-background:accumulate;font-family:Abandoned Bitplane;-inkscape-font-specification:Abandoned Bitplane" />
    <path
       d="m 14.089286,10 c -2.216,0 -4,1.784 -4,4 l 0,68 c 0,2.216 1.784,4 4,4 l 68,0 c 2.216,0 4,-1.784 4,-4 l 0,-68 c 0,-2.216 -1.784,-4 -4,-4 l -68,0 z m 0,2 68,0 c 1.140301,0 2,0.859699 2,2 l 0,68 c 0,1.140301 -0.859699,2 -2,2 l -68,0 c -1.140301,0 -2,-0.859699 -2,-2 l 0,-68 c 0,-1.140301 0.859699,-2 2,-2 z"
       inkscape:connector-curvature="0"
       id="path3709"
       style="opacity:0.16000001;fill:#000000;fill-opacity:1;fill-rule:nonzero;stroke:none" />
    <path
       d="m 14,10 c -2.216,0 -4,1.784 -4,4 l 0,68 c 0,2.216 1.784,4 4,4 l 68,0 c 2.216,0 4,-1.784 4,-4 l 0,-68 c 0,-2.216 -1.784,-4 -4,-4 l -68,0 z m 0,1 68,0 c 1.673848,0 3,1.326152 3,3 l 0,68 c 0,1.673848 -1.326152,3 -3,3 l -68,0 c -1.673848,0 -3,-1.326152 -3,-3 l 0,-68 c 0,-1.673848 1.326152,-3 3,-3 z"
       inkscape:connector-curvature="0"
       id="path3707"
       style="opacity:0.36000001;fill:#000000;fill-opacity:1;fill-rule:nonzero;stroke:none" />
  </g>
  <g
     id="layer4"
     style="display:none">
    <rect
       width="84"
       height="84"
       rx="6"
       ry="6"
       x="6"
       y="6"
       id="rect2419-9"
       style="display:inline;opacity:0.6;fill:#000000;fill-opacity:1;fill-rule:nonzero;stroke:none" />
    <path
       d="M 12,6 C 8.676,6 6,8.676 6,12 v 2 68 2 c 0,0.334721 0.04135,0.6507 0.09375,0.96875 0.0487,0.295596 0.09704,0.596915 0.1875,0.875 0.00988,0.03038 0.020892,0.0636 0.03125,0.09375 0.098865,0.287771 0.2348802,0.547452 0.375,0.8125 0.1445918,0.273507 0.3156161,0.535615 0.5,0.78125 0.1843839,0.245635 0.3737765,0.473472 0.59375,0.6875 0.439947,0.428056 0.94291,0.814526 1.5,1.09375 0.278545,0.139612 0.5734731,0.246947 0.875,0.34375 -0.2562018,-0.100222 -0.4867109,-0.236272 -0.71875,-0.375 -0.00741,-0.0044 -0.023866,0.0045 -0.03125,0 -0.031933,-0.0193 -0.062293,-0.04251 -0.09375,-0.0625 -0.120395,-0.0767 -0.2310226,-0.163513 -0.34375,-0.25 -0.1061728,-0.0808 -0.2132809,-0.161112 -0.3125,-0.25 C 8.4783201,88.557317 8.3087904,88.373362 8.15625,88.1875 8.0486711,88.057245 7.9378561,87.922215 7.84375,87.78125 7.818661,87.74287 7.805304,87.69538 7.78125,87.65625 7.716487,87.553218 7.6510225,87.451733 7.59375,87.34375 7.4927417,87.149044 7.3880752,86.928049 7.3125,86.71875 7.30454,86.69694 7.288911,86.6782 7.28125,86.65625 7.2494249,86.5643 7.2454455,86.469419 7.21875,86.375 7.1884177,86.268382 7.1483606,86.171969 7.125,86.0625 7.0521214,85.720988 7,85.364295 7,85 V 83 15 13 C 7,10.218152 9.2181517,8 12,8 h 2 68 2 c 2.781848,0 5,2.218152 5,5 v 2 68 2 c 0,0.364295 -0.05212,0.720988 -0.125,1.0625 -0.04415,0.206893 -0.08838,0.397658 -0.15625,0.59375 -0.0077,0.02195 -0.0233,0.04069 -0.03125,0.0625 -0.06274,0.173739 -0.138383,0.367449 -0.21875,0.53125 -0.04158,0.0828 -0.07904,0.169954 -0.125,0.25 -0.0546,0.09721 -0.126774,0.18835 -0.1875,0.28125 -0.09411,0.140965 -0.204921,0.275995 -0.3125,0.40625 -0.143174,0.17445 -0.303141,0.346998 -0.46875,0.5 -0.01117,0.0102 -0.01998,0.02115 -0.03125,0.03125 -0.138386,0.125556 -0.285091,0.234436 -0.4375,0.34375 -0.102571,0.07315 -0.204318,0.153364 -0.3125,0.21875 -0.0074,0.0045 -0.02384,-0.0044 -0.03125,0 -0.232039,0.138728 -0.462548,0.274778 -0.71875,0.375 0.301527,-0.0968 0.596455,-0.204138 0.875,-0.34375 0.55709,-0.279224 1.060053,-0.665694 1.5,-1.09375 0.219973,-0.214028 0.409366,-0.441865 0.59375,-0.6875 0.184384,-0.245635 0.355408,-0.507743 0.5,-0.78125 0.14012,-0.265048 0.276135,-0.524729 0.375,-0.8125 0.01041,-0.03078 0.02133,-0.06274 0.03125,-0.09375 0.09046,-0.278085 0.1388,-0.579404 0.1875,-0.875 C 89.95865,84.6507 90,84.334721 90,84 V 82 14 12 C 90,8.676 87.324,6 84,6 Z"
       inkscape:connector-curvature="0"
       id="rect3728-4"
       style="display:inline;opacity:0.01;fill:url(#linearGradient3188-8);fill-opacity:1;fill-rule:nonzero;stroke:none" />
    <path
       d="M 12,90 C 8.676,90 6,87.324 6,84 V 82 14 12 c 0,-0.334721 0.04135,-0.6507 0.09375,-0.96875 0.0487,-0.295596 0.09704,-0.596915 0.1875,-0.875 C 6.29113,10.12587 6.302142,10.09265 6.3125,10.0625 6.411365,9.774729 6.5473802,9.515048 6.6875,9.25 6.8320918,8.976493 7.0031161,8.714385 7.1875,8.46875 7.3718839,8.223115 7.5612765,7.995278 7.78125,7.78125 8.221197,7.353194 8.72416,6.966724 9.28125,6.6875 9.559795,6.547888 9.8547231,6.440553 10.15625,6.34375 9.9000482,6.443972 9.6695391,6.580022 9.4375,6.71875 c -0.00741,0.0044 -0.023866,-0.0045 -0.03125,0 -0.031933,0.0193 -0.062293,0.04251 -0.09375,0.0625 -0.120395,0.0767 -0.2310226,0.163513 -0.34375,0.25 -0.1061728,0.0808 -0.2132809,0.161112 -0.3125,0.25 C 8.4783201,7.442683 8.3087904,7.626638 8.15625,7.8125 8.0486711,7.942755 7.9378561,8.077785 7.84375,8.21875 7.818661,8.25713 7.805304,8.30462 7.78125,8.34375 7.716487,8.446782 7.6510225,8.548267 7.59375,8.65625 7.4927417,8.850956 7.3880752,9.071951 7.3125,9.28125 7.30454,9.30306 7.288911,9.3218 7.28125,9.34375 7.2494249,9.4357 7.2454455,9.530581 7.21875,9.625 7.1884177,9.731618 7.1483606,9.828031 7.125,9.9375 7.0521214,10.279012 7,10.635705 7,11 v 2 68 2 c 0,2.781848 2.2181517,5 5,5 h 2 68 2 c 2.781848,0 5,-2.218152 5,-5 V 81 13 11 C 89,10.635705 88.94788,10.279012 88.875,9.9375 88.83085,9.730607 88.78662,9.539842 88.71875,9.34375 88.71105,9.3218 88.69545,9.30306 88.6875,9.28125 88.62476,9.107511 88.549117,8.913801 88.46875,8.75 88.42717,8.6672 88.38971,8.580046 88.34375,8.5 88.28915,8.40279 88.216976,8.31165 88.15625,8.21875 88.06214,8.077785 87.951329,7.942755 87.84375,7.8125 87.700576,7.63805 87.540609,7.465502 87.375,7.3125 87.36383,7.3023 87.35502,7.29135 87.34375,7.28125 87.205364,7.155694 87.058659,7.046814 86.90625,6.9375 86.803679,6.86435 86.701932,6.784136 86.59375,6.71875 c -0.0074,-0.0045 -0.02384,0.0044 -0.03125,0 -0.232039,-0.138728 -0.462548,-0.274778 -0.71875,-0.375 0.301527,0.0968 0.596455,0.204138 0.875,0.34375 0.55709,0.279224 1.060053,0.665694 1.5,1.09375 0.219973,0.214028 0.409366,0.441865 0.59375,0.6875 0.184384,0.245635 0.355408,0.507743 0.5,0.78125 0.14012,0.265048 0.276135,0.524729 0.375,0.8125 0.01041,0.03078 0.02133,0.06274 0.03125,0.09375 0.09046,0.278085 0.1388,0.579404 0.1875,0.875 C 89.95865,11.3493 90,11.665279 90,12 v 2 68 2 c 0,3.324 -2.676,6 -6,6 z"
       inkscape:connector-curvature="0"
       id="path3615-6"
       style="display:inline;opacity:0.15;fill:url(#radialGradient3619-3);fill-opacity:1;fill-rule:nonzero;stroke:none" />
  </g>
  <g
     id="layer5"
     style="display:none">
    <rect
       width="66"
       height="66"
       rx="12"
       ry="12"
       x="15"
       y="15"
       clip-path="url(#clipPath3613)"
       id="rect3171"
       style="opacity:0.1;fill:url(#linearGradient3613);fill-opacity:1;fill-rule:nonzero;stroke:#ffffff;stroke-width:0.5;stroke-linecap:round;stroke-linejoin:miter;stroke-miterlimit:4;stroke-opacity:1;stroke-dasharray:none;stroke-dashoffset:0;filter:url(#filter3794)" />
  </g>
  <g
     id="layer6"
     style="display:inline">
    <path
       d="m 26.634838,9.0026588 c -3.609169,0.6135285 -6.102861,4.2383742 -5.625,7.8408822 0.03167,6.58791 -0.06309,13.188338 0.04687,19.768493 0.569028,3.536686 3.983336,5.446315 6.168336,7.996461 2.162639,2.162638 4.325276,4.325275 6.487914,6.487914 -4.414762,-0.21612 -8.878839,-0.03372 -13.3125,-0.09375 -2.298187,0.476754 -2.613306,3.006847 -2.390625,4.947391 0,2.350869 0,4.70174 0,7.052609 -3.291783,0.08832 -6.626985,-0.180126 -9.8906249,0.140625 -2.8199595,0.845286 -1.9987665,4.185495 -2.109375,6.422842 0.090105,3.103737 -0.182709,6.251664 0.140625,9.327158 0.845286,2.819959 4.1854949,1.998766 6.4228429,2.109375 1.812177,0 3.624355,0 5.436532,0 0.08832,3.291783 -0.180126,6.626985 0.140625,9.890625 0.845286,2.819959 4.185495,1.998766 6.422843,2.109375 3.103737,-0.09009 6.251664,0.182709 9.327157,-0.140625 2.81996,-0.845286 1.998767,-4.185495 2.109375,-6.422843 0,-1.812177 0,-3.624355 0,-5.436532 3.291783,-0.08832 6.626985,0.180126 9.890625,-0.140625 2.81996,-0.845286 1.998767,-4.185495 2.109375,-6.422843 -0.0622,-3.042715 0.12471,-6.116101 -0.09375,-9.139657 3.912564,3.817546 7.652471,7.841895 11.671875,11.53125 0.363174,0.238108 1.838595,1.064116 2.8125,1.078125 1.556873,0.350643 3.882918,-0.386328 4.679238,-1.0274 4.344333,-3.898861 8.311119,-8.245341 12.509262,-12.31735 2.942375,-2.942375 5.884751,-5.884751 8.827125,-8.827125 0.272538,-0.370401 1.144448,-1.487556 1.359375,-2.671875 0.467922,-1.872263 0.135345,-3.952499 -0.96444,-5.51036 -0.324049,-0.504253 -1.716304,-1.865286 -2.49664,-2.638225 C 74.774061,33.407429 63.285993,21.825791 51.712963,10.362034 48.764694,8.1705008 44.882446,9.2669978 41.458162,9.0026588 c -4.941094,3e-6 -9.882297,-3e-6 -14.823324,0 z m 13.125,15.0000002 c 6.442239,-0.04208 3.267915,10.506342 -2.119225,6.872883 -3.02811,-1.893632 -1.511598,-7.066949 2.119225,-6.872883 z m -3.84375,29.296875 c 3.265625,3.265624 6.531251,6.53125 9.796875,9.796875 -3.211729,-0.215648 -6.472339,-0.03353 -9.703125,-0.09375 -0.06072,-3.22976 0.12261,-6.492872 -0.09375,-9.703125 z"
       inkscape:connector-curvature="0"
       id="path3932"
       style="display:inline;opacity:0.1;fill:#000000;fill-opacity:1;stroke:none;stroke-width:1.5" />
    <path
       d="m 26.962963,10.596409 a 1.3976995,1.3976995 0 0 0 -0.09375,0.04687 c -0.06882,0.01275 -0.40131,0.07505 -0.46875,0.09375 -0.06744,0.01871 -0.356344,0.116055 -0.421875,0.140625 -0.06553,0.02457 -0.358761,0.157267 -0.421875,0.1875 -0.06312,0.03022 -0.361668,0.151834 -0.421875,0.1875 -0.06021,0.03567 -0.318166,0.24043 -0.375,0.28125 -0.05683,0.04082 -0.275104,0.235591 -0.328125,0.28125 -0.05302,0.04566 -0.326205,0.231108 -0.375,0.28125 -0.04879,0.05015 -0.237057,0.320763 -0.28125,0.375 -0.04419,0.05424 -0.242002,0.270214 -0.28125,0.328125 -0.03924,0.05792 -0.200376,0.360739 -0.234375,0.421875 -0.034,0.06114 -0.159012,0.311113 -0.1875,0.375 -0.02848,0.06389 -0.164745,0.355732 -0.1875,0.421875 -0.02276,0.06614 -0.12378,0.400864 -0.140625,0.46875 -0.01685,0.06789 -0.08293,0.352771 -0.09375,0.421875 -0.0108,0.06911 -0.04218,0.398964 -0.04687,0.46875 -0.0042,0.06281 1.49e-4,0.319062 0,0.421875 -1.6e-5,0.0114 -1.47e-4,0.03988 0,0.04687 v 19.78125 c 1.92e-4,0.03906 -0.0021,0.242245 0,0.28125 0.0021,0.039 0.04284,0.195522 0.04687,0.234375 0.0041,0.03885 -0.006,0.195766 0,0.234375 0.006,0.03861 0.03905,0.242979 0.04687,0.28125 0.0078,0.03826 0.08405,0.196534 0.09375,0.234375 0.0098,0.03784 0.03533,0.197058 0.04687,0.234375 0.01155,0.03732 0.08039,0.19767 0.09375,0.234375 0.01335,0.0367 0.07859,0.19837 0.09375,0.234375 0.01517,0.036 0.07683,0.199159 0.09375,0.234375 0.01692,0.03522 0.121995,0.200032 0.140625,0.234375 0.01863,0.03433 0.07346,0.200989 0.09375,0.234375 0.0203,0.03339 0.11871,0.202026 0.140625,0.234375 0.02191,0.03235 0.11715,0.156267 0.140625,0.1875 0.02348,0.03123 0.162518,0.157458 0.1875,0.1875 0.02499,0.03005 0.114195,0.158721 0.140625,0.1875 0.02643,0.02878 0.159686,0.160054 0.1875,0.1875 l 35.578125,35.578125 c 0.02757,0.02753 0.158612,0.161356 0.1875,0.1875 0.02889,0.02614 0.157364,0.115935 0.1875,0.140625 0.03014,0.02469 0.156188,0.16431 0.1875,0.1875 0.0313,0.02319 0.201963,0.118995 0.234375,0.140625 0.03242,0.02163 0.154065,0.120615 0.1875,0.140625 0.03343,0.02001 0.2,0.07541 0.234375,0.09375 0.03438,0.01835 0.19914,0.123975 0.234375,0.140625 0.03524,0.01665 0.198366,0.07886 0.234375,0.09375 0.03601,0.01485 0.197678,0.08064 0.234375,0.09375 0.03669,0.01305 0.197078,0.08246 0.234375,0.09375 0.03729,0.01125 0.196569,0.03741 0.234375,0.04687 0.0378,0.0095 0.196149,0.03929 0.234375,0.04687 0.03822,0.0077 0.242699,0.04116 0.28125,0.04687 0.03855,0.0057 0.19559,0.04307 0.234375,0.04687 0.03879,0.0038 0.242324,-0.0019 0.28125,0 0.03892,0.002 0.195402,0 0.234375,0 0.03897,0 0.195449,0.002 0.234375,0 0.03892,-0.0019 0.242465,0.0038 0.28125,0 0.03879,-0.0037 0.195824,-0.04116 0.234375,-0.04687 0.03855,-0.0057 0.243024,-0.03928 0.28125,-0.04687 0.03822,-0.0076 0.196569,-0.03741 0.234375,-0.04687 0.0378,-0.0095 0.197078,-0.03558 0.234375,-0.04687 0.03729,-0.01125 0.197678,-0.08064 0.234375,-0.09375 0.03669,-0.01305 0.198366,-0.07885 0.234375,-0.09375 0.03601,-0.01485 0.19914,-0.0771 0.234375,-0.09375 0.03524,-0.01665 0.2,-0.12228 0.234375,-0.140625 0.03438,-0.01834 0.20094,-0.07374 0.234375,-0.09375 0.03343,-0.02001 0.155088,-0.118995 0.1875,-0.140625 0.03242,-0.02163 0.203063,-0.117435 0.234375,-0.140625 0.03131,-0.02319 0.157364,-0.162804 0.1875,-0.1875 0.03014,-0.02469 0.158612,-0.11448 0.1875,-0.140625 0.02889,-0.02614 0.159929,-0.159974 0.1875,-0.1875 L 86.869213,55.033909 c 0.02755,-0.02757 0.161337,-0.158618 0.1875,-0.1875 0.02616,-0.02889 0.115905,-0.15737 0.140625,-0.1875 0.02472,-0.03014 0.164294,-0.156195 0.1875,-0.1875 0.02321,-0.03131 0.11898,-0.201971 0.140625,-0.234375 0.02164,-0.0324 0.1206,-0.154074 0.140625,-0.1875 0.02003,-0.03342 0.07539,-0.200007 0.09375,-0.234375 0.01836,-0.03437 0.123975,-0.199149 0.140625,-0.234375 0.01665,-0.03522 0.07884,-0.198377 0.09375,-0.234375 0.01485,-0.036 0.08062,-0.19769 0.09375,-0.234375 0.01305,-0.03669 0.08244,-0.19709 0.09375,-0.234375 0.01125,-0.03729 0.03741,-0.196581 0.04687,-0.234375 0.0095,-0.0378 0.03927,-0.196163 0.04687,-0.234375 0.0076,-0.03822 0.04116,-0.242712 0.04687,-0.28125 0.0057,-0.03854 0.04306,-0.195603 0.04687,-0.234375 0.0037,-0.03878 -0.002,-0.242337 0,-0.28125 0.0019,-0.03891 0,-0.195416 0,-0.234375 0,-0.03896 0.0019,-0.195462 0,-0.234375 -0.002,-0.03891 0.0037,-0.242478 0,-0.28125 -0.0037,-0.03878 -0.04116,-0.195837 -0.04687,-0.234375 -0.0057,-0.03854 -0.03927,-0.243038 -0.04687,-0.28125 -0.0076,-0.03822 -0.03741,-0.196581 -0.04687,-0.234375 -0.0095,-0.0378 -0.03557,-0.19709 -0.04687,-0.234375 -0.01125,-0.03729 -0.08062,-0.19769 -0.09375,-0.234375 -0.01305,-0.03669 -0.07884,-0.198377 -0.09375,-0.234375 -0.01485,-0.036 -0.0771,-0.199149 -0.09375,-0.234375 -0.01665,-0.03522 -0.122265,-0.200007 -0.140625,-0.234375 -0.01836,-0.03437 -0.07372,-0.200949 -0.09375,-0.234375 -0.02003,-0.03342 -0.11898,-0.155096 -0.140625,-0.1875 -0.02165,-0.0324 -0.11742,-0.20307 -0.140625,-0.234375 -0.02321,-0.03131 -0.162786,-0.15737 -0.1875,-0.1875 -0.02472,-0.03014 -0.114465,-0.158618 -0.140625,-0.1875 -0.02616,-0.02889 -0.159951,-0.159935 -0.1875,-0.1875 L 51.291088,12.143284 c -0.02745,-0.02781 -0.158721,-0.161078 -0.1875,-0.1875 -0.02878,-0.02642 -0.157456,-0.11565 -0.1875,-0.140625 -0.03005,-0.02497 -0.156264,-0.16403 -0.1875,-0.1875 -0.03123,-0.02347 -0.155146,-0.118725 -0.1875,-0.140625 -0.03236,-0.0219 -0.200983,-0.12033 -0.234375,-0.140625 -0.03339,-0.02029 -0.200025,-0.07512 -0.234375,-0.09375 -0.03435,-0.01863 -0.19915,-0.123705 -0.234375,-0.140625 -0.03522,-0.01692 -0.19836,-0.07859 -0.234375,-0.09375 -0.03601,-0.01516 -0.197658,-0.08037 -0.234375,-0.09375 -0.03672,-0.01335 -0.197044,-0.0822 -0.234375,-0.09375 -0.03733,-0.01155 -0.196521,-0.03717 -0.234375,-0.04687 -0.03786,-0.0098 -0.196089,-0.08592 -0.234375,-0.09375 -0.03828,-0.0078 -0.242623,-0.04093 -0.28125,-0.04687 -0.03863,-0.006 -0.195504,0.0041 -0.234375,0 -0.03887,-0.004 -0.195351,-0.04474 -0.234375,-0.04687 -0.03903,-0.0021 -0.242169,2.02e-4 -0.28125,0 h -19.6875 c -0.0221,-0.0021 -0.08574,0.003 -0.140625,0 -0.12807,-0.0069 -0.276331,0 -0.328125,0 -0.074,0 -0.441954,-0.0069 -0.515625,0 z m 12.796875,11.8125 c 2.973945,0 5.34375,2.370682 5.34375,5.34375 0,2.973069 -2.369805,5.34375 -5.34375,5.34375 -2.973945,0 -5.34375,-2.370681 -5.34375,-5.34375 0,-2.973068 2.369805,-5.34375 5.34375,-5.34375 z m -18.890625,30.1875 a 1.3976995,1.3976995 0 0 0 -1.265625,1.40625 v 10.59375 H 9.0098381 a 1.3976995,1.3976995 0 0 0 -1.40625,1.40625 v 12 a 1.3976995,1.3976995 0 0 0 1.40625,1.40625 H 19.603588 v 10.59375 a 1.3976995,1.3976995 0 0 0 1.40625,1.40625 h 12 a 1.3976995,1.3976995 0 0 0 1.40625,-1.40625 v -10.59375 h 10.59375 a 1.3976995,1.3976995 0 0 0 1.40625,-1.40625 v -12 a 1.3976995,1.3976995 0 0 0 -1.40625,-1.40625 h -10.59375 v -10.59375 a 1.3976995,1.3976995 0 0 0 -1.40625,-1.40625 h -12 a 1.3976995,1.3976995 0 0 0 -0.140625,0 z"
       id="path3928"
       style="display:inline;opacity:0.15;fill:#000000;fill-opacity:1;stroke:none;stroke-width:1.5" />
    <path
       d="m 27.103588,12.002659 a 3.7811569,3.7802237 0 0 0 -3.09375,3.796875 v 19.828125 a 3.7811569,3.7802237 0 0 0 1.125,2.671875 l 35.578125,35.578125 a 3.7811569,3.7802237 0 0 0 5.34375,0 L 85.884838,54.049534 a 3.7811569,3.7802237 0 0 0 0,-5.34375 L 50.306713,13.127659 a 3.7811569,3.7802237 0 0 0 -2.671875,-1.125 H 27.806713 a 3.7811569,3.7802237 0 0 0 -0.703125,0 z m 12.65625,9 c 3.72899,0 6.75,3.021931 6.75,6.75 0,3.72807 -3.02101,6.75 -6.75,6.75 -3.728989,0 -6.75,-3.02193 -6.75,-6.75 0,-3.728069 3.021011,-6.75 6.75,-6.75 z m -18.75,33 v 12 H 9.0098381 v 12 H 21.009838 v 12 h 12 v -12 h 12 v -12 h -12 v -12 z"
       inkscape:connector-curvature="0"
       id="path3922"
       style="display:inline;opacity:0.3;fill:#000000;fill-opacity:1;stroke:none;stroke-width:1.5" />
    <rect
       width="16"
       height="16"
       x="0"
       y="104"
       transform="matrix(0,1,1,0,0,0)"
       id="rect3897"
       style="color:#000000;fill:url(#linearGradient3905);fill-opacity:1;fill-rule:nonzero;stroke:none;stroke-width:2;marker:none;visibility:visible;display:inline;overflow:visible;enable-background:accumulate" />
    <text
       x="104"
       y="48"
       id="text3907"
       xml:space="preserve"
       style="font-size:4px;font-style:normal;font-variant:normal;font-weight:normal;font-stretch:normal;text-align:start;line-height:125%;letter-spacing:0px;word-spacing:0px;writing-mode:lr-tb;text-anchor:start;fill:#000000;fill-opacity:1;stroke:none;font-family:Liberation Sans;-inkscape-font-specification:Liberation Sans"><tspan
         x="104"
         y="48"
         id="tspan3909">Shadow opacity : 30, 15, 10, (8)</tspan></text>
    <rect
       width="16"
       height="16"
       x="-40"
       y="104"
       transform="matrix(0,-1,1,0,0,0)"
       id="rect3911"
       style="color:#000000;fill:url(#linearGradient3913);fill-opacity:1;fill-rule:nonzero;stroke:none;stroke-width:2;marker:none;visibility:visible;display:inline;overflow:visible;enable-background:accumulate" />
    <text
       x="124"
       y="32"
       id="text3951"
       xml:space="preserve"
       style="font-size:4px;font-style:normal;font-variant:normal;font-weight:normal;font-stretch:normal;text-align:start;line-height:125%;letter-spacing:0px;word-spacing:0px;writing-mode:lr-tb;text-anchor:start;fill:#000000;fill-opacity:1;stroke:none;font-family:Liberation Sans;-inkscape-font-specification:Liberation Sans"><tspan
         x="124"
         y="32"
         id="tspan3953">Bevel opacity : 30 / 10</tspan></text>
    <text
       x="124"
       y="8"
       id="text3955"
       xml:space="preserve"
       style="font-size:4px;font-style:normal;font-variant:normal;font-weight:normal;font-stretch:normal;text-align:start;line-height:125%;letter-spacing:0px;word-spacing:0px;writing-mode:lr-tb;text-anchor:start;fill:#000000;fill-opacity:1;stroke:none;font-family:Liberation Sans;-inkscape-font-specification:Liberation Sans"><tspan
         x="124"
         y="8"
         id="tspan3957">Bevel opacity : 75 / 15</tspan></text>
    <path
       d="m 27.103588,10.502659 a 3.7811569,3.7802237 0 0 0 -3.09375,3.796875 v 19.828125 a 3.7811569,3.7802237 0 0 0 1.125,2.671875 l 35.578125,35.578125 a 3.7811569,3.7802237 0 0 0 5.34375,0 L 85.884838,52.549534 a 3.7811569,3.7802237 0 0 0 0,-5.34375 L 50.306713,11.627659 a 3.7811569,3.7802237 0 0 0 -2.671875,-1.125 H 27.806713 a 3.7811569,3.7802237 0 0 0 -0.703125,0 z m 12.65625,9 c 3.72899,0 6.75,3.021931 6.75,6.75 0,3.72807 -3.02101,6.75 -6.75,6.75 -3.728989,0 -6.75,-3.02193 -6.75,-6.75 0,-3.728069 3.021011,-6.75 6.75,-6.75 z m -18.75,33 v 12 H 9.0098381 v 12 H 21.009838 v 12 h 12 v -12 h 12 v -12 h -12 v -12 z"
       inkscape:connector-curvature="0"
       id="path3102"
       style="display:inline;fill:url(#linearGradient3133);fill-opacity:1;stroke:none;stroke-width:1.5" />
    <path
       d="m 27.103588,10.502659 a 3.7811569,3.7802237 0 0 0 -3.09375,3.796875 v 1.078125 a 3.7811569,3.7802237 0 0 1 3.09375,-3.375 3.7811569,3.7802237 0 0 1 0.703125,0 h 19.828125 a 3.7811569,3.7802237 0 0 1 2.671875,1.125 l 35.578125,35.578125 a 3.7811569,3.7802237 0 0 1 1.03125,1.875 3.7811569,3.7802237 0 0 0 -1.03125,-3.375 L 50.306713,11.627659 a 3.7811569,3.7802237 0 0 0 -2.671875,-1.125 H 27.806713 a 3.7811569,3.7802237 0 0 0 -0.703125,0 z m 6,16.5 c -0.0281,0.250164 -0.09375,0.492324 -0.09375,0.75 0,3.72807 3.021011,6.75 6.75,6.75 3.72899,0 6.75,-3.02193 6.75,-6.75 0,-0.257676 -0.06565,-0.499836 -0.09375,-0.75 -0.37846,3.369229 -3.184999,6 -6.65625,6 -3.47125,0 -6.277789,-2.630771 -6.65625,-6 z m -12.09375,25.5 v 1.5 h 12 v -1.5 z m -11.9999999,12 v 1.5 H 21.009838 v -1.5 z m 23.9999999,0 v 1.5 h 12 v -1.5 z"
       inkscape:connector-curvature="0"
       id="path3136"
       style="display:inline;opacity:0.75;fill:#ffffff;fill-opacity:1;stroke:none;stroke-width:1.5" />
    <path
       d="m 39.759838,18.002659 c -3.728989,0 -6.75,3.021931 -6.75,6.75 0,0.257676 0.06565,0.499836 0.09375,0.75 0.378461,-3.369228 3.185,-6 6.65625,-6 3.471251,0 6.27779,2.630772 6.65625,6 0.0281,-0.250164 0.09375,-0.492324 0.09375,-0.75 0,-3.728069 -3.02101,-6.75 -6.75,-6.75 z m -15.75,15 v 1.125 a 3.7811569,3.7802237 0 0 0 1.125,2.671875 l 35.578125,35.578125 a 3.7811569,3.7802237 0 0 0 5.34375,0 L 85.884838,52.549534 a 3.7811569,3.7802237 0 0 0 1.03125,-3.46875 3.7811569,3.7802237 0 0 1 -1.03125,1.96875 L 66.056713,70.877659 a 3.7811569,3.7802237 0 0 1 -5.34375,0 L 25.134838,35.299534 a 3.7811569,3.7802237 0 0 1 -1.125,-2.296875 z m -14.9999999,42 v 1.5 H 21.009838 v -1.5 z m 23.9999999,0 v 1.5 h 12 v -1.5 z m -12,12 v 1.5 h 12 v -1.5 z"
       inkscape:connector-curvature="0"
       id="path3913"
       style="display:inline;opacity:0.15;fill:#000000;fill-opacity:1;stroke:none;stroke-width:1.5" />
  </g>
</svg>
