<?xml version="1.0" encoding="UTF-8" standalone="no"?>
<!-- Created with Inkscape (http://www.inkscape.org/) -->

<svg
   version="1.0"
   width="96"
   height="96"
   id="svg2408"
   sodipodi:docname="visualization.svg"
   inkscape:version="1.2.2 (b0a8486541, 2022-12-01)"
   xmlns:inkscape="http://www.inkscape.org/namespaces/inkscape"
   xmlns:sodipodi="http://sodipodi.sourceforge.net/DTD/sodipodi-0.dtd"
   xmlns:xlink="http://www.w3.org/1999/xlink"
   xmlns="http://www.w3.org/2000/svg"
   xmlns:svg="http://www.w3.org/2000/svg"
   xmlns:rdf="http://www.w3.org/1999/02/22-rdf-syntax-ns#"
   xmlns:cc="http://creativecommons.org/ns#"
   xmlns:dc="http://purl.org/dc/elements/1.1/">
  <sodipodi:namedview
     id="namedview22131"
     pagecolor="#ffffff"
     bordercolor="#666666"
     borderopacity="1.0"
     inkscape:showpageshadow="2"
     inkscape:pageopacity="0.0"
     inkscape:pagecheckerboard="0"
     inkscape:deskcolor="#d1d1d1"
     showgrid="false"
     inkscape:zoom="2.4583333"
     inkscape:cx="31.525424"
     inkscape:cy="48"
     inkscape:window-width="1872"
     inkscape:window-height="1011"
     inkscape:window-x="48"
     inkscape:window-y="0"
     inkscape:window-maximized="1"
     inkscape:current-layer="layer6" />
  <defs
     id="defs2410">
    <linearGradient
       id="linearGradient3637">
      <stop
         id="stop3639"
         style="stop-color:#f0f0f0;stop-opacity:1"
         offset="0" />
      <stop
         id="stop3641"
         style="stop-color:#aaaaaa;stop-opacity:1"
         offset="1" />
    </linearGradient>
    <linearGradient
       x1="45.447727"
       y1="92.539597"
       x2="45.447727"
       y2="7.0165396"
       id="ButtonShadow"
       gradientUnits="userSpaceOnUse"
       gradientTransform="scale(1.0058652,0.994169)">
      <stop
         id="stop3750"
         style="stop-color:#000000;stop-opacity:1"
         offset="0" />
      <stop
         id="stop3752"
         style="stop-color:#000000;stop-opacity:0.58823532"
         offset="1" />
    </linearGradient>
    <linearGradient
       id="linearGradient3737">
      <stop
         id="stop3739"
         style="stop-color:#ffffff;stop-opacity:1"
         offset="0" />
      <stop
         id="stop3741"
         style="stop-color:#ffffff;stop-opacity:0"
         offset="1" />
    </linearGradient>
    <linearGradient
       id="linearGradient3700">
      <stop
         id="stop3702"
         style="stop-color:#2276c5;stop-opacity:1"
         offset="0" />
      <stop
         id="stop3704"
         style="stop-color:#68baf4;stop-opacity:1"
         offset="1" />
    </linearGradient>
    <filter
       color-interpolation-filters="sRGB"
       id="filter3174"
       x="-0.047720931"
       y="-0.048282354"
       width="1.0954419"
       height="1.0965647">
      <feGaussianBlur
         id="feGaussianBlur3176"
         stdDeviation="1.71" />
    </filter>
    <linearGradient
       x1="36.357143"
       y1="6"
       x2="36.357143"
       y2="63.893143"
       id="linearGradient3188"
       xlink:href="#linearGradient3737"
       gradientUnits="userSpaceOnUse" />
    <filter
       x="-0.19578789"
       y="-0.19578789"
       width="1.3915758"
       height="1.3915758"
       color-interpolation-filters="sRGB"
       id="filter3794">
      <feGaussianBlur
         id="feGaussianBlur3796"
         stdDeviation="5.28" />
    </filter>
    <linearGradient
       x1="48"
       y1="20.220806"
       x2="48"
       y2="138.66119"
       id="linearGradient3613"
       xlink:href="#linearGradient3737"
       gradientUnits="userSpaceOnUse" />
    <radialGradient
       cx="48"
       cy="90.171875"
       r="42"
       fx="48"
       fy="90.171875"
       id="radialGradient3619"
       xlink:href="#linearGradient3737"
       gradientUnits="userSpaceOnUse"
       gradientTransform="matrix(1.1573129,0,0,0.99590774,-7.5510206,0.19713193)" />
    <clipPath
       id="clipPath3613">
      <rect
         width="84"
         height="84"
         rx="6"
         ry="6"
         x="6"
         y="6"
         id="rect3615"
         style="fill:#ffffff;fill-opacity:1;fill-rule:nonzero;stroke:none" />
    </clipPath>
    <linearGradient
       x1="48"
       y1="90"
       x2="48"
       y2="5.9877172"
       id="linearGradient2843"
       xlink:href="#linearGradient3700"
       gradientUnits="userSpaceOnUse"
       gradientTransform="translate(0,100)" />
    <clipPath
       id="clipPath3625">
      <path
         d="M 0,0 0,96 96,96 96,0 0,0 z m 12,6 72,0 c 3.324,0 6,2.676 6,6 l 0,72 c 0,3.324 -2.676,6 -6,6 L 12,90 C 8.676,90 6,87.324 6,84 L 6,12 C 6,8.676 8.676,6 12,6 z"
         inkscape:connector-curvature="0"
         id="path3627"
         style="fill:#ffffff;fill-opacity:1;stroke:none" />
    </clipPath>
    <linearGradient
       x1="44.512066"
       y1="6"
       x2="44.512066"
       y2="90.015434"
       id="linearGradient3643"
       xlink:href="#linearGradient3637"
       gradientUnits="userSpaceOnUse" />
    <clipPath
       id="clipPath3649">
      <rect
         width="76"
         height="76"
         rx="4"
         ry="4"
         x="10"
         y="10"
         id="rect3651"
         style="fill:#ffffff;fill-opacity:1;fill-rule:nonzero;stroke:none" />
    </clipPath>
    <filter
       color-interpolation-filters="sRGB"
       id="filter3657"
       x="-0.035076923"
       y="-0.035076923"
       width="1.0701538"
       height="1.0701538">
      <feGaussianBlur
         id="feGaussianBlur3659"
         stdDeviation="1.14" />
    </filter>
    <linearGradient
       x1="45.447727"
       y1="92.539597"
       x2="45.447727"
       y2="7.0165396"
       id="ButtonShadow-0"
       gradientUnits="userSpaceOnUse"
       gradientTransform="matrix(1.0058652,0,0,0.994169,100,0)">
      <stop
         id="stop3750-8"
         style="stop-color:#000000;stop-opacity:1"
         offset="0" />
      <stop
         id="stop3752-5"
         style="stop-color:#000000;stop-opacity:0.58823532"
         offset="1" />
    </linearGradient>
    <linearGradient
       x1="32.251034"
       y1="6.1317081"
       x2="32.251034"
       y2="90.238609"
       id="linearGradient3780"
       xlink:href="#ButtonShadow-0"
       gradientUnits="userSpaceOnUse"
       gradientTransform="matrix(1.0238095,0,0,-1.0119048,-1.1428571,98.071429)" />
    <linearGradient
       x1="32.251034"
       y1="6.1317081"
       x2="32.251034"
       y2="90.238609"
       id="linearGradient3772"
       xlink:href="#ButtonShadow-0"
       gradientUnits="userSpaceOnUse"
       gradientTransform="matrix(1.0238095,0,0,-1.0119048,-1.1428571,98.071429)" />
    <linearGradient
       x1="32.251034"
       y1="6.1317081"
       x2="32.251034"
       y2="90.238609"
       id="linearGradient3725"
       xlink:href="#ButtonShadow-0"
       gradientUnits="userSpaceOnUse"
       gradientTransform="matrix(1.0238095,0,0,-1.0119048,-1.1428571,98.071429)" />
    <linearGradient
       x1="32.251034"
       y1="6.1317081"
       x2="32.251034"
       y2="90.238609"
       id="linearGradient3721"
       xlink:href="#ButtonShadow-0"
       gradientUnits="userSpaceOnUse"
       gradientTransform="matrix(1,0,0,-1,0,97)" />
    <linearGradient
       x1="32.251034"
       y1="6.1317081"
       x2="32.251034"
       y2="90.238609"
       id="linearGradient3199"
       xlink:href="#ButtonShadow-0"
       gradientUnits="userSpaceOnUse"
       gradientTransform="matrix(1.0238095,0,0,-1.0119048,-1.1428571,98.071429)" />
    <linearGradient
       x1="36.357143"
       y1="6"
       x2="36.357143"
       y2="63.893143"
       id="linearGradient3188-8"
       xlink:href="#linearGradient3737-3"
       gradientUnits="userSpaceOnUse" />
    <linearGradient
       id="linearGradient3737-3">
      <stop
         id="stop3739-6"
         style="stop-color:#ffffff;stop-opacity:1"
         offset="0" />
      <stop
         id="stop3741-1"
         style="stop-color:#ffffff;stop-opacity:0"
         offset="1" />
    </linearGradient>
    <radialGradient
       cx="48"
       cy="90.171875"
       r="42"
       fx="48"
       fy="90.171875"
       id="radialGradient3619-3"
       xlink:href="#linearGradient3737-3"
       gradientUnits="userSpaceOnUse"
       gradientTransform="matrix(1.1573129,0,0,0.99590774,-7.551021,0.1971319)" />
    <linearGradient
       x1="104"
       y1="8"
       x2="120"
       y2="8"
       id="linearGradient3905"
       xlink:href="#linearGradient3637"
       gradientUnits="userSpaceOnUse"
       gradientTransform="translate(-104,104)" />
    <linearGradient
       x1="104"
       y1="8"
       x2="120"
       y2="8"
       id="linearGradient3913"
       xlink:href="#linearGradient3183-0"
       gradientUnits="userSpaceOnUse"
       gradientTransform="translate(-144,104)" />
    <linearGradient
       id="linearGradient3183-0">
      <stop
         id="stop3185-9"
         style="stop-color:#c80000;stop-opacity:1"
         offset="0" />
      <stop
         id="stop3187-6"
         style="stop-color:#f3604d;stop-opacity:1"
         offset="1" />
    </linearGradient>
    <linearGradient
       x1="11"
       y1="2"
       x2="11"
       y2="20.027756"
       id="linearGradient3042"
       xlink:href="#linearGradient3637"
       gradientUnits="userSpaceOnUse"
       gradientTransform="matrix(4.7410082,0,0,4.7410082,-4.1510931,-4.5929302)" />
  </defs>
  <metadata
     id="metadata2413">
    <rdf:RDF>
      <cc:Work
         rdf:about="">
        <dc:format>image/svg+xml</dc:format>
        <dc:type
           rdf:resource="http://purl.org/dc/dcmitype/StillImage" />
        <dc:title />
      </cc:Work>
    </rdf:RDF>
  </metadata>
  <g
     id="layer2"
     style="display:none">
    <rect
       width="86"
       height="85"
       rx="6"
       ry="6"
       x="5"
       y="7"
       clip-path="url(#clipPath3625)"
       id="rect3745"
       style="opacity:0.9;fill:url(#ButtonShadow);fill-opacity:1;fill-rule:nonzero;stroke:none;filter:url(#filter3174)" />
  </g>
  <g
     id="layer3"
     style="display:none">
    <path
       d="M 12,3.96875 C 6.4889098,3.96875 1.96875,8.4889098 1.96875,14 v 71 c 0,5.51109 4.5201597,10.03125 10.03125,10.03125 h 72 c 5.51109,0 10.03125,-4.52016 10.03125,-10.03125 V 14 C 94.03125,8.4889097 89.51109,3.96875 84,3.96875 Z M 12,6 h 72 c 3.324,0 6,2.676 6,6 v 72 c 0,3.324 -2.676,6 -6,6 H 12 C 8.676,90 6,87.324 6,84 V 12 C 6,8.676 8.676,6 12,6 Z"
       inkscape:connector-curvature="0"
       id="path3786"
       style="display:inline;opacity:0.08;fill:url(#linearGradient3199);fill-opacity:1;fill-rule:nonzero;stroke:none" />
    <path
       d="M 12,4.96875 C 7.0283671,4.96875 2.96875,9.0283671 2.96875,14 v 71 c 0,4.971633 4.059617,9.03125 9.03125,9.03125 h 72 c 4.971633,0 9.03125,-4.059617 9.03125,-9.03125 V 14 C 93.03125,9.028367 88.971633,4.96875 84,4.96875 Z M 12,6 h 72 c 3.324,0 6,2.676 6,6 v 72 c 0,3.324 -2.676,6 -6,6 H 12 C 8.676,90 6,87.324 6,84 V 12 C 6,8.676 8.676,6 12,6 Z"
       inkscape:connector-curvature="0"
       id="path3778"
       style="display:inline;opacity:0.1;fill:url(#linearGradient3780);fill-opacity:1;fill-rule:nonzero;stroke:none" />
    <path
       d="M 11.1875,6.03125 C 7.159982,6.4419011 4,9.8664375 4,14 v 71 c 0,4.409133 3.590867,8 8,8 h 72 c 4.409133,0 8,-3.590867 8,-8 V 14 C 92,9.8029382 88.741028,6.3539584 84.625,6.03125 87.657886,6.337417 90,8.88375 90,12 v 72 c 0,3.324 -2.676,6 -6,6 H 12 C 8.676,90 6,87.324 6,84 V 12 c 0,-3.11625 2.342114,-5.662583 5.375,-5.96875 -0.06227,0.00488 -0.12563,-0.00631 -0.1875,0 z"
       inkscape:connector-curvature="0"
       id="path3770"
       style="display:inline;opacity:0.2;fill:url(#linearGradient3772);fill-opacity:1;fill-rule:nonzero;stroke:none" />
    <path
       d="M 6.4375,9.75 C 5.5380109,10.927446 5,12.397277 5,14 v 71 c 0,3.878 3.122,7 7,7 h 72 c 3.878,0 7,-3.122 7,-7 V 14 C 91,12.397277 90.461989,10.927446 89.5625,9.75 89.841816,10.444095 90,11.203625 90,12 v 72 c 0,3.324 -2.676,6 -6,6 H 12 C 8.676,90 6,87.324 6,84 V 12 C 6,11.203625 6.1581836,10.444095 6.4375,9.75 Z"
       inkscape:connector-curvature="0"
       id="rect3723"
       style="display:inline;opacity:0.3;fill:url(#linearGradient3725);fill-opacity:1;fill-rule:nonzero;stroke:none" />
    <path
       d="m 6,84 v 1 c 0,3.324 2.676,6 6,6 h 72 c 3.324,0 6,-2.676 6,-6 v -1 c 0,3.324 -2.676,6 -6,6 H 12 C 8.676,90 6,87.324 6,84 Z"
       inkscape:connector-curvature="0"
       id="rect3716"
       style="display:inline;opacity:0.45;fill:url(#linearGradient3721);fill-opacity:1;fill-rule:nonzero;stroke:none" />
  </g>
  <g
     id="layer1"
     style="display:none">
    <rect
       width="84"
       height="84"
       rx="6"
       ry="6"
       x="6"
       y="6"
       id="rect2419"
       style="opacity:0.8;fill:#000000;fill-opacity:1;fill-rule:nonzero;stroke:none" />
    <path
       d="m 14,10 c -2.216,0 -4,1.784 -4,4 l 0,68 c 0,2.216 1.784,4 4,4 l 68,0 c 2.216,0 4,-1.784 4,-4 l 0,-68 c 0,-2.216 -1.784,-4 -4,-4 l -68,0 z m 0,3.0625 68,0 c 0.578769,0 0.9375,0.358731 0.9375,0.9375 l 0,68 c 0,0.578769 -0.358731,0.9375 -0.9375,0.9375 l -68,0 c -0.578769,0 -0.9375,-0.358731 -0.9375,-0.9375 l 0,-68 c 0,-0.578769 0.358731,-0.9375 0.9375,-0.9375 z"
       inkscape:connector-curvature="0"
       id="rect3726"
       style="opacity:0.07999998;fill:#000000;fill-opacity:1;fill-rule:nonzero;stroke:none" />
    <path
       d="M 12,6 C 8.676,6 6,8.676 6,12 l 0,72 c 0,3.324 2.676,6 6,6 l 72,0 c 3.324,0 6,-2.676 6,-6 L 90,12 C 90,8.676 87.324,6 84,6 L 12,6 z m 2,4 68,0 c 2.216,0 4,1.784 4,4 l 0,68 c 0,2.216 -1.784,4 -4,4 l -68,0 c -2.216,0 -4,-1.784 -4,-4 l 0,-68 c 0,-2.216 1.784,-4 4,-4 z"
       inkscape:connector-curvature="0"
       id="rect3629"
       style="fill:url(#linearGradient3643);fill-opacity:1;fill-rule:nonzero;stroke:none" />
    <path
       d="M 12,6 C 8.676,6 6,8.676 6,12 l 0,2 0,68 0,2 c 0,0.334721 0.04135,0.6507 0.09375,0.96875 0.0487,0.295596 0.09704,0.596915 0.1875,0.875 0.00988,0.03038 0.020892,0.0636 0.03125,0.09375 0.098865,0.287771 0.2348802,0.547452 0.375,0.8125 0.1445918,0.273507 0.3156161,0.535615 0.5,0.78125 0.1843839,0.245635 0.3737765,0.473472 0.59375,0.6875 0.439947,0.428056 0.94291,0.814526 1.5,1.09375 0.278545,0.139612 0.5734731,0.246947 0.875,0.34375 -0.2562018,-0.100222 -0.4867109,-0.236272 -0.71875,-0.375 -0.00741,-0.0044 -0.023866,0.0045 -0.03125,0 -0.031933,-0.0193 -0.062293,-0.04251 -0.09375,-0.0625 -0.120395,-0.0767 -0.2310226,-0.163513 -0.34375,-0.25 -0.1061728,-0.0808 -0.2132809,-0.161112 -0.3125,-0.25 C 8.4783201,88.557317 8.3087904,88.373362 8.15625,88.1875 8.0486711,88.057245 7.9378561,87.922215 7.84375,87.78125 7.818661,87.74287 7.805304,87.69538 7.78125,87.65625 7.716487,87.553218 7.6510225,87.451733 7.59375,87.34375 7.4927417,87.149044 7.3880752,86.928049 7.3125,86.71875 7.30454,86.69694 7.288911,86.6782 7.28125,86.65625 7.2494249,86.5643 7.2454455,86.469419 7.21875,86.375 7.1884177,86.268382 7.1483606,86.171969 7.125,86.0625 7.0521214,85.720988 7,85.364295 7,85 L 7,83 7,15 7,13 C 7,10.218152 9.2181517,8 12,8 l 2,0 68,0 2,0 c 2.781848,0 5,2.218152 5,5 l 0,2 0,68 0,2 c 0,0.364295 -0.05212,0.720988 -0.125,1.0625 -0.04415,0.206893 -0.08838,0.397658 -0.15625,0.59375 -0.0077,0.02195 -0.0233,0.04069 -0.03125,0.0625 -0.06274,0.173739 -0.138383,0.367449 -0.21875,0.53125 -0.04158,0.0828 -0.07904,0.169954 -0.125,0.25 -0.0546,0.09721 -0.126774,0.18835 -0.1875,0.28125 -0.09411,0.140965 -0.204921,0.275995 -0.3125,0.40625 -0.143174,0.17445 -0.303141,0.346998 -0.46875,0.5 -0.01117,0.0102 -0.01998,0.02115 -0.03125,0.03125 -0.138386,0.125556 -0.285091,0.234436 -0.4375,0.34375 -0.102571,0.07315 -0.204318,0.153364 -0.3125,0.21875 -0.0074,0.0045 -0.02384,-0.0044 -0.03125,0 -0.232039,0.138728 -0.462548,0.274778 -0.71875,0.375 0.301527,-0.0968 0.596455,-0.204138 0.875,-0.34375 0.55709,-0.279224 1.060053,-0.665694 1.5,-1.09375 0.219973,-0.214028 0.409366,-0.441865 0.59375,-0.6875 0.184384,-0.245635 0.355408,-0.507743 0.5,-0.78125 0.14012,-0.265048 0.276135,-0.524729 0.375,-0.8125 0.01041,-0.03078 0.02133,-0.06274 0.03125,-0.09375 0.09046,-0.278085 0.1388,-0.579404 0.1875,-0.875 C 89.95865,84.6507 90,84.334721 90,84 l 0,-2 0,-68 0,-2 C 90,8.676 87.324,6 84,6 L 12,6 z"
       inkscape:connector-curvature="0"
       id="rect3728"
       style="fill:url(#linearGradient3188);fill-opacity:1;fill-rule:nonzero;stroke:none" />
    <path
       d="M 12,90 C 8.676,90 6,87.324 6,84 L 6,82 6,14 6,12 c 0,-0.334721 0.04135,-0.6507 0.09375,-0.96875 0.0487,-0.295596 0.09704,-0.596915 0.1875,-0.875 C 6.29113,10.12587 6.302142,10.09265 6.3125,10.0625 6.411365,9.774729 6.5473802,9.515048 6.6875,9.25 6.8320918,8.976493 7.0031161,8.714385 7.1875,8.46875 7.3718839,8.223115 7.5612765,7.995278 7.78125,7.78125 8.221197,7.353194 8.72416,6.966724 9.28125,6.6875 9.559795,6.547888 9.8547231,6.440553 10.15625,6.34375 9.9000482,6.443972 9.6695391,6.580022 9.4375,6.71875 c -0.00741,0.0044 -0.023866,-0.0045 -0.03125,0 -0.031933,0.0193 -0.062293,0.04251 -0.09375,0.0625 -0.120395,0.0767 -0.2310226,0.163513 -0.34375,0.25 -0.1061728,0.0808 -0.2132809,0.161112 -0.3125,0.25 C 8.4783201,7.442683 8.3087904,7.626638 8.15625,7.8125 8.0486711,7.942755 7.9378561,8.077785 7.84375,8.21875 7.818661,8.25713 7.805304,8.30462 7.78125,8.34375 7.716487,8.446782 7.6510225,8.548267 7.59375,8.65625 7.4927417,8.850956 7.3880752,9.071951 7.3125,9.28125 7.30454,9.30306 7.288911,9.3218 7.28125,9.34375 7.2494249,9.4357 7.2454455,9.530581 7.21875,9.625 7.1884177,9.731618 7.1483606,9.828031 7.125,9.9375 7.0521214,10.279012 7,10.635705 7,11 l 0,2 0,68 0,2 c 0,2.781848 2.2181517,5 5,5 l 2,0 68,0 2,0 c 2.781848,0 5,-2.218152 5,-5 l 0,-2 0,-68 0,-2 C 89,10.635705 88.94788,10.279012 88.875,9.9375 88.83085,9.730607 88.78662,9.539842 88.71875,9.34375 88.71105,9.3218 88.69545,9.30306 88.6875,9.28125 88.62476,9.107511 88.549117,8.913801 88.46875,8.75 88.42717,8.6672 88.38971,8.580046 88.34375,8.5 88.28915,8.40279 88.216976,8.31165 88.15625,8.21875 88.06214,8.077785 87.951329,7.942755 87.84375,7.8125 87.700576,7.63805 87.540609,7.465502 87.375,7.3125 87.36383,7.3023 87.35502,7.29135 87.34375,7.28125 87.205364,7.155694 87.058659,7.046814 86.90625,6.9375 86.803679,6.86435 86.701932,6.784136 86.59375,6.71875 c -0.0074,-0.0045 -0.02384,0.0044 -0.03125,0 -0.232039,-0.138728 -0.462548,-0.274778 -0.71875,-0.375 0.301527,0.0968 0.596455,0.204138 0.875,0.34375 0.55709,0.279224 1.060053,0.665694 1.5,1.09375 0.219973,0.214028 0.409366,0.441865 0.59375,0.6875 0.184384,0.245635 0.355408,0.507743 0.5,0.78125 0.14012,0.265048 0.276135,0.524729 0.375,0.8125 0.01041,0.03078 0.02133,0.06274 0.03125,0.09375 0.09046,0.278085 0.1388,0.579404 0.1875,0.875 C 89.95865,11.3493 90,11.665279 90,12 l 0,2 0,68 0,2 c 0,3.324 -2.676,6 -6,6 l -72,0 z"
       inkscape:connector-curvature="0"
       id="path3615"
       style="opacity:0.6;fill:url(#radialGradient3619);fill-opacity:1;fill-rule:nonzero;stroke:none" />
    <rect
       width="84"
       height="84"
       rx="6"
       ry="6"
       x="6"
       y="106"
       id="rect2841"
       style="fill:url(#linearGradient2843);fill-opacity:1;fill-rule:nonzero;stroke:none" />
    <rect
       width="76"
       height="76"
       rx="4"
       ry="4"
       x="10"
       y="110"
       id="rect3634"
       style="fill:#ff0000;fill-opacity:1;fill-rule:nonzero;stroke:none" />
    <path
       d="m 14,9 c -2.752703,0 -5,2.247297 -5,5 l 0,68 c 0,2.752703 2.247297,5 5,5 l 68,0 c 2.752703,0 5,-2.247297 5,-5 L 87,14 C 87,11.247297 84.752703,9 82,9 L 14,9 z m 0,2 68,0 c 1.679297,0 3,1.320703 3,3 l 0,68 c 0,1.679297 -1.320703,3 -3,3 l -68,0 c -1.679297,0 -3,-1.320703 -3,-3 l 0,-68 c 0,-1.679297 1.320703,-3 3,-3 z"
       inkscape:connector-curvature="0"
       transform="translate(-110,0)"
       clip-path="url(#clipPath3649)"
       id="rect3647"
       style="font-size:medium;font-style:normal;font-variant:normal;font-weight:normal;font-stretch:normal;text-indent:0;text-align:start;text-decoration:none;line-height:normal;letter-spacing:normal;word-spacing:normal;text-transform:none;direction:ltr;block-progression:tb;writing-mode:lr-tb;text-anchor:start;color:#000000;fill:#000000;fill-opacity:1;stroke:none;stroke-width:2;marker:none;visibility:visible;display:inline;overflow:visible;filter:url(#filter3657);enable-background:accumulate;font-family:Abandoned Bitplane;-inkscape-font-specification:Abandoned Bitplane" />
    <path
       d="m 14.089286,10 c -2.216,0 -4,1.784 -4,4 l 0,68 c 0,2.216 1.784,4 4,4 l 68,0 c 2.216,0 4,-1.784 4,-4 l 0,-68 c 0,-2.216 -1.784,-4 -4,-4 l -68,0 z m 0,2 68,0 c 1.140301,0 2,0.859699 2,2 l 0,68 c 0,1.140301 -0.859699,2 -2,2 l -68,0 c -1.140301,0 -2,-0.859699 -2,-2 l 0,-68 c 0,-1.140301 0.859699,-2 2,-2 z"
       inkscape:connector-curvature="0"
       id="path3709"
       style="opacity:0.16000001;fill:#000000;fill-opacity:1;fill-rule:nonzero;stroke:none" />
    <path
       d="m 14,10 c -2.216,0 -4,1.784 -4,4 l 0,68 c 0,2.216 1.784,4 4,4 l 68,0 c 2.216,0 4,-1.784 4,-4 l 0,-68 c 0,-2.216 -1.784,-4 -4,-4 l -68,0 z m 0,1 68,0 c 1.673848,0 3,1.326152 3,3 l 0,68 c 0,1.673848 -1.326152,3 -3,3 l -68,0 c -1.673848,0 -3,-1.326152 -3,-3 l 0,-68 c 0,-1.673848 1.326152,-3 3,-3 z"
       inkscape:connector-curvature="0"
       id="path3707"
       style="opacity:0.36000001;fill:#000000;fill-opacity:1;fill-rule:nonzero;stroke:none" />
  </g>
  <g
     id="layer4"
     style="display:none">
    <rect
       width="84"
       height="84"
       rx="6"
       ry="6"
       x="6"
       y="6"
       id="rect2419-9"
       style="display:inline;opacity:0.6;fill:#000000;fill-opacity:1;fill-rule:nonzero;stroke:none" />
    <path
       d="M 12,6 C 8.676,6 6,8.676 6,12 v 2 68 2 c 0,0.334721 0.04135,0.6507 0.09375,0.96875 0.0487,0.295596 0.09704,0.596915 0.1875,0.875 0.00988,0.03038 0.020892,0.0636 0.03125,0.09375 0.098865,0.287771 0.2348802,0.547452 0.375,0.8125 0.1445918,0.273507 0.3156161,0.535615 0.5,0.78125 0.1843839,0.245635 0.3737765,0.473472 0.59375,0.6875 0.439947,0.428056 0.94291,0.814526 1.5,1.09375 0.278545,0.139612 0.5734731,0.246947 0.875,0.34375 -0.2562018,-0.100222 -0.4867109,-0.236272 -0.71875,-0.375 -0.00741,-0.0044 -0.023866,0.0045 -0.03125,0 -0.031933,-0.0193 -0.062293,-0.04251 -0.09375,-0.0625 -0.120395,-0.0767 -0.2310226,-0.163513 -0.34375,-0.25 -0.1061728,-0.0808 -0.2132809,-0.161112 -0.3125,-0.25 C 8.4783201,88.557317 8.3087904,88.373362 8.15625,88.1875 8.0486711,88.057245 7.9378561,87.922215 7.84375,87.78125 7.818661,87.74287 7.805304,87.69538 7.78125,87.65625 7.716487,87.553218 7.6510225,87.451733 7.59375,87.34375 7.4927417,87.149044 7.3880752,86.928049 7.3125,86.71875 7.30454,86.69694 7.288911,86.6782 7.28125,86.65625 7.2494249,86.5643 7.2454455,86.469419 7.21875,86.375 7.1884177,86.268382 7.1483606,86.171969 7.125,86.0625 7.0521214,85.720988 7,85.364295 7,85 V 83 15 13 C 7,10.218152 9.2181517,8 12,8 h 2 68 2 c 2.781848,0 5,2.218152 5,5 v 2 68 2 c 0,0.364295 -0.05212,0.720988 -0.125,1.0625 -0.04415,0.206893 -0.08838,0.397658 -0.15625,0.59375 -0.0077,0.02195 -0.0233,0.04069 -0.03125,0.0625 -0.06274,0.173739 -0.138383,0.367449 -0.21875,0.53125 -0.04158,0.0828 -0.07904,0.169954 -0.125,0.25 -0.0546,0.09721 -0.126774,0.18835 -0.1875,0.28125 -0.09411,0.140965 -0.204921,0.275995 -0.3125,0.40625 -0.143174,0.17445 -0.303141,0.346998 -0.46875,0.5 -0.01117,0.0102 -0.01998,0.02115 -0.03125,0.03125 -0.138386,0.125556 -0.285091,0.234436 -0.4375,0.34375 -0.102571,0.07315 -0.204318,0.153364 -0.3125,0.21875 -0.0074,0.0045 -0.02384,-0.0044 -0.03125,0 -0.232039,0.138728 -0.462548,0.274778 -0.71875,0.375 0.301527,-0.0968 0.596455,-0.204138 0.875,-0.34375 0.55709,-0.279224 1.060053,-0.665694 1.5,-1.09375 0.219973,-0.214028 0.409366,-0.441865 0.59375,-0.6875 0.184384,-0.245635 0.355408,-0.507743 0.5,-0.78125 0.14012,-0.265048 0.276135,-0.524729 0.375,-0.8125 0.01041,-0.03078 0.02133,-0.06274 0.03125,-0.09375 0.09046,-0.278085 0.1388,-0.579404 0.1875,-0.875 C 89.95865,84.6507 90,84.334721 90,84 V 82 14 12 C 90,8.676 87.324,6 84,6 Z"
       inkscape:connector-curvature="0"
       id="rect3728-4"
       style="display:inline;opacity:0.01;fill:url(#linearGradient3188-8);fill-opacity:1;fill-rule:nonzero;stroke:none" />
    <path
       d="M 12,90 C 8.676,90 6,87.324 6,84 V 82 14 12 c 0,-0.334721 0.04135,-0.6507 0.09375,-0.96875 0.0487,-0.295596 0.09704,-0.596915 0.1875,-0.875 C 6.29113,10.12587 6.302142,10.09265 6.3125,10.0625 6.411365,9.774729 6.5473802,9.515048 6.6875,9.25 6.8320918,8.976493 7.0031161,8.714385 7.1875,8.46875 7.3718839,8.223115 7.5612765,7.995278 7.78125,7.78125 8.221197,7.353194 8.72416,6.966724 9.28125,6.6875 9.559795,6.547888 9.8547231,6.440553 10.15625,6.34375 9.9000482,6.443972 9.6695391,6.580022 9.4375,6.71875 c -0.00741,0.0044 -0.023866,-0.0045 -0.03125,0 -0.031933,0.0193 -0.062293,0.04251 -0.09375,0.0625 -0.120395,0.0767 -0.2310226,0.163513 -0.34375,0.25 -0.1061728,0.0808 -0.2132809,0.161112 -0.3125,0.25 C 8.4783201,7.442683 8.3087904,7.626638 8.15625,7.8125 8.0486711,7.942755 7.9378561,8.077785 7.84375,8.21875 7.818661,8.25713 7.805304,8.30462 7.78125,8.34375 7.716487,8.446782 7.6510225,8.548267 7.59375,8.65625 7.4927417,8.850956 7.3880752,9.071951 7.3125,9.28125 7.30454,9.30306 7.288911,9.3218 7.28125,9.34375 7.2494249,9.4357 7.2454455,9.530581 7.21875,9.625 7.1884177,9.731618 7.1483606,9.828031 7.125,9.9375 7.0521214,10.279012 7,10.635705 7,11 v 2 68 2 c 0,2.781848 2.2181517,5 5,5 h 2 68 2 c 2.781848,0 5,-2.218152 5,-5 V 81 13 11 C 89,10.635705 88.94788,10.279012 88.875,9.9375 88.83085,9.730607 88.78662,9.539842 88.71875,9.34375 88.71105,9.3218 88.69545,9.30306 88.6875,9.28125 88.62476,9.107511 88.549117,8.913801 88.46875,8.75 88.42717,8.6672 88.38971,8.580046 88.34375,8.5 88.28915,8.40279 88.216976,8.31165 88.15625,8.21875 88.06214,8.077785 87.951329,7.942755 87.84375,7.8125 87.700576,7.63805 87.540609,7.465502 87.375,7.3125 87.36383,7.3023 87.35502,7.29135 87.34375,7.28125 87.205364,7.155694 87.058659,7.046814 86.90625,6.9375 86.803679,6.86435 86.701932,6.784136 86.59375,6.71875 c -0.0074,-0.0045 -0.02384,0.0044 -0.03125,0 -0.232039,-0.138728 -0.462548,-0.274778 -0.71875,-0.375 0.301527,0.0968 0.596455,0.204138 0.875,0.34375 0.55709,0.279224 1.060053,0.665694 1.5,1.09375 0.219973,0.214028 0.409366,0.441865 0.59375,0.6875 0.184384,0.245635 0.355408,0.507743 0.5,0.78125 0.14012,0.265048 0.276135,0.524729 0.375,0.8125 0.01041,0.03078 0.02133,0.06274 0.03125,0.09375 0.09046,0.278085 0.1388,0.579404 0.1875,0.875 C 89.95865,11.3493 90,11.665279 90,12 v 2 68 2 c 0,3.324 -2.676,6 -6,6 z"
       inkscape:connector-curvature="0"
       id="path3615-6"
       style="display:inline;opacity:0.15;fill:url(#radialGradient3619-3);fill-opacity:1;fill-rule:nonzero;stroke:none" />
  </g>
  <g
     id="layer5"
     style="display:none">
    <rect
       width="66"
       height="66"
       rx="12"
       ry="12"
       x="15"
       y="15"
       clip-path="url(#clipPath3613)"
       id="rect3171"
       style="opacity:0.1;fill:url(#linearGradient3613);fill-opacity:1;fill-rule:nonzero;stroke:#ffffff;stroke-width:0.5;stroke-linecap:round;stroke-linejoin:miter;stroke-miterlimit:4;stroke-opacity:1;stroke-dasharray:none;stroke-dashoffset:0;filter:url(#filter3794)" />
  </g>
  <g
     id="layer6"
     style="display:inline">
    <path
       d="m 47.597199,2.9368157 c -2.871008,0.3792068 -2.816155,3.7954651 -3.342492,5.9364519 -1.165646,3.9231354 -2.141659,8.5609444 -5.653386,11.0706814 -4.683059,0.05107 -8.433508,-3.526461 -11.908214,-6.26674 -1.364051,-1.656089 -3.882713,-3.559957 -5.90452,-1.744515 -2.120657,1.699279 -0.505629,4.441966 0.400245,6.31137 1.402883,4.032448 3.516202,8.513932 2.106069,12.799277 -3.826858,2.783063 -9.010174,2.026168 -13.4776166,1.83705 -2.03507,-0.515714 -4.9765708,-0.688785 -5.7672972,1.788155 -0.7290525,2.11613 1.1310753,3.836082 2.9648897,4.471266 4.0073931,2.555698 8.8773641,5.135414 10.5513061,9.850531 -1.673943,4.715116 -6.543913,7.294833 -10.5513076,9.850526 -2.070303,0.621764 -3.9517288,2.84033 -2.7411102,5.008337 1.7445925,2.837389 5.3008535,0.887838 7.8994098,1.078801 3.725054,0.202718 9.579675,-0.888956 11.488837,3.083749 0.597851,5.392874 -2.101378,10.43107 -3.94756,15.306142 -0.478285,2.842161 3.444759,4.687855 5.325918,2.506315 3.790338,-3.331467 7.880156,-7.292911 13.115388,-7.852675 3.821676,1.818866 4.698041,6.808093 5.944359,10.518959 0.813493,2.225778 0.295362,5.995959 3.362816,6.553372 2.359696,0.494976 3.879327,-1.919029 3.83641,-4.012099 1.197523,-4.570919 2.125919,-9.988772 6.099336,-12.995034 4.68306,-0.05107 8.433509,3.52646 11.908214,6.26674 1.364051,1.656089 3.882714,3.559957 5.90452,1.744515 2.120657,-1.699278 0.505629,-4.441965 -0.400245,-6.31137 -1.402883,-4.032449 -3.516202,-8.513932 -2.106069,-12.799277 3.826858,-2.783063 9.010174,-2.026168 13.477616,-1.83705 2.035071,0.515713 4.976571,0.688785 5.767298,-1.788155 0.729052,-2.11613 -1.131076,-3.836082 -2.96489,-4.471267 -4.007393,-2.555697 -8.877364,-5.135413 -10.551306,-9.850529 1.673943,-4.715117 6.543913,-7.294835 10.551307,-9.850528 2.070304,-0.621764 3.951729,-2.840329 2.741111,-5.008336 C 89.981642,31.29409 86.425381,33.24364 83.826825,33.052678 80.101771,32.84996 74.24715,33.941635 72.337988,29.968929 71.740137,24.576054 74.439366,19.537858 76.285548,14.662787 76.763833,11.820626 72.840789,9.9749317 70.95963,12.156472 67.169292,15.487938 63.079474,19.449381 57.844244,20.009146 54.016022,18.183962 53.137942,13.182801 51.895243,9.4622142 51.118584,7.2166411 51.557292,3.3633087 48.402801,2.9368157 c -0.268434,0.00372 -0.537337,-0.0043 -0.805602,0 z M 48,33.057344 C 57.428482,32.743904 65.486934,42.14997 63.749724,51.419767 62.619242,60.762511 52.146543,67.282935 43.257214,64.208133 34.204214,61.69947 29.309331,50.409258 33.635963,42.077094 36.190403,36.640182 41.98752,32.985793 48,33.057344 Z"
       inkscape:connector-curvature="0"
       id="path3897"
       style="color:#000000;display:inline;overflow:visible;visibility:visible;opacity:0.1;fill:#000000;fill-opacity:1;fill-rule:nonzero;stroke:none;stroke-width:0.429654;marker:none;enable-background:accumulate" />
    <path
       d="M 47.731466,4.5927734 A 1.4414497,1.4414498 0 0 0 46.56782,5.8011749 c 0,0 -0.602325,3.6336904 -1.924491,7.4741881 -0.661084,1.920249 -1.486131,3.849694 -2.461559,5.370673 -0.975427,1.520979 -2.085362,2.538539 -3.088137,2.86436 -1.005981,0.326863 -2.481157,0.157516 -4.162272,-0.492312 -1.681116,-0.649829 -3.531146,-1.709953 -5.191651,-2.864359 -3.321011,-2.308814 -5.907741,-4.878362 -5.907741,-4.878362 a 1.4414497,1.4414498 0 0 0 -2.327292,1.655957 c 0,0 1.616644,3.300805 2.774848,7.160899 0.579101,1.930046 1.024311,3.978112 1.11889,5.773474 0.09458,1.795361 -0.182422,3.259785 -0.805601,4.117516 -0.619561,0.852752 -1.921946,1.602069 -3.66996,2.058758 -1.748014,0.456689 -3.876952,0.637349 -5.907741,0.671335 -4.061577,0.06797 -7.697966,-0.492312 -7.697966,-0.492312 a 1.4414497,1.4414498 0 0 0 -0.8951123,2.730092 c 0,0 3.3134579,1.697905 6.5790753,4.162272 1.63281,1.232183 3.232732,2.667017 4.38605,4.072761 1.153319,1.405745 1.790225,2.753029 1.790225,3.804228 0,1.051197 -0.636906,2.398482 -1.790225,3.804227 -1.153318,1.405744 -2.75324,2.840577 -4.38605,4.072761 -3.2656174,2.464366 -6.5790753,4.162272 -6.5790753,4.162272 a 1.4414497,1.4414498 0 0 0 0.8951123,2.730092 c 0,0 3.636389,-0.560283 7.697966,-0.492312 2.030789,0.03399 4.159727,0.214645 5.907741,0.671335 1.748014,0.456688 3.050399,1.206005 3.66996,2.058758 0.623179,0.85773 0.900181,2.322154 0.805601,4.117516 -0.09458,1.795362 -0.539789,3.843427 -1.11889,5.773474 -1.158204,3.860094 -2.774848,7.160899 -2.774848,7.160899 a 1.4414497,1.4414498 0 0 0 2.327292,1.655957 c 0,0 2.58673,-2.569548 5.907741,-4.878362 1.660505,-1.154407 3.510535,-2.21453 5.191651,-2.864359 1.681115,-0.649828 3.156291,-0.819175 4.162272,-0.492312 1.002772,0.325821 2.112711,1.34338 3.088137,2.86436 0.975426,1.520978 1.800475,3.450424 2.461559,5.370673 1.322168,3.840499 1.924491,7.474188 1.924491,7.474188 a 1.4414497,1.4414498 0 0 0 2.86436,0 c 0,0 0.602325,-3.633691 1.924491,-7.474188 0.661085,-1.920249 1.486132,-3.849695 2.461559,-5.370673 0.975428,-1.52098 2.085364,-2.538539 3.088137,-2.86436 1.005983,-0.326863 2.481157,-0.157516 4.162272,0.492312 1.681116,0.649829 3.531147,1.709952 5.191651,2.864359 3.321012,2.308814 5.907741,4.878362 5.907741,4.878362 a 1.4414497,1.4414498 0 0 0 2.327292,-1.655957 c 0,0 -1.616644,-3.300805 -2.774848,-7.160899 -0.579101,-1.930047 -1.02431,-3.978112 -1.11889,-5.773474 -0.09458,-1.795362 0.182422,-3.259786 0.805601,-4.117516 0.619561,-0.852753 1.921945,-1.60207 3.66996,-2.058758 1.748016,-0.45669 3.876954,-0.637349 5.907741,-0.671335 4.061577,-0.06797 7.697966,0.492312 7.697966,0.492312 a 1.4414497,1.4414498 0 0 0 0.895112,-2.730092 c 0,0 -3.313458,-1.697906 -6.579075,-4.162272 -1.632809,-1.232184 -3.232732,-2.667017 -4.38605,-4.072761 -1.153319,-1.405745 -1.790225,-2.75303 -1.790225,-3.804227 0,-1.051199 0.636906,-2.398483 1.790225,-3.804228 1.153318,-1.405744 2.753241,-2.840578 4.38605,-4.072761 3.265617,-2.464367 6.579075,-4.162272 6.579075,-4.162272 A 1.4414497,1.4414498 0 0 0 88.682853,34.22099 c 0,0 -3.636389,0.560283 -7.697966,0.492312 -2.030787,-0.03399 -4.159725,-0.214646 -5.907741,-0.671335 -1.748015,-0.456689 -3.050399,-1.206006 -3.66996,-2.058758 -0.623179,-0.857731 -0.90018,-2.322155 -0.805601,-4.117516 0.09458,-1.795362 0.539789,-3.843428 1.11889,-5.773474 1.158204,-3.860094 2.774848,-7.160899 2.774848,-7.160899 a 1.4414497,1.4414498 0 0 0 -2.327292,-1.655957 c 0,0 -2.586729,2.569548 -5.907741,4.878362 -1.660504,1.154406 -3.510535,2.21453 -5.191651,2.864359 -1.681115,0.649828 -3.156289,0.819175 -4.162272,0.492312 C 55.903592,21.184575 54.793658,20.167015 53.81823,18.646036 52.842803,17.125057 52.017756,15.195612 51.356671,13.275363 50.034505,9.4348653 49.43218,5.8011749 49.43218,5.8011749 A 1.4414497,1.4414498 0 0 0 47.731466,4.5927734 Z M 48,31.446142 c 9.693475,0 17.544201,7.850726 17.544201,17.544201 0,9.693474 -7.850726,17.5442 -17.544201,17.5442 -9.693474,0 -17.544201,-7.850726 -17.544201,-17.5442 0,-9.693475 7.850727,-17.544201 17.544201,-17.544201 z"
       inkscape:connector-curvature="0"
       id="path3892"
       style="color:#000000;display:inline;overflow:visible;visibility:visible;opacity:0.15;fill:#000000;fill-opacity:1;fill-rule:nonzero;stroke:none;stroke-width:0.429654;marker:none;enable-background:accumulate" />
    <path
       d="m 48,6.024953 c 0,0 -2.477407,14.95088 -8.444922,16.889842 -5.967509,1.938965 -16.741685,-8.593078 -16.741685,-8.593078 0,0 6.651254,13.443296 2.963129,18.519566 -3.688123,5.076269 -18.6677199,2.814972 -18.6677199,2.814972 0,0 13.4822409,7.059475 13.4822429,13.334088 0,6.274611 -13.4822429,13.334086 -13.4822429,13.334086 0,0 14.9795969,-2.261296 18.6677199,2.814974 3.688125,5.076269 -2.963129,18.519564 -2.963129,18.519564 0,0 10.774176,-10.532043 16.741685,-8.593078 C 45.522587,77.004851 48,91.955732 48,91.955732 c 0,0 2.477408,-14.950881 8.444922,-16.889843 5.967514,-1.938965 16.741688,8.593078 16.741688,8.593078 0,0 -6.651255,-13.443295 -2.963131,-18.519564 3.688126,-5.07627 18.667719,-2.814974 18.667719,-2.814974 0,0 -13.48224,-7.059475 -13.48224,-13.334086 0,-6.274613 13.48224,-13.334088 13.48224,-13.334088 0,0 -14.979593,2.261297 -18.667719,-2.814972 -3.688126,-5.07627 2.963131,-18.519566 2.963131,-18.519566 0,0 -10.774174,10.532043 -16.741686,8.593078 C 50.477408,20.975833 48,6.024953 48,6.024953 Z m 0,24.001356 c 10.473547,0 18.964034,8.490487 18.964034,18.964034 0,10.473546 -8.490487,18.964033 -18.964034,18.964033 -10.473547,0 -18.964033,-8.490487 -18.964033,-18.964033 0,-10.473547 8.490486,-18.964034 18.964033,-18.964034 z"
       inkscape:connector-curvature="0"
       id="path3886"
       style="color:#000000;display:inline;overflow:visible;visibility:visible;opacity:0.3;fill:#000000;fill-opacity:1;fill-rule:nonzero;stroke:none;stroke-width:0.429654;marker:none;enable-background:accumulate" />
    <rect
       width="16"
       height="16"
       x="0"
       y="104"
       transform="matrix(0,1,1,0,0,0)"
       id="rect3897"
       style="color:#000000;fill:url(#linearGradient3905);fill-opacity:1;fill-rule:nonzero;stroke:none;stroke-width:2;marker:none;visibility:visible;display:inline;overflow:visible;enable-background:accumulate" />
    <text
       x="104"
       y="48"
       id="text3907"
       xml:space="preserve"
       style="font-size:4px;font-style:normal;font-variant:normal;font-weight:normal;font-stretch:normal;text-align:start;line-height:125%;letter-spacing:0px;word-spacing:0px;writing-mode:lr-tb;text-anchor:start;fill:#000000;fill-opacity:1;stroke:none;font-family:Liberation Sans;-inkscape-font-specification:Liberation Sans"><tspan
         x="104"
         y="48"
         id="tspan3909">Shadow opacity : 30, 15, 10, (8)</tspan></text>
    <rect
       width="16"
       height="16"
       x="-40"
       y="104"
       transform="matrix(0,-1,1,0,0,0)"
       id="rect3911"
       style="color:#000000;fill:url(#linearGradient3913);fill-opacity:1;fill-rule:nonzero;stroke:none;stroke-width:2;marker:none;visibility:visible;display:inline;overflow:visible;enable-background:accumulate" />
    <text
       x="124"
       y="32"
       id="text3951"
       xml:space="preserve"
       style="font-size:4px;font-style:normal;font-variant:normal;font-weight:normal;font-stretch:normal;text-align:start;line-height:125%;letter-spacing:0px;word-spacing:0px;writing-mode:lr-tb;text-anchor:start;fill:#000000;fill-opacity:1;stroke:none;font-family:Liberation Sans;-inkscape-font-specification:Liberation Sans"><tspan
         x="124"
         y="32"
         id="tspan3953">Bevel opacity : 30 / 10</tspan></text>
    <text
       x="124"
       y="8"
       id="text3955"
       xml:space="preserve"
       style="font-size:4px;font-style:normal;font-variant:normal;font-weight:normal;font-stretch:normal;text-align:start;line-height:125%;letter-spacing:0px;word-spacing:0px;writing-mode:lr-tb;text-anchor:start;fill:#000000;fill-opacity:1;stroke:none;font-family:Liberation Sans;-inkscape-font-specification:Liberation Sans"><tspan
         x="124"
         y="8"
         id="tspan3957">Bevel opacity : 75 / 15</tspan></text>
    <path
       d="m 48,4.5927734 c 0,0 -2.477407,14.9508796 -8.444922,16.8898416 -5.967509,1.938965 -16.741685,-8.593078 -16.741685,-8.593078 0,0 6.651254,13.443297 2.963129,18.519566 -3.688123,5.076269 -18.6677199,2.814973 -18.6677199,2.814973 0,0 13.4822409,7.059474 13.4822429,13.334087 0,6.274611 -13.4822429,13.334086 -13.4822429,13.334086 0,0 14.9795969,-2.261295 18.6677199,2.814974 3.688125,5.076269 -2.963129,18.519565 -2.963129,18.519565 0,0 10.774176,-10.532043 16.741685,-8.593078 C 45.522587,75.572672 48,90.523552 48,90.523552 c 0,0 2.477408,-14.95088 8.444922,-16.889842 5.967514,-1.938965 16.741688,8.593078 16.741688,8.593078 0,0 -6.651255,-13.443296 -2.963131,-18.519565 3.688126,-5.076269 18.667719,-2.814974 18.667719,-2.814974 0,0 -13.48224,-7.059475 -13.48224,-13.334086 0,-6.274613 13.48224,-13.334087 13.48224,-13.334087 0,0 -14.979593,2.261296 -18.667719,-2.814973 -3.688126,-5.076269 2.963131,-18.519566 2.963131,-18.519566 0,0 -10.774174,10.532043 -16.741686,8.593078 C 50.477408,19.543653 48,4.5927734 48,4.5927734 Z m 0,24.0013556 c 10.473547,0 18.964034,8.490487 18.964034,18.964034 0,10.473547 -8.490487,18.964033 -18.964034,18.964033 -10.473547,0 -18.964033,-8.490486 -18.964033,-18.964033 0,-10.473547 8.490486,-18.964034 18.964033,-18.964034 z"
       inkscape:connector-curvature="0"
       id="path2880"
       style="color:#000000;display:inline;overflow:visible;visibility:visible;fill:url(#linearGradient3042);fill-opacity:1;fill-rule:nonzero;stroke:none;stroke-width:0.429654;marker:none;enable-background:accumulate" />
    <path
       d="m 48,4.5927734 c 0,0 -2.491297,14.9339046 -8.458811,16.8728666 -5.96751,1.938965 -16.7386,-8.593078 -16.7386,-8.593078 0,0 0.473734,0.93846 1.074135,2.372048 2.427956,2.228099 10.580954,9.304945 15.664465,7.65321 C 45.508703,20.958857 48,6.024953 48,6.024953 c 0,0 2.491297,14.933904 8.458811,16.872867 5.083513,1.651735 13.23651,-5.425111 15.664465,-7.65321 0.600401,-1.433588 1.074135,-2.372048 1.074135,-2.372048 0,0 -10.771086,10.532043 -16.7386,8.593078 C 50.491297,19.526678 48,4.5927734 48,4.5927734 Z M 26.87535,27.820937 c -0.07653,1.396338 -0.427366,2.628648 -1.11889,3.580449 -3.688123,5.076269 -18.6630911,2.819604 -18.6630911,2.819604 0,0 1.2650113,0.693625 2.9538701,1.745469 4.53935,0.373963 13.040274,0.5406 15.709221,-3.132893 0.922031,-1.269068 1.223803,-3.038469 1.11889,-5.012629 z m 42.2493,0 c -0.104907,1.97416 0.196859,3.743561 1.11889,5.012629 2.66895,3.673493 11.169873,3.506856 15.709221,3.132893 1.688858,-1.051844 2.95387,-1.745469 2.95387,-1.745469 0,0 -14.974965,2.256665 -18.663091,-2.819604 -0.691524,-0.951801 -1.042356,-2.184111 -1.11889,-3.580449 z M 20.520053,48.274253 c -0.962569,6.0793 -13.4266841,12.621083 -13.4266841,12.621083 0,0 1.2204548,-0.170486 2.9538701,-0.313289 3.961641,-2.467362 10.562325,-7.192492 10.562325,-11.591704 0,-0.242348 -0.05084,-0.471852 -0.08951,-0.71609 z m 8.548322,0 c -0.0091,0.241521 -0.04475,0.472338 -0.04475,0.71609 0,10.473546 8.502834,18.97638 18.976381,18.97638 10.473547,0 18.97638,-8.502834 18.97638,-18.97638 0,-0.243752 -0.03563,-0.474569 -0.04475,-0.71609 -0.382559,10.136197 -8.701829,18.26029 -18.931624,18.26029 -10.229796,0 -18.549065,-8.124093 -18.931625,-18.26029 z m 46.411572,0 c -0.03867,0.244238 -0.08951,0.473742 -0.08951,0.71609 0,4.399212 6.600684,9.124342 10.562325,11.591704 1.733415,0.142802 2.95387,0.313289 2.95387,0.313289 0,0 -12.464116,-6.541783 -13.426685,-12.621083 z M 26.87535,68.727568 c -0.314737,5.922478 -4.072761,13.516196 -4.072761,13.516196 0,0 0.651925,-0.552412 1.074135,-0.939868 1.276313,-3.047469 3.224174,-8.461312 2.998626,-12.576328 z m 42.2493,0 c -0.225548,4.115016 1.722313,9.528859 2.998626,12.576328 0.422211,0.387456 1.074135,0.939868 1.074135,0.939868 0,0 -3.758023,-7.593718 -4.072761,-13.516196 z"
       inkscape:connector-curvature="0"
       id="path3868"
       style="color:#000000;display:inline;overflow:visible;visibility:visible;opacity:0.75;fill:#ffffff;fill-opacity:1;fill-rule:nonzero;stroke:none;stroke-width:0.429654;marker:none;enable-background:accumulate" />
    <path
       d="m 22.802589,12.872562 c 0,0 3.758024,7.593717 4.072761,13.516196 0.225548,-4.115016 -1.722313,-9.528859 -2.998626,-12.576328 -0.42221,-0.387456 -1.074135,-0.939868 -1.074135,-0.939868 z m 50.394822,0 c 0,0 -0.651924,0.552412 -1.074135,0.939868 -1.276313,3.047469 -3.224174,8.461312 -2.998626,12.576328 0.314737,-5.922479 4.072761,-13.516196 4.072761,-13.516196 z M 48,27.149603 c -10.473547,0 -18.97638,8.502833 -18.97638,18.97638 0,0.243751 0.03563,0.474568 0.04475,0.71609 0.38256,-10.136197 8.701829,-18.26029 18.931624,-18.26029 10.229796,0 18.549066,8.124093 18.931625,18.26029 0.0091,-0.241522 0.04475,-0.472339 0.04475,-0.71609 0,-10.473547 -8.502834,-18.97638 -18.976381,-18.97638 z M 7.0933689,34.22099 c 0,0 12.4641151,6.541782 13.4266841,12.621083 0.03867,-0.244238 0.08951,-0.473742 0.08951,-0.71609 0,-4.399215 -6.600683,-9.124342 -10.562324,-11.591704 C 8.3138237,34.391477 7.0933689,34.22099 7.0933689,34.22099 Z m 81.8132621,0 c 0,0 -1.220455,0.170485 -2.95387,0.313289 -3.961641,2.467362 -10.562325,7.192489 -10.562325,11.591704 0,0.242348 0.05084,0.471852 0.08951,0.71609 C 76.442515,40.762772 88.906631,34.22099 88.906631,34.22099 Z M 15.059868,58.970844 c -1.881389,-0.03096 -3.609663,0.06345 -5.012629,0.179023 -1.6888588,1.051844 -2.9538701,1.745469 -2.9538701,1.745469 0,0 14.9749681,-2.256666 18.6630911,2.819603 0.691524,0.951801 1.042356,2.184112 1.11889,3.58045 0.104907,-1.97416 -0.196859,-3.743562 -1.11889,-5.012629 -1.844061,-2.538135 -6.490676,-3.242706 -10.696592,-3.311916 z m 65.880264,0 c -4.205914,0.0692 -8.852529,0.773781 -10.696592,3.311916 -0.922031,1.269067 -1.223803,3.038469 -1.11889,5.012629 0.07653,-1.396338 0.427366,-2.628649 1.11889,-3.58045 3.688126,-5.076269 18.663091,-2.819603 18.663091,-2.819603 0,0 -1.265012,-0.693625 -2.95387,-1.745469 -1.402966,-0.115577 -3.13124,-0.209982 -5.012629,-0.179023 z M 37.124386,71.994728 c -5.034066,0.595567 -11.175977,5.975834 -13.247662,7.876988 -0.600401,1.433587 -1.074135,2.372048 -1.074135,2.372048 0,0 10.77109,-10.532043 16.7386,-8.593078 C 45.508698,75.589648 48,90.523552 48,90.523552 c 0,0 2.491298,-14.933904 8.458811,-16.872866 5.967515,-1.938965 16.7386,8.593078 16.7386,8.593078 0,0 -0.473734,-0.938461 -1.074135,-2.372048 C 69.695321,77.643617 61.542325,70.56677 56.458811,72.218506 50.491298,74.157468 48,89.091373 48,89.091373 c 0,0 -2.491302,-14.933905 -8.458811,-16.872867 -0.745939,-0.24237 -1.551088,-0.326199 -2.416803,-0.223778 z"
       inkscape:connector-curvature="0"
       id="path3877"
       style="color:#000000;display:inline;overflow:visible;visibility:visible;opacity:0.15;fill:#000000;fill-opacity:1;fill-rule:nonzero;stroke:none;stroke-width:0.429654;marker:none;enable-background:accumulate" />
  </g>
</svg>
