<?xml version="1.0" encoding="UTF-8" standalone="no"?>
<svg
   height="96"
   width="96"
   version="1.1"
   id="svg955"
   sodipodi:docname="connect_established.svg"
   inkscape:version="1.2.2 (b0a8486541, 2022-12-01)"
   xmlns:inkscape="http://www.inkscape.org/namespaces/inkscape"
   xmlns:sodipodi="http://sodipodi.sourceforge.net/DTD/sodipodi-0.dtd"
   xmlns:xlink="http://www.w3.org/1999/xlink"
   xmlns="http://www.w3.org/2000/svg"
   xmlns:svg="http://www.w3.org/2000/svg">
  <sodipodi:namedview
     id="namedview957"
     pagecolor="#ffffff"
     bordercolor="#666666"
     borderopacity="1.0"
     inkscape:showpageshadow="2"
     inkscape:pageopacity="0.0"
     inkscape:pagecheckerboard="0"
     inkscape:deskcolor="#d1d1d1"
     showgrid="false"
     inkscape:zoom="2.4583333"
     inkscape:cx="22.169492"
     inkscape:cy="48.20339"
     inkscape:window-width="1870"
     inkscape:window-height="1012"
     inkscape:window-x="50"
     inkscape:window-y="31"
     inkscape:window-maximized="1"
     inkscape:current-layer="svg955" />
  <defs
     id="defs921">
    <linearGradient
       id="c"
       stop-color="#fff">
      <stop
         offset="0"
         id="stop902" />
      <stop
         stop-opacity="0"
         offset="1"
         id="stop904" />
    </linearGradient>
    <linearGradient
       id="b"
       y2="7.0165"
       gradientUnits="userSpaceOnUse"
       x2="45.448"
       gradientTransform="matrix(1.0059 0 0 .99417 100 0)"
       y1="92.54"
       x1="45.448">
      <stop
         offset="0"
         id="stop907" />
      <stop
         stop-opacity=".58824"
         offset="1"
         id="stop909" />
    </linearGradient>
    <linearGradient
       id="h"
       y2="90.239"
       xlink:href="#b"
       gradientUnits="userSpaceOnUse"
       x2="32.251"
       gradientTransform="matrix(1,0,0,-1,0,97)"
       y1="6.1317"
       x1="32.251" />
    <linearGradient
       id="g"
       y2="90.239"
       xlink:href="#b"
       gradientUnits="userSpaceOnUse"
       x2="32.251"
       gradientTransform="matrix(1.0238,0,0,-1.0119,-1.1429,98.071)"
       y1="6.1317"
       x1="32.251" />
    <radialGradient
       id="d"
       xlink:href="#c"
       gradientUnits="userSpaceOnUse"
       cy="90.172"
       cx="48"
       gradientTransform="matrix(1.1573 0 0 .99591 -7.551 .19713)"
       r="42" />
    <linearGradient
       id="f"
       y2="63.893"
       xlink:href="#c"
       gradientUnits="userSpaceOnUse"
       x2="36.357"
       y1="6"
       x1="36.357" />
    <linearGradient
       id="e"
       y2="10.985"
       gradientUnits="userSpaceOnUse"
       x2="31.725"
       gradientTransform="matrix(1.17117,0,0,1.17117,-9.955415,-6.474993)"
       y1="79.814"
       x1="31.725">
      <stop
         stop-color="#aaa"
         offset="0"
         id="stop916" />
      <stop
         stop-color="#f0f0f0"
         offset="1"
         id="stop918" />
    </linearGradient>
  </defs>
  <g
     fill="url(#g)"
     id="g931"
     style="display:none">
    <path
       opacity="0.08"
       d="m 12,3.9688 c -5.5111,0 -10.031,4.5201 -10.031,10.031 v 71 c 0,5.5111 4.5202,10.031 10.031,10.031 h 72 c 5.5111,0 10.031,-4.5202 10.031,-10.031 v -71 C 94.031,8.4885 89.511,3.9688 84,3.9688 Z M 12,6 h 72 c 3.324,0 6,2.676 6,6 v 72 c 0,3.324 -2.676,6 -6,6 H 12 C 8.676,90 6,87.324 6,84 V 12 C 6,8.676 8.676,6 12,6 Z"
       id="path923" />
    <path
       opacity="0.1"
       d="M 12,4.9688 C 7.0284,4.9688 2.9688,9.0284 2.9688,14 v 71 c 0,4.9716 4.0596,9.0312 9.0312,9.0312 h 72 c 4.9716,0 9.0312,-4.0596 9.0312,-9.0312 V 14 c 0,-4.9716 -4.059,-9.0312 -9.031,-9.0312 h -72 z M 12,6 h 72 c 3.324,0 6,2.676 6,6 v 72 c 0,3.324 -2.676,6 -6,6 H 12 C 8.676,90 6,87.324 6,84 V 12 C 6,8.676 8.676,6 12,6 Z"
       id="path925" />
    <path
       opacity="0.2"
       d="M 11.188,6.0312 C 7.16,6.4419 4,9.8664 4,14 v 71 c 0,4.4091 3.5909,8 8,8 h 72 c 4.4091,0 8,-3.5909 8,-8 V 14 C 92,9.8029 88.741,6.354 84.625,6.0312 87.658,6.3374 90,8.8838 90,12 v 72 c 0,3.324 -2.676,6 -6,6 H 12 C 8.676,90 6,87.324 6,84 V 12 c 0,-3.1162 2.3421,-5.6626 5.375,-5.9688 -0.06227,0.00488 -0.12563,-0.00631 -0.1875,0 z"
       id="path927" />
    <path
       opacity="0.3"
       d="M 6.4375,9.75 C 5.538,10.927 5,12.397 5,14 v 71 c 0,3.878 3.122,7 7,7 h 72 c 3.878,0 7,-3.122 7,-7 V 14 C 91,12.397 90.462,10.927 89.562,9.75 89.842,10.444 90,11.204 90,12 v 72 c 0,3.324 -2.676,6 -6,6 H 12 C 8.676,90 6,87.324 6,84 V 12 C 6,11.204 6.1582,10.444 6.4375,9.75 Z"
       id="path929" />
  </g>
  <path
     opacity="0.45"
     d="m 6,84 v 1 c 0,3.324 2.676,6 6,6 h 72 c 3.324,0 6,-2.676 6,-6 v -1 c 0,3.324 -2.676,6 -6,6 H 12 C 8.676,90 6,87.324 6,84 Z"
     fill="url(#h)"
     id="path933"
     style="display:none" />
  <rect
     opacity="0.6"
     rx="6"
     ry="6"
     height="84"
     width="84"
     y="6"
     x="6"
     id="rect935"
     style="display:none" />
  <path
     opacity="0.01"
     d="M 12,6 C 8.676,6 6,8.676 6,12 v 72 c 0,0.33472 0.04135,0.6507 0.09375,0.96875 0.0487,0.2956 0.09704,0.59692 0.1875,0.875 0.00988,0.03038 0.020892,0.0636 0.03125,0.09375 0.098865,0.28777 0.23488,0.54745 0.375,0.8125 0.14459,0.27351 0.31562,0.53562 0.5,0.78125 0.18438,0.24564 0.37378,0.47347 0.59375,0.6875 0.43995,0.42806 0.94291,0.81453 1.5,1.0938 0.27854,0.13961 0.57347,0.24695 0.875,0.34375 -0.2562,-0.10022 -0.48671,-0.23627 -0.71875,-0.375 -0.00741,-0.0044 -0.023866,0.0045 -0.03125,0 -0.0319,-0.019 -0.0622,-0.042 -0.0937,-0.062 -0.1204,-0.077 -0.231,-0.164 -0.3437,-0.25 -0.1062,-0.081 -0.2133,-0.161 -0.3126,-0.25 -0.1778,-0.162 -0.3473,-0.346 -0.4999,-0.531 -0.1075,-0.131 -0.2183,-0.266 -0.3124,-0.407 -0.0251,-0.038 -0.0385,-0.086 -0.0626,-0.125 -0.0647,-0.103 -0.1302,-0.204 -0.1874,-0.312 -0.1011,-0.195 -0.2057,-0.416 -0.2813,-0.625 -0.008,-0.022 -0.0236,-0.041 -0.0313,-0.063 -0.0318,-0.092 -0.0358,-0.187 -0.0624,-0.281 -0.0304,-0.107 -0.0704,-0.203 -0.0938,-0.313 -0.0729,-0.341 -0.125,-0.698 -0.125,-1.062 v -72 c 0,-2.782 2.2182,-5 5,-5 h 72 c 2.7818,0 5,2.2182 5,5 v 72 c 0,0.3643 -0.05212,0.72099 -0.125,1.0625 -0.04415,0.20689 -0.08838,0.39766 -0.15625,0.59375 -0.0077,0.02195 -0.0233,0.04069 -0.03125,0.0625 -0.06274,0.17374 -0.13838,0.36745 -0.21875,0.53125 -0.04158,0.0828 -0.07904,0.16995 -0.125,0.25 -0.0546,0.09721 -0.12677,0.18835 -0.1875,0.28125 -0.09411,0.14096 -0.20492,0.276 -0.3125,0.40625 -0.14317,0.17445 -0.30314,0.347 -0.46875,0.5 -0.01117,0.0102 -0.01998,0.02115 -0.03125,0.03125 -0.13839,0.12556 -0.28509,0.23444 -0.4375,0.34375 -0.10257,0.07315 -0.20432,0.15336 -0.3125,0.21875 -0.0074,0.0045 -0.02384,-0.0044 -0.03125,0 -0.23204,0.13873 -0.46255,0.27478 -0.71875,0.375 0.30153,-0.0968 0.59646,-0.20414 0.875,-0.34375 0.55709,-0.27922 1.0601,-0.66569 1.5,-1.0938 0.21997,-0.21403 0.40937,-0.44186 0.59375,-0.6875 0.18438,-0.24564 0.35541,-0.50774 0.5,-0.78125 0.14012,-0.26505 0.27614,-0.52473 0.375,-0.8125 0.01041,-0.03078 0.02133,-0.06274 0.03125,-0.09375 0.09046,-0.27808 0.1388,-0.5794 0.1875,-0.875 0.053,-0.318 0.094,-0.634 0.094,-0.969 V 12 c 0,-3.324 -2.676,-6 -6,-6 h -72 z"
     fill="url(#f)"
     id="path937"
     style="display:none" />
  <path
     opacity="0.15"
     d="M 12,90 C 8.676,90 6,87.324 6,84 V 12 c 0,-0.33472 0.04135,-0.6507 0.09375,-0.96875 0.0487,-0.2956 0.09704,-0.59692 0.1875,-0.875 0.0099,-0.03 0.0209,-0.063 0.0313,-0.094 0.0989,-0.2873 0.2349,-0.547 0.375,-0.812 0.1446,-0.2735 0.3156,-0.5356 0.5,-0.7812 0.1844,-0.2457 0.3738,-0.4735 0.5937,-0.6876 0.44,-0.428 0.943,-0.8145 1.5,-1.0937 0.2786,-0.1396 0.5735,-0.2469 0.8748,-0.3437 -0.256,0.1002 -0.4865,0.2362 -0.7185,0.375 -0.00741,0.0044 -0.023866,-0.0045 -0.03125,0 -0.031933,0.0193 -0.062293,0.04251 -0.09375,0.0625 -0.1204,0.0767 -0.23102,0.16351 -0.34375,0.25 -0.10617,0.0808 -0.21328,0.16111 -0.3125,0.25 -0.1779,0.1614 -0.3474,0.3453 -0.5,0.5312 -0.1075,0.1303 -0.2183,0.2653 -0.3124,0.4063 -0.0251,0.0383 -0.0385,0.0858 -0.0626,0.125 -0.0647,0.103 -0.1302,0.2045 -0.1874,0.3124 -0.1011,0.1948 -0.2057,0.4158 -0.2813,0.625 -0.008,0.0219 -0.0236,0.0406 -0.0313,0.0626 -0.0318,0.0919 -0.0358,0.1868 -0.0624,0.2812 -0.0304,0.1066 -0.0704,0.203 -0.0938,0.3125 -0.0729,0.3415 -0.125,0.6985 -0.125,1.0625 v 72 c 0,2.7818 2.2182,5 5,5 h 72 c 2.7818,0 5,-2.2182 5,-5 v -72 c 0,-0.364 -0.052,-0.721 -0.125,-1.0625 -0.044,-0.2069 -0.088,-0.3977 -0.156,-0.5937 -0.008,-0.022 -0.024,-0.0407 -0.031,-0.0626 -0.063,-0.1737 -0.139,-0.3674 -0.219,-0.5312 -0.042,-0.0828 -0.079,-0.17 -0.125,-0.25 -0.055,-0.0972 -0.127,-0.1884 -0.188,-0.2812 -0.094,-0.141 -0.205,-0.276 -0.312,-0.4063 -0.143,-0.1745 -0.303,-0.347 -0.469,-0.5 -0.011,-0.0102 -0.02,-0.0211 -0.031,-0.0313 -0.139,-0.1255 -0.285,-0.2344 -0.438,-0.3437 -0.102,-0.0731 -0.204,-0.1534 -0.312,-0.2187 -0.0074,-0.0045 -0.02384,0.0044 -0.03125,0 -0.23204,-0.13873 -0.46255,-0.27478 -0.71875,-0.375 0.30153,0.0968 0.59646,0.20414 0.875,0.34375 0.55709,0.27922 1.0601,0.66569 1.5,1.0938 0.21997,0.21403 0.40937,0.44186 0.59375,0.6875 0.18438,0.24564 0.35541,0.50774 0.5,0.78125 0.14012,0.26505 0.27614,0.52473 0.375,0.8125 0.01041,0.03078 0.02133,0.06274 0.03125,0.09375 0.09046,0.27808 0.1388,0.5794 0.1875,0.875 0.053,0.318 0.094,0.634 0.094,0.969 v 72 c 0,3.324 -2.676,6 -6,6 h -72 z"
     fill="url(#d)"
     id="path939"
     style="display:none" />
  <path
     opacity="0.08"
     d="m 80.173719,6.1023557 c -3.91664,0.043199 -5.91253,3.79262 -8.59378,6.0750303 l -10.45941,10.45941 c -3.56109,0.217672 -7.878,-0.942968 -10.46864,2.26044 -3.3761,3.44851 -6.95929,6.7639 -10.20955,10.29275 -2.11536,1.83807 -0.172445,5.57778 -3.58774,4.81715 -3.31773,1.040442 -5.21716,4.25295 -7.76412,6.43487 -2.3335,2.59493 -5.34807,4.67948 -7.0707,7.73994 -0.933218,2.58193 -0.03353,5.56465 -0.598962,8.11382 -4.90087,4.98303 -10.00207,9.83827 -14.7784004,14.9006 -2.38602,2.72987 -1.77801,7.06901 1.101243,9.18567 2.5684104,2.29398 4.8137704,6.11819 8.8114004,5.4184 3.93718,-0.767169 6.02862,-4.50645 8.89135,-6.96111 l 9.43046,-9.43046 c 3.56057,-0.218192 7.87917,0.944151 10.4676,-2.26135 3.38767,-3.50727 7.05848,-6.82318 10.27494,-10.44524 1.95507,-2.08026 0.256646,-5.26214 3.66041,-4.79076 3.2071,-0.938678 5.00526,-4.06081 7.44627,-6.14562 2.38459,-2.64745 5.42321,-4.80051 7.23346,-7.8884 0.964392,-2.59389 0.04719,-5.60079 0.617162,-8.16803 4.90048,-4.96977 10.00285,-9.81045 14.7784,-14.8603 2.36886,-2.7131 1.82728,-7.06927 -1.060618,-9.18567 -2.4882,-2.1593003 -4.4148,-5.6368003 -8.1211,-5.5627003 z m 4.30625,1.74694 c 0.04226,0.134732 0.07496,-0.055809 0,0 z m -8.6125,0.040625 c 0.134732,-0.042263 -0.05581,-0.074958 0,0 z"
     id="path941"
     style="display:inline;stroke-width:1.3" />
  <path
     opacity="0.1"
     d="m 80.173946,7.3993362 c -1.187342,0 -2.41527,0.46033 -3.33125,1.38125 -0.0082,0.00819 -0.03247,-0.00832 -0.04063,0 l -15.1125,15.1527998 h -6.21556 c -1.223274,-0.0099 -2.4427,0.453544 -3.37194,1.38125 l -10.52194,10.48125 v 0.04062 c -1.85653,1.8447 -1.88604,4.89203 -0.04062,6.74375 -0.851812,-0.85111 -2.02839,-1.43767 -3.37194,-1.42194 0.02307,-2.71e-4 -0.02171,-0.0014 -0.08125,0 -1.27647,0.02514 -2.40786,0.58097 -3.25,1.42194 l -10.5625,10.52194 c -0.927836,0.929266 -1.391,2.1489 -1.38125,3.37194 v 6.21556 l -15.1124998,15.1125 v 0.04063 c -1.84977,1.83794 -1.84977,4.86512 0,6.70306 0.00832,0.0082 -0.00832,0.03245 0,0.04063 l 4.6719398,4.63125 c 1.83794,1.84977 4.86512,1.84977 6.70306,0 h 0.04062 l 15.1125,-15.1125 h 6.21556 c 1.223274,0.0099 2.4427,-0.453544 3.37194,-1.38125 l 10.52194,-10.52194 v -0.0351 c 1.84418,-1.83248 1.87382,-4.86369 0.04062,-6.70306 0.911027,0.910286 2.11991,1.39737 3.37194,1.38125 -0.01551,1.29e-4 0.03085,9.3e-4 0.08125,0 1.180101,-0.02179 2.34715,-0.479791 3.25,-1.38125 l 10.5625,-10.5625 c 0.891813,-0.893204 1.39126,-2.08403 1.38125,-3.33125 v -6.25625 l 15.1125,-15.0722 v -0.04062 c 1.86212,-1.85016 1.86212,-4.89359 0,-6.74375 l -4.6306,-4.6721998 c -0.0083,-0.00858 -0.0322,0.00845 -0.04063,0 -0.9516,-0.9555 -2.21,-1.3806 -3.3722,-1.3806 z"
     id="path943"
     style="stroke-width:1.3" />
  <path
     opacity="0.15"
     d="m 80.173511,8.5711775 c -0.923481,0 -1.84262,0.325 -2.51875,1.015625 l -15.5181,15.5194005 h -6.6625 c -0.947141,-0.0077 -1.86303,0.32032 -2.55944,1.015625 l -10.5209,10.5222 c -1.44443,1.41414 -1.44443,3.70461 0,5.11875 l 12.87806,12.87806 c 0.674648,0.674102 1.6068,1.027884 2.55944,1.015625 0.01287,-1.07e-4 0.02779,2.36e-4 0.04062,0 0.912431,-0.01685 1.80817,-0.346684 2.47806,-1.015625 l 10.5625,-10.5625 c 0.665496,-0.666536 1.023178,-1.57222 1.015625,-2.51875 v -6.70306 l 15.4778,-15.4778 c 1.44443,-1.41414 1.44443,-3.70461 0,-5.11875 l -4.6709,-4.6722005 c -0.7059,-0.7215 -1.6367,-1.0166 -2.5597,-1.0166 z m -42.0472,33.7597005 c -0.9698,0.0195 -1.8382,0.4173 -2.4778,1.0569 l -10.5625,10.52194 c -0.695344,0.696423 -1.023191,1.61239 -1.015625,2.55944 v 6.6625 l -15.4777997,15.5194 c -1.42922,1.39932 -1.42922,3.67887 0,5.07806 l 4.6719397,4.67194 c 1.39932,1.42922 3.67887,1.42922 5.07806,0 l 15.5194,-15.4778 h 6.6625 c 0.947141,0.0077 1.86303,-0.32032 2.55944,-1.015625 l 10.5196,-10.5651 c 1.42922,-1.39932 1.42922,-3.678871 0,-5.07806 l -12.8778,-12.8778 c -0.64584,-0.645294 -1.55116,-1.068106 -2.55944,-1.05625 -0.0137,1.61e-4 -0.02687,-3.31e-4 -0.04062,0 z"
     id="path945"
     style="stroke-width:1.3" />
  <path
     opacity="0.3"
     d="m 80.175015,9.8789168 c -0.596024,0 -1.166048,0.2227292 -1.58444,0.6500002 l -15.8847,15.8847 h -7.23125 c -0.595413,-0.0048 -1.203644,0.229294 -1.625,0.65 l -10.52194,10.52194 c -0.854542,0.836654 -0.854542,2.41332 0,3.25 l 12.8778,12.8778 c 0.429897,0.429546 1.017458,0.66456 1.625,0.65 0.583206,-0.0048 1.171651,-0.237913 1.58444,-0.65 l 10.5625,-10.5625 c 0.420706,-0.421356 0.654758,-0.988962 0.65,-1.58444 v -7.27194 l 15.8444,-15.8431 c 0.854542,-0.836654 0.854542,-2.41332 0,-3.25 l -4.6722,-4.6722 c -0.418327,-0.427271 -1.028976,-0.6500003 -1.625,-0.6500003 z m -42.0056,33.7597002 c -0.583206,0.0048 -1.171651,0.278538 -1.58444,0.690625 l -10.5625,10.5222 c -0.420706,0.421356 -0.654758,1.029587 -0.65,1.625 v 7.23125 l -15.8444,15.8847 c -0.854542,0.836654 -0.854542,2.37276 0,3.20944 l 4.6722,4.6709 c 0.836654,0.854542 2.37276,0.854542 3.20944,0 l 15.8847,-15.8444 h 7.23125 c 0.595413,0.0048 1.203644,-0.229294 1.625,-0.65 l 10.52194,-10.5625 c 0.854542,-0.836654 0.854542,-2.37276 0,-3.20944 l -12.8791,-12.8778 c -0.429897,-0.429546 -1.017458,-0.705198 -1.625,-0.690625 z"
     id="path947"
     style="stroke-width:1.3" />
  <path
     d="m 80.175015,8.8789168 c -0.596024,0 -1.166048,0.222729 -1.58444,0.65 l -15.8847,15.8847002 h -7.23125 c -0.595413,-0.0048 -1.203644,0.229294 -1.625,0.65 l -10.52194,10.52194 c -0.854542,0.836654 -0.854542,2.41332 0,3.25 l 12.8778,12.8778 c 0.429897,0.429546 1.017458,0.66456 1.625,0.65 0.583206,-0.0048 1.171651,-0.237913 1.58444,-0.65 l 10.5625,-10.5625 c 0.420706,-0.421356 0.654758,-0.988962 0.65,-1.58444 v -7.27194 l 15.8444,-15.8431 c 0.854542,-0.836654 0.854542,-2.41332 0,-3.25 l -4.6722,-4.6722002 c -0.418327,-0.427271 -1.028976,-0.65 -1.625,-0.65 z m -42.0056,33.7597002 c -0.583206,0.0048 -1.171651,0.278538 -1.58444,0.690625 l -10.5625,10.5222 c -0.420706,0.421356 -0.654758,1.029587 -0.65,1.625 v 7.23125 l -15.8444,15.8847 c -0.854542,0.836654 -0.854542,2.37276 0,3.20944 l 4.6722,4.6709 c 0.836654,0.854542 2.37276,0.854542 3.20944,0 l 15.8847,-15.8444 h 7.23125 c 0.595413,0.0048 1.203644,-0.229294 1.625,-0.65 l 10.52194,-10.5625 c 0.854542,-0.836654 0.854542,-2.37276 0,-3.20944 l -12.8791,-12.8778 c -0.429897,-0.429546 -1.017458,-0.705198 -1.625,-0.690625 z"
     fill="url(#e)"
     id="path949"
     style="fill:url(#e);stroke-width:1.3" />
  <path
     opacity="0.75"
     d="m 80.171491,9.60443 c -0.596024,0 -1.166048,0.222729 -1.58444,0.65 l -15.8847,15.8847 h -7.23125 c -0.595413,-0.0048 -1.203644,0.229294 -1.625,0.65 l -10.52194,10.52194 c -0.581737,0.569569 -0.779077,1.48642 -0.56875,2.275 0.09863,-0.369772 0.295958,-0.707915 0.56875,-0.975 l 10.5222,-10.5222 c 0.421356,-0.420706 1.029587,-0.65481 1.625,-0.65 h 7.23125 l 15.8847,-15.8847 c 0.418327,-0.427271 0.988364,-0.65 1.58444,-0.65 0.596024,0 1.206673,0.222729 1.625,0.65 l 4.6709,4.6722 c 0.272792,0.267085 0.470119,0.605228 0.56875,0.975 0.210327,-0.788541 0.013,-1.70547 -0.56875,-2.275 l -4.6722,-4.6722 c -0.418327,-0.427271 -1.028976,-0.65 -1.625,-0.65 z m -42.0056,33.7597 c -0.583206,0.0048 -1.171651,0.278538 -1.58444,0.690625 l -10.5625,10.5222 c -0.420706,0.421356 -0.654758,1.029587 -0.65,1.625 v 1.3 c -0.0048,-0.595413 0.229294,-1.203644 0.65,-1.625 l 10.5625,-10.52194 c 0.412724,-0.412087 1.001156,-0.685815 1.58444,-0.690625 0.607542,-0.01456 1.195103,0.261092 1.625,0.690625 l 12.87806,12.87806 c 0.270335,0.264667 0.428831,0.614627 0.528125,0.975 0.230451,-0.786968 0.06512,-1.69416 -0.528125,-2.275 l -12.8778,-12.8778 c -0.4303,-0.429 -1.0179,-0.7046 -1.625,-0.6903 z m -12.7972,20.0681 -15.8444,15.8847 c -0.5837,0.572 -0.7423,1.456 -0.5278,2.2347 0.101504,-0.346619 0.266838,-0.678548 0.528125,-0.934375 l 15.8444,-15.8847 v -1.3 z"
     fill="#ffffff"
     id="path951"
     style="stroke-width:1.3" />
  <path
     opacity="0.14"
     d="m 87.037648,14.449487 c -0.09863,0.369772 -0.295958,0.707915 -0.56875,0.975 l -15.8444,15.8444 v 1.3 l 15.8444,-15.8444 c 0.581737,-0.569569 0.779077,-1.48642 0.56875,-2.275 z m -44.2806,22.3847 c -0.210327,0.788541 -0.013,1.70547 0.56875,2.275 l 12.8778,12.8778 c 0.429897,0.429546 1.017458,0.66456 1.625,0.65 0.583206,-0.0048 1.171651,-0.237913 1.58444,-0.65 l 10.5625,-10.5625 c 0.420706,-0.421356 0.654758,-0.988962 0.65,-1.58444 v -1.3 c 0.0048,0.595413 -0.229294,1.163019 -0.65,1.58444 l -10.5625,10.5625 c -0.412724,0.412087 -1.001156,0.64519 -1.58444,0.65 -0.607542,0.01456 -1.195103,-0.220454 -1.625,-0.65 l -12.87806,-12.87806 c -0.272792,-0.267085 -0.470119,-0.605228 -0.56875,-0.975 z m 10.4403,19.6209 c -0.101504,0.346619 -0.266838,0.678548 -0.528125,0.934375 l -10.5222,10.5625 c -0.421356,0.420706 -1.029587,0.65481 -1.625,0.65 h -7.23125 l -15.8847,15.8444 c -0.836654,0.854542 -2.37276,0.854542 -3.20944,0 l -4.6708998,-4.6722 c -0.2704,-0.2652 -0.429,-0.6149 -0.5278,-0.975 -0.2301,0.7865 -0.065,1.6939 0.5278,2.275 l 4.6721998,4.6722 c 0.836654,0.854542 2.37276,0.854542 3.20944,0 l 15.8847,-15.8444 h 7.23125 c 0.595413,0.0048 1.203644,-0.229294 1.625,-0.65 l 10.52194,-10.5625 c 0.5824,-0.572 0.741,-1.4547 0.5265,-2.2347 z"
     id="path953"
     style="stroke-width:1.3" />
</svg>
