<?xml version="1.0" encoding="UTF-8" standalone="no"?>
<svg
   height="96"
   width="96"
   version="1.1"
   id="svg3681"
   sodipodi:docname="gnome-netstatus-tx.svg"
   inkscape:version="1.2.2 (b0a8486541, 2022-12-01)"
   xmlns:inkscape="http://www.inkscape.org/namespaces/inkscape"
   xmlns:sodipodi="http://sodipodi.sourceforge.net/DTD/sodipodi-0.dtd"
   xmlns:xlink="http://www.w3.org/1999/xlink"
   xmlns="http://www.w3.org/2000/svg"
   xmlns:svg="http://www.w3.org/2000/svg">
  <sodipodi:namedview
     id="namedview3683"
     pagecolor="#ffffff"
     bordercolor="#666666"
     borderopacity="1.0"
     inkscape:showpageshadow="2"
     inkscape:pageopacity="0.0"
     inkscape:pagecheckerboard="0"
     inkscape:deskcolor="#d1d1d1"
     showgrid="false"
     inkscape:zoom="2.4583333"
     inkscape:cx="22.169492"
     inkscape:cy="48.20339"
     inkscape:window-width="1870"
     inkscape:window-height="1012"
     inkscape:window-x="50"
     inkscape:window-y="31"
     inkscape:window-maximized="1"
     inkscape:current-layer="svg3681" />
  <defs
     id="defs3645">
    <linearGradient
       id="d"
       stop-color="#fff">
      <stop
         offset="0"
         id="stop3626" />
      <stop
         stop-opacity="0"
         offset="1"
         id="stop3628" />
    </linearGradient>
    <linearGradient
       id="c"
       y2="7.0165"
       gradientUnits="userSpaceOnUse"
       x2="45.448"
       gradientTransform="matrix(1.0059 0 0 .99417 100 0)"
       y1="92.54"
       x1="45.448">
      <stop
         offset="0"
         id="stop3631" />
      <stop
         stop-opacity=".58824"
         offset="1"
         id="stop3633" />
    </linearGradient>
    <linearGradient
       id="i"
       y2="90.239"
       xlink:href="#c"
       gradientUnits="userSpaceOnUse"
       x2="32.251"
       gradientTransform="matrix(1,0,0,-1,0,97)"
       y1="6.1317"
       x1="32.251" />
    <radialGradient
       id="e"
       xlink:href="#d"
       gradientUnits="userSpaceOnUse"
       cy="90.172"
       cx="48"
       gradientTransform="matrix(1.1573 0 0 .99591 -7.551 .19713)"
       r="42" />
    <linearGradient
       id="h"
       y2="63.893"
       xlink:href="#d"
       gradientUnits="userSpaceOnUse"
       x2="36.357"
       y1="6"
       x1="36.357" />
    <linearGradient
       id="g"
       y2="10.985"
       gradientUnits="userSpaceOnUse"
       x2="31.725"
       gradientTransform="matrix(1.26126,0,0,1.26126,-13.850776,-11.42612)"
       y1="79.814"
       x1="31.725">
      <stop
         stop-color="#aaa"
         offset="0"
         id="stop3639" />
      <stop
         stop-color="#f0f0f0"
         offset="1"
         id="stop3641" />
    </linearGradient>
    <linearGradient
       id="f"
       y2="90.239"
       xlink:href="#c"
       gradientUnits="userSpaceOnUse"
       x2="32.251"
       gradientTransform="matrix(1.0238,0,0,-1.0119,-1.1429,98.071)"
       y1="6.1317"
       x1="32.251" />
  </defs>
  <g
     fill="url(#f)"
     id="g3655"
     style="display:none">
    <path
       opacity="0.08"
       d="m 12,3.9688 c -5.5111,0 -10.031,4.5201 -10.031,10.031 v 71 c 0,5.5111 4.5202,10.031 10.031,10.031 h 72 c 5.5111,0 10.031,-4.5202 10.031,-10.031 v -71 C 94.031,8.4885 89.511,3.9688 84,3.9688 Z M 12,6 h 72 c 3.324,0 6,2.676 6,6 v 72 c 0,3.324 -2.676,6 -6,6 H 12 C 8.676,90 6,87.324 6,84 V 12 C 6,8.676 8.676,6 12,6 Z"
       id="path3647" />
    <path
       opacity="0.1"
       d="M 12,4.9688 C 7.0284,4.9688 2.9688,9.0284 2.9688,14 v 71 c 0,4.9716 4.0596,9.0312 9.0312,9.0312 h 72 c 4.9716,0 9.0312,-4.0596 9.0312,-9.0312 V 14 c 0,-4.9716 -4.059,-9.0312 -9.031,-9.0312 h -72 z M 12,6 h 72 c 3.324,0 6,2.676 6,6 v 72 c 0,3.324 -2.676,6 -6,6 H 12 C 8.676,90 6,87.324 6,84 V 12 C 6,8.676 8.676,6 12,6 Z"
       id="path3649" />
    <path
       opacity="0.2"
       d="M 11.188,6.0312 C 7.16,6.4419 4,9.8664 4,14 v 71 c 0,4.4091 3.5909,8 8,8 h 72 c 4.4091,0 8,-3.5909 8,-8 V 14 C 92,9.8029 88.741,6.354 84.625,6.0312 87.658,6.3374 90,8.8838 90,12 v 72 c 0,3.324 -2.676,6 -6,6 H 12 C 8.676,90 6,87.324 6,84 V 12 c 0,-3.1162 2.3421,-5.6626 5.375,-5.9688 -0.06227,0.00488 -0.12563,-0.00631 -0.1875,0 z"
       id="path3651" />
    <path
       opacity="0.3"
       d="M 6.4375,9.75 C 5.538,10.927 5,12.397 5,14 v 71 c 0,3.878 3.122,7 7,7 h 72 c 3.878,0 7,-3.122 7,-7 V 14 C 91,12.397 90.462,10.927 89.562,9.75 89.842,10.444 90,11.204 90,12 v 72 c 0,3.324 -2.676,6 -6,6 H 12 C 8.676,90 6,87.324 6,84 V 12 C 6,11.204 6.1582,10.444 6.4375,9.75 Z"
       id="path3653" />
  </g>
  <path
     opacity="0.45"
     d="m 6,84 v 1 c 0,3.324 2.676,6 6,6 h 72 c 3.324,0 6,-2.676 6,-6 v -1 c 0,3.324 -2.676,6 -6,6 H 12 C 8.676,90 6,87.324 6,84 Z"
     fill="url(#i)"
     id="path3657"
     style="display:none" />
  <rect
     opacity="0.6"
     rx="6"
     ry="6"
     height="84"
     width="84"
     y="6"
     x="6"
     id="rect3659"
     style="display:none" />
  <path
     opacity="0.01"
     d="M 12,6 C 8.676,6 6,8.676 6,12 v 72 c 0,0.33472 0.04135,0.6507 0.09375,0.96875 0.0487,0.2956 0.09704,0.59692 0.1875,0.875 0.00988,0.03038 0.020892,0.0636 0.03125,0.09375 0.098865,0.28777 0.23488,0.54745 0.375,0.8125 0.14459,0.27351 0.31562,0.53562 0.5,0.78125 0.18438,0.24564 0.37378,0.47347 0.59375,0.6875 0.43995,0.42806 0.94291,0.81453 1.5,1.0938 0.27854,0.13961 0.57347,0.24695 0.875,0.34375 -0.2562,-0.10022 -0.48671,-0.23627 -0.71875,-0.375 -0.00741,-0.0044 -0.023866,0.0045 -0.03125,0 -0.0319,-0.019 -0.0622,-0.042 -0.0937,-0.062 -0.1204,-0.077 -0.231,-0.164 -0.3437,-0.25 -0.1062,-0.081 -0.2133,-0.161 -0.3126,-0.25 -0.1778,-0.162 -0.3473,-0.346 -0.4999,-0.531 -0.1075,-0.131 -0.2183,-0.266 -0.3124,-0.407 -0.0251,-0.038 -0.0385,-0.086 -0.0626,-0.125 -0.0647,-0.103 -0.1302,-0.204 -0.1874,-0.312 -0.1011,-0.195 -0.2057,-0.416 -0.2813,-0.625 -0.008,-0.022 -0.0236,-0.041 -0.0313,-0.063 -0.0318,-0.092 -0.0358,-0.187 -0.0624,-0.281 -0.0304,-0.107 -0.0704,-0.203 -0.0938,-0.313 -0.0729,-0.341 -0.125,-0.698 -0.125,-1.062 v -72 c 0,-2.782 2.2182,-5 5,-5 h 72 c 2.7818,0 5,2.2182 5,5 v 72 c 0,0.3643 -0.05212,0.72099 -0.125,1.0625 -0.04415,0.20689 -0.08838,0.39766 -0.15625,0.59375 -0.0077,0.02195 -0.0233,0.04069 -0.03125,0.0625 -0.06274,0.17374 -0.13838,0.36745 -0.21875,0.53125 -0.04158,0.0828 -0.07904,0.16995 -0.125,0.25 -0.0546,0.09721 -0.12677,0.18835 -0.1875,0.28125 -0.09411,0.14096 -0.20492,0.276 -0.3125,0.40625 -0.14317,0.17445 -0.30314,0.347 -0.46875,0.5 -0.01117,0.0102 -0.01998,0.02115 -0.03125,0.03125 -0.13839,0.12556 -0.28509,0.23444 -0.4375,0.34375 -0.10257,0.07315 -0.20432,0.15336 -0.3125,0.21875 -0.0074,0.0045 -0.02384,-0.0044 -0.03125,0 -0.23204,0.13873 -0.46255,0.27478 -0.71875,0.375 0.30153,-0.0968 0.59646,-0.20414 0.875,-0.34375 0.55709,-0.27922 1.0601,-0.66569 1.5,-1.0938 0.21997,-0.21403 0.40937,-0.44186 0.59375,-0.6875 0.18438,-0.24564 0.35541,-0.50774 0.5,-0.78125 0.14012,-0.26505 0.27614,-0.52473 0.375,-0.8125 0.01041,-0.03078 0.02133,-0.06274 0.03125,-0.09375 0.09046,-0.27808 0.1388,-0.5794 0.1875,-0.875 0.053,-0.318 0.094,-0.634 0.094,-0.969 V 12 c 0,-3.324 -2.676,-6 -6,-6 h -72 z"
     fill="url(#h)"
     id="path3661"
     style="display:none" />
  <path
     opacity="0.15"
     d="M 12,90 C 8.676,90 6,87.324 6,84 V 12 c 0,-0.33472 0.04135,-0.6507 0.09375,-0.96875 0.0487,-0.2956 0.09704,-0.59692 0.1875,-0.875 0.0099,-0.03 0.0209,-0.063 0.0313,-0.094 0.0989,-0.2873 0.2349,-0.547 0.375,-0.812 0.1446,-0.2735 0.3156,-0.5356 0.5,-0.7812 0.1844,-0.2457 0.3738,-0.4735 0.5937,-0.6876 0.44,-0.428 0.943,-0.8145 1.5,-1.0937 0.2786,-0.1396 0.5735,-0.2469 0.8748,-0.3437 -0.256,0.1002 -0.4865,0.2362 -0.7185,0.375 -0.00741,0.0044 -0.023866,-0.0045 -0.03125,0 -0.031933,0.0193 -0.062293,0.04251 -0.09375,0.0625 -0.1204,0.0767 -0.23102,0.16351 -0.34375,0.25 -0.10617,0.0808 -0.21328,0.16111 -0.3125,0.25 -0.1779,0.1614 -0.3474,0.3453 -0.5,0.5312 -0.1075,0.1303 -0.2183,0.2653 -0.3124,0.4063 -0.0251,0.0383 -0.0385,0.0858 -0.0626,0.125 -0.0647,0.103 -0.1302,0.2045 -0.1874,0.3124 -0.1011,0.1948 -0.2057,0.4158 -0.2813,0.625 -0.008,0.0219 -0.0236,0.0406 -0.0313,0.0626 -0.0318,0.0919 -0.0358,0.1868 -0.0624,0.2812 -0.0304,0.1066 -0.0704,0.203 -0.0938,0.3125 -0.0729,0.3415 -0.125,0.6985 -0.125,1.0625 v 72 c 0,2.7818 2.2182,5 5,5 h 72 c 2.7818,0 5,-2.2182 5,-5 v -72 c 0,-0.364 -0.052,-0.721 -0.125,-1.0625 -0.044,-0.2069 -0.088,-0.3977 -0.156,-0.5937 -0.008,-0.022 -0.024,-0.0407 -0.031,-0.0626 -0.063,-0.1737 -0.139,-0.3674 -0.219,-0.5312 -0.042,-0.0828 -0.079,-0.17 -0.125,-0.25 -0.055,-0.0972 -0.127,-0.1884 -0.188,-0.2812 -0.094,-0.141 -0.205,-0.276 -0.312,-0.4063 -0.143,-0.1745 -0.303,-0.347 -0.469,-0.5 -0.011,-0.0102 -0.02,-0.0211 -0.031,-0.0313 -0.139,-0.1255 -0.285,-0.2344 -0.438,-0.3437 -0.102,-0.0731 -0.204,-0.1534 -0.312,-0.2187 -0.0074,-0.0045 -0.02384,0.0044 -0.03125,0 -0.23204,-0.13873 -0.46255,-0.27478 -0.71875,-0.375 0.30153,0.0968 0.59646,0.20414 0.875,0.34375 0.55709,0.27922 1.0601,0.66569 1.5,1.0938 0.21997,0.21403 0.40937,0.44186 0.59375,0.6875 0.18438,0.24564 0.35541,0.50774 0.5,0.78125 0.14012,0.26505 0.27614,0.52473 0.375,0.8125 0.01041,0.03078 0.02133,0.06274 0.03125,0.09375 0.09046,0.27808 0.1388,0.5794 0.1875,0.875 0.053,0.318 0.094,0.634 0.094,0.969 v 72 c 0,3.324 -2.676,6 -6,6 h -72 z"
     fill="url(#e)"
     id="path3663"
     style="display:none" />
  <path
     opacity="0.05"
     d="m 37.844364,38.79706 c -3.49818,10e-4 -5.48996,3.15896 -7.81942,5.26904 -2.87308,2.93104 -5.89386,5.72852 -8.66782,8.74916 -1.87362,2.60484 -1.04559,5.94062 -1.231482,8.92962 0.325416,1.108408 -0.690732,1.66334 -1.336482,2.37104 -4.84988,4.91344 -9.7976202,9.7783 -14.5866002,14.7224 -2.18904,2.3779 -2.28242,6.24708 -0.177086,8.6968 1.61168,1.88846 3.52898,3.63146 5.29368,5.38132 2.3944202,2.27948 6.3274402,2.36866 8.8375002,0.21875 2.57194,-2.25834 4.92002,-4.8482 7.4053,-7.23534 l 8.8697,-8.82098 c 2.74638,-0.110446 5.551,0.284396 8.2411,-0.346556 2.55066,-0.949074 4.07064,-3.37022 6.03764,-5.12232 2.6117,-2.68842 5.36354,-5.29256 7.8883,-8.0332 2.1672,-2.3856 2.1238,-6.202 0.0588,-8.6352 -2.2596,-2.5704 -4.8538,-4.914 -7.2436,-7.3976 -2.569,-2.4948 -4.9798,-5.1688 -7.6636,-7.5362 -1.1452,-0.8484 -2.5438,-1.0486 -3.9046,-1.2096 z"
     id="path3665"
     style="stroke-width:1.4" />
  <path
     opacity="0.1"
     d="m 37.887764,40.10886 c -1.3958,0.028 -2.667,0.6118 -3.5882,1.5316 l -11.375,11.33132 c -1.0136,1.0164 -1.498,2.3828 -1.4868,3.7184 V 63.2965 L 5.2061638,79.6149 v 0.04375 c -2.02272,2.00914 -2.02272,5.29718 0,7.30632 v 0.04375 l 4.9875002,4.9875 h 0.04375 c 2.00914,2.02272 5.29718,2.02272 7.30632,0 0.0088,-0.0088 0.03501,0.009 0.04375,0 l 16.3184,-16.2316 h 6.60632 c 1.33588,0.01078 2.70256,-0.472892 3.71868,-1.4875 l 11.2875,-11.375 v -0.04375 c 2.02272,-2.00914 2.02272,-5.29718 0,-7.30632 -0.0088,-0.0088 0.009,-0.03501 0,-0.04375 l -13.8236,-13.8684 c -0.931112,-0.930342 -2.24952,-1.54854 -3.71868,-1.53132 0.02731,-3.22e-4 -0.02036,-0.0017 -0.0875,0 z"
     id="path3667"
     style="stroke-width:1.4" />
  <path
     opacity="0.15"
     d="m 37.931164,41.46546 c -1.0444,0.021 -1.9796,0.4494 -2.6684,1.1382 l -11.375,11.33132 c -0.748832,0.749994 -1.101898,1.73642 -1.09375,2.75632 v 7.175 L 6.1256138,80.5795 c -1.53916,1.50696 -1.53916,3.96186 0,5.46868 l 5.0313202,5.03132 c 1.50696,1.53916 3.96186,1.53916 5.46868,0 l 16.7132,-16.6684 h 7.175 c 1.019998,0.0083 2.00634,-0.34496 2.75632,-1.09375 l 11.3288,-11.3778 c 1.53916,-1.50696 1.53916,-3.96186 0,-5.46868 l -13.8684,-13.8684 c -0.69552,-0.694932 -1.67048,-1.150268 -2.75632,-1.1375 -0.01476,1.73e-4 -0.02894,-3.56e-4 -0.04375,0 z"
     id="path3669"
     style="stroke-width:1.4" />
  <path
     opacity="0.3"
     d="m 37.975964,42.86546 c -0.628068,0.0052 -1.261778,0.299964 -1.70632,0.74375 l -11.375,11.3316 c -0.453068,0.453768 -0.705124,1.108786 -0.7,1.75 v 7.7875 L 7.1314438,81.58491 c -0.920276,0.901012 -0.920276,2.55528 0,3.45632 l 5.0316002,5.0302 c 0.901012,0.920276 2.55528,0.920276 3.45632,0 l 17.1066,-17.0632 h 7.7875 c 0.641214,0.0052 1.296232,-0.246932 1.75,-0.7 l 11.33132,-11.375 c 0.920276,-0.901012 0.920276,-2.55528 0,-3.45632 l -13.8698,-13.8684 c -0.462966,-0.462588 -1.095724,-0.759444 -1.75,-0.74375 z"
     id="path3671"
     style="stroke-width:1.4" />
  <path
     opacity="0.2"
     d="m 83.212764,5.1088596 c -0.641872,0 -1.255744,0.239862 -1.70632,0.7 L 64.399844,22.91546 h -7.7875 c -0.641214,-0.0052 -1.296232,0.246932 -1.75,0.7 l -11.33132,11.33132 c -0.920276,0.901012 -0.920276,2.59896 0,3.5 l 13.8684,13.8684 c 0.462966,0.462588 1.095724,0.71568 1.75,0.7 0.628068,-0.0052 1.261778,-0.256214 1.70632,-0.7 l 11.375,-11.375 c 0.453068,-0.453768 0.705124,-1.065036 0.7,-1.70632 v -7.83132 l 17.0632,-17.0618 c 0.920276,-0.901012 0.920276,-2.59896 0,-3.5 l -5.0316,-5.0316004 c -0.450506,-0.460138 -1.108128,-0.7 -1.75,-0.7 z"
     fill="#ffffff"
     id="path3673"
     style="stroke-width:1.4" />
  <path
     d="m 37.975964,41.46546 c -0.628068,0.0052 -1.261778,0.299964 -1.70632,0.74375 l -11.375,11.3316 c -0.453068,0.453768 -0.705124,1.108786 -0.7,1.75 v 7.7875 L 7.1314438,80.18491 c -0.920276,0.901012 -0.920276,2.55528 0,3.45632 l 5.0316002,5.0302 c 0.901012,0.920276 2.55528,0.920276 3.45632,0 l 17.1066,-17.0632 h 7.7875 c 0.641214,0.0052 1.296232,-0.246932 1.75,-0.7 l 11.33132,-11.375 c 0.920276,-0.901012 0.920276,-2.55528 0,-3.45632 l -13.8698,-13.8684 c -0.462966,-0.462588 -1.095724,-0.759444 -1.75,-0.74375 z"
     fill="url(#g)"
     id="path3675"
     style="fill:url(#g);stroke-width:1.4" />
  <path
     opacity="0.75"
     d="m 37.975964,41.46546 c -0.628068,0.0052 -1.261778,0.299964 -1.70632,0.74375 l -11.375,11.3316 c -0.453068,0.453768 -0.705124,1.108786 -0.7,1.75 v 1.4 c -0.0052,-0.641214 0.246932,-1.296232 0.7,-1.75 l 11.375,-11.33132 c 0.444472,-0.443786 1.078168,-0.73857 1.70632,-0.74375 0.654276,-0.01568 1.287034,0.281176 1.75,0.74375 l 13.86868,13.86868 c 0.29113,0.285026 0.461818,0.661906 0.56875,1.05 0.248178,-0.847504 0.07013,-1.82448 -0.56875,-2.45 l -13.8684,-13.8684 c -0.4634,-0.462 -1.0962,-0.7588 -1.75,-0.7434 z m -13.7816,21.6118 -17.0632002,17.1066 c -0.6286,0.616 -0.7994,1.568 -0.5684,2.4066 0.109312,-0.373282 0.287364,-0.730744 0.56875,-1.00625 L 24.194714,64.47761 v -1.4 z"
     fill="#ffffff"
     id="path3677"
     style="stroke-width:1.4" />
  <path
     opacity="0.14"
     d="m 54.162764,57.12726 c -0.109312,0.373282 -0.287364,0.730744 -0.56875,1.00625 l -11.3316,11.375 c -0.453768,0.453068 -1.108786,0.70518 -1.75,0.7 h -7.7875 l -17.1066,17.0632 c -0.901012,0.920276 -2.55528,0.920276 -3.45632,0 l -5.0302002,-5.0316 c -0.2912,-0.2856 -0.462,-0.6622 -0.5684,-1.05 -0.2478,0.847 -0.07,1.8242 0.5684,2.45 l 5.0316002,5.0316 c 0.901012,0.920276 2.55528,0.920276 3.45632,0 l 17.1066,-17.0632 h 7.7875 c 0.641214,0.0052 1.296232,-0.246932 1.75,-0.7 l 11.33132,-11.375 c 0.6272,-0.616 0.798,-1.5666 0.567,-2.4066 z"
     id="path3679"
     style="stroke-width:1.4" />
</svg>
