<?xml version="1.0" encoding="UTF-8" standalone="no"?>
<svg
   height="96"
   width="96"
   version="1.1"
   id="svg2725"
   sodipodi:docname="gnome-netstatus-error.svg"
   inkscape:version="1.2.2 (b0a8486541, 2022-12-01)"
   xml:space="preserve"
   xmlns:inkscape="http://www.inkscape.org/namespaces/inkscape"
   xmlns:sodipodi="http://sodipodi.sourceforge.net/DTD/sodipodi-0.dtd"
   xmlns:xlink="http://www.w3.org/1999/xlink"
   xmlns="http://www.w3.org/2000/svg"
   xmlns:svg="http://www.w3.org/2000/svg"><sodipodi:namedview
     id="namedview2727"
     pagecolor="#656565"
     bordercolor="#666666"
     borderopacity="1.0"
     inkscape:showpageshadow="2"
     inkscape:pageopacity="0"
     inkscape:pagecheckerboard="0"
     inkscape:deskcolor="#d1d1d1"
     showgrid="false"
     inkscape:zoom="2.2464626"
     inkscape:cx="18.473488"
     inkscape:cy="6.8997364"
     inkscape:window-width="1870"
     inkscape:window-height="1012"
     inkscape:window-x="50"
     inkscape:window-y="31"
     inkscape:window-maximized="1"
     inkscape:current-layer="svg2725" /><defs
     id="defs2691"><linearGradient
       id="a"
       stop-color="#fff"><stop
         offset="0"
         id="stop2672" /><stop
         stop-opacity="0"
         offset="1"
         id="stop2674" /></linearGradient><linearGradient
       id="b"
       y2="7.0165"
       gradientUnits="userSpaceOnUse"
       x2="45.448"
       gradientTransform="matrix(1.0059 0 0 .99417 100 0)"
       y1="92.54"
       x1="45.448"><stop
         offset="0"
         id="stop2677" /><stop
         stop-opacity=".58824"
         offset="1"
         id="stop2679" /></linearGradient><linearGradient
       id="d"
       y2="90.239"
       xlink:href="#b"
       gradientUnits="userSpaceOnUse"
       x2="32.251"
       gradientTransform="matrix(1,0,0,-1,0,97)"
       y1="6.1317"
       x1="32.251" /><radialGradient
       id="i"
       xlink:href="#a"
       gradientUnits="userSpaceOnUse"
       cy="90.172"
       cx="48"
       gradientTransform="matrix(1.1573 0 0 .99591 -7.551 .19713)"
       r="42" /><linearGradient
       id="g"
       y2="63.893"
       xlink:href="#a"
       gradientUnits="userSpaceOnUse"
       x2="36.357"
       y1="6"
       x1="36.357" /><linearGradient
       id="h"
       y2="90.239"
       xlink:href="#b"
       gradientUnits="userSpaceOnUse"
       x2="32.251"
       gradientTransform="matrix(1.0238,0,0,-1.0119,-1.1429,98.071)"
       y1="6.1317"
       x1="32.251" /><linearGradient
       id="c"
       y2="11"
       gradientUnits="userSpaceOnUse"
       x2="18.939"
       gradientTransform="matrix(0,-3.01,2.9786,0,33.299,110.58)"
       y1="11"
       x1="11"><stop
         stop-color="#c80000"
         offset="0"
         id="stop2686" /><stop
         stop-color="#f3604d"
         offset="1"
         id="stop2688" /></linearGradient><linearGradient
       id="f"
       y2="7.0165"
       gradientUnits="userSpaceOnUse"
       x2="45.448"
       gradientTransform="scale(1.0059 .99417)"
       y1="92.54"
       x1="45.448"><stop
         offset="0"
         id="stop3027" /><stop
         stop-opacity=".58824"
         offset="1"
         id="stop3029" /></linearGradient><filter
       id="r"
       color-interpolation-filters="sRGB"><feGaussianBlur
         stdDeviation="1.71"
         id="feGaussianBlur3037" /></filter><filter
       id="s"
       height="1.3915758"
       width="1.3915758"
       color-interpolation-filters="sRGB"
       y="-0.19578789"
       x="-0.19578789"><feGaussianBlur
         stdDeviation="5.28"
         id="feGaussianBlur3040" /></filter><linearGradient
       id="t"
       y2="138.66"
       xlink:href="#a"
       gradientUnits="userSpaceOnUse"
       x2="48"
       y1="20.221"
       x1="48" /><clipPath
       id="q"><rect
         rx="6"
         ry="6"
         height="84"
         width="84"
         y="6"
         x="6"
         fill="#fff"
         id="rect3044" /></clipPath><linearGradient
       id="p"
       y2="90.239"
       xlink:href="#b"
       gradientUnits="userSpaceOnUse"
       x2="32.251"
       gradientTransform="translate(0,-97)"
       y1="6.1317"
       x1="32.251" /><radialGradient
       id="e"
       xlink:href="#a"
       gradientUnits="userSpaceOnUse"
       cy="90.172"
       cx="48"
       gradientTransform="matrix(1.1573,0,0,0.99591,-7.551,0.19713)"
       r="42" /><linearGradient
       id="n"
       y2="5.9877"
       gradientUnits="userSpaceOnUse"
       x2="48"
       y1="90"
       x1="48"><stop
         stop-color="#a90c0c"
         offset="0"
         id="stop3055" /><stop
         stop-color="#f05530"
         offset="1"
         id="stop3057" /></linearGradient><linearGradient
       id="m"
       y2="16.973"
       gradientUnits="userSpaceOnUse"
       x2="46.655"
       gradientTransform="translate(0,1)"
       y1="75.562"
       x1="48.082"><stop
         stop-color="#dcdcdc"
         offset="0"
         id="stop3060" /><stop
         stop-color="#ebebeb"
         offset=".30654"
         id="stop3062" /><stop
         stop-color="#fff"
         offset=".70706"
         id="stop3064" /><stop
         stop-color="#fafafa"
         offset=".84501"
         id="stop3066" /><stop
         stop-color="#f0f0f0"
         offset="1"
         id="stop3068" /></linearGradient><linearGradient
       id="i-7"
       y2="90.239"
       xlink:href="#b"
       gradientUnits="userSpaceOnUse"
       x2="32.251"
       gradientTransform="matrix(1.0238,0,0,1.0119,-1.1429,-98.071)"
       y1="6.1317"
       x1="32.251" /><linearGradient
       inkscape:collect="always"
       xlink:href="#b"
       id="linearGradient3151"
       gradientUnits="userSpaceOnUse"
       gradientTransform="matrix(1.0238,0,0,-1.0119,-1.1429,98.071)"
       x1="32.251"
       y1="6.1317"
       x2="32.251"
       y2="90.239" /><linearGradient
       inkscape:collect="always"
       xlink:href="#b"
       id="linearGradient3153"
       gradientUnits="userSpaceOnUse"
       gradientTransform="matrix(1.0238,0,0,-1.0119,-1.1429,98.071)"
       x1="32.251"
       y1="6.1317"
       x2="32.251"
       y2="90.239" /><linearGradient
       inkscape:collect="always"
       xlink:href="#b"
       id="linearGradient3155"
       gradientUnits="userSpaceOnUse"
       gradientTransform="matrix(1.0238,0,0,-1.0119,-1.1429,98.071)"
       x1="32.251"
       y1="6.1317"
       x2="32.251"
       y2="90.239" /><linearGradient
       inkscape:collect="always"
       xlink:href="#b"
       id="linearGradient3157"
       gradientUnits="userSpaceOnUse"
       gradientTransform="matrix(1.0238,0,0,-1.0119,-1.1429,98.071)"
       x1="32.251"
       y1="6.1317"
       x2="32.251"
       y2="90.239" /><linearGradient
       inkscape:collect="always"
       xlink:href="#a"
       id="linearGradient3159"
       gradientUnits="userSpaceOnUse"
       x1="36.357"
       y1="6"
       x2="36.357"
       y2="63.893" /></defs><g
     fill="url(#h)"
     id="g2701"
     style="display:none"><path
       opacity="0.08"
       d="m 12,3.9688 c -5.5111,0 -10.031,4.5201 -10.031,10.031 v 71 c 0,5.5111 4.5202,10.031 10.031,10.031 h 72 c 5.5111,0 10.031,-4.5202 10.031,-10.031 v -71 C 94.031,8.4883 89.511,3.9688 84,3.9688 Z M 12,6 h 72 c 3.324,0 6,2.676 6,6 v 72 c 0,3.324 -2.676,6 -6,6 H 12 C 8.676,90 6,87.324 6,84 V 12 C 6,8.676 8.676,6 12,6 Z"
       id="path2693" /><path
       opacity="0.1"
       d="M 12,4.9688 C 7.0284,4.9688 2.9688,9.0284 2.9688,14 v 71 c 0,4.9716 4.0596,9.0312 9.0312,9.0312 h 72 c 4.9716,0 9.0312,-4.0596 9.0312,-9.0312 V 14 c 0,-4.9716 -4.059,-9.0312 -9.031,-9.0312 h -72 z M 12,6 h 72 c 3.324,0 6,2.676 6,6 v 72 c 0,3.324 -2.676,6 -6,6 H 12 C 8.676,90 6,87.324 6,84 V 12 C 6,8.676 8.676,6 12,6 Z"
       id="path2695" /><path
       opacity="0.2"
       d="M 11.188,6.0312 C 7.16,6.4419 4,9.8664 4,14 v 71 c 0,4.4091 3.5909,8 8,8 h 72 c 4.4091,0 8,-3.5909 8,-8 V 14 C 92,9.8029 88.741,6.354 84.625,6.0312 87.658,6.3374 90,8.8838 90,12 v 72 c 0,3.324 -2.676,6 -6,6 H 12 C 8.676,90 6,87.324 6,84 V 12 c 0,-3.1162 2.3421,-5.6626 5.375,-5.9688 -0.06227,0.00488 -0.12563,-0.00631 -0.1875,0 z"
       id="path2697" /><path
       opacity="0.3"
       d="M 6.4375,9.75 C 5.538,10.927 5,12.397 5,14 v 71 c 0,3.878 3.122,7 7,7 h 72 c 3.878,0 7,-3.122 7,-7 V 14 C 91,12.397 90.462,10.927 89.562,9.75 89.842,10.444 90,11.204 90,12 v 72 c 0,3.324 -2.676,6 -6,6 H 12 C 8.676,90 6,87.324 6,84 V 12 C 6,11.204 6.1582,10.444 6.4375,9.75 Z"
       id="path2699" /></g><path
     opacity="0.45"
     d="m 6,84 v 1 c 0,3.324 2.676,6 6,6 h 72 c 3.324,0 6,-2.676 6,-6 v -1 c 0,3.324 -2.676,6 -6,6 H 12 C 8.676,90 6,87.324 6,84 Z"
     fill="url(#d)"
     id="path2703"
     style="display:none" /><rect
     opacity="0.6"
     rx="6"
     ry="6"
     height="84"
     width="84"
     y="6"
     x="6"
     id="rect2705"
     style="display:none" /><path
     opacity="0.01"
     d="M 12,6 C 8.676,6 6,8.676 6,12 v 72 c 0,0.33472 0.04135,0.6507 0.09375,0.96875 0.0487,0.2956 0.09704,0.59692 0.1875,0.875 0.00988,0.03038 0.020892,0.0636 0.03125,0.09375 0.098865,0.28777 0.23488,0.54745 0.375,0.8125 0.14459,0.27351 0.31562,0.53562 0.5,0.78125 0.18438,0.24564 0.37378,0.47347 0.59375,0.6875 0.43995,0.42806 0.94291,0.81453 1.5,1.0938 0.27854,0.13961 0.57347,0.24695 0.875,0.34375 -0.2562,-0.10022 -0.48671,-0.23627 -0.71875,-0.375 -0.00741,-0.0044 -0.023866,0.0045 -0.03125,0 -0.0319,-0.019 -0.0622,-0.042 -0.0937,-0.062 -0.1204,-0.077 -0.231,-0.164 -0.3437,-0.25 -0.1062,-0.081 -0.2133,-0.161 -0.3126,-0.25 -0.1778,-0.162 -0.3473,-0.346 -0.4999,-0.531 -0.1075,-0.131 -0.2183,-0.266 -0.3124,-0.407 -0.0251,-0.038 -0.0385,-0.086 -0.0626,-0.125 -0.0647,-0.103 -0.1302,-0.204 -0.1874,-0.312 -0.1011,-0.195 -0.2057,-0.416 -0.2813,-0.625 -0.008,-0.022 -0.0236,-0.041 -0.0313,-0.063 -0.0318,-0.092 -0.0358,-0.187 -0.0624,-0.281 -0.0304,-0.107 -0.0704,-0.203 -0.0938,-0.313 -0.0729,-0.341 -0.125,-0.698 -0.125,-1.062 v -72 c 0,-2.782 2.2182,-5 5,-5 h 72 c 2.7818,0 5,2.2182 5,5 v 72 c 0,0.3643 -0.05212,0.72099 -0.125,1.0625 -0.04415,0.20689 -0.08838,0.39766 -0.15625,0.59375 -0.0077,0.02195 -0.0233,0.04069 -0.03125,0.0625 -0.06274,0.17374 -0.13838,0.36745 -0.21875,0.53125 -0.04158,0.0828 -0.07904,0.16995 -0.125,0.25 -0.0546,0.09721 -0.12677,0.18835 -0.1875,0.28125 -0.09411,0.14096 -0.20492,0.276 -0.3125,0.40625 -0.14317,0.17445 -0.30314,0.347 -0.46875,0.5 -0.01117,0.0102 -0.01998,0.02115 -0.03125,0.03125 -0.13839,0.12556 -0.28509,0.23444 -0.4375,0.34375 -0.10257,0.07315 -0.20432,0.15336 -0.3125,0.21875 -0.0074,0.0045 -0.02384,-0.0044 -0.03125,0 -0.23204,0.13873 -0.46255,0.27478 -0.71875,0.375 0.30153,-0.0968 0.59646,-0.20414 0.875,-0.34375 0.55709,-0.27922 1.0601,-0.66569 1.5,-1.0938 0.21997,-0.21403 0.40937,-0.44186 0.59375,-0.6875 0.18438,-0.24564 0.35541,-0.50774 0.5,-0.78125 0.14012,-0.26505 0.27614,-0.52473 0.375,-0.8125 0.01041,-0.03078 0.02133,-0.06274 0.03125,-0.09375 0.09046,-0.27808 0.1388,-0.5794 0.1875,-0.875 0.053,-0.318 0.094,-0.634 0.094,-0.969 V 12 c 0,-3.324 -2.676,-6 -6,-6 h -72 z"
     fill="url(#g)"
     id="path2707"
     style="display:none" /><path
     opacity="0.15"
     d="M 12,90 C 8.676,90 6,87.324 6,84 V 12 c 0,-0.33472 0.04135,-0.6507 0.09375,-0.96875 0.0487,-0.2956 0.09704,-0.59692 0.1875,-0.875 0.0099,-0.03 0.0209,-0.063 0.0313,-0.094 0.0989,-0.2873 0.2349,-0.547 0.375,-0.812 0.1446,-0.2735 0.3156,-0.5356 0.5,-0.7812 0.1844,-0.2457 0.3738,-0.4735 0.5937,-0.6876 0.44,-0.428 0.943,-0.8145 1.5,-1.0937 0.2786,-0.1396 0.5735,-0.2469 0.8748,-0.3437 -0.256,0.1002 -0.4865,0.2362 -0.7185,0.375 -0.00741,0.0044 -0.023866,-0.0045 -0.03125,0 -0.031933,0.0193 -0.062293,0.04251 -0.09375,0.0625 -0.1204,0.0767 -0.23102,0.16351 -0.34375,0.25 -0.10617,0.0808 -0.21328,0.16111 -0.3125,0.25 -0.1779,0.1614 -0.3474,0.3453 -0.5,0.5312 -0.1075,0.1303 -0.2183,0.2653 -0.3124,0.4063 -0.0251,0.0383 -0.0385,0.0858 -0.0626,0.125 -0.0647,0.103 -0.1302,0.2045 -0.1874,0.3124 -0.1011,0.1948 -0.2057,0.4158 -0.2813,0.625 -0.008,0.0219 -0.0236,0.0406 -0.0313,0.0626 -0.0318,0.0919 -0.0358,0.1868 -0.0624,0.2812 -0.0304,0.1066 -0.0704,0.203 -0.0938,0.3125 -0.0729,0.3415 -0.125,0.6985 -0.125,1.0625 v 72 c 0,2.7818 2.2182,5 5,5 h 72 c 2.7818,0 5,-2.2182 5,-5 v -72 c 0,-0.364 -0.052,-0.721 -0.125,-1.0625 -0.044,-0.2069 -0.088,-0.3977 -0.156,-0.5937 -0.008,-0.022 -0.024,-0.0407 -0.031,-0.0626 -0.063,-0.1737 -0.139,-0.3674 -0.219,-0.5312 -0.042,-0.0828 -0.079,-0.17 -0.125,-0.25 -0.055,-0.0972 -0.127,-0.1884 -0.188,-0.2812 -0.094,-0.141 -0.205,-0.276 -0.312,-0.4063 -0.143,-0.1745 -0.303,-0.347 -0.469,-0.5 -0.011,-0.0102 -0.02,-0.0211 -0.031,-0.0313 -0.139,-0.1255 -0.285,-0.2344 -0.438,-0.3437 -0.102,-0.0731 -0.204,-0.1534 -0.312,-0.2187 -0.0074,-0.0045 -0.02384,0.0044 -0.03125,0 -0.23204,-0.13873 -0.46255,-0.27478 -0.71875,-0.375 0.30153,0.0968 0.59646,0.20414 0.875,0.34375 0.55709,0.27922 1.0601,0.66569 1.5,1.0938 0.21997,0.21403 0.40937,0.44186 0.59375,0.6875 0.18438,0.24564 0.35541,0.50774 0.5,0.78125 0.14012,0.26505 0.27614,0.52473 0.375,0.8125 0.01041,0.03078 0.02133,0.06274 0.03125,0.09375 0.09046,0.27808 0.1388,0.5794 0.1875,0.875 0.053,0.318 0.094,0.634 0.094,0.969 v 72 c 0,3.324 -2.676,6 -6,6 h -72 z"
     fill="url(#i)"
     id="path2709"
     style="display:none" /><path
     opacity="0.2"
     d="m 82.254571,5.29996 c -0.641872,0 -1.255744,0.239862 -1.70632,0.7 l -10.10632,10.10632 h -7.7875 c -0.641214,-0.0052 -1.296232,0.246932 -1.75,0.7 L 49.573111,28.1376 c -0.920276,0.901012 -0.920276,2.59896 0,3.5 l 13.8684,13.8684 c 0.462966,0.462588 1.095724,0.71568 1.75,0.7 0.628068,-0.0052 1.261778,-0.256214 1.70632,-0.7 l 11.375,-11.375 c 0.453068,-0.453768 0.705124,-1.065036 0.7,-1.70632 v -7.8316 l 10.0625,-10.0625 c 0.920276,-0.901012 0.920276,-2.59896 0,-3.5 l -5.0316,-5.0316 c -0.450506,-0.460138 -1.108128,-0.7 -1.75,-0.7 z m -52.2368,43.3566 c -0.628068,0.0052 -1.261778,0.299964 -1.70632,0.74375 l -11.375,11.3316 c -0.453068,0.453768 -0.705124,1.108786 -0.7,1.75 v 7.7875 l -10.0625,10.10632 c -0.920276,0.901012 -0.920276,2.55528 0,3.45632 l 5.0316,5.0316 c 0.901012,0.920276 2.55528,0.920276 3.45632,0 l 10.10632,-10.0625 h 7.7875 c 0.641214,0.0052 1.296232,-0.246932 1.75,-0.7 l 11.33132,-11.375 c 0.920276,-0.901012 0.920276,-2.55528 0,-3.45632 l -13.8684,-13.8684 c -0.462966,-0.462588 -1.095724,-0.759444 -1.75,-0.74375 z"
     fill="#ffffff"
     id="path2711"
     style="stroke-width:1.4" /><g
     fill-rule="evenodd"
     id="g2723"
     transform="matrix(1.4,0,0,1.4,-19.595429,-19.76844)"
     style="display:none"><path
       opacity="0.1"
       d="m 58.762,53.538 -6.0995,6.0995 c -0.7997,0.7997 -0.7997,1.9497 0,2.7494 l 4.5503,4.5503 -4.5503,4.5503 c -0.7997,0.7997 -0.7997,1.9497 0,2.7494 l 6.1,6.1 c 0.8,0.8 1.9506,0.8 2.7506,0 l 4.5497,-4.5497 4.5497,4.5497 c 0.8,0.8 1.9506,0.8 2.7506,0 l 6.1005,-6.1005 c 0.7998,-0.7998 0.7998,-1.9486 0,-2.7489 l -4.5508,-4.5503 4.5508,-4.5513 c 0.7998,-0.7998 0.7998,-1.9486 0,-2.7484 l -6.1,-6.1 c -0.79924,-0.7992 -1.9524,-0.7992 -2.7516,0 l -4.5492,4.5492 -4.5492,-4.5492 c -0.79924,-0.7987 -1.9524,-0.7987 -2.7516,5e-4 z"
       id="path2713" /><path
       opacity="0.15"
       d="m 60.138,53.576 -6.775,6.775 c -0.4,0.4 -0.4,0.9232 0,1.3232 l 5.2634,5.2634 -5.2634,5.2634 c -0.4,0.4 -0.4,0.9232 0,1.3232 l 6.1134,6.1134 c 0.4,0.4 0.92326,0.4 1.3233,0 l 5.2634,-5.2634 5.2634,5.2634 c 0.39999,0.4 0.92323,0.4 1.3232,0 l 6.1134,-6.1134 c 0.4,-0.4 0.4,-0.9232 0,-1.3232 l -5.2634,-5.2634 5.2634,-5.2634 c 0.4,-0.4 0.4,-0.9237 0,-1.3237 l -6.7747,-6.7747 -5.9258,5.9247 z"
       id="path2715" /><path
       opacity="0.3"
       d="m 54.115,72.863 6.0224,6.0224 5.925,-5.9249 5.925,5.9249 6.0224,-6.0224 -5.925,-5.925 5.9253,-5.9253 -6.0224,-6.0223 -5.9253,5.9252 -5.925,-5.925 -6.0224,6.0224 5.9251,5.925 z"
       id="path2717" /><path
       d="m 54.115,71.448 6.0224,6.0224 5.925,-5.9249 5.925,5.9249 6.0224,-6.0224 -5.925,-5.925 5.9252,-5.9253 -6.0224,-6.0223 -5.9258,5.9247 -5.9245,-5.9245 -6.0224,6.0224 5.925,5.925 z"
       fill="url(#c)"
       id="path2719"
       style="fill:url(#c)" /><path
       opacity="0.2"
       d="m 60.138,53.576 -6.0153,6.0295 0.98289,0.98288 5.0325,-5.0325 5.9245,5.9245 5.9258,-5.9247 5.0324,5.0324 0.98995,-0.98995 -6.0224,-6.0223 -5.9258,5.9247 z m -0.09736,11.947 -5.925,5.925 0.98995,0.98995 4.9351,-4.9351 z m 12.045,0 v 1.9799 l 4.9351,4.9351 0.98995,-0.98995 z"
       fill="#ffffff"
       id="path2721" /></g><g
     id="g3149"
     transform="matrix(0.46084234,0,0,0.46084234,51.67397,50.524005)"><g
       fill="url(#g)"
       id="g3081"
       style="fill:url(#linearGradient3157)"><path
         opacity="0.08"
         d="M 12,95.031 C 6.4889,95.031 1.969,90.511 1.969,85 V 14 C 1.969,8.4889 6.4892,3.969 12,3.969 h 72 c 5.5111,0 10.031,4.5202 10.031,10.031 v 71 c 0,5.5111 -4.5202,10.031 -10.031,10.031 z"
         id="path3075"
         style="fill:url(#linearGradient3151)" /><path
         opacity="0.1"
         d="m 12,94.031 c -4.9716,0 -9.0312,-4.0596 -9.0312,-9.0312 v -71 C 2.9688,9.028 7.0284,4.9684 12,4.9684 h 72 c 4.9716,0 9.0312,4.0596 9.0312,9.0312 v 71 c 0,4.9716 -4.0596,9.0312 -9.0312,9.0312 H 12 Z"
         id="path3077"
         style="fill:url(#linearGradient3153)" /><path
         opacity="0.2"
         d="M 12,93 C 7.5909,93 4,89.409 4,85 V 14 C 4,9.5909 7.5909,6 12,6 h 72 c 4.4091,0 8,3.5909 8,8 v 71 c 0,4.4091 -3.5909,8 -8,8 z"
         id="path3079"
         style="fill:url(#linearGradient3155)" /></g><rect
       opacity="0.3"
       transform="scale(1,-1)"
       rx="7"
       ry="7"
       height="85"
       width="86"
       y="-92"
       x="5"
       fill="url(#i)"
       id="rect3083"
       style="fill:url(#i-7)" /><rect
       opacity="0.45"
       transform="scale(1,-1)"
       rx="6"
       ry="6"
       height="84"
       width="84"
       y="-91"
       x="6"
       fill="url(#p)"
       id="rect3085"
       style="fill:url(#p)" /><rect
       rx="6"
       ry="6"
       height="84"
       width="84"
       y="6"
       x="6"
       fill="url(#n)"
       id="rect3087"
       style="fill:url(#n)" /><path
       opacity="0.4"
       d="M 12,6 C 8.676,6 6,8.676 6,12 v 72 c 0,0.33472 0.04135,0.6507 0.09375,0.96875 0.0487,0.2956 0.09704,0.59692 0.1875,0.875 0.00988,0.03038 0.020892,0.0636 0.03125,0.09375 0.098865,0.28777 0.23488,0.54745 0.375,0.8125 0.14459,0.27351 0.31562,0.53562 0.5,0.78125 0.18438,0.24564 0.37378,0.47347 0.59375,0.6875 0.43995,0.42806 0.94291,0.81453 1.5,1.0938 0.27854,0.13961 0.57347,0.24695 0.875,0.34375 -0.2562,-0.10022 -0.48671,-0.23627 -0.71875,-0.375 -0.00741,-0.0044 -0.023866,0.0045 -0.03125,0 -0.0319,-0.019 -0.0622,-0.042 -0.0937,-0.062 -0.1204,-0.077 -0.231,-0.164 -0.3437,-0.25 -0.1062,-0.081 -0.2133,-0.161 -0.3126,-0.25 -0.1778,-0.162 -0.3473,-0.346 -0.4999,-0.531 -0.1075,-0.131 -0.2183,-0.266 -0.3124,-0.407 -0.0251,-0.038 -0.0385,-0.086 -0.0626,-0.125 -0.0647,-0.103 -0.1302,-0.204 -0.1874,-0.312 -0.1011,-0.195 -0.2057,-0.416 -0.2813,-0.625 -0.008,-0.022 -0.0236,-0.041 -0.0313,-0.063 -0.0318,-0.092 -0.0358,-0.187 -0.0624,-0.281 -0.0304,-0.107 -0.0704,-0.203 -0.0938,-0.313 -0.0729,-0.341 -0.125,-0.698 -0.125,-1.062 v -72 c 0,-2.782 2.2182,-5 5,-5 h 72 c 2.7818,0 5,2.2182 5,5 v 72 c 0,0.3643 -0.05212,0.72099 -0.125,1.0625 -0.04415,0.20689 -0.08838,0.39766 -0.15625,0.59375 -0.0077,0.02195 -0.0233,0.04069 -0.03125,0.0625 -0.06274,0.17374 -0.13838,0.36745 -0.21875,0.53125 -0.04158,0.0828 -0.07904,0.16995 -0.125,0.25 -0.0546,0.09721 -0.12677,0.18835 -0.1875,0.28125 -0.09411,0.14096 -0.20492,0.276 -0.3125,0.40625 -0.14317,0.17445 -0.30314,0.347 -0.46875,0.5 -0.01117,0.0102 -0.01998,0.02115 -0.03125,0.03125 -0.13839,0.12556 -0.28509,0.23444 -0.4375,0.34375 -0.10257,0.07315 -0.20432,0.15336 -0.3125,0.21875 -0.0074,0.0045 -0.02384,-0.0044 -0.03125,0 -0.23204,0.13873 -0.46255,0.27478 -0.71875,0.375 0.30153,-0.0968 0.59646,-0.20414 0.875,-0.34375 0.55709,-0.27922 1.0601,-0.66569 1.5,-1.0938 0.21997,-0.21403 0.40937,-0.44186 0.59375,-0.6875 0.18438,-0.24564 0.35541,-0.50774 0.5,-0.78125 0.14012,-0.26505 0.27614,-0.52473 0.375,-0.8125 0.01041,-0.03078 0.02133,-0.06274 0.03125,-0.09375 0.09046,-0.27808 0.1388,-0.5794 0.1875,-0.875 0.053,-0.318 0.094,-0.634 0.094,-0.969 V 12 c 0,-3.324 -2.676,-6 -6,-6 h -72 z"
       fill="url(#o)"
       id="path3089"
       style="fill:url(#linearGradient3159)" /><path
       opacity="0.2"
       d="M 12,90 C 8.676,90 6,87.324 6,84 V 12 c 0,-0.33472 0.04135,-0.6507 0.09375,-0.96875 0.0487,-0.2956 0.09704,-0.59692 0.1875,-0.875 0.0099,-0.03 0.0209,-0.063 0.0313,-0.094 0.0989,-0.2873 0.2349,-0.547 0.375,-0.812 0.1446,-0.2735 0.3156,-0.5356 0.5,-0.7812 0.1844,-0.2457 0.3738,-0.4735 0.5937,-0.6876 0.44,-0.428 0.943,-0.8145 1.5,-1.0937 0.2786,-0.1396 0.5735,-0.2469 0.8748,-0.3437 -0.256,0.1002 -0.4865,0.2362 -0.7185,0.375 -0.00741,0.0044 -0.023866,-0.0045 -0.03125,0 -0.031933,0.0193 -0.062293,0.04251 -0.09375,0.0625 -0.1204,0.0767 -0.23102,0.16351 -0.34375,0.25 -0.10617,0.0808 -0.21328,0.16111 -0.3125,0.25 -0.1779,0.1614 -0.3474,0.3453 -0.5,0.5312 -0.1075,0.1303 -0.2183,0.2653 -0.3124,0.4063 -0.0251,0.0383 -0.0385,0.0858 -0.0626,0.125 -0.0647,0.103 -0.1302,0.2045 -0.1874,0.3124 -0.1011,0.1948 -0.2057,0.4158 -0.2813,0.625 -0.008,0.0219 -0.0236,0.0406 -0.0313,0.0626 -0.0318,0.0919 -0.0358,0.1868 -0.0624,0.2812 -0.0304,0.1066 -0.0704,0.203 -0.0938,0.3125 -0.0729,0.3415 -0.125,0.6985 -0.125,1.0625 v 72 c 0,2.7818 2.2182,5 5,5 h 72 c 2.7818,0 5,-2.2182 5,-5 v -72 c 0,-0.364 -0.052,-0.721 -0.125,-1.0625 -0.044,-0.2069 -0.088,-0.3977 -0.156,-0.5937 -0.008,-0.022 -0.024,-0.0407 -0.031,-0.0626 -0.063,-0.1737 -0.139,-0.3674 -0.219,-0.5312 -0.042,-0.0828 -0.079,-0.17 -0.125,-0.25 -0.055,-0.0972 -0.127,-0.1884 -0.188,-0.2812 -0.094,-0.141 -0.205,-0.276 -0.312,-0.4063 -0.143,-0.1745 -0.303,-0.347 -0.469,-0.5 -0.011,-0.0102 -0.02,-0.0211 -0.031,-0.0313 -0.139,-0.1255 -0.285,-0.2344 -0.438,-0.3437 -0.102,-0.0731 -0.204,-0.1534 -0.312,-0.2187 -0.0074,-0.0045 -0.02384,0.0044 -0.03125,0 -0.23204,-0.13873 -0.46255,-0.27478 -0.71875,-0.375 0.30153,0.0968 0.59646,0.20414 0.875,0.34375 0.55709,0.27922 1.0601,0.66569 1.5,1.0938 0.21997,0.21403 0.40937,0.44186 0.59375,0.6875 0.18438,0.24564 0.35541,0.50774 0.5,0.78125 0.14012,0.26505 0.27614,0.52473 0.375,0.8125 0.01041,0.03078 0.02133,0.06274 0.03125,0.09375 0.09046,0.27808 0.1388,0.5794 0.1875,0.875 0.053,0.318 0.094,0.634 0.094,0.969 v 72 c 0,3.324 -2.676,6 -6,6 h -72 z"
       fill="url(#e)"
       id="path3091"
       style="fill:url(#e)" /><rect
       opacity="0.1"
       clip-path="url(#q)"
       rx="12"
       ry="12"
       height="66"
       filter="url(#s)"
       width="66"
       stroke="#ffffff"
       stroke-linecap="round"
       y="15"
       x="15"
       stroke-width="0.5"
       fill="url(#t)"
       id="rect3093"
       style="fill:url(#t)" /><path
       opacity="0.05"
       d="m 48,14.75 c -20.117,0 -37.25,13.556 -37.25,31.25 0,10.082 5.918,18.698 14.344,24.281 -0.15691,0.52532 -0.26659,1.039 -0.625,1.5938 -0.91988,1.4238 -2.1321,2.6471 -4.8438,3.4375 -0.01115,0.0032 -0.02005,-0.0032 -0.03125,0 -0.01706,0.0041 -0.01361,-0.0051 -0.03125,0 -0.06018,0.01709 -0.12731,0.03202 -0.125,0.03125 0.0027,-9.11e-4 -0.10648,0.04343 -0.15625,0.0625 -0.01244,0.0048 -0.03191,0.03154 -0.03125,0.03125 l -0.125,0.03125 a 1.2012,1.2012 0 0 0 -0.03125,0 v 0.03125 a 1.2012,1.2012 0 0 0 -0.0625,0 1.2012,1.2012 0 0 0 0,0.03125 1.2012,1.2012 0 0 0 -0.03125,0 1.2012,1.2012 0 0 0 -0.125,0.0625 1.2012,1.2012 0 0 0 -0.09375,0.03125 c 0,0 -0.04304,0.06225 -0.09375,0.09375 a 1.2012,1.2012 0 0 0 -0.03125,0 c -0.01203,0.0075 -0.0194,0.02387 -0.03125,0.03125 -0.0071,0.0044 -0.02439,-0.0043 -0.03125,0 3.11e-4,-0.0016 -0.02944,4.53e-4 -0.03125,0 -0.01135,0.0055 0.0064,0.02802 0,0.03125 -0.0064,0.0032 -0.02556,-0.0029 -0.03125,0 -0.0173,0.0078 -0.0138,-0.0022 -0.0625,0.03125 a 1.2012,1.2012 0 0 0 -0.0625,0.03125 c -0.02259,0.01561 -0.0032,0.01018 -0.03125,0.03125 -0.08339,0.05003 -0.01856,0.02974 -0.0625,0.0625 2.55e-4,-0.0016 -0.02938,4.14e-4 -0.03125,0 a 1.2012,1.2012 0 0 0 -0.064,0.063 c -0.02131,0.01331 0.0037,0.0063 -0.03125,0.03125 -0.02227,0.01587 -0.0025,-0.0216 -0.03125,0 a 1.2012,1.2012 0 0 0 -0.0625,0.03125 c -2e-4,9.87e-4 -0.0036,0.03323 0,0.03125 0.0036,-0.002 -0.035,0.0024 -0.03125,0 a 1.2012,1.2012 0 0 0 -0.21875,0.1875 c 0,0 -0.03924,0.06292 -0.09375,0.125 -0.02725,0.03104 -0.07117,0.03661 -0.09375,0.0625 -0.0056,0.0065 0.0051,0.02544 0,0.03125 -0.0051,0.0058 -0.02656,-0.0054 -0.03125,0 -0.0011,6.63e-4 0.0026,0.02921 0,0.03125 -0.0076,0.0071 0.0073,0.02449 0,0.03125 a 1.2012,1.2012 0 0 0 -0.03125,0.03125 1.2012,1.2012 0 0 0 -0.03125,0 c -0.0052,0.0048 0.0042,0.02735 0,0.03125 a 1.2012,1.2012 0 0 0 -0.03125,0 c -0.0029,0.0027 0.0016,0.02973 0,0.03125 -0.0018,0.0017 -0.03125,-5e-6 -0.03125,0 a 1.2012,1.2012 0 0 0 -0.0625,0.0625 c 0,0 -0.05453,0.07039 -0.09375,0.125 -0.01961,0.02731 -0.01399,0.03821 -0.03125,0.0625 -0.0048,0.0068 -0.03376,0.03711 -0.03125,0.03125 a 1.2012,1.2012 0 0 0 -0.032,0.034 1.2012,1.2012 0 0 0 0,0.031 c -0.01159,0.01821 0.0056,-0.03024 -0.03125,0.03125 a 1.2012,1.2012 0 0 0 -0.031,0.031 c 0.0038,-0.0054 0.0052,0.015 0,0.03125 -0.0066,0.01 -0.02415,-0.01127 -0.03125,0 -0.006,0.0091 0.0056,0.02198 0,0.03125 a 1.2012,1.2012 0 0 0 -0.0625,0.0625 1.2012,1.2012 0 0 0 -0.0625,0.125 c -0.0021,0.0039 1.5e-5,0.03121 0,0.03125 -0.0078,0.01754 -0.03697,0.06771 -0.0625,0.125 -0.01543,0.03462 -0.01866,0.06536 -0.03125,0.09375 -0.01259,0.02839 -0.0061,-0.04717 -0.0625,0.09375 0.10388,-0.25972 0.05856,-0.16201 -0.03125,0.0625 -0.01017,0.0212 -0.02229,0.0089 -0.03125,0.03125 -0.008,0.02004 0.0069,0.01183 0,0.03125 l -0.063,0.157 a 1.2012,1.2012 0 0 0 -0.0625,0.3125 1.2012,1.2012 0 0 0 0,0.03125 c -0.0082,0.01102 -0.0625,0.06249 -0.0625,0.0625 -0.0055,0.02756 0.004,0.0078 0,0.03125 -0.0027,0.01126 0.0023,0.01981 0,0.03125 -0.0042,0.01621 -0.02797,0.01485 -0.03125,0.03125 -0.0042,0.02103 0.0032,0.01174 0,0.03125 l -0.032,0.155 a 1.2012,1.2012 0 0 0 0,0.03125 c -0.0055,0.02741 0.004,0.0079 0,0.03125 -0.0027,0.01126 0.0023,0.01981 0,0.03125 -0.0046,0.02317 0.0033,0.01139 0,0.03125 -0.0014,0.0065 -0.02995,-0.0065 -0.03125,0 -0.02535,0.12674 -10e-4,0.11406 0,0.1875 a 1.2012,1.2012 0 0 0 -0.031,0.313 v 0.1875 a 1.2012,1.2012 0 0 0 0,0.09375 1.2012,1.2012 0 0 0 0,0.03125 v 0.03125 a 1.2012,1.2012 0 0 0 0,0.09375 1.2012,1.2012 0 0 0 0,0.0625 c 0,0 -0.0077,0.06251 0,0.125 0.0038,0.03125 0.02777,0.03514 0.03125,0.0625 0.0035,0.02736 -0.04918,-0.08964 0,0.15625 0.0033,0.01647 0.02708,0.01498 0.03125,0.03125 0.0025,0.0098 -0.0028,0.02148 0,0.03125 0.004,0.02339 -0.0055,0.0038 0,0.03125 a 1.2012,1.2012 0 0 0 0,0.03125 l 0.03125,0.15625 a 1.2012,1.2012 0 0 0 0.125,0.28125 1.2012,1.2012 0 0 0 0,0.03125 c -7.1e-4,0.01656 -2e-6,0.09374 0,0.09375 0.009,0.02249 0.02105,0.01 0.03125,0.03125 0.0102,0.02126 0.02005,0.01121 0.03125,0.03125 -1.34e-4,-0.0011 -0.0032,0.02044 0,0.03125 a 1.2012,1.2012 0 0 0 0,0.03125 l 0.0625,0.15625 a 1.2012,1.2012 0 0 0 0,0.03125 c 0.009,0.02239 0.02108,0.01006 0.03125,0.03125 0.01017,0.02119 0.02007,0.01127 0.03125,0.03125 0.0044,0.009 -0.0048,0.02234 0,0.03125 a 1.2012,1.2012 0 0 0 0,0.03125 1.2012,1.2012 0 0 0 0.03125,0.03125 1.2012,1.2012 0 0 0 0,0.03125 1.2012,1.2012 0 0 0 0.03125,0.03125 1.2012,1.2012 0 0 0 0.0625,0.125 1.2012,1.2012 0 0 0 0,0.03125 1.2012,1.2012 0 0 0 0.03125,0.09375 l 0.09375,0.15625 c -0.0021,-0.0035 0.12745,0.19079 0.125,0.1875 l 0.09375,0.125 a 1.2012,1.2012 0 0 0 0.25,0.25 1.2012,1.2012 0 0 0 0.0625,0.03125 c 0.03396,0.03875 -0.01591,0.01534 0.03125,0.0625 a 1.2012,1.2012 0 0 0 0.09375,0.09375 c 0,0 0.02413,0.03173 0.0625,0.0625 0.0061,0.0049 0.02927,-0.0018 0.03125,0 l 0.03125,0.03125 c 0.0017,0.0018 0.01733,0.02046 0.03125,0.03125 a 1.2012,1.2012 0 0 0 0.033,0.033 c 4.4e-5,3.7e-5 0.02773,-0.0024 0.03125,0 0.0022,0.0015 -0.0033,0.02902 0,0.03125 a 1.2012,1.2012 0 0 0 0.094,0.094 c 0.0033,0.0027 0.02685,-0.0035 0.03125,0 0.02037,0.01414 0.0076,0.02915 0.09375,0.09375 0.01734,0.01312 0.01135,0.01633 0.03125,0.03125 0.04616,0.03462 0.03062,0.0106 0.0625,0.03125 a 1.2012,1.2012 0 0 0 0.21875,0.15625 c 0,0 0.08702,0.03165 0.15625,0.0625 0.03462,0.01543 0.06536,0.01866 0.09375,0.03125 0.02839,0.01259 -0.04735,0.0061 0.09375,0.0625 -0.26005,-0.10401 -0.16189,-0.05853 0.0625,0.03125 0.02117,0.01016 0.0089,0.0223 0.03125,0.03125 0.02002,0.008 0.01185,-0.0069 0.03125,0 l 0.15625,0.0625 0.15625,0.0625 a 1.2012,1.2012 0 0 0 0.3125,0.0625 c 0.0039,0.0028 0.02816,-0.0023 0.03125,0 0.01094,0.008 0.06249,0.0625 0.0625,0.0625 0.02753,0.0055 0.0078,-0.004 0.03125,0 0.0097,0.0028 0.02143,-0.0025 0.03125,0 0.01622,0.0042 0.01484,0.02797 0.03125,0.03125 0.02105,0.0042 0.01174,-0.0032 0.03125,0 l 0.15625,0.03125 a 1.2012,1.2012 0 0 0 0.1875,0 c -0.0023,-1.31e-4 0.12728,0 0.125,0 -0.0017,0 0.05646,0.0011 0.09375,0 0.01122,0.0012 0.02004,-0.0011 0.03125,0 -2.2e-5,8.21e-4 1.8e-5,0.03125 0,0.03125 h 0.09375 v -0.026 c 9.7538,0.95831 16.717,-3.1403 20.906,-6.9375 2.092,0.335 4.237,0.594 6.532,0.594 20.117,0 37.25,-13.556 37.25,-31.25 0,-17.694 -17.133,-31.25 -37.25,-31.25 z M 40.156,34 46,39.844 a 2.8128,2.8128 0 0 0 4,0 L 55.844,34 59,37.156 53.156,43 a 2.8128,2.8128 0 0 0 0,4 L 59,52.844 55.844,56 50,50.156 a 2.8128,2.8128 0 0 0 -4,0 L 40.156,56 37,52.844 42.844,47 a 2.8128,2.8128 0 0 0 0,-4 L 37,37.156 Z M 20.438,83.25 a 1.2012,1.2012 0 0 0 0.03125,0 v 0.15625 l -0.031,-0.156 z"
       id="path3095" /><path
       opacity="0.05"
       d="m 48,15.938 c -19.579,0 -36.062,13.148 -36.062,30.062 0,9.945 5.9764,18.491 14.594,23.875 -0.21998,0.83356 -0.43648,1.6873 -1.0625,2.6562 -1.0314,1.5963 -2.548,3.0757 -5.5312,3.9375 -0.01077,0.0031 -0.02044,-0.0031 -0.03125,0 a 1.0828,1.0828 0 0 0 -0.1875,0.0625 l -0.15625,0.0625 0.40625,1 c -0.21083,-0.49864 -0.43017,-1.0029 -0.4375,-1 -0.01466,0.0059 -0.01172,0.02344 -0.03125,0.03125 -0.01953,0.0078 -0.0479,0.02541 -0.0625,0.03125 -0.0146,0.0058 -0.03125,0 -0.03125,0 0,0 -0.23834,0.1475 -0.25,0.15625 -0.01166,0.0087 -0.04687,0.01953 -0.0625,0.03125 0.01466,-0.0088 -0.0625,0.03125 -0.0625,0.03125 -0.012,0.009 -0.023,0.028 -0.032,0.033 -0.01461,0.0088 -0.03125,0 -0.03125,0 0,0 -0.08203,0.08496 -0.09375,0.09375 -0.01172,0.0088 -0.04687,0.01953 -0.0625,0.03125 -0.01563,0.01172 -0.01957,0.02249 -0.03125,0.03125 -0.01168,0.0088 -0.03125,0 -0.03125,0 0,0 -0.21001,0.23835 -0.21875,0.25 -0.0087,0.01165 -0.01953,0.01562 -0.03125,0.03125 -0.006,0.006 0.0063,0.025 0,0.03125 -0.0023,0.003 -0.02911,-0.0028 -0.03125,0 -0.01328,0.01555 -0.03125,0.03125 -0.03125,0.03125 l -0.032,0.033 c 0,0 -0.14748,0.20414 -0.15625,0.21875 -0.0088,0.01461 -0.01953,0.04296 -0.03125,0.0625 -0.01172,0.01954 -0.02245,0.01659 -0.03125,0.03125 -0.0088,0.01466 -0.03125,0.03125 -0.03125,0.03125 -0.0043,0.0057 0.0035,0.02658 0,0.03125 -0.0087,0.01166 -0.03125,0 -0.03125,0 0,0 -0.11916,0.26665 -0.125,0.28125 -0.0058,0.0146 -0.02343,0.04296 -0.03125,0.0625 -0.0078,0.01954 -0.02538,0.01659 -0.03125,0.03125 -0.0059,0.01466 0,0.03125 0,0.03125 l -0.0625,0.15625 1,0.40625 1.0312,0.34375 c 0,0 -2.0908,-0.54584 -2.0938,-0.53125 -0.0029,0.01459 0.0039,0.04297 0,0.0625 -0.0039,0.01953 -0.02832,0.01659 -0.03125,0.03125 -0.0029,0.01466 0,0.03125 0,0.03125 l -0.032,0.157 0.71875,0.15625 c -0.32438,-0.05392 -0.71776,-0.12997 -0.71875,-0.125 -0.0029,0.01467 0.0039,0.04296 0,0.0625 -0.0039,0.01954 -0.02833,0.01666 -0.03125,0.03125 -0.0029,0.01459 0,0.03125 0,0.03125 l 1.0625,0.21875 h -1.0938 v 0.1875 h 1.0938 c -0.5413,0.0092 -1.0938,0.02392 -1.0938,0.03125 v 0.125 c 0,0 0.02833,0.23539 0.03125,0.25 0.0029,0.01461 0.02734,0.01171 0.03125,0.03125 0.0039,0.01954 -0.0029,0.04785 0,0.0625 0.0029,0.01465 0,0.03125 0,0.03125 l 0.031,0.157 1.063,-0.219 1.031,-0.281 c 0,0 -2.0371,0.70415 -2.0312,0.71875 0.0058,0.0146 0.02344,0.01171 0.03125,0.03125 0.0078,0.01954 0.02539,0.04784 0.03125,0.0625 0.0059,0.01466 0,0.03125 0,0.03125 l 0.0625,0.15625 0.8125,-0.34375 c -0.39954,0.17642 -0.81494,0.36891 -0.8125,0.375 0.0059,0.01467 0.02343,0.01172 0.03125,0.03125 0.0078,0.01953 0.02541,0.04791 0.03125,0.0625 0.0058,0.01459 0,0.03125 0,0.03125 l 1,-0.40625 -0.9375,0.5625 0.09375,0.15625 a 1.0828,1.0828 0 0 0 0.063,0.094 l 0.09375,0.125 0.875,-0.65625 0.84375,-0.6875 c 0,0 -1.6054,1.4571 -1.5938,1.4688 0.01169,0.01169 0.04687,0.01562 0.0625,0.03125 0.01563,0.01563 0.01953,0.05078 0.03125,0.0625 0,0 0.14459,0.11625 0.15625,0.125 0.01166,0.0087 0.01562,0.01953 0.03125,0.03125 l 0.03125,0.03125 c 0.0078,0.0066 0.02631,-0.0042 0.03125,0 0.0073,0.0073 -0.0058,0.02541 0,0.03125 l 0.03125,0.03125 0.125,0.09375 c 0.01172,0.0088 0.01562,0.01953 0.03125,0.03125 0.01563,0.01172 0.05082,0.02249 0.0625,0.03125 0.01168,0.0088 0,0.03125 0,0.03125 0,0 0.26667,0.11917 0.28125,0.125 0.01458,0.0058 0.04297,0.02343 0.0625,0.03125 0.01953,0.0078 0.01657,0.02538 0.03125,0.03125 0.01468,0.0059 0.03125,0 0.03125,0 l 0.15625,0.0625 0.15625,0.0625 0.40625,-1 0.314,-1.031 c 0,0 -0.5146,2.0908 -0.5,2.0938 0.0146,0.0029 0.04297,-0.0039 0.0625,0 0.01953,0.0039 0.0166,0.02832 0.03125,0.03125 0.01465,0.0029 0.03125,0 0.03125,0 l 0.15625,0.03125 a 1.0828,1.0828 0 0 0 0.125,0 1.0828,1.0828 0 0 0 0.0625,0.03125 c -10e-4,-1.6e-5 0.09477,-1.6e-5 0.09375,0 V 82.4118 c 9.7462,1.0017 16.58,-3.2481 20.562,-7 2.216,0.37 4.49,0.656 6.876,0.656 19.579,0 36.062,-13.148 36.062,-30.062 0,-16.914 -16.483,-30.062 -36.062,-30.062 z m -7.8438,17 6.375,6.375 a 2.0984,2.0984 0 0 0 2.9375,0 l 6.375,-6.375 4.2188,4.2188 -6.375,6.375 a 2.0984,2.0984 0 0 0 0,2.9375 l 6.375,6.375 -4.2188,4.2188 -6.375,-6.375 a 2.0984,2.0984 0 0 0 -2.9375,0 l -6.375,6.375 -4.2188,-4.2188 6.375,-6.375 a 2.0984,2.0984 0 0 0 0,-2.9375 l -6.375,-6.375 z"
       id="path3097" /><path
       opacity="0.12"
       d="m 48,17.031 c -19.097,0 -34.969,12.762 -34.969,28.969 0,9.8126 6.0152,18.31 14.812,23.5 -0.22779,1.0474 -0.61321,2.3008 -1.4688,3.625 -1.149,1.7784 -2.9471,3.4814 -6.2188,4.4062 a 0.98626,0.98626 0 0 0 -0.03125,0 l -0.15625,0.0625 c 1.01e-4,-4.3e-5 -0.15635,0.06255 -0.15625,0.0625 9.7e-5,-5.2e-5 -0.12509,0.09381 -0.125,0.09375 9.2e-5,-6e-5 -0.15634,0.09382 -0.15625,0.09375 8.7e-5,-6.7e-5 -0.12508,0.09382 -0.125,0.09375 8.1e-5,-7.4e-5 -0.09382,0.12508 -0.09375,0.125 7.4e-5,-8.1e-5 -0.12507,0.12509 -0.125,0.125 6.7e-5,-8.7e-5 -0.09381,0.15634 -0.09375,0.15625 6e-5,-9.2e-5 -0.0938,0.1251 -0.09375,0.125 5.2e-5,-9.7e-5 -0.06254,0.15635 -0.0625,0.15625 l -0.0625,0.15625 c 3.5e-5,-1.04e-4 -0.03128,0.15636 -0.03125,0.15625 l -0.03125,0.15625 c 1.7e-5,-1.09e-4 -0.03126,0.15636 -0.03125,0.15625 v 0.1875 c -2e-6,-1.1e-4 1.1e-5,0.15636 0,0.15625 -1.1e-5,-1.09e-4 0.03127,0.15636 0.03125,0.15625 l 0.03125,0.15625 c -2.9e-5,-1.06e-4 0.06254,0.15635 0.0625,0.15625 l 0.0625,0.15625 c -4.6e-5,-1e-4 0.06255,0.15634 0.0625,0.15625 l 0.09375,0.15625 0.09375,0.125 c -7e-5,-8.5e-5 0.12508,0.12508 0.125,0.125 -7.7e-5,-7.9e-5 0.12508,0.09382 0.125,0.09375 -8.3e-5,-7.2e-5 0.12509,0.12506 0.125,0.125 -8.9e-5,-6.5e-5 0.12509,0.09381 0.125,0.09375 -9.4e-5,-5.7e-5 0.15635,0.06255 0.15625,0.0625 l 0.15625,0.0625 0.15625,0.0625 c -1.05e-4,-3.2e-5 0.15636,0.03127 0.15625,0.03125 l 0.158,0.035 a 0.98626,0.98626 0 0 0 0.03125,0 c 9.7546,1.0601 16.452,-3.3592 20.25,-7.0625 2.3307,0.41039 4.728,0.6875 7.2188,0.6875 19.097,0 34.969,-12.762 34.969,-28.969 0,-16.207 -15.872,-28.969 -34.969,-28.969 z m -7.8438,15.031 6.8125,6.8125 a 1.4734,1.4734 0 0 0 2.0625,0 l 6.8125,-6.8125 5.0938,5.0938 -6.8125,6.8125 a 1.4734,1.4734 0 0 0 0,2.0625 l 6.8125,6.8125 -5.0938,5.0938 -6.8125,-6.8125 a 1.4734,1.4734 0 0 0 -2.0625,0 l -6.8125,6.8125 -5.0938,-5.0938 6.8125,-6.8125 a 1.4734,1.4734 0 0 0 0,-2.0625 l -6.8125,-6.8125 z"
       id="path3099" /><path
       opacity="0.24"
       d="m 48,18.031 c -18.66,0 -33.969,12.408 -33.969,27.969 0,9.6667 5.998,18.089 14.938,23.094 -0.21052,1.1926 -0.65132,2.862 -1.75,4.5625 -1.2551,1.9426 -3.2901,3.8256 -6.7812,4.8125 a 0.98224,0.98224 0 0 0 0.187,1.906 c 9.69,1.053 16.246,-3.496 19.844,-7.125 2.429,0.454 4.934,0.719 7.531,0.719 18.66,0 33.969,-12.409 33.969,-27.969 0,-15.56 -15.309,-27.969 -33.969,-27.969 z M 40.156,31 47.5,38.344 a 0.71436,0.71436 0 0 0 1,0 L 55.844,31 62,37.156 54.656,44.5 a 0.71436,0.71436 0 0 0 0,1 L 62,52.844 55.844,59 48.5,51.656 a 0.71436,0.71436 0 0 0 -1,0 L 40.156,59 34,52.844 41.344,45.5 a 0.71436,0.71436 0 0 0 0,-1 L 34,37.156 Z"
       id="path3101" /><path
       d="m 48,18 c -18.225,0 -33,12.088 -33,27 0,9.4984 5.9998,17.843 15.062,22.656 -0.34462,2.5088 -1.914,8.6498 -9.3438,10.75 9.6229,1.0458 16.014,-3.6463 19.406,-7.1875 2.525,0.506 5.162,0.782 7.876,0.782 18.225,0 33,-12.088 33,-27 0,-14.912 -14.775,-27 -33,-27 z M 40.156,29 48,36.844 55.844,29 63,36.156 55.156,44 63,51.844 55.844,59 48,51.156 40.156,59 33,51.844 40.844,44 33,36.156 Z"
       fill="url(#m)"
       id="path3103"
       style="fill:url(#m)" /><path
       opacity="0.8"
       d="m 48,18 c -18.225,0 -33,12.088 -33,27 0,0.20841 0.0255,0.41773 0.03125,0.625 0.884,-14.266 15.313,-25.625 32.969,-25.625 17.811,0 32.318,11.557 32.969,26 0.015,-0.336 0.031,-0.661 0.031,-1 0,-14.912 -14.775,-27 -33,-27 z m -14,19.156 -1,1 6.8438,6.8438 1,-1 -6.844,-6.844 z m 28,0 -6.844,6.844 1,1 L 63,38.156 Z m -14,14 L 40.156,59 34,52.844 l -1,1 L 40.156,61 48,53.156 55.844,61 63,53.844 62,52.844 55.844,59 Z M 29.688,69.438 c -0.78888,2.9258 -2.9421,7.2652 -8.9688,8.9688 1.4386,0.15635 2.7988,0.17086 4.0938,0.09375 3.9509,-2.7354 4.9814,-6.8885 5.25,-8.8438 -0.1292,-0.06861 -0.24706,-0.14871 -0.375,-0.21875 z"
       fill="#ffffff"
       id="path3105" /></g></svg>
