<?xml version="1.0" encoding="UTF-8" standalone="no"?>
<svg
   height="96"
   width="96"
   version="1.1"
   id="svg2296"
   sodipodi:docname="gnome-netstatus-75-100.svg"
   inkscape:version="1.2.2 (b0a8486541, 2022-12-01)"
   xmlns:inkscape="http://www.inkscape.org/namespaces/inkscape"
   xmlns:sodipodi="http://sodipodi.sourceforge.net/DTD/sodipodi-0.dtd"
   xmlns:xlink="http://www.w3.org/1999/xlink"
   xmlns="http://www.w3.org/2000/svg"
   xmlns:svg="http://www.w3.org/2000/svg">
  <sodipodi:namedview
     id="namedview2298"
     pagecolor="#ffffff"
     bordercolor="#666666"
     borderopacity="1.0"
     inkscape:showpageshadow="2"
     inkscape:pageopacity="0.0"
     inkscape:pagecheckerboard="0"
     inkscape:deskcolor="#d1d1d1"
     showgrid="false"
     inkscape:zoom="2.4583333"
     inkscape:cx="14.033898"
     inkscape:cy="48.20339"
     inkscape:window-width="1870"
     inkscape:window-height="1012"
     inkscape:window-x="50"
     inkscape:window-y="31"
     inkscape:window-maximized="1"
     inkscape:current-layer="svg2296" />
  <defs
     id="defs2252">
    <linearGradient
       id="e"
       stop-color="#fff">
      <stop
         offset="0"
         id="stop2217" />
      <stop
         stop-opacity="0"
         offset="1"
         id="stop2219" />
    </linearGradient>
    <linearGradient
       id="d">
      <stop
         stop-color="#aaa"
         offset="0"
         id="stop2222" />
      <stop
         stop-color="#f0f0f0"
         offset="1"
         id="stop2224" />
    </linearGradient>
    <linearGradient
       id="f"
       y2="7.0165"
       gradientUnits="userSpaceOnUse"
       x2="45.448"
       gradientTransform="matrix(1.0059 0 0 .99417 100 0)"
       y1="92.54"
       x1="45.448">
      <stop
         offset="0"
         id="stop2227" />
      <stop
         stop-opacity=".58824"
         offset="1"
         id="stop2229" />
    </linearGradient>
    <linearGradient
       id="r"
       y2="90.239"
       xlink:href="#f"
       gradientUnits="userSpaceOnUse"
       x2="32.251"
       gradientTransform="matrix(1,0,0,-1,0,97)"
       y1="6.1317"
       x1="32.251" />
    <linearGradient
       id="q"
       y2="90.239"
       xlink:href="#f"
       gradientUnits="userSpaceOnUse"
       x2="32.251"
       gradientTransform="matrix(1.0238,0,0,-1.0119,-1.1429,98.071)"
       y1="6.1317"
       x1="32.251" />
    <radialGradient
       id="g"
       xlink:href="#e"
       gradientUnits="userSpaceOnUse"
       cy="90.172"
       cx="48"
       gradientTransform="matrix(1.1573 0 0 .99591 -7.551 .19713)"
       r="42" />
    <linearGradient
       id="p"
       y2="63.893"
       xlink:href="#e"
       gradientUnits="userSpaceOnUse"
       x2="36.357"
       y1="6"
       x1="36.357" />
    <linearGradient
       id="o"
       stop-color="#fff"
       y2="74"
       gradientUnits="userSpaceOnUse"
       x2="24"
       y1="54"
       x1="24"
       gradientTransform="matrix(1.3,0,0,1.3,-14.400045,-14.700045)">
      <stop
         offset="0"
         id="stop2236" />
      <stop
         stop-opacity="0"
         offset="1"
         id="stop2238" />
    </linearGradient>
    <linearGradient
       id="n"
       stop-color="#fff"
       y2="73"
       gradientUnits="userSpaceOnUse"
       x2="40"
       y1="42"
       x1="40"
       gradientTransform="matrix(1.3,0,0,1.3,-14.400045,-14.700045)">
      <stop
         offset="0"
         id="stop2241" />
      <stop
         stop-opacity="0"
         offset="1"
         id="stop2243" />
    </linearGradient>
    <linearGradient
       id="m"
       y2="73"
       xlink:href="#e"
       gradientUnits="userSpaceOnUse"
       x2="56"
       y1="30"
       x1="56"
       gradientTransform="matrix(1.3,0,0,1.3,-14.400045,-14.700045)" />
    <linearGradient
       id="l"
       y2="72.009"
       xlink:href="#e"
       gradientUnits="userSpaceOnUse"
       x2="72"
       y1="18"
       x1="72"
       gradientTransform="matrix(1.3,0,0,1.3,-14.400045,-14.700045)" />
    <linearGradient
       id="k"
       y2="-34"
       xlink:href="#d"
       gradientUnits="userSpaceOnUse"
       x2="24"
       gradientTransform="matrix(0.975,0,0,1.026311,-8.550045,88.752655)"
       y1="-2"
       x1="24" />
    <linearGradient
       id="j"
       y2="-50"
       xlink:href="#d"
       gradientUnits="userSpaceOnUse"
       x2="56"
       gradientTransform="matrix(0.975,0,0,0.983554,-11.150045,88.666855)"
       y1="-2"
       x1="56" />
    <linearGradient
       id="i"
       y2="-66"
       xlink:href="#d"
       gradientUnits="userSpaceOnUse"
       x2="72"
       gradientTransform="matrix(0.975,0,0,0.962169,-13.605602,88.623955)"
       y1="-2"
       x1="72" />
    <linearGradient
       id="h"
       y2="-82"
       xlink:href="#d"
       gradientUnits="userSpaceOnUse"
       x2="96"
       gradientTransform="matrix(0.975,0,0,0.975,-16.350045,88.649955)"
       y1="-2"
       x1="96" />
  </defs>
  <g
     fill="url(#q)"
     id="g2262"
     style="display:none">
    <path
       opacity="0.08"
       d="m 12,3.9688 c -5.5111,0 -10.031,4.5201 -10.031,10.031 v 71 c 0,5.5111 4.5202,10.031 10.031,10.031 h 72 c 5.5111,0 10.031,-4.5202 10.031,-10.031 v -71 C 94.031,8.4885 89.511,3.9688 84,3.9688 Z M 12,6 h 72 c 3.324,0 6,2.676 6,6 v 72 c 0,3.324 -2.676,6 -6,6 H 12 C 8.676,90 6,87.324 6,84 V 12 C 6,8.676 8.676,6 12,6 Z"
       id="path2254" />
    <path
       opacity="0.1"
       d="M 12,4.9688 C 7.0284,4.9688 2.9688,9.0284 2.9688,14 v 71 c 0,4.9716 4.0596,9.0312 9.0312,9.0312 h 72 c 4.9716,0 9.0312,-4.0596 9.0312,-9.0312 V 14 c 0,-4.9716 -4.059,-9.0312 -9.031,-9.0312 h -72 z M 12,6 h 72 c 3.324,0 6,2.676 6,6 v 72 c 0,3.324 -2.676,6 -6,6 H 12 C 8.676,90 6,87.324 6,84 V 12 C 6,8.676 8.676,6 12,6 Z"
       id="path2256" />
    <path
       opacity="0.2"
       d="M 11.188,6.0312 C 7.16,6.4419 4,9.8664 4,14 v 71 c 0,4.4091 3.5909,8 8,8 h 72 c 4.4091,0 8,-3.5909 8,-8 V 14 C 92,9.8029 88.741,6.354 84.625,6.0312 87.658,6.3374 90,8.8838 90,12 v 72 c 0,3.324 -2.676,6 -6,6 H 12 C 8.676,90 6,87.324 6,84 V 12 c 0,-3.1162 2.3421,-5.6626 5.375,-5.9688 -0.06227,0.00488 -0.12563,-0.00631 -0.1875,0 z"
       id="path2258" />
    <path
       opacity="0.3"
       d="M 6.4375,9.75 C 5.538,10.927 5,12.397 5,14 v 71 c 0,3.878 3.122,7 7,7 h 72 c 3.878,0 7,-3.122 7,-7 V 14 C 91,12.397 90.462,10.927 89.562,9.75 89.842,10.444 90,11.204 90,12 v 72 c 0,3.324 -2.676,6 -6,6 H 12 C 8.676,90 6,87.324 6,84 V 12 C 6,11.204 6.1582,10.444 6.4375,9.75 Z"
       id="path2260" />
  </g>
  <path
     opacity="0.45"
     d="m 6,84 v 1 c 0,3.324 2.676,6 6,6 h 72 c 3.324,0 6,-2.676 6,-6 v -1 c 0,3.324 -2.676,6 -6,6 H 12 C 8.676,90 6,87.324 6,84 Z"
     fill="url(#r)"
     id="path2264"
     style="display:none" />
  <rect
     opacity="0.6"
     rx="6"
     ry="6"
     height="84"
     width="84"
     y="6"
     x="6"
     id="rect2266"
     style="display:none" />
  <path
     opacity="0.01"
     d="M 12,6 C 8.676,6 6,8.676 6,12 v 72 c 0,0.33472 0.04135,0.6507 0.09375,0.96875 0.0487,0.2956 0.09704,0.59692 0.1875,0.875 0.00988,0.03038 0.020892,0.0636 0.03125,0.09375 0.098865,0.28777 0.23488,0.54745 0.375,0.8125 0.14459,0.27351 0.31562,0.53562 0.5,0.78125 0.18438,0.24564 0.37378,0.47347 0.59375,0.6875 0.43995,0.42806 0.94291,0.81453 1.5,1.0938 0.27854,0.13961 0.57347,0.24695 0.875,0.34375 -0.2562,-0.10022 -0.48671,-0.23627 -0.71875,-0.375 -0.00741,-0.0044 -0.023866,0.0045 -0.03125,0 -0.0319,-0.019 -0.0622,-0.042 -0.0937,-0.062 -0.1204,-0.077 -0.231,-0.164 -0.3437,-0.25 -0.1062,-0.081 -0.2133,-0.161 -0.3126,-0.25 -0.1778,-0.162 -0.3473,-0.346 -0.4999,-0.531 -0.1075,-0.131 -0.2183,-0.266 -0.3124,-0.407 -0.0251,-0.038 -0.0385,-0.086 -0.0626,-0.125 -0.0647,-0.103 -0.1302,-0.204 -0.1874,-0.312 -0.1011,-0.195 -0.2057,-0.416 -0.2813,-0.625 -0.008,-0.022 -0.0236,-0.041 -0.0313,-0.063 -0.0318,-0.092 -0.0358,-0.187 -0.0624,-0.281 -0.0304,-0.107 -0.0704,-0.203 -0.0938,-0.313 -0.0729,-0.341 -0.125,-0.698 -0.125,-1.062 v -72 c 0,-2.782 2.2182,-5 5,-5 h 72 c 2.7818,0 5,2.2182 5,5 v 72 c 0,0.3643 -0.05212,0.72099 -0.125,1.0625 -0.04415,0.20689 -0.08838,0.39766 -0.15625,0.59375 -0.0077,0.02195 -0.0233,0.04069 -0.03125,0.0625 -0.06274,0.17374 -0.13838,0.36745 -0.21875,0.53125 -0.04158,0.0828 -0.07904,0.16995 -0.125,0.25 -0.0546,0.09721 -0.12677,0.18835 -0.1875,0.28125 -0.09411,0.14096 -0.20492,0.276 -0.3125,0.40625 -0.14317,0.17445 -0.30314,0.347 -0.46875,0.5 -0.01117,0.0102 -0.01998,0.02115 -0.03125,0.03125 -0.13839,0.12556 -0.28509,0.23444 -0.4375,0.34375 -0.10257,0.07315 -0.20432,0.15336 -0.3125,0.21875 -0.0074,0.0045 -0.02384,-0.0044 -0.03125,0 -0.23204,0.13873 -0.46255,0.27478 -0.71875,0.375 0.30153,-0.0968 0.59646,-0.20414 0.875,-0.34375 0.55709,-0.27922 1.0601,-0.66569 1.5,-1.0938 0.21997,-0.21403 0.40937,-0.44186 0.59375,-0.6875 0.18438,-0.24564 0.35541,-0.50774 0.5,-0.78125 0.14012,-0.26505 0.27614,-0.52473 0.375,-0.8125 0.01041,-0.03078 0.02133,-0.06274 0.03125,-0.09375 0.09046,-0.27808 0.1388,-0.5794 0.1875,-0.875 0.053,-0.318 0.094,-0.634 0.094,-0.969 V 12 c 0,-3.324 -2.676,-6 -6,-6 h -72 z"
     fill="url(#p)"
     id="path2268"
     style="display:none" />
  <path
     opacity="0.15"
     d="M 12,90 C 8.676,90 6,87.324 6,84 V 12 c 0,-0.33472 0.04135,-0.6507 0.09375,-0.96875 0.0487,-0.2956 0.09704,-0.59692 0.1875,-0.875 0.0099,-0.03 0.0209,-0.063 0.0313,-0.094 0.0989,-0.2873 0.2349,-0.547 0.375,-0.812 0.1446,-0.2735 0.3156,-0.5356 0.5,-0.7812 0.1844,-0.2457 0.3738,-0.4735 0.5937,-0.6876 0.44,-0.428 0.943,-0.8145 1.5,-1.0937 0.2786,-0.1396 0.5735,-0.2469 0.8748,-0.3437 -0.256,0.1002 -0.4865,0.2362 -0.7185,0.375 -0.00741,0.0044 -0.023866,-0.0045 -0.03125,0 -0.031933,0.0193 -0.062293,0.04251 -0.09375,0.0625 -0.1204,0.0767 -0.23102,0.16351 -0.34375,0.25 -0.10617,0.0808 -0.21328,0.16111 -0.3125,0.25 -0.1779,0.1614 -0.3474,0.3453 -0.5,0.5312 -0.1075,0.1303 -0.2183,0.2653 -0.3124,0.4063 -0.0251,0.0383 -0.0385,0.0858 -0.0626,0.125 -0.0647,0.103 -0.1302,0.2045 -0.1874,0.3124 -0.1011,0.1948 -0.2057,0.4158 -0.2813,0.625 -0.008,0.0219 -0.0236,0.0406 -0.0313,0.0626 -0.0318,0.0919 -0.0358,0.1868 -0.0624,0.2812 -0.0304,0.1066 -0.0704,0.203 -0.0938,0.3125 -0.0729,0.3415 -0.125,0.6985 -0.125,1.0625 v 72 c 0,2.7818 2.2182,5 5,5 h 72 c 2.7818,0 5,-2.2182 5,-5 v -72 c 0,-0.364 -0.052,-0.721 -0.125,-1.0625 -0.044,-0.2069 -0.088,-0.3977 -0.156,-0.5937 -0.008,-0.022 -0.024,-0.0407 -0.031,-0.0626 -0.063,-0.1737 -0.139,-0.3674 -0.219,-0.5312 -0.042,-0.0828 -0.079,-0.17 -0.125,-0.25 -0.055,-0.0972 -0.127,-0.1884 -0.188,-0.2812 -0.094,-0.141 -0.205,-0.276 -0.312,-0.4063 -0.143,-0.1745 -0.303,-0.347 -0.469,-0.5 -0.011,-0.0102 -0.02,-0.0211 -0.031,-0.0313 -0.139,-0.1255 -0.285,-0.2344 -0.438,-0.3437 -0.102,-0.0731 -0.204,-0.1534 -0.312,-0.2187 -0.0074,-0.0045 -0.02384,0.0044 -0.03125,0 -0.23204,-0.13873 -0.46255,-0.27478 -0.71875,-0.375 0.30153,0.0968 0.59646,0.20414 0.875,0.34375 0.55709,0.27922 1.0601,0.66569 1.5,1.0938 0.21997,0.21403 0.40937,0.44186 0.59375,0.6875 0.18438,0.24564 0.35541,0.50774 0.5,0.78125 0.14012,0.26505 0.27614,0.52473 0.375,0.8125 0.01041,0.03078 0.02133,0.06274 0.03125,0.09375 0.09046,0.27808 0.1388,0.5794 0.1875,0.875 0.053,0.318 0.094,0.634 0.094,0.969 v 72 c 0,3.324 -2.676,6 -6,6 h -72 z"
     fill="url(#g)"
     id="path2270"
     style="display:none" />
  <path
     opacity="0.08"
     d="m 75.299955,6.099955 c -4.28324,0 -7.8,3.51676 -7.8,7.8 v 9.70944 c -1.3442,-1.1882 -3.0992,-1.9097 -5.0375,-1.9097 h -7.9625 c -4.26829,0 -7.8,3.48387 -7.8,7.75944 v 9.9125 c -1.3819,-1.2584 -3.1928,-2.0722 -5.2,-2.0722 h -7.8 c -4.30339,0 -7.8,3.55537 -7.8,7.84056 v 9.9125 c -1.3741,-1.2935 -3.1603,-2.1528 -5.2,-2.1528 h -7.8 c -4.37216,0 -7.8,3.69603 -7.8,8.00306 v 22.9944 c 0,4.3069 3.4281,8.0028 7.8,8.0028 h 7.8 c 2.795,0 5.08729,-1.60589 6.45944,-3.81875 1.3715,2.2373 3.7349,3.8194 6.5403,3.8194 h 7.8 c 2.78382,0 5.12161,-1.56936 6.5,-3.77806 1.3819,2.2061 3.7219,3.7778 6.5,3.7778 h 7.9625 c 2.73416,0 5.04621,-1.50527 6.41875,-3.65625 1.3715,2.1554 3.6803,3.6556 6.4194,3.6556 h 7.8 c 4.28324,0 7.8,-3.51676 7.8,-7.8 v -70.2 c 0,-4.28324 -3.51676,-7.8 -7.8,-7.8 h -7.8 z"
     id="path2272"
     style="stroke-width:1.3" />
  <path
     opacity="0.1"
     d="m 75.299955,7.399955 c -3.58085,0 -6.5,2.91915 -6.5,6.5 v 14.7056 c -0.442,-3.1486 -3.0693,-5.6056 -6.3375,-5.6056 h -7.9625 c -3.57045,0 -6.5,2.89133 -6.5,6.45944 v 15.6806 c 0,-3.588 -2.9042,-6.5403 -6.5,-6.5403 h -7.8 c -3.5958,0 -6.5,2.95282 -6.5,6.54056 v 15.7625 c 0,-3.6296 -2.8548,-6.7028 -6.5,-6.7028 h -7.8 c -3.64572,0 -6.5,3.07372 -6.5,6.70306 v 22.9944 c 0,3.6296 2.8548,6.7028 6.5,6.7028 h 7.8 c 3.64572,0 6.5,-3.07372 6.5,-6.70306 v 0.1625 c 0,3.588 2.9042,6.5403 6.5,6.5403 h 7.8 c 3.56785,0 6.45502,-2.90914 6.5,-6.45944 0,3.5685 2.9289,6.4597 6.5,6.4597 h 7.9625 c 3.42628,0 6.19398,-2.68359 6.41875,-6.05306 0.2444,3.3631 2.9965,6.0528 6.4194,6.0528 h 7.8 c 3.58085,0 6.5,-2.91915 6.5,-6.5 v -70.2 c 0,-3.58085 -2.91915,-6.5 -6.5,-6.5 h -7.8 z"
     id="path2274"
     style="stroke-width:1.3" />
  <path
     opacity="0.15"
     d="m 75.299955,8.780555 c -2.8197,0 -5.11875,2.29905 -5.11875,5.11875 v 70.2 c 0,2.8197 2.29905,5.11875 5.11875,5.11875 h 7.8 c 2.8197,0 5.11875,-2.29905 5.11875,-5.11875 v -70.2 c 0,-2.821 -2.2997,-5.1194 -5.1194,-5.1194 h -7.8 z m -20.8,15.6 c -2.81502,0 -5.11875,2.27812 -5.11875,5.07806 v 54.6806 c 0,2.80007 2.30373,5.07806 5.11875,5.07806 h 7.9625 c 2.81502,0 5.11875,-2.27812 5.11875,-5.07806 v -54.6806 c 0,-2.80007 -2.30373,-5.07806 -5.11875,-5.07806 h -7.9612 z m -20.8,15.6 c -2.82789,0 -5.11875,2.32648 -5.11875,5.15944 v 38.9194 c 0,2.83296 2.29086,5.15944 5.11875,5.15944 h 7.8 c 2.82789,0 5.11875,-2.32648 5.11875,-5.15944 v -38.9194 c 0,-2.8327 -2.2919,-5.1597 -5.1194,-5.1597 h -7.8 z m -20.8,15.6 c -2.85363,0 -5.11875,2.42138 -5.11875,5.32194 v 22.9944 c 0,2.90043 2.26512,5.32194 5.11875,5.32194 h 7.8 c 2.85363,0 5.11875,-2.42138 5.11875,-5.32194 v -22.9944 c 0,-2.9003 -2.2659,-5.3222 -5.1194,-5.3222 h -7.8 z"
     id="path2276"
     style="stroke-width:1.3" />
  <path
     opacity="0.3"
     d="m 75.299955,9.999955 c -2.1606,0 -3.9,1.7394 -3.9,3.9 v 70.2 c 0,2.1606 1.7394,3.9 3.9,3.9 h 7.8 c 2.1606,0 3.9,-1.7394 3.9,-3.9 v -70.2 c 0,-2.1606 -1.7394,-3.9 -3.9,-3.9 z m -20.8,15.6 c -2.1606,0 -3.9,1.72718 -3.9,3.85944 v 54.6806 c 0,2.132 1.7394,3.8597 3.9,3.8597 h 7.9625 c 2.1606,0 3.9,-1.72718 3.9,-3.85944 v -54.6806 c 0,-2.132 -1.7394,-3.8597 -3.9,-3.8597 z m -20.8,15.6 c -2.1606,0 -3.9,1.76111 -3.9,3.94056 v 38.9194 c 0,2.1788 1.7394,3.9403 3.9,3.9403 h 7.8 c 2.1606,0 3.9,-1.76111 3.9,-3.94056 v -38.9194 c 0,-2.1788 -1.7394,-3.9403 -3.9,-3.9403 z m -20.8,15.6 c -2.1606,0 -3.9,1.82884 -3.9,4.10306 v 22.9944 c 0,2.2737 1.7394,4.1028 3.9,4.1028 h 7.8 c 2.1606,0 3.9,-1.82884 3.9,-4.10306 v -22.9944 c 0,-2.2737 -1.7394,-4.1028 -3.9,-4.1028 z"
     id="path2278"
     style="stroke-width:1.3" />
  <rect
     rx="3.9000001"
     ry="3.9000001"
     height="78"
     width="15.6"
     y="8.699955"
     x="71.399956"
     fill="url(#h)"
     id="rect2280"
     style="fill:url(#h);stroke-width:1.3" />
  <rect
     rx="3.9000001"
     ry="3.9000001"
     height="62.400002"
     width="15.6"
     y="24.299955"
     x="50.599957"
     fill="url(#i)"
     id="rect2282"
     style="fill:url(#i);stroke-width:1.3" />
  <rect
     rx="3.9000001"
     ry="3.9000001"
     height="46.799999"
     width="15.6"
     y="39.899956"
     x="29.799955"
     fill="url(#j)"
     id="rect2284"
     style="fill:url(#j);stroke-width:1.3" />
  <rect
     rx="3.9000001"
     ry="3.9000001"
     height="31.200001"
     width="15.6"
     y="55.499954"
     x="8.9999552"
     fill="url(#k)"
     id="rect2286"
     style="fill:url(#k);stroke-width:1.3" />
  <path
     opacity="0.6"
     d="m 75.299955,8.699955 c -2.1606,0 -3.9,1.7394 -3.9,3.9 v 70.2 c 0,2.1606 1.7394,3.9 3.9,3.9 h 7.8 c 2.1606,0 3.9,-1.7394 3.9,-3.9 v -70.2 c 0,-2.1606 -1.7394,-3.9 -3.9,-3.9 z m 0,1.38125 h 7.8 c 1.40907,0 2.51875,1.109628 2.51875,2.51875 v 70.2 c 0,1.40907 -1.109628,2.51875 -2.51875,2.51875 h -7.8 c -1.40907,0 -2.51875,-1.109628 -2.51875,-2.51875 v -70.2 c 0,-1.40907 1.109628,-2.51875 2.51875,-2.51875 z"
     fill="url(#l)"
     id="path2288"
     style="fill:url(#l);stroke-width:1.3" />
  <path
     opacity="0.6"
     d="m 54.499955,24.299955 c -2.1606,0 -3.9,1.72718 -3.9,3.85944 v 54.6806 c 0,2.132 1.7394,3.8597 3.9,3.8597 h 7.9625 c 2.1606,0 3.9,-1.72718 3.9,-3.85944 v -54.6806 c 0,-2.132 -1.7394,-3.8597 -3.9,-3.8597 z m 0,1.3 h 7.9625 c 1.47173,0 2.6,1.130129 2.6,2.55944 v 54.6806 c 0,1.43 -1.1284,2.5597 -2.6,2.5597 h -7.9625 c -1.47173,0 -2.6,-1.130129 -2.6,-2.55944 v -54.6806 c 0,-1.43 1.1284,-2.5597 2.6,-2.5597 z"
     fill="url(#m)"
     id="path2290"
     style="fill:url(#m);stroke-width:1.3" />
  <path
     opacity="0.6"
     d="m 33.699955,39.899955 c -2.1606,0 -3.9,1.76111 -3.9,3.94056 v 38.9194 c 0,2.1788 1.7394,3.9403 3.9,3.9403 h 7.8 c 2.1606,0 3.9,-1.76111 3.9,-3.94056 v -38.9194 c 0,-2.1788 -1.7394,-3.9403 -3.9,-3.9403 z m 0,1.3 h 7.8 c 1.45834,0 2.6,1.148719 2.6,2.64056 v 38.9194 c 0,1.4911 -1.1414,2.6403 -2.6,2.6403 h -7.8 c -1.45834,0 -2.6,-1.148719 -2.6,-2.64056 v -38.9194 c 0,-1.4911 1.1414,-2.6403 2.6,-2.6403 z"
     fill="url(#n)"
     id="path2292"
     style="fill:url(#n);stroke-width:1.3" />
  <path
     opacity="0.6"
     d="m 12.899955,55.499955 c -2.1606,0 -3.9,1.82884 -3.9,4.10306 v 22.9944 c 0,2.2737 1.7394,4.1028 3.9,4.1028 h 7.8 c 2.1606,0 3.9,-1.82884 3.9,-4.10306 v -22.9944 c 0,-2.2737 -1.7394,-4.1028 -3.9,-4.1028 z m 0,1.38125 h 7.8 c 1.37046,0 2.51875,1.161472 2.51875,2.72194 v 22.9944 c 0,1.56039 -1.148264,2.72194 -2.51875,2.72194 h -7.8 c -1.37046,0 -2.51875,-1.161472 -2.51875,-2.72194 v -22.9944 c 0,-1.56039 1.148264,-2.72194 2.51875,-2.72194 z"
     fill="url(#o)"
     id="path2294"
     style="fill:url(#o);stroke-width:1.3" />
</svg>
