<?xml version="1.0" encoding="UTF-8" standalone="no"?>
<svg
   version="1.0"
   width="96"
   height="96"
   id="svg2408"
   sodipodi:docname="acetoneiso.svg"
   inkscape:version="1.2.2 (b0a8486541, 2022-12-01)"
   xmlns:inkscape="http://www.inkscape.org/namespaces/inkscape"
   xmlns:sodipodi="http://sodipodi.sourceforge.net/DTD/sodipodi-0.dtd"
   xmlns:xlink="http://www.w3.org/1999/xlink"
   xmlns="http://www.w3.org/2000/svg"
   xmlns:svg="http://www.w3.org/2000/svg"
   xmlns:rdf="http://www.w3.org/1999/02/22-rdf-syntax-ns#"
   xmlns:cc="http://creativecommons.org/ns#"
   xmlns:dc="http://purl.org/dc/elements/1.1/">
  <sodipodi:namedview
     id="namedview14924"
     pagecolor="#ffffff"
     bordercolor="#666666"
     borderopacity="1.0"
     inkscape:showpageshadow="2"
     inkscape:pageopacity="0.0"
     inkscape:pagecheckerboard="0"
     inkscape:deskcolor="#d1d1d1"
     showgrid="false"
     inkscape:zoom="3.4766083"
     inkscape:cx="93.625732"
     inkscape:cy="94.63246"
     inkscape:window-width="1862"
     inkscape:window-height="1009"
     inkscape:window-x="58"
     inkscape:window-y="34"
     inkscape:window-maximized="1"
     inkscape:current-layer="svg2408" />
  <defs
     id="defs2410">
    <linearGradient
       id="linearGradient4578">
      <stop
         id="stop4574"
         offset="0"
         style="stop-color:#b0ffe6;stop-opacity:1" />
      <stop
         id="stop4576"
         offset="1"
         style="stop-color:#fefefe;stop-opacity:0;" />
    </linearGradient>
    <linearGradient
       id="linearGradient3781">
      <stop
         id="stop3783"
         style="stop-color:#fefefe;stop-opacity:1"
         offset="0" />
      <stop
         id="stop3785"
         style="stop-color:#fefefe;stop-opacity:0"
         offset="1" />
    </linearGradient>
    <linearGradient
       id="linearGradient3754">
      <stop
         id="stop3756"
         style="stop-color:#393939;stop-opacity:1"
         offset="0" />
      <stop
         id="stop3762"
         style="stop-color:#282828;stop-opacity:1"
         offset="0.65625" />
      <stop
         id="stop3758"
         style="stop-color:#161616;stop-opacity:1"
         offset="1" />
    </linearGradient>
    <linearGradient
       id="linearGradient3673">
      <stop
         id="stop3675"
         style="stop-color:#fefefe;stop-opacity:1"
         offset="0" />
      <stop
         id="stop3716"
         style="stop-color:#f2f2f2;stop-opacity:1"
         offset="0.734375" />
      <stop
         id="stop3677"
         style="stop-color:#e5e5e5;stop-opacity:1"
         offset="1" />
    </linearGradient>
    <linearGradient
       x1="45.447727"
       y1="92.539597"
       x2="45.447727"
       y2="7.0165396"
       id="ButtonShadow"
       gradientUnits="userSpaceOnUse"
       gradientTransform="scale(1.0058652,0.994169)">
      <stop
         id="stop3750"
         style="stop-color:#000000;stop-opacity:1"
         offset="0" />
      <stop
         id="stop3752"
         style="stop-color:#000000;stop-opacity:0.58823532"
         offset="1" />
    </linearGradient>
    <linearGradient
       id="linearGradient3737">
      <stop
         id="stop3739"
         style="stop-color:#fefefe;stop-opacity:1"
         offset="0" />
      <stop
         id="stop3741"
         style="stop-color:#fefefe;stop-opacity:0"
         offset="1" />
    </linearGradient>
    <linearGradient
       id="linearGradient3700">
      <stop
         id="stop3702"
         style="stop-color:#580a50;stop-opacity:1"
         offset="0" />
      <stop
         id="stop3704"
         style="stop-color:#ee0dd6;stop-opacity:1"
         offset="1" />
    </linearGradient>
    <filter
       color-interpolation-filters="sRGB"
       id="filter3174"
       x="-0.047720931"
       y="-0.048282354"
       width="1.0954419"
       height="1.0965647">
      <feGaussianBlur
         id="feGaussianBlur3176"
         stdDeviation="1.71" />
    </filter>
    <linearGradient
       x1="36.357143"
       y1="6"
       x2="36.357143"
       y2="63.893143"
       id="linearGradient3188"
       xlink:href="#linearGradient3737"
       gradientUnits="userSpaceOnUse" />
    <filter
       x="-0.0038015345"
       y="-0.0038015345"
       width="1.0076031"
       height="1.0076031"
       color-interpolation-filters="sRGB"
       id="filter3794">
      <feGaussianBlur
         id="feGaussianBlur3796"
         stdDeviation="0.00037553264" />
    </filter>
    <linearGradient
       x1="48"
       y1="20.220806"
       x2="48"
       y2="138.66119"
       id="linearGradient3613"
       xlink:href="#linearGradient3737"
       gradientUnits="userSpaceOnUse" />
    <radialGradient
       cx="48"
       cy="90.171875"
       r="42"
       fx="48"
       fy="90.171875"
       id="radialGradient3619"
       xlink:href="#linearGradient3737"
       gradientUnits="userSpaceOnUse"
       gradientTransform="matrix(1.1573129,0,0,0.99590774,-7.5510206,0.19713193)" />
    <linearGradient
       x1="48"
       y1="90"
       x2="48"
       y2="5.9877172"
       id="linearGradient3617"
       xlink:href="#linearGradient3700"
       gradientUnits="userSpaceOnUse" />
    <linearGradient
       x1="45.447727"
       y1="92.539597"
       x2="45.447727"
       y2="7.0165396"
       id="ButtonShadow-0"
       gradientUnits="userSpaceOnUse"
       gradientTransform="matrix(1.0058652,0,0,0.994169,100,0)">
      <stop
         id="stop3750-8"
         style="stop-color:#000000;stop-opacity:1"
         offset="0" />
      <stop
         id="stop3752-5"
         style="stop-color:#000000;stop-opacity:0.58823532"
         offset="1" />
    </linearGradient>
    <linearGradient
       x1="32.251034"
       y1="6.1317081"
       x2="32.251034"
       y2="90.238609"
       id="linearGradient3780"
       xlink:href="#ButtonShadow-0"
       gradientUnits="userSpaceOnUse"
       gradientTransform="matrix(1.0238095,0,0,1.0119048,-1.1428571,-98.071429)" />
    <linearGradient
       x1="32.251034"
       y1="6.1317081"
       x2="32.251034"
       y2="90.238609"
       id="linearGradient3772"
       xlink:href="#ButtonShadow-0"
       gradientUnits="userSpaceOnUse"
       gradientTransform="matrix(1.0238095,0,0,1.0119048,-1.1428571,-98.071429)" />
    <linearGradient
       x1="32.251034"
       y1="6.1317081"
       x2="32.251034"
       y2="90.238609"
       id="linearGradient3725"
       xlink:href="#ButtonShadow-0"
       gradientUnits="userSpaceOnUse"
       gradientTransform="matrix(1.0238095,0,0,1.0119048,-1.1428571,-98.071429)" />
    <linearGradient
       x1="32.251034"
       y1="6.1317081"
       x2="32.251034"
       y2="90.238609"
       id="linearGradient3721"
       xlink:href="#ButtonShadow-0"
       gradientUnits="userSpaceOnUse"
       gradientTransform="translate(0,-97)" />
    <linearGradient
       x1="32.251034"
       y1="6.1317081"
       x2="32.251034"
       y2="90.238609"
       id="linearGradient3026"
       xlink:href="#ButtonShadow-0"
       gradientUnits="userSpaceOnUse"
       gradientTransform="matrix(1.0238095,0,0,1.0119048,-1.1428571,-98.071429)" />
    <radialGradient
       cx="32"
       cy="26"
       r="16"
       fx="32"
       fy="26"
       id="radialGradient3679"
       xlink:href="#linearGradient3673"
       gradientUnits="userSpaceOnUse"
       gradientTransform="matrix(1.1875,0,0,1.125,-6,-3.25)" />
    <radialGradient
       cx="32"
       cy="40"
       r="16"
       fx="32"
       fy="40"
       id="radialGradient3760"
       xlink:href="#linearGradient3754"
       gradientUnits="userSpaceOnUse"
       gradientTransform="matrix(1.1875,0,0,1.125,-6,-5)" />
    <linearGradient
       x1="61"
       y1="15"
       x2="67.29734"
       y2="38.501991"
       id="linearGradient3787"
       xlink:href="#linearGradient3781"
       gradientUnits="userSpaceOnUse" />
    <linearGradient
       x1="61"
       y1="15"
       x2="67.29734"
       y2="38.501991"
       id="linearGradient3791"
       xlink:href="#linearGradient3781"
       gradientUnits="userSpaceOnUse"
       gradientTransform="translate(-36,0)" />
    <radialGradient
       cx="32"
       cy="26"
       r="16"
       fx="32"
       fy="26"
       id="radialGradient3834"
       xlink:href="#linearGradient3673"
       gradientUnits="userSpaceOnUse"
       gradientTransform="matrix(1.1875,0,0,1.125,-6,-3.25)" />
    <linearGradient
       x1="61"
       y1="15"
       x2="67.29734"
       y2="38.501991"
       id="linearGradient3836"
       xlink:href="#linearGradient3781"
       gradientUnits="userSpaceOnUse"
       gradientTransform="translate(-36,36)" />
    <radialGradient
       cx="32"
       cy="40"
       r="16"
       fx="32"
       fy="40"
       id="radialGradient3838"
       xlink:href="#linearGradient3754"
       gradientUnits="userSpaceOnUse"
       gradientTransform="matrix(1.1875,0,0,1.125,-6,-5)" />
    <linearGradient
       x1="61"
       y1="15"
       x2="67.29734"
       y2="38.501991"
       id="linearGradient3840"
       xlink:href="#linearGradient3781"
       gradientUnits="userSpaceOnUse"
       gradientTransform="translate(0,36)" />
    <linearGradient
       gradientTransform="rotate(180,40.932317,48.644034)"
       gradientUnits="userSpaceOnUse"
       y2="48.644034"
       x2="45.932435"
       y1="48.644034"
       x1="35.9322"
       id="linearGradient4580"
       xlink:href="#linearGradient4578" />
    <radialGradient
       cx="41.247238"
       cy="11.364712"
       r="4.9179087"
       fx="41.771999"
       fy="11.680827"
       id="R3"
       xlink:href="#G1"
       gradientUnits="userSpaceOnUse"
       gradientTransform="matrix(0.3650513,-0.5609361,1.4421477,0.9385381,10.519018,23.382758)" />
    <linearGradient
       id="G1">
      <stop
         id="s1"
         style="stop-color:#59a40f;stop-opacity:1"
         offset="0" />
      <stop
         id="s2"
         style="stop-color:#306102;stop-opacity:1"
         offset="1" />
    </linearGradient>
    <radialGradient
       cx="29.495701"
       cy="-3.5973825"
       r="9.750001"
       fx="29.495701"
       fy="-3.5973825"
       id="R9"
       xlink:href="#G1"
       gradientUnits="userSpaceOnUse"
       gradientTransform="matrix(-0.7988298,0.07667792,-0.03200596,-0.3334379,53.946913,1.6114579)" />
    <radialGradient
       cx="33.921108"
       cy="32.026119"
       r="12.011442"
       fx="33.921108"
       fy="32.026119"
       id="R1"
       xlink:href="#G4"
       gradientUnits="userSpaceOnUse"
       gradientTransform="matrix(1.097181,-0.06040066,0.05995679,1.0724194,-4.7989161,-0.4395409)" />
    <linearGradient
       id="G4">
      <stop
         id="s7"
         style="stop-color:#d50f0f;stop-opacity:1"
         offset="0" />
      <stop
         id="s8"
         style="stop-color:#860000;stop-opacity:1"
         offset="1" />
    </linearGradient>
    <radialGradient
       cx="25.346392"
       cy="30.310101"
       r="12.011442"
       fx="22.505642"
       fy="25.064268"
       id="R2"
       xlink:href="#linearGradient3781"
       gradientUnits="userSpaceOnUse"
       gradientTransform="matrix(0.7893072,0.4930809,-0.2597058,0.4157284,13.249074,5.1887365)" />
    <linearGradient
       x1="42.550949"
       y1="46.025867"
       x2="22.733898"
       y2="23.322678"
       id="G6"
       xlink:href="#G4"
       gradientUnits="userSpaceOnUse" />
    <radialGradient
       cx="16.357241"
       cy="27.468206"
       r="11.05701"
       fx="16.357241"
       fy="27.468206"
       id="R8"
       xlink:href="#G4"
       gradientUnits="userSpaceOnUse"
       gradientTransform="matrix(1.0249592,0.00838735,-0.00872225,0.9898042,1.2754643,-3.4342756)" />
    <radialGradient
       cx="9.7957067"
       cy="24.748089"
       r="11.05701"
       fx="9.6232567"
       fy="19.022348"
       id="R7"
       xlink:href="#linearGradient3781"
       gradientUnits="userSpaceOnUse"
       gradientTransform="matrix(0.6056649,0.551086,-0.313263,0.3495356,13.582145,6.0888501)" />
    <linearGradient
       x1="25.127941"
       y1="38.802361"
       x2="7.2131085"
       y2="18.547888"
       id="G7"
       xlink:href="#G4"
       gradientUnits="userSpaceOnUse"
       gradientTransform="matrix(0.9456547,0.04095475,-0.04171466,0.949375,3.2709546,-2.808759)" />
    <radialGradient
       cx="23.261456"
       cy="33.479305"
       r="11.05701"
       fx="23.261456"
       fy="33.479305"
       id="R6"
       xlink:href="#G3"
       gradientUnits="userSpaceOnUse"
       gradientTransform="matrix(1.0945361,0.0051153,-0.0049669,0.9433728,-0.7720082,-1.480212)" />
    <linearGradient
       id="G3">
      <stop
         id="s5"
         style="stop-color:#000;stop-opacity:1"
         offset="0" />
      <stop
         id="s6"
         style="stop-color:#000;stop-opacity:0"
         offset="1" />
    </linearGradient>
    <radialGradient
       cx="15.115514"
       cy="63.965389"
       r="12.289036"
       fx="13.292242"
       fy="60.043758"
       id="R4"
       xlink:href="#G3"
       gradientUnits="userSpaceOnUse"
       gradientTransform="matrix(1.6388255,0.07097483,-0.04589359,1.0444823,33.739336,5.0367294)" />
    <radialGradient
       cx="15.115514"
       cy="63.965389"
       r="12.289036"
       fx="15.115514"
       fy="63.965389"
       id="R5"
       xlink:href="#G3"
       gradientUnits="userSpaceOnUse"
       gradientTransform="matrix(1.6082347,0.06965,-0.04589359,1.0444823,11.923525,-6.2437422)" />
    <filter
       id="filter4195"
       height="1.0000004"
       width="1.0000004"
       y="-2.1207151e-07"
       x="-2.120715e-07"
       style="color-interpolation-filters:sRGB">
      <feGaussianBlur
         stdDeviation="6.1453791e-06"
         id="feGaussianBlur4197" />
    </filter>
    <filter
       id="filter4035"
       height="1.0000029"
       width="1.0000032"
       y="-1.4562269e-06"
       x="-1.6240286e-06"
       style="color-interpolation-filters:sRGB">
      <feGaussianBlur
         stdDeviation="4.2207828e-05"
         id="feGaussianBlur4037" />
    </filter>
    <radialGradient
       gradientTransform="matrix(0,0.2906454,-0.2924332,0,67.016278,30.818504)"
       gradientUnits="userSpaceOnUse"
       xlink:href="#linearGradient3342"
       id="radialGradient4012"
       fy="61.92226"
       fx="59.893993"
       r="33.71384"
       cy="61.92226"
       cx="59.893993" />
    <linearGradient
       id="linearGradient3342">
      <stop
         offset="0"
         style="stop-color:#000000;stop-opacity:0"
         id="stop3344" />
      <stop
         offset="0.85000002"
         style="stop-color:#000000;stop-opacity:0"
         id="stop3350" />
      <stop
         offset="1"
         style="stop-color:#000000;stop-opacity:1"
         id="stop3346" />
    </linearGradient>
    <linearGradient
       gradientUnits="userSpaceOnUse"
       xlink:href="#linearGradient3330"
       id="linearGradient4014"
       y2="61.92226"
       x2="93.607834"
       y1="61.92226"
       x1="26.180153"
       gradientTransform="matrix(0,0.2906454,-0.34915584,0,70.528668,30.818504)" />
    <linearGradient
       id="linearGradient3330">
      <stop
         offset="0"
         style="stop-color:#fefefe;stop-opacity:0.203125"
         id="stop3332" />
      <stop
         offset="1"
         style="stop-color:#fefefe;stop-opacity:0.6796875"
         id="stop3334" />
    </linearGradient>
    <linearGradient
       gradientUnits="userSpaceOnUse"
       xlink:href="#linearGradient3362"
       id="linearGradient4004"
       y2="61.92226"
       x2="94.567612"
       y1="61.92226"
       x1="25.220379"
       gradientTransform="matrix(0,0.16827027,-0.20214285,0,61.425295,38.147932)" />
    <linearGradient
       id="linearGradient3362">
      <stop
         offset="0"
         style="stop-color:#4d4d4d;stop-opacity:1"
         id="stop3364" />
      <stop
         offset="1"
         style="stop-color:#fefefe;stop-opacity:1"
         id="stop3366" />
    </linearGradient>
    <radialGradient
       inkscape:collect="always"
       xlink:href="#linearGradient3737"
       id="radialGradient15627"
       cx="48"
       cy="48"
       fx="48"
       fy="48"
       r="45.922001"
       gradientUnits="userSpaceOnUse"
       gradientTransform="matrix(1.1926518,0,0,1.1926518,-177.24729,-9.2472887)" />
  </defs>
  <metadata
     id="metadata2413">
    <rdf:RDF>
      <cc:Work
         rdf:about="">
        <dc:format>image/svg+xml</dc:format>
        <dc:type
           rdf:resource="http://purl.org/dc/dcmitype/StillImage" />
        <dc:title />
      </cc:Work>
    </rdf:RDF>
  </metadata>
  <g
     id="layer2"
     style="display:none">
    <rect
       width="86"
       height="85"
       rx="6"
       ry="6"
       x="5"
       y="7"
       id="rect3745"
       style="opacity:0.9;fill:url(#ButtonShadow);fill-opacity:1;fill-rule:nonzero;stroke:none;filter:url(#filter3174)" />
  </g>
  <g
     id="layer3">
    <path
       d="m 12,-95.03125 c -5.5110903,0 -10.03125,4.52016 -10.03125,10.03125 l 0,71 c 0,5.5110902 4.5201598,10.03125 10.03125,10.03125 l 72,0 c 5.51109,0 10.03125,-4.5201597 10.03125,-10.03125 l 0,-71 c 0,-5.51109 -4.52016,-10.03125 -10.03125,-10.03125 l -72,0 z"
       transform="scale(1,-1)"
       id="path3786"
       style="opacity:0.07999998;fill:url(#linearGradient3026);fill-opacity:1;fill-rule:nonzero;stroke:none;display:inline" />
    <path
       d="m 12,-94.03125 c -4.971633,0 -9.03125,4.059617 -9.03125,9.03125 l 0,71 c 0,4.9716329 4.0596171,9.03125 9.03125,9.03125 l 72,0 c 4.971633,0 9.03125,-4.059617 9.03125,-9.03125 l 0,-71 c 0,-4.971633 -4.059617,-9.03125 -9.03125,-9.03125 l -72,0 z"
       transform="scale(1,-1)"
       id="path3778"
       style="opacity:0.1;fill:url(#linearGradient3780);fill-opacity:1;fill-rule:nonzero;stroke:none;display:inline" />
    <path
       d="m 12,-93 c -4.4091333,0 -8,3.590867 -8,8 l 0,71 c 0,4.4091333 3.5908667,8 8,8 l 72,0 c 4.409133,0 8,-3.5908667 8,-8 l 0,-71 c 0,-4.409133 -3.590867,-8 -8,-8 l -72,0 z"
       transform="scale(1,-1)"
       id="path3770"
       style="opacity:0.2;fill:url(#linearGradient3772);fill-opacity:1;fill-rule:nonzero;stroke:none;display:inline" />
    <rect
       width="86"
       height="85"
       rx="7"
       ry="7"
       x="5"
       y="-92"
       transform="scale(1,-1)"
       id="rect3723"
       style="opacity:0.3;fill:url(#linearGradient3725);fill-opacity:1;fill-rule:nonzero;stroke:none;display:inline" />
    <rect
       width="84"
       height="84"
       rx="6"
       ry="6"
       x="6"
       y="-91"
       transform="scale(1,-1)"
       id="rect3716"
       style="opacity:0.45;fill:url(#linearGradient3721);fill-opacity:1;fill-rule:nonzero;stroke:none;display:inline" />
  </g>
  <g
     id="layer1">
    <rect
       width="84"
       height="84"
       rx="6"
       ry="6"
       x="6"
       y="6"
       id="rect2419"
       style="fill:url(#linearGradient3617);fill-opacity:1;fill-rule:nonzero;stroke:none" />
    <path
       d="M 12,6 C 8.676,6 6,8.676 6,12 l 0,2 0,68 0,2 c 0,0.334721 0.04135,0.6507 0.09375,0.96875 0.0487,0.295596 0.09704,0.596915 0.1875,0.875 0.00988,0.03038 0.020892,0.0636 0.03125,0.09375 0.098865,0.287771 0.2348802,0.547452 0.375,0.8125 0.1445918,0.273507 0.3156161,0.535615 0.5,0.78125 0.1843839,0.245635 0.3737765,0.473472 0.59375,0.6875 0.439947,0.428056 0.94291,0.814526 1.5,1.09375 0.278545,0.139612 0.5734731,0.246947 0.875,0.34375 -0.2562018,-0.100222 -0.4867109,-0.236272 -0.71875,-0.375 -0.00741,-0.0044 -0.023866,0.0045 -0.03125,0 -0.031933,-0.0193 -0.062293,-0.04251 -0.09375,-0.0625 -0.120395,-0.0767 -0.2310226,-0.163513 -0.34375,-0.25 -0.1061728,-0.0808 -0.2132809,-0.161112 -0.3125,-0.25 C 8.4783201,88.557317 8.3087904,88.373362 8.15625,88.1875 8.0486711,88.057245 7.9378561,87.922215 7.84375,87.78125 7.818661,87.74287 7.805304,87.69538 7.78125,87.65625 7.716487,87.553218 7.6510225,87.451733 7.59375,87.34375 7.4927417,87.149044 7.3880752,86.928049 7.3125,86.71875 7.30454,86.69694 7.288911,86.6782 7.28125,86.65625 7.2494249,86.5643 7.2454455,86.469419 7.21875,86.375 7.1884177,86.268382 7.1483606,86.171969 7.125,86.0625 7.0521214,85.720988 7,85.364295 7,85 L 7,83 7,15 7,13 C 7,10.218152 9.2181517,8 12,8 l 2,0 68,0 2,0 c 2.781848,0 5,2.218152 5,5 l 0,2 0,68 0,2 c 0,0.364295 -0.05212,0.720988 -0.125,1.0625 -0.04415,0.206893 -0.08838,0.397658 -0.15625,0.59375 -0.0077,0.02195 -0.0233,0.04069 -0.03125,0.0625 -0.06274,0.173739 -0.138383,0.367449 -0.21875,0.53125 -0.04158,0.0828 -0.07904,0.169954 -0.125,0.25 -0.0546,0.09721 -0.126774,0.18835 -0.1875,0.28125 -0.09411,0.140965 -0.204921,0.275995 -0.3125,0.40625 -0.143174,0.17445 -0.303141,0.346998 -0.46875,0.5 -0.01117,0.0102 -0.01998,0.02115 -0.03125,0.03125 -0.138386,0.125556 -0.285091,0.234436 -0.4375,0.34375 -0.102571,0.07315 -0.204318,0.153364 -0.3125,0.21875 -0.0074,0.0045 -0.02384,-0.0044 -0.03125,0 -0.232039,0.138728 -0.462548,0.274778 -0.71875,0.375 0.301527,-0.0968 0.596455,-0.204138 0.875,-0.34375 0.55709,-0.279224 1.060053,-0.665694 1.5,-1.09375 0.219973,-0.214028 0.409366,-0.441865 0.59375,-0.6875 0.184384,-0.245635 0.355408,-0.507743 0.5,-0.78125 0.14012,-0.265048 0.276135,-0.524729 0.375,-0.8125 0.01041,-0.03078 0.02133,-0.06274 0.03125,-0.09375 0.09046,-0.278085 0.1388,-0.579404 0.1875,-0.875 C 89.95865,84.6507 90,84.334721 90,84 l 0,-2 0,-68 0,-2 C 90,8.676 87.324,6 84,6 L 12,6 z"
       id="rect3728"
       style="opacity:0.4;fill:url(#linearGradient3188);fill-opacity:1;fill-rule:nonzero;stroke:none" />
    <path
       d="M 12,90 C 8.676,90 6,87.324 6,84 L 6,82 6,14 6,12 c 0,-0.334721 0.04135,-0.6507 0.09375,-0.96875 0.0487,-0.295596 0.09704,-0.596915 0.1875,-0.875 C 6.29113,10.12587 6.302142,10.09265 6.3125,10.0625 6.411365,9.774729 6.5473802,9.515048 6.6875,9.25 6.8320918,8.976493 7.0031161,8.714385 7.1875,8.46875 7.3718839,8.223115 7.5612765,7.995278 7.78125,7.78125 8.221197,7.353194 8.72416,6.966724 9.28125,6.6875 9.559795,6.547888 9.8547231,6.440553 10.15625,6.34375 9.9000482,6.443972 9.6695391,6.580022 9.4375,6.71875 c -0.00741,0.0044 -0.023866,-0.0045 -0.03125,0 -0.031933,0.0193 -0.062293,0.04251 -0.09375,0.0625 -0.120395,0.0767 -0.2310226,0.163513 -0.34375,0.25 -0.1061728,0.0808 -0.2132809,0.161112 -0.3125,0.25 C 8.4783201,7.442683 8.3087904,7.626638 8.15625,7.8125 8.0486711,7.942755 7.9378561,8.077785 7.84375,8.21875 7.818661,8.25713 7.805304,8.30462 7.78125,8.34375 7.716487,8.446782 7.6510225,8.548267 7.59375,8.65625 7.4927417,8.850956 7.3880752,9.071951 7.3125,9.28125 7.30454,9.30306 7.288911,9.3218 7.28125,9.34375 7.2494249,9.4357 7.2454455,9.530581 7.21875,9.625 7.1884177,9.731618 7.1483606,9.828031 7.125,9.9375 7.0521214,10.279012 7,10.635705 7,11 l 0,2 0,68 0,2 c 0,2.781848 2.2181517,5 5,5 l 2,0 68,0 2,0 c 2.781848,0 5,-2.218152 5,-5 l 0,-2 0,-68 0,-2 C 89,10.635705 88.94788,10.279012 88.875,9.9375 88.83085,9.730607 88.78662,9.539842 88.71875,9.34375 88.71105,9.3218 88.69545,9.30306 88.6875,9.28125 88.62476,9.107511 88.549117,8.913801 88.46875,8.75 88.42717,8.6672 88.38971,8.580046 88.34375,8.5 88.28915,8.40279 88.216976,8.31165 88.15625,8.21875 88.06214,8.077785 87.951329,7.942755 87.84375,7.8125 87.700576,7.63805 87.540609,7.465502 87.375,7.3125 87.36383,7.3023 87.35502,7.29135 87.34375,7.28125 87.205364,7.155694 87.058659,7.046814 86.90625,6.9375 86.803679,6.86435 86.701932,6.784136 86.59375,6.71875 c -0.0074,-0.0045 -0.02384,0.0044 -0.03125,0 -0.232039,-0.138728 -0.462548,-0.274778 -0.71875,-0.375 0.301527,0.0968 0.596455,0.204138 0.875,0.34375 0.55709,0.279224 1.060053,0.665694 1.5,1.09375 0.219973,0.214028 0.409366,0.441865 0.59375,0.6875 0.184384,0.245635 0.355408,0.507743 0.5,0.78125 0.14012,0.265048 0.276135,0.524729 0.375,0.8125 0.01041,0.03078 0.02133,0.06274 0.03125,0.09375 0.09046,0.278085 0.1388,0.579404 0.1875,0.875 C 89.95865,11.3493 90,11.665279 90,12 l 0,2 0,68 0,2 c 0,3.324 -2.676,6 -6,6 l -72,0 z"
       id="path3615"
       style="opacity:0.2;fill:url(#radialGradient3619);fill-opacity:1;fill-rule:nonzero;stroke:none" />
  </g>
  <g
     transform="translate(168)"
     id="layer5">
    <rect
       width="78.715019"
       height="78.715019"
       rx="14.311822"
       ry="14.311822"
       x="-159.35751"
       y="8.6424894"
       clip-path="none"
       id="rect3171"
       style="opacity:0.1;fill:url(#radialGradient15627);fill-opacity:1;fill-rule:nonzero;stroke:none;stroke-width:0.596326;stroke-linecap:round;stroke-linejoin:miter;stroke-miterlimit:4;stroke-dasharray:none;stroke-dashoffset:0;stroke-opacity:1" />
    <rect
       width="84"
       height="84"
       rx="6"
       ry="6"
       x="-162"
       y="6"
       id="rect3615"
       style="display:none;fill:#fefefe;fill-opacity:1;fill-rule:nonzero;stroke:none" />
  </g>
  <path
     style="display:inline;fill:#bbb1bf;fill-opacity:1;stroke:none"
     id="path3978"
     d="m 48.908152,12.226311 c -19.882251,0 -36,16.117749 -36,36.000004 0,19.88225 16.117749,36 36,36 19.882246,0 35.999996,-16.11775 35.999996,-36 0,-19.882255 -16.11775,-36.000004 -35.999996,-36.000004 z m 0,24 c 6.627417,0 12,5.372583 12,12.000004 0,6.62741 -5.372583,12 -12,12 -6.627417,0 -12,-5.37259 -12,-12 0,-6.627421 5.372583,-12.000004 12,-12.000004 z" />
  <path
     style="display:inline;opacity:0.3;fill:#fefefe;fill-opacity:1;stroke:none"
     id="path3992"
     d="m 48.908152,36.226311 c -6.627417,0 -12,5.372583 -12,12.000004 0,6.62741 5.372583,12 12,12 6.627417,0 12,-5.37259 12,-12 0,-6.627421 -5.372583,-12.000004 -12,-12.000004 z m 0,7 c 2.761424,0 5,2.238576 5,5.000004 0,2.76142 -2.238576,5 -5,5 -2.761424,0 -5,-2.23858 -5,-5 0,-2.761428 2.238576,-5.000004 5,-5.000004 z" />
  <path
     style="display:inline;opacity:0.6;fill:none;stroke:url(#linearGradient4004);stroke-width:1.00000012;stroke-linecap:round;stroke-linejoin:miter;stroke-miterlimit:4;stroke-dasharray:none;stroke-dashoffset:0;stroke-opacity:1"
     id="path4002"
     d="m 48.908153,53.726315 a 5.5000023,5.5000025 0 1 1 0,-11.000005 5.5000023,5.5000025 0 1 1 0,11.000005 z" />
  <path
     style="display:inline;opacity:0.5;fill:url(#radialGradient4012);fill-opacity:1;fill-rule:evenodd;stroke:url(#linearGradient4014);stroke-width:1;stroke-linecap:round;stroke-linejoin:miter;stroke-miterlimit:4;stroke-dasharray:none;stroke-dashoffset:0;stroke-opacity:1"
     id="path4010"
     d="m 48.908152,57.726315 a 9.5000015,9.4998955 0 1 1 0,-18.999791 9.5000015,9.4998955 0 1 1 0,18.999791 z" />
  <path
     id="path4018"
     clip-path="none"
     style="display:inline;opacity:0.30837498;fill:#fefefe;fill-opacity:1;stroke:none"
     d="M 57.310598 33.222908 L 51.101614 56.420173 C 54.206975 57.250353 56.811951 59.287052 58.384817 62.006111 L 79.175833 50.006111 C 79.09725 49.870257 79.021757 49.732632 78.941458 49.597908 C 78.821642 49.39654 78.699727 49.19693 78.576223 48.998298 C 78.380485 48.684003 78.179721 48.372426 77.974661 48.064705 C 77.88004 47.922519 77.78408 47.781543 77.687551 47.640877 C 77.435597 47.274175 77.17913 46.911666 76.914114 46.554939 C 76.852887 46.472447 76.790464 46.390764 76.728567 46.308845 C 76.444961 45.933821 76.155222 45.562838 75.857473 45.19947 C 75.78477 45.11071 75.710282 45.023815 75.63677 44.935798 C 75.3325 44.571593 75.023316 44.213364 74.705129 43.86158 C 74.644526 43.794587 74.582622 43.728876 74.521536 43.662361 C 74.197666 43.309633 73.866891 42.960899 73.529348 42.621345 C 73.45076 42.542349 73.370363 42.465213 73.291067 42.38697 C 72.957722 42.05777 72.619418 41.734299 72.273489 41.41822 C 72.191316 41.343231 72.108292 41.269778 72.025442 41.195564 C 71.683927 40.889241 71.337524 40.588444 70.984426 40.295173 C 70.872531 40.202393 70.757582 40.11315 70.644583 40.021736 C 70.320727 39.759287 69.995166 39.499588 69.662161 39.248298 C 69.494947 39.122356 69.323741 39.002179 69.154348 38.879158 C 68.864293 38.668086 68.573908 38.456685 68.277395 38.254158 C 68.049914 38.099107 67.81704 37.950888 67.585989 37.801033 C 67.349248 37.64717 67.113639 37.492405 66.873098 37.344002 C 66.564505 37.153994 66.251986 36.972028 65.937551 36.791267 C 65.752262 36.68454 65.568261 36.576411 65.380911 36.472908 C 65.008609 36.26761 64.629904 36.071408 64.250051 35.879158 C 64.12544 35.815989 64.002444 35.749508 63.877004 35.687752 C 63.44162 35.473723 63.001281 35.271123 62.556692 35.07447 C 62.468151 35.035266 62.381935 34.991886 62.29302 34.953377 C 61.817913 34.747791 61.336477 34.554779 60.851614 34.369392 C 60.790118 34.345877 60.729678 34.320313 60.66802 34.297127 C 60.242316 34.137029 59.809718 33.990197 59.377004 33.845955 C 59.224408 33.795144 59.073471 33.740473 58.919973 33.691658 C 58.529989 33.567443 58.135494 33.455167 57.740286 33.344002 C 57.59702 33.303811 57.454581 33.261364 57.310598 33.222908 z M 37.615286 73.994392 L 16.82427 85.994392 C 16.902853 86.130246 16.978345 86.267871 17.058645 86.402595 C 17.176691 86.600989 17.298347 86.796701 17.419973 86.992439 C 17.623841 87.31999 17.830986 87.644684 18.044973 87.965095 C 18.124886 88.084925 18.20589 88.203768 18.287161 88.322517 C 18.545085 88.698881 18.808463 89.071869 19.080129 89.437752 C 19.148301 89.529649 19.218158 89.620002 19.287161 89.711189 C 19.565376 90.078551 19.848879 90.440965 20.140676 90.797127 C 20.216016 90.889121 20.292983 90.979368 20.369192 91.070564 C 20.66591 91.42554 20.967448 91.776219 21.277395 92.119392 C 21.351786 92.201742 21.428837 92.281904 21.503958 92.363533 C 21.826572 92.714192 22.154144 93.061083 22.490286 93.398689 C 22.552412 93.461041 22.617171 93.520401 22.679739 93.582283 C 23.0157 93.914829 23.356346 94.243554 23.705129 94.562752 C 23.807987 94.656765 23.91371 94.7473 24.017629 94.840095 C 24.345829 95.133569 24.676816 95.423884 25.015676 95.70533 C 25.127572 95.79811 25.242521 95.887353 25.35552 95.978767 C 25.679376 96.241216 26.004936 96.500915 26.337942 96.752205 C 26.512958 96.884023 26.69179 97.010305 26.869192 97.138923 C 27.144629 97.339011 27.419972 97.538329 27.701223 97.73072 C 27.937079 97.891734 28.178321 98.046 28.41802 98.201423 C 28.663038 98.36061 28.907217 98.520742 29.156301 98.67408 C 29.431004 98.842861 29.709003 99.004801 29.988333 99.166267 C 30.199998 99.288855 30.410687 99.413129 30.625051 99.531502 C 30.966581 99.719744 31.314268 99.89915 31.662161 100.07642 C 31.827348 100.16073 31.991605 100.24656 32.158254 100.32838 C 32.530863 100.51105 32.907803 100.68379 33.287161 100.85377 C 33.441757 100.92311 33.594308 100.99554 33.750051 101.06275 C 34.153944 101.23691 34.563708 101.39925 34.974661 101.55885 C 35.108507 101.61083 35.240435 101.66662 35.375051 101.71705 C 35.810768 101.88029 36.252331 102.03135 36.695364 102.17799 C 36.811491 102.21638 36.926373 102.25793 37.04302 102.29517 C 37.460515 102.42865 37.883207 102.54972 38.306692 102.66822 C 38.434529 102.7039 38.561098 102.7433 38.689504 102.7776 L 44.898489 79.58033 C 41.793526 78.750257 39.188216 76.712929 37.615286 73.994392 z "
     transform="translate(0.90815178,-19.773689)" />
  <g
     style="display:inline;opacity:0.13585123"
     id="g4175"
     clip-path="none"
     transform="translate(0.90815178,-89.773689)">
    <path
       id="path4039"
       style="fill:#7137c8;fill-opacity:1;stroke:none"
       d="M 49.43664 50.84951 C 49.185204 51.194568 48.894312 51.518445 48.565826 51.81664 L 58.332523 60.689896 A 20.708128 18.814091 0 0 0 59.250112 59.798415 C 59.264402 59.783629 59.279281 59.769254 59.293514 59.754433 A 20.708128 18.814091 0 0 0 60.945788 57.785717 C 60.946251 57.785082 60.94671 57.784447 60.947173 57.783812 L 49.43664 50.84951 z "
       transform="matrix(1.5055399,0.86922388,-0.95672979,1.6571045,27.560302,21.500167)" />
    <path
       id="path4041"
       style="fill:#00ccff;fill-opacity:1;stroke:none"
       d="M 49.38177 50.925105 C 49.061796 51.350452 48.683166 51.738326 48.254247 52.083023 L 57.39528 61.489221 C 57.396536 61.488213 57.397785 61.487201 57.39904 61.486193 A 20.708128 18.814091 0 0 0 58.256749 60.754306 C 58.301533 60.713947 58.346409 60.673624 58.390763 60.632915 A 20.708128 18.814091 0 0 0 59.121425 59.927729 C 59.158676 59.889821 59.197998 59.853735 59.234899 59.815566 A 20.708128 18.814091 0 0 0 60.001205 58.974895 C 60.038169 58.931879 60.07261 58.887295 60.109154 58.843999 A 20.708128 18.814091 0 0 0 60.693095 58.118524 C 60.7208 58.08225 60.747306 58.045275 60.774729 58.008829 L 49.38177 50.925105 z "
       transform="matrix(1.6792116,0.4499434,-0.49523981,1.8482599,-1.8956092,30.759984)" />
    <path
       id="path4043"
       style="fill:#ffcc00;fill-opacity:1;stroke:none"
       d="M 50.033466 49.856704 C 49.830821 50.285646 49.573076 50.686869 49.275112 51.060144 L 60.460557 58.415522 C 60.496952 58.36992 60.532459 58.323633 60.568412 58.277724 A 20.708128 18.814091 0 0 0 61.049265 57.638747 C 61.08936 57.582823 61.128899 57.52666 61.168355 57.470327 A 20.708128 18.814091 0 0 0 61.662689 56.727235 C 61.685224 56.691521 61.707815 56.65592 61.730099 56.620059 A 20.708128 18.814091 0 0 0 62.242409 55.742231 A 20.708128 18.814091 0 0 0 62.723262 54.796015 L 50.033466 49.856704 z "
       transform="matrix(1.7384478,0,-6.0266211e-8,1.9134595,-27.951218,47.328031)" />
    <path
       id="path4045"
       style="fill:#ff0000;fill-opacity:1;stroke:none"
       d="M 49.66123 50.519563 C 49.491942 50.786213 49.307236 51.04147 49.099939 51.279034 L 59.923219 59.066521 A 20.708128 18.814091 0 0 0 61.62308 56.793055 L 49.66123 50.519563 z "
       transform="matrix(1.6792116,-0.4499434,0.4952397,1.84826,-48.830877,70.075223)" />
    <path
       id="path4144"
       style="fill:#00ff00;fill-opacity:1;stroke:none"
       d="M 50.162715 49.550388 C 49.963524 50.040849 49.698548 50.506588 49.373535 50.93662 L 60.748648 58.042653 C 60.789844 57.988156 60.830684 57.933481 60.871244 57.878602 A 20.708128 18.814091 0 0 0 61.317156 57.249077 C 61.389056 57.142954 61.461594 57.037008 61.531168 56.929623 A 20.708128 18.814091 0 0 0 62.037757 56.103568 C 62.051752 56.07927 62.067785 56.055943 62.081664 56.031589 A 20.708128 18.814091 0 0 0 62.087728 56.020602 A 20.708128 18.814091 0 0 0 62.597385 55.05114 C 62.636885 54.970839 62.673716 54.889542 62.71199 54.808723 A 20.708128 18.814091 0 0 0 63.067288 54.009988 C 63.084918 53.967522 63.101858 53.924767 63.119154 53.882177 L 50.162715 49.550388 z "
       transform="matrix(1.6792116,0.4499434,-0.49523981,1.8482599,-1.8956092,30.759984)" />
    <path
       id="path4155"
       style="fill:#7137c8;fill-opacity:1;stroke:none"
       d="M 58.332322 60.689702 A 20.708128 18.814091 0 0 0 59.26267 59.785635 A 20.708128 18.814091 0 0 0 59.283474 59.765294 A 20.708128 18.814091 0 0 0 60.942408 57.790727 A 20.708128 18.814091 0 0 0 60.947534 57.784502 L 49.436439 50.849316 C 49.18501 51.194358 48.894097 51.518263 48.565625 51.816446 L 58.332322 60.689702 z "
       transform="matrix(-1.5055399,-0.86922388,0.95672979,-1.6571045,68.439684,254.49984)" />
    <path
       id="path4157"
       style="fill:#00ccff;fill-opacity:1;stroke:none"
       d="M 57.395433 61.489976 A 20.708128 18.814091 0 0 0 57.409385 61.478126 A 20.708128 18.814091 0 0 0 58.267094 60.746239 C 58.304256 60.712705 58.341184 60.679032 58.37805 60.645256 A 20.708128 18.814091 0 0 0 59.150198 59.899326 C 59.174682 59.874309 59.200528 59.850273 59.224859 59.825143 A 20.708128 18.814091 0 0 0 60.001068 58.974664 C 60.039366 58.930095 60.075722 58.884359 60.11357 58.839489 A 20.708128 18.814091 0 0 0 60.682842 58.131323 C 60.714223 58.090311 60.744367 58.04858 60.775385 58.007348 L 49.381632 50.924874 C 49.061538 51.3504 48.683526 51.738969 48.2544 52.083778 L 57.395433 61.489976 z "
       transform="matrix(-1.6792116,-0.4499434,0.49523981,-1.8482599,97.895595,245.24003)" />
    <path
       id="path4159"
       style="fill:#ffcc00;fill-opacity:1;stroke:none"
       d="M 60.461611 58.415265 C 60.495659 58.372599 60.529063 58.329589 60.562725 58.286653 A 20.708128 18.814091 0 0 0 61.045825 57.643594 C 61.088846 57.583626 61.131617 57.523363 61.173903 57.462924 A 20.708128 18.814091 0 0 0 61.661496 56.727999 C 61.68445 56.691627 61.707336 56.655305 61.730029 56.618781 A 20.708128 18.814091 0 0 0 62.231105 55.761368 A 20.708128 18.814091 0 0 0 62.24571 55.73585 A 20.708128 18.814091 0 0 0 62.724316 54.795758 L 50.03452 49.856446 C 49.831778 50.285857 49.573298 50.686248 49.275043 51.059887 L 60.461611 58.415265 z "
       transform="matrix(-1.7384478,0,6.0266211e-8,-1.9134595,123.9512,228.67198)" />
    <path
       id="path4161"
       style="fill:#ff0000;fill-opacity:1;stroke:none"
       d="M 59.923225 59.066258 A 20.708128 18.814091 0 0 0 61.622795 56.793778 L 49.661236 50.519299 C 49.49212 50.785679 49.306996 51.041416 49.099945 51.278771 L 59.923225 59.066258 z "
       transform="matrix(-1.6792116,0.4499434,-0.4952397,-1.84826,144.83086,205.92479)" />
    <path
       id="path4163"
       style="fill:#00ff00;fill-opacity:1;stroke:none"
       d="M 60.74851 58.042422 C 60.789706 57.987925 60.830546 57.93325 60.871106 57.878371 A 20.708128 18.814091 0 0 0 61.324459 57.238581 C 61.390925 57.140332 61.457817 57.042474 61.522292 56.943144 A 20.708128 18.814091 0 0 0 62.04289 56.0936 A 20.708128 18.814091 0 0 0 62.086505 56.020635 A 20.708128 18.814091 0 0 0 62.603312 55.039922 C 62.638265 54.968735 62.671081 54.896531 62.705071 54.824937 A 20.708128 18.814091 0 0 0 63.070541 54.001534 C 63.087029 53.961762 63.102821 53.921828 63.119017 53.881946 L 50.162577 49.550156 C 49.963315 50.040795 49.69886 50.507214 49.373688 50.937375 L 60.74851 58.042422 z "
       transform="matrix(-1.6792116,-0.4499434,0.49523981,-1.8482599,97.895595,245.24003)" />
    <path
       style="display:none;fill:#bbb1bf;fill-opacity:1;stroke:none"
       id="path15483"
       d="m 48.908152,12.226311 c -19.88225,0 -36,16.11775 -36,36 0,19.88225 16.11775,36 36,36 19.88225,0 36,-16.11775 36,-36 0,-19.88225 -16.11775,-36 -36,-36 z m 0,24 c 6.62742,0 12,5.37258 12,12 0,6.62742 -5.37258,12 -12,12 -6.62742,0 -12,-5.37258 -12,-12 0,-6.62742 5.37258,-12 12,-12 z"
       transform="translate(-0.90815178,89.773689)"
       inkscape:label="retallar" />
  </g>
  <use
     x="0"
     y="0"
     xlink:href="#g4175"
     id="use15486"
     transform="rotate(5.3970062,48.9082,48.226563)" />
  <use
     x="0"
     y="0"
     xlink:href="#g4175"
     id="use15495"
     transform="rotate(2.5432799,48.908088,48.226569)" />
  <use
     x="0"
     y="0"
     xlink:href="#g4175"
     id="use15489"
     transform="rotate(9.2338148,48.908194,48.22657)" />
  <use
     x="0"
     y="0"
     xlink:href="#g4175"
     id="use15492"
     transform="rotate(16.231807,48.908289,48.22659)" />
  <path
     style="display:inline;opacity:0.2;fill:#000000;fill-opacity:1;stroke:none"
     id="path3986"
     d="m 48.908152,33.726311 c -8.008129,0 -14.5,6.491871 -14.5,14.500004 0,8.00813 6.491871,14.5 14.5,14.5 8.008129,0 14.5,-6.49187 14.5,-14.5 0,-8.008133 -6.491871,-14.500004 -14.5,-14.500004 z m 0,2.5 c 6.627417,0 12,5.372583 12,12.000004 0,6.62741 -5.372583,12 -12,12 -6.627417,0 -12,-5.37259 -12,-12 0,-6.627421 5.372583,-12.000004 12,-12.000004 z" />
  <path
     style="display:inline;opacity:0.4;fill:#fefefe;fill-opacity:1;stroke:none"
     id="path4199"
     d="m 48.908152,12.226311 c -19.88225,0 -36,16.117749 -36,36.000004 0,0.33707 0.022,0.66515 0.0312,1 0.53379,-19.416219 16.42362,-35.000004 35.9688,-35.000004 19.545186,0 35.435006,15.583785 35.968746,35.000004 0.009,-0.33485 0.0312,-0.66293 0.0312,-1 0,-19.882255 -16.11775,-36.000004 -35.999996,-36.000004 z" />
</svg>
